0
SECTION
2
HEADER
9
$INSUNITS
70
4
9
$ACADVER
1
AC1014
9
$HANDSEED
5
FFFF
0
ENDSEC
0
SECTION
2
TABLES
0
TABLE
2
VPORT
5
8
100
AcDbSymbolTable
0
ENDTAB
0
TABLE
2
LTYPE
5
5
100
AcDbSymbolTable
0
LTYPE
5
14
100
AcDbSymbolTableRecord
100
AcDbLinetypeTableRecord
2
BYBLOCK
70
0
0
LTYPE
5
15
100
AcDbSymbolTableRecord
100
AcDbLinetypeTableRecord
2
BYLAYER
70
0
0
ENDTAB
0
TABLE
2
LAYER
5
2
100
AcDbSymbolTable
70
2
0
LAYER
5
50
100
AcDbSymbolTableRecord
100
AcDbLayerTableRecord
2
0
70
0
6
CONTINUOUS
0
ENDTAB
0
TABLE
2
STYLE
5
3
100
AcDbSymbolTable
70
1
0
STYLE
5
11
100
AcDbSymbolTableRecord
100
AcDbTextStyleTableRecord
2
STANDARD
70
0
0
ENDTAB
0
TABLE
2
VIEW
5
6
100
AcDbSymbolTable
70
0
0
ENDTAB
0
TABLE
2
UCS
5
7
100
AcDbSymbolTable
70
0
0
ENDTAB
0
TABLE
2
APPID
5
9
100
AcDbSymbolTable
70
2
0
APPID
5
12
100
AcDbSymbolTableRecord
100
AcDbRegAppTableRecord
2
ACAD
70
0
0
ENDTAB
0
TABLE
2
DIMSTYLE
5
A
100
AcDbSymbolTable
70
1
0
ENDTAB
0
TABLE
2
BLOCK_RECORD
5
1
100
AcDbSymbolTable
70
1
0
BLOCK_RECORD
5
1F
100
AcDbSymbolTableRecord
100
AcDbBlockTableRecord
2
*MODEL_SPACE
0
BLOCK_RECORD
5
1B
100
AcDbSymbolTableRecord
100
AcDbBlockTableRecord
2
*PAPER_SPACE
0
ENDTAB
0
ENDSEC
0
SECTION
2
BLOCKS
0
BLOCK
5
20
100
AcDbEntity
100
AcDbBlockBegin
2
*MODEL_SPACE
0
ENDBLK
5
21
100
AcDbEntity
100
AcDbBlockEnd
0
BLOCK
5
1C
100
AcDbEntity
100
AcDbBlockBegin
2
*PAPER_SPACE
0
ENDBLK
5
1D
100
AcDbEntity
100
AcDbBlockEnd
0
ENDSEC
0
SECTION
2
ENTITIES
0
CIRCLE
5
100
100
AcDbEntity
8
0
100
AcDbCircle
10
-419.10361043327259
20
138.08500220537178
30
0
40
1.7000000000000171
210
-1.662673470854148e-46
220
2.4651903288156619e-32
230
1
0
CIRCLE
5
101
100
AcDbEntity
8
0
100
AcDbCircle
10
-55.603622543815803
20
138.28500220537208
30
0
40
2.7000000000000313
210
-3.4142965512601682e-46
220
2.4651903288156619e-32
230
1
0
CIRCLE
5
102
100
AcDbEntity
8
0
100
AcDbCircle
10
-277.60363369392104
20
138.28500220537364
30
0
40
2.6999999999999602
210
-3.414296551260169e-46
220
2.4651903288156619e-32
230
1
0
LWPOLYLINE
5
103
100
AcDbEntity
8
0
100
AcDbPolyline
90
42
70
1
43
0.0
10
-457.603633693446
20
6.2852971273312308
42
0.41421356237310381
10
-455.603633693446
20
4.285297127331285
10
-381.60363369344725
20
4.2852971273325178
42
-0.41421356237328188
10
-379.60363369344719
20
2.2852971273312135
42
0.41421356237310358
10
-377.60363369344714
20
0.28529712733126877
10
-327.60363369344589
20
0.28529712733188262
10
-35.603622590737203
20
0.28528527568305206
42
0.41421356924498764
10
-33.603622543812882
20
2.2852902763951111
10
-33.603622543812889
20
2.3052902294708351
42
-0.41421356237309548
10
-31.603622543812911
20
4.3052902294708648
10
-7.6036225438138771
20
4.3052902294711988
42
0.41421356237309437
10
-5.6036225438139109
20
6.3052902294712254
10
-5.6036225438144864
20
47.805290229473499
42
-0.34199871311968405
10
-4.1036225438142511
20
49.741781902577301
42
0.34199871311968472
10
-2.6036225438140153
20
51.678273575681104
10
-2.6036225438153333
20
146.28500220537134
42
0.41421356237309426
10
-4.6036225438153275
20
148.28500220537131
10
-89.603633693922333
20
148.28500220537131
42
0.41421356237309764
10
-91.603633693922347
20
146.28500220537126
10
-91.603633693921665
20
98.285002205939691
42
-0.41421356237309503
10
-93.603633693921623
20
96.285002205939662
10
-104.60363369392158
20
96.28500220593952
42
-0.41421356237309503
10
-106.60363369392161
20
98.285002205939492
10
-106.60363369392229
20
146.28500220537134
42
0.41421356237308982
10
-108.60363369392226
20
148.28500220537131
10
-133.60363369392161
20
148.28500220537131
42
0.41421356237309764
10
-135.60363369392161
20
146.28500220537126
10
-135.6036336939211
20
109.28500220593637
42
-0.41421356237309503
10
-137.60363369392107
20
107.28500220593634
10
-221.60363369392195
20
107.28500220593519
42
0.41421356237310802
10
-223.60363369392189
20
105.28500220593516
10
-223.60363369392184
20
103.28500220593661
42
-0.41421356237309503
10
-225.60363369392178
20
101.28500220593658
10
-231.60363369392093
20
101.28500220593648
42
-0.41421356237309503
10
-233.60363369392098
20
103.28500220593642
10
-233.60363369392161
20
146.28500220537134
42
0.41421356237310281
10
-235.60363369392155
20
148.28500220537131
10
-458.60363369392235
20
148.28500220537131
42
0.41421356237309764
10
-460.60363369392235
20
146.28500220537126
10
-460.6036336939211
20
51.868798556304796
42
0.34199871315383856
10
-459.10363369368383
20
49.932306883139823
42
-0.34199871315385816
10
-457.60363369344657
20
47.995815209974914
0
LINE
5
104
100
AcDbEntity
8
0
100
AcDbLine
10
-35.603622590737203
20
0.2852852756830524
30
0
11
-327.60363369344532
21
0.28529712733067469
31
3.3657539482970085e-30
0
ARC
5
105
100
AcDbEntity
8
0
100
AcDbCircle
10
-35.603622543812889
20
2.2852902763950893
30
4.7074870285911823e-45
40
2.0000000000000062
210
4.4835649105335035e-31
220
-2.4651903288152133e-32
230
1
100
AcDbArc
50
-90.000001344279298
51
0
0
ARC
5
106
100
AcDbEntity
8
0
100
AcDbCircle
10
-31.603622543812886
20
2.3052902294708648
30
0
40
2
210
3.28429327576129e-46
220
-2.4651903288156619e-32
230
1
100
AcDbArc
50
90.000000000000711
51
180
0
LINE
5
107
100
AcDbEntity
8
0
100
AcDbLine
10
-31.603622543812911
20
4.3052902294708648
30
4.9303806576313238e-32
11
-7.6036225438138771
21
4.3052902294711988
31
0
0
ARC
5
108
100
AcDbEntity
8
0
100
AcDbCircle
10
-7.6036225438139109
20
6.305290229471197
30
-1.3684555315672042e-47
40
1.9999999999999973
210
1.5407439555100795e-33
220
3.250081887472599e-47
230
1
100
AcDbArc
50
-89.999999999999019
51
0
0
LINE
5
109
100
AcDbEntity
8
0
100
AcDbLine
10
-5.6036225438139109
20
6.3052902294712254
30
-3.0814879110202855e-33
11
-5.6036225438144811
21
47.805290229473499
31
0
0
ARC
5
110
100
AcDbEntity
8
0
100
AcDbCircle
10
-3.6036225438144864
20
47.805290229473528
30
0
40
1.9999999999999993
210
3.0814879110181295e-33
220
-1.1934551360918688e-32
230
1
100
AcDbArc
50
104.47751218592295
51
180
0
ARC
5
111
100
AcDbEntity
8
0
100
AcDbCircle
10
-4.603622543814013
20
51.678273575681075
30
-1.2640499783155444e-60
40
2.0000000000000071
210
-3.081487911017926e-33
220
1.1934551360918686e-32
230
1
100
AcDbArc
50
-75.522487814077138
51
0
0
LINE
5
112
100
AcDbEntity
8
0
100
AcDbLine
10
-2.6036225438140153
20
51.678273575681104
30
-3.5032461608120505e-46
11
-2.6036225438153333
21
146.28500220537134
31
0
0
ARC
5
113
100
AcDbEntity
8
0
100
AcDbCircle
10
-4.6036225438153151
20
146.28500220537131
30
3.9685210415448921e-46
40
1.9999999999999818
210
4.1737893712800054e-46
220
-2.4651903288156567e-32
230
1
100
AcDbArc
50
0
51
90.000000000000369
0
LINE
5
114
100
AcDbEntity
8
0
100
AcDbLine
10
-4.6036225438153275
20
148.28500220537131
30
4.9303806576313249e-32
11
-89.603633693922333
21
148.28500220537131
31
0
0
ARC
5
115
100
AcDbEntity
8
0
100
AcDbCircle
10
-89.603633693922333
20
146.28500220537128
30
-2.4290085685317874e-46
40
2.0000000000000107
210
-6.1629758220382433e-33
220
-1.2145042842658873e-46
230
1
100
AcDbArc
50
90
51
180
0
LINE
5
116
100
AcDbEntity
8
0
100
AcDbLine
10
-91.603633693922347
20
146.28500220537126
30
-1.2325951644077228e-32
11
-91.603633693921665
21
98.285002205939691
31
0
0
ARC
5
117
100
AcDbEntity
8
0
100
AcDbCircle
10
-93.603633693921665
20
98.285002205939662
30
0
40
1.9999999999999929
210
4.396163395159659e-46
220
-2.4651903288156707e-32
230
1
100
AcDbArc
50
-89.999999999998778
51
0
0
LINE
5
118
100
AcDbEntity
8
0
100
AcDbLine
10
-93.603633693921623
20
96.285002205939662
30
-4.9303806576313238e-32
11
-104.60363369392158
21
96.28500220593952
31
0
0
ARC
5
119
100
AcDbEntity
8
0
100
AcDbCircle
10
-104.60363369392162
20
98.28500220593952
30
0
40
1.9999999999999929
210
1.5407439555105868e-33
220
-2.4651903288156592e-32
230
1
100
AcDbArc
50
180
51
270.00000000000119
0
LINE
5
120
100
AcDbEntity
8
0
100
AcDbLine
10
-106.60363369392161
20
98.285002205939492
30
3.0814879110202869e-33
11
-106.60363369392229
21
146.28500220537134
31
0
0
ARC
5
121
100
AcDbEntity
8
0
100
AcDbCircle
10
-108.60363369392226
20
146.28500220537131
30
4.1053665947016125e-46
40
1.9999999999999751
210
6.4317409983659156e-46
220
-2.4651903288156485e-32
230
1
100
AcDbArc
50
0
51
90
0
LINE
5
122
100
AcDbEntity
8
0
100
AcDbLine
10
-108.60363369392226
20
148.28500220537131
30
4.9303806576313205e-32
11
-133.60363369392161
21
148.28500220537131
31
0
0
ARC
5
123
100
AcDbEntity
8
0
100
AcDbCircle
10
-133.60363369392161
20
146.28500220537128
30
-2.4290085685317874e-46
40
2.0000000000000107
210
-6.1629758220382433e-33
220
-1.2145042842658873e-46
230
1
100
AcDbArc
50
90
51
180
0
LINE
5
124
100
AcDbEntity
8
0
100
AcDbLine
10
-135.60363369392161
20
146.28500220537126
30
-1.2325951644077228e-32
11
-135.6036336939211
21
109.28500220593637
31
0
0
ARC
5
125
100
AcDbEntity
8
0
100
AcDbCircle
10
-137.6036336939211
20
109.28500220593634
30
0
40
1.9999999999999929
210
4.396163395159659e-46
220
-2.4651903288156707e-32
230
1
100
AcDbArc
50
-89.99999999999919
51
0
0
LINE
5
126
100
AcDbEntity
8
0
100
AcDbLine
10
-137.60363369392107
20
107.28500220593634
30
-4.9303806576313238e-32
11
-221.60363369392195
21
107.28500220593519
31
0
0
ARC
5
127
100
AcDbEntity
8
0
100
AcDbCircle
10
-221.60363369392195
20
105.28500220593526
30
1.0562766134284357e-46
40
1.9999999999999396
210
1.5407439555101216e-33
220
5.2813830671423381e-47
230
1
100
AcDbArc
50
90
51
180
0
LINE
5
128
100
AcDbEntity
8
0
100
AcDbLine
10
-223.60363369392172
20
103.28500220593661
30
0
11
-223.60363369392189
21
105.28500220593516
31
3.0814879110202561e-33
0
ARC
5
129
100
AcDbEntity
8
0
100
AcDbCircle
10
-225.60363369392181
20
103.28500220593656
30
0
40
1.9999999999999929
210
4.396163395159659e-46
220
-2.4651903288156707e-32
230
1
100
AcDbArc
50
-89.99999999999919
51
0
0
LINE
5
130
100
AcDbEntity
8
0
100
AcDbLine
10
-225.60363369392178
20
101.28500220593658
30
-4.9303806576313238e-32
11
-231.60363369392093
21
101.28500220593777
31
0
0
ARC
5
131
100
AcDbEntity
8
0
100
AcDbCircle
10
-231.60363369392098
20
103.28500220593646
30
0
40
1.9999999999999929
210
1.5407439555105868e-33
220
-2.4651903288156592e-32
230
1
100
AcDbArc
50
180
51
270.00000000000159
0
LINE
5
132
100
AcDbEntity
8
0
100
AcDbLine
10
-233.60363369392098
20
103.28500220593642
30
3.0814879110202869e-33
11
-233.60363369392161
21
146.28500220537134
31
0
0
ARC
5
133
100
AcDbEntity
8
0
100
AcDbCircle
10
-235.60363369392152
20
146.28500220537137
30
1.6079352495914649e-45
40
1.9999999999999218
210
5.850147397450039e-46
220
-2.4651903288156485e-32
230
1
100
AcDbArc
50
0
51
90.00000000000081
0
LINE
5
134
100
AcDbEntity
8
0
100
AcDbLine
10
-235.60363369392155
20
148.28500220537131
30
4.9303806576313522e-32
11
-458.60363369392235
21
148.28500220537131
31
0
0
CIRCLE
5
135
100
AcDbEntity
8
0
100
AcDbCircle
10
-277.60363369392104
20
138.28500220537364
30
0
40
2.6999999999999602
210
-3.414296551260169e-46
220
2.4651903288156619e-32
230
1
0
CIRCLE
5
136
100
AcDbEntity
8
0
100
AcDbCircle
10
-419.10361043327259
20
138.08500220537178
30
0
40
1.7000000000000171
210
-1.662673470854148e-46
220
2.4651903288156619e-32
230
1
0
ARC
5
137
100
AcDbEntity
8
0
100
AcDbCircle
10
-458.60363369392235
20
146.28500220537128
30
-3.925756806183417e-46
40
2.0000000000000107
210
-6.1629758220385109e-33
220
-1.962878403091698e-46
230
1
100
AcDbArc
50
90
51
180
0
LINE
5
138
100
AcDbEntity
8
0
100
AcDbLine
10
-460.6036336939211
20
51.868798556304789
30
0
11
-460.60363369392235
21
146.28500220537126
31
-1.2325951644077915e-32
0
ARC
5
139
100
AcDbEntity
8
0
100
AcDbCircle
10
-458.60363369392098
20
51.868798556304824
30
-2.3392036742726896e-46
40
2.0000000000000995
210
1.3064473902280857e-46
220
-7.7037197738945736e-34
230
1
100
AcDbArc
50
180
51
255.52248782108694
0
ARC
5
140
100
AcDbEntity
8
0
100
AcDbCircle
10
-459.60363369344657
20
47.995815209974886
30
0
40
1.9999999999999574
210
0
220
-0
230
1
100
AcDbArc
50
0
51
75.522487821090138
0
LINE
5
141
100
AcDbEntity
8
0
100
AcDbLine
10
-457.60363369344594
20
6.2852971273312308
30
0
11
-457.60363369344657
21
47.995815209974914
31
0
0
ARC
5
142
100
AcDbEntity
8
0
100
AcDbCircle
10
-455.60363369344606
20
6.2852971273312424
30
6.3496336664718274e-45
40
1.9999999999998863
210
-5.3643456837437459e-45
220
3.9443045261050599e-31
230
1
100
AcDbArc
50
180
51
270.00000000000159
0
LINE
5
143
100
AcDbEntity
8
0
100
AcDbLine
10
-455.603633693446
20
4.285297127331285
30
7.8886090522100156e-31
11
-381.60363369344725
21
4.2852971273324876
31
0
0
ARC
5
144
100
AcDbEntity
8
0
100
AcDbCircle
10
-381.60363369344725
20
2.2852971273324889
30
0
40
2.0000000000000284
210
1.5407439554828375e-33
220
-2.4651903288157604e-32
230
1
100
AcDbArc
50
0
51
90
0
ARC
5
145
100
AcDbEntity
8
0
100
AcDbCircle
10
-377.60363369344725
20
2.2852971273312264
30
-4.0369438181232523e-46
40
1.9999999999999574
210
-1.5407439554982564e-33
220
-2.465190328815663e-32
230
1
100
AcDbArc
50
180
51
270.00000000000324
0
LINE
5
146
100
AcDbEntity
8
0
100
AcDbLine
10
-327.60363369344532
20
0.28529712733067469
30
3.3657539482970085e-30
11
-377.60363369344714
21
0.28529712733126877
31
-4.9303806576312592e-32
0
CIRCLE
5
147
100
AcDbEntity
8
0
100
AcDbCircle
10
-55.603622543815803
20
138.28500220537208
30
0
40
2.7000000000000313
210
-3.4142965512601682e-46
220
2.4651903288156619e-32
230
1
0
SPLINE
5
148
100
AcDbEntity
8
0
100
AcDbSpline
70
4
71
3
72
8
73
4
74
0
42
0.000000001
43
0.0000000001
44
0.0000000001
40
0
40
0
40
0
40
0
40
1
40
1
40
1
40
1
41
1
41
1
41
1
41
1
10
-346.36579562500003
20
56.524150937500309
30
1.3110190317432771e-31
10
-346.99920812500005
20
56.999210312500317
30
1.4414686866431059e-31
10
-348.39271562500005
20
57.933493750000324
30
1.7284579274227315e-31
10
-348.47189218750003
20
57.933493750000324
30
1.7447641342852102e-31
0
SPLINE
5
149
100
AcDbEntity
8
0
100
AcDbSpline
70
4
71
3
72
8
73
4
74
0
42
0.000000001
43
0.0000000001
44
0.0000000001
40
0
40
0
40
0
40
0
40
1
40
1
40
1
40
1
41
1
41
1
41
1
41
1
10
-348.47189218750003
20
57.933493750000324
30
1.7447641342852102e-31
10
-348.50356281250004
20
57.933493750000324
30
1.7512866170301994e-31
10
-348.83610437500005
20
58.13935281250032
30
1.8197726858526103e-31
10
-349.21615187500004
20
58.392717812500322
30
1.8980424787925067e-31
0
SPLINE
5
150
100
AcDbEntity
8
0
100
AcDbSpline
70
4
71
3
72
8
73
4
74
0
42
0.000000001
43
0.0000000001
44
0.0000000001
40
0
40
0
40
0
40
0
40
1
40
1
40
1
40
1
41
1
41
1
41
1
41
1
10
-349.21615187500004
20
58.392717812500322
30
1.8980424787925067e-31
10
-349.59619937500003
20
58.646082812500318
30
1.976312271732403e-31
10
-350.32462375
20
59.057800937500303
30
2.1263293748672072e-31
10
-350.84718906250004
20
59.327001250000322
30
2.2339503401595683e-31
0
SPLINE
5
151
100
AcDbEntity
8
0
100
AcDbSpline
70
4
71
3
72
8
73
4
74
0
42
0.000000001
43
0.0000000001
44
0.0000000001
40
0
40
0
40
0
40
0
40
1
40
1
40
1
40
1
41
1
41
1
41
1
41
1
10
-350.84718906250004
20
59.327001250000322
30
2.2339503401595683e-31
10
-355.47110031249997
20
61.638956875000318
30
3.1862328209283158e-31
10
-358.19477406250002
20
62.367381250000321
30
3.7471663369975813e-31
10
-362.18527281250005
20
62.367381250000321
30
4.5689991628665005e-31
0
LINE
5
152
100
AcDbEntity
8
0
100
AcDbLine
10
-362.18527281250005
20
62.367381250000321
30
4.5689991628665013e-31
11
-364.38638125000006
21
62.367381250000321
31
5.0223117136434083e-31
0
LINE
5
153
100
AcDbEntity
8
0
100
AcDbLine
10
-364.38638125000006
20
62.367381250000321
30
5.0223117136434083e-31
11
-364.38638125000006
21
62.763264062500326
31
5.0223117136434083e-31
0
SPLINE
5
154
100
AcDbEntity
8
0
100
AcDbSpline
70
4
71
3
72
8
73
4
74
0
42
0.000000001
43
0.0000000001
44
0.0000000001
40
0
40
0
40
0
40
0
40
1
40
1
40
1
40
1
41
1
41
1
41
1
41
1
10
-364.38638125000006
20
62.763264062500319
30
5.0223117136434083e-31
10
-364.38638125000006
20
62.969123125000323
30
5.0223117136434083e-31
10
-364.32303999999999
20
63.301664687500327
30
5.0092667481534233e-31
10
-364.24386343750001
20
63.50752375000031
30
4.9929605412909438e-31
0
SPLINE
5
155
100
AcDbEntity
8
0
100
AcDbSpline
70
4
71
3
72
8
73
4
74
0
42
0.000000001
43
0.0000000001
44
0.0000000001
40
0
40
0
40
0
40
0
40
1
40
1
40
1
40
1
41
1
41
1
41
1
41
1
10
-364.24386343750001
20
63.50752375000031
30
4.9929605412909438e-31
10
-364.16468687500003
20
63.713382812500328
30
4.976654334428466e-31
10
-364.02216906250004
20
64.156771562500325
30
4.947303162076004e-31
10
-363.91132187500006
20
64.50514843750031
30
4.9244744724685364e-31
0
SPLINE
5
156
100
AcDbEntity
8
0
100
AcDbSpline
70
4
71
3
72
8
73
4
74
0
42
0.000000001
43
0.0000000001
44
0.0000000001
40
0
40
0
40
0
40
0
40
1
40
1
40
1
40
1
41
1
41
1
41
1
41
1
10
-363.91132187500006
20
64.50514843750031
30
4.9244744724685364e-31
10
-363.56294500000001
20
65.692796875000312
30
4.8527271622736292e-31
10
-362.72367343750005
20
67.149645625000304
30
4.6798813695313583e-31
10
-361.74188406250005
20
68.30562343750033
30
4.4776844044366219e-31
0
SPLINE
5
157
100
AcDbEntity
8
0
100
AcDbSpline
70
4
71
3
72
8
73
4
74
0
42
0.000000001
43
0.0000000001
44
0.0000000001
40
0
40
0
40
0
40
0
40
1
40
1
40
1
40
1
41
1
41
1
41
1
41
1
10
-361.74188406250005
20
68.30562343750033
30
4.4776844044366219e-31
10
-360.77593000000002
20
69.42993062500031
30
4.2787486807143827e-31
10
-358.19477406250002
20
71.551862500000311
30
3.7471663369975813e-31
10
-357.78305593750008
20
71.551862500000311
30
3.6623740613126918e-31
0
SPLINE
5
158
100
AcDbEntity
8
0
100
AcDbSpline
70
4
71
3
72
8
73
4
74
0
42
0.000000001
43
0.0000000001
44
0.0000000001
40
0
40
0
40
0
40
0
40
1
40
1
40
1
40
1
41
1
41
1
41
1
41
1
10
-357.78305593750008
20
71.551862500000311
30
3.6623740613126918e-31
10
-357.67220874999998
20
71.551862500000311
30
3.6395453717052206e-31
10
-357.57719687500003
20
71.615203750000319
30
3.6199779234702492e-31
10
-357.57719687500003
20
71.694380312500314
30
3.6199779234702492e-31
0
SPLINE
5
159
100
AcDbEntity
8
0
100
AcDbSpline
70
4
71
3
72
8
73
4
74
0
42
0.000000001
43
0.0000000001
44
0.0000000001
40
0
40
0
40
0
40
0
40
1
40
1
40
1
40
1
41
1
41
1
41
1
41
1
10
-357.57719687500003
20
71.694380312500314
30
3.6199779234702492e-31
10
-357.57719687500003
20
71.773556875000324
30
3.6199779234702492e-31
10
-357.387173125
20
71.916074687500327
30
3.5808430270002985e-31
10
-357.13380812499997
20
72.01108656250031
30
3.5286631650403663e-31
0
SPLINE
5
160
100
AcDbEntity
8
0
100
AcDbSpline
70
4
71
3
72
8
73
4
74
0
42
0.000000001
43
0.0000000001
44
0.0000000001
40
0
40
0
40
0
40
0
40
1
40
1
40
1
40
1
41
1
41
1
41
1
41
1
10
-357.13380812499997
20
72.01108656250031
30
3.5286631650403663e-31
10
-356.89627843750003
20
72.106098437500336
30
3.4797445444529308e-31
10
-356.38954843750003
20
72.35946343750031
30
3.3753848205330698e-31
10
-355.99366562500001
20
72.565322500000335
30
3.293853786220677e-31
0
SPLINE
5
161
100
AcDbEntity
8
0
100
AcDbSpline
70
4
71
3
72
8
73
4
74
0
42
0.000000001
43
0.0000000001
44
0.0000000001
40
0
40
0
40
0
40
0
40
1
40
1
40
1
40
1
41
1
41
1
41
1
41
1
10
-355.99366562500001
20
72.565322500000335
30
3.293853786220677e-31
10
-353.88756906250001
20
73.689629687500329
30
2.860108683678744e-31
10
-351.30641312500006
20
74.734760312500313
30
2.3285263399619431e-31
10
-349.18448125000003
20
75.304831562500311
30
1.8915199960475177e-31
0
SPLINE
5
162
100
AcDbEntity
8
0
100
AcDbSpline
70
4
71
3
72
8
73
4
74
0
42
0.000000001
43
0.0000000001
44
0.0000000001
40
0
40
0
40
0
40
0
40
1
40
1
40
1
40
1
41
1
41
1
41
1
41
1
10
-349.18448125000003
20
75.304831562500311
30
1.8915199960475177e-31
10
-348.70942187500009
20
75.447349375000314
30
1.7936827548726457e-31
10
-348.18685656250005
20
75.637373125000323
30
1.686061789580285e-31
10
-348.02850343750004
20
75.748220312500337
30
1.6534493758553275e-31
0
SPLINE
5
163
100
AcDbEntity
8
0
100
AcDbSpline
70
4
71
3
72
8
73
4
74
0
42
0.000000001
43
0.0000000001
44
0.0000000001
40
0
40
0
40
0
40
0
40
1
40
1
40
1
40
1
41
1
41
1
41
1
41
1
10
-348.02850343750004
20
75.748220312500337
30
1.6534493758553275e-31
10
-347.60095000000001
20
76.04909125000033
30
1.5653958587979457e-31
10
-348.02850343750004
20
76.302456250000319
30
1.6534493758553275e-31
10
-349.29532843750002
20
76.476644687500311
30
1.9143486856549855e-31
0
SPLINE
5
164
100
AcDbEntity
8
0
100
AcDbSpline
70
4
71
3
72
8
73
4
74
0
42
0.000000001
43
0.0000000001
44
0.0000000001
40
0
40
0
40
0
40
0
40
1
40
1
40
1
40
1
41
1
41
1
41
1
41
1
10
-349.29532843750002
20
76.476644687500311
30
1.9143486856549855e-31
10
-349.881235
20
76.571656562500308
30
2.0350146164373282e-31
10
-350.67300062500004
20
76.698339062500324
30
2.1980766850621143e-31
10
-351.05304812500003
20
76.793350937500321
30
2.2763464780020109e-31
0
SPLINE
5
165
100
AcDbEntity
8
0
100
AcDbSpline
70
4
71
3
72
8
73
4
74
0
42
0.000000001
43
0.0000000001
44
0.0000000001
40
0
40
0
40
0
40
0
40
1
40
1
40
1
40
1
41
1
41
1
41
1
41
1
10
-351.05304812500003
20
76.793350937500321
30
2.2763464780020109e-31
10
-351.92399031250005
20
76.983374687500316
30
2.4557147534892757e-31
10
-354.83768781250001
20
76.983374687500316
30
3.0557831660284875e-31
10
-355.70863000000003
20
76.793350937500321
30
3.2351514415157522e-31
0
SPLINE
5
166
100
AcDbEntity
8
0
100
AcDbSpline
70
4
71
3
72
8
73
4
74
0
42
0.000000001
43
0.0000000001
44
0.0000000001
40
0
40
0
40
0
40
0
40
1
40
1
40
1
40
1
41
1
41
1
41
1
41
1
10
-355.70863000000003
20
76.793350937500321
30
3.2351514415157522e-31
10
-356.46872500000001
20
76.619162500000328
30
3.3916910273955485e-31
10
-359.12905749999999
20
76.286620937500317
30
3.9395795779748281e-31
10
-360.34837656250005
20
76.191609062500319
30
4.1906951636569995e-31
0
SPLINE
5
167
100
AcDbEntity
8
0
100
AcDbSpline
70
4
71
3
72
8
73
4
74
0
42
0.000000001
43
0.0000000001
44
0.0000000001
40
0
40
0
40
0
40
0
40
1
40
1
40
1
40
1
41
1
41
1
41
1
41
1
10
-360.34837656250005
20
76.191609062500319
30
4.1906951636569995e-31
10
-361.58353093750003
20
76.11243250000031
30
4.4450719907116646e-31
10
-362.64449687500007
20
76.555821250000307
30
4.6635751626688796e-31
10
-363.07205031249998
20
77.33175156250033
30
4.7516286797262619e-31
0
SPLINE
5
168
100
AcDbEntity
8
0
100
AcDbSpline
70
4
71
3
72
8
73
4
74
0
42
0.000000001
43
0.0000000001
44
0.0000000001
40
0
40
0
40
0
40
0
40
1
40
1
40
1
40
1
41
1
41
1
41
1
41
1
10
-363.07205031249998
20
77.33175156250033
30
4.7516286797262619e-31
10
-363.53127437500001
20
78.139352500000314
30
4.8462046795286367e-31
10
-363.51543906250004
20
78.440223437500336
30
4.842943438156144e-31
10
-362.67616750000002
20
85.091054687500332
30
4.6700976454138687e-31
0
SPLINE
5
169
100
AcDbEntity
8
0
100
AcDbSpline
70
4
71
3
72
8
73
4
74
0
42
0.000000001
43
0.0000000001
44
0.0000000001
40
0
40
0
40
0
40
0
40
1
40
1
40
1
40
1
41
1
41
1
41
1
41
1
10
-362.67616750000002
20
85.091054687500332
30
4.6700976454138687e-31
10
-362.50197906250003
20
86.516232812500334
30
4.6342239903164151e-31
10
-362.42280249999999
20
88.416470312500337
30
4.6179177834539364e-31
10
-362.42280249999999
20
91.266826562500327
30
4.6179177834539364e-31
0
SPLINE
5
170
100
AcDbEntity
8
0
100
AcDbSpline
70
4
71
3
72
8
73
4
74
0
42
0.000000001
43
0.0000000001
44
0.0000000001
40
0
40
0
40
0
40
0
40
1
40
1
40
1
40
1
41
1
41
1
41
1
41
1
10
-362.42280249999999
20
91.266826562500327
30
4.6179177834539364e-31
10
-362.42280249999999
20
95.669043437500321
30
4.6179177834539364e-31
10
-362.45447312500005
20
95.906573125000335
30
4.6244402661989298e-31
10
-363.54710968749998
20
99.722883437500343
30
4.849465920901133e-31
0
SPLINE
5
171
100
AcDbEntity
8
0
100
AcDbSpline
70
4
71
3
72
8
73
4
74
0
42
0.000000001
43
0.0000000001
44
0.0000000001
40
0
40
0
40
0
40
0
40
1
40
1
40
1
40
1
41
1
41
1
41
1
41
1
10
-363.54710968749998
20
99.722883437500343
30
4.849465920901133e-31
10
-363.6737921875
20
100.19794281250032
30
4.8755558518811013e-31
10
-363.87965124999999
20
101.16389687500033
30
4.9179519897235439e-31
10
-363.99049843749998
20
101.86065062500033
30
4.940780679331015e-31
0
LINE
5
172
100
AcDbEntity
8
0
100
AcDbLine
10
-363.99049843749998
20
101.86065062500032
30
4.940780679331015e-31
11
-364.19635749999998
21
103.14331093750033
31
4.9831768171734585e-31
0
LINE
5
173
100
AcDbEntity
8
0
100
AcDbLine
10
-364.19635749999998
20
103.14331093750033
30
4.9831768171734585e-31
11
-363.45209781250003
21
103.93507656250034
31
4.8298984726661581e-31
0
SPLINE
5
174
100
AcDbEntity
8
0
100
AcDbSpline
70
4
71
3
72
8
73
4
74
0
42
0.000000001
43
0.0000000001
44
0.0000000001
40
0
40
0
40
0
40
0
40
1
40
1
40
1
40
1
41
1
41
1
41
1
41
1
10
-363.45209781249997
20
103.93507656250034
30
4.8298984726661581e-31
10
-363.024544375
20
104.37846531250032
30
4.7418449556087758e-31
10
-362.59699093749998
20
104.90103062500033
30
4.65379143855139e-31
10
-362.48614375
20
105.12272500000034
30
4.6309627489439223e-31
0
SPLINE
5
175
100
AcDbEntity
8
0
100
AcDbSpline
70
4
71
3
72
8
73
4
74
0
42
0.000000001
43
0.0000000001
44
0.0000000001
40
0
40
0
40
0
40
0
40
1
40
1
40
1
40
1
41
1
41
1
41
1
41
1
10
-362.48614375
20
105.12272500000034
30
4.6309627489439223e-31
10
-362.35946124999998
20
105.36025468750033
30
4.604872817963954e-31
10
-362.2486140625
20
106.51623250000031
30
4.5820441283564864e-31
10
-362.18527281250005
20
108.35312875000034
30
4.5689991628665005e-31
0
SPLINE
5
176
100
AcDbEntity
8
0
100
AcDbSpline
70
4
71
3
72
8
73
4
74
0
42
0.000000001
43
0.0000000001
44
0.0000000001
40
0
40
0
40
0
40
0
40
1
40
1
40
1
40
1
41
1
41
1
41
1
41
1
10
-362.18527281250005
20
108.35312875000034
30
4.5689991628665005e-31
10
-362.12193156250004
20
110.07917781250032
30
4.5559541973765189e-31
10
-361.99524906250008
20
111.36183812500035
30
4.5298642663965541e-31
10
-361.88440187499998
20
111.56769718750034
30
4.5070355767890821e-31
0
SPLINE
5
177
100
AcDbEntity
8
0
100
AcDbSpline
70
4
71
3
72
8
73
4
74
0
42
0.000000001
43
0.0000000001
44
0.0000000001
40
0
40
0
40
0
40
0
40
1
40
1
40
1
40
1
41
1
41
1
41
1
41
1
10
-361.88440187499998
20
111.56769718750034
30
4.5070355767890821e-31
10
-361.69437812500001
20
111.91607406250034
30
4.4679006803191367e-31
10
-361.61520156249998
20
112.72367500000033
30
4.451594473456658e-31
10
-361.78939000000003
20
112.72367500000033
30
4.4874681285541081e-31
0
SPLINE
5
178
100
AcDbEntity
8
0
100
AcDbSpline
70
4
71
3
72
8
73
4
74
0
42
0.000000001
43
0.0000000001
44
0.0000000001
40
0
40
0
40
0
40
0
40
1
40
1
40
1
40
1
41
1
41
1
41
1
41
1
10
-361.78939000000003
20
112.72367500000033
30
4.4874681285541081e-31
10
-362.05859031249997
20
112.72367500000033
30
4.5429092318865365e-31
10
-362.48614375
20
112.34362750000034
30
4.6309627489439223e-31
10
-362.80284999999998
20
111.82106218750035
30
4.696187576393837e-31
0
SPLINE
5
179
100
AcDbEntity
8
0
100
AcDbSpline
70
4
71
3
72
8
73
4
74
0
42
0.000000001
43
0.0000000001
44
0.0000000001
40
0
40
0
40
0
40
0
40
1
40
1
40
1
40
1
41
1
41
1
41
1
41
1
10
-362.80284999999998
20
111.82106218750035
30
4.696187576393837e-31
10
-363.08788562500001
20
111.34600281250033
30
4.7548899210987582e-31
10
-363.19873281250005
20
110.79176687500035
30
4.7777186107062294e-31
10
-363.34125062499999
20
109.08155312500034
30
4.8070697830586904e-31
0
SPLINE
5
180
100
AcDbEntity
8
0
100
AcDbSpline
70
4
71
3
72
8
73
4
74
0
42
0.000000001
43
0.0000000001
44
0.0000000001
40
0
40
0
40
0
40
0
40
1
40
1
40
1
40
1
41
1
41
1
41
1
41
1
10
-363.34125062499999
20
109.08155312500034
30
4.8070697830586904e-31
10
-363.53127437500001
20
106.84877406250033
30
4.8462046795286367e-31
10
-363.87965124999999
20
105.72446687500033
30
4.9179519897235439e-31
10
-364.40221656250003
20
105.62945500000032
30
5.0255729550159011e-31
0
SPLINE
5
181
100
AcDbEntity
8
0
100
AcDbSpline
70
4
71
3
72
8
73
4
74
0
42
0.000000001
43
0.0000000001
44
0.0000000001
40
0
40
0
40
0
40
0
40
1
40
1
40
1
40
1
41
1
41
1
41
1
41
1
10
-364.40221656250003
20
105.62945500000032
30
5.0255729550159011e-31
10
-364.78226406250002
20
105.56611375000033
30
5.1038427479558016e-31
10
-364.861440625
20
106.13618500000032
30
5.1201489548182802e-31
10
-365.03562906250005
20
109.90498937500034
30
5.1560226099157303e-31
0
SPLINE
5
182
100
AcDbEntity
8
0
100
AcDbSpline
70
4
71
3
72
8
73
4
74
0
42
0.000000001
43
0.0000000001
44
0.0000000001
40
0
40
0
40
0
40
0
40
1
40
1
40
1
40
1
41
1
41
1
41
1
41
1
10
-365.03562906250005
20
109.90498937500034
30
5.1560226099157303e-31
10
-365.20981750000004
20
113.57878187500035
30
5.1918962650131839e-31
10
-365.01979375000008
20
118.36104625000033
30
5.1527613685432367e-31
10
-364.65558156249995
20
120.00791875000034
30
5.0777528169758342e-31
0
SPLINE
5
183
100
AcDbEntity
8
0
100
AcDbSpline
70
4
71
3
72
8
73
4
74
0
42
0.000000001
43
0.0000000001
44
0.0000000001
40
0
40
0
40
0
40
0
40
1
40
1
40
1
40
1
41
1
41
1
41
1
41
1
10
-364.65558156249995
20
120.00791875000034
30
5.0777528169758342e-31
10
-364.25969874999998
20
121.81314437500035
30
4.99622178266344e-31
10
-363.53127437500001
20
123.68171125000035
30
4.8462046795286367e-31
10
-363.024544375
20
124.29928843750034
30
4.7418449556087758e-31
0
SPLINE
5
184
100
AcDbEntity
8
0
100
AcDbSpline
70
4
71
3
72
8
73
4
74
0
42
0.000000001
43
0.0000000001
44
0.0000000001
40
0
40
0
40
0
40
0
40
1
40
1
40
1
40
1
41
1
41
1
41
1
41
1
10
-363.024544375
20
124.29928843750034
30
4.7418449556087758e-31
10
-362.73950874999997
20
124.61599468750035
30
4.6831426109038511e-31
10
-362.58115562500001
20
125.88281968750036
30
4.6505301971788937e-31
10
-362.7870146875
20
126.16785531250034
30
4.6929263350213407e-31
0
SPLINE
5
185
100
AcDbEntity
8
0
100
AcDbSpline
70
4
71
3
72
8
73
4
74
0
42
0.000000001
43
0.0000000001
44
0.0000000001
40
0
40
0
40
0
40
0
40
1
40
1
40
1
40
1
41
1
41
1
41
1
41
1
10
-362.7870146875
20
126.16785531250034
30
4.6929263350213407e-31
10
-362.89786187499999
20
126.34204375000036
30
4.7157550246288075e-31
10
-363.04037968750004
20
126.26286718750035
30
4.745106196981272e-31
10
-363.46793312499994
20
125.78780781250035
30
4.8331597140386543e-31
0
SPLINE
5
186
100
AcDbEntity
8
0
100
AcDbSpline
70
4
71
3
72
8
73
4
74
0
42
0.000000001
43
0.0000000001
44
0.0000000001
40
0
40
0
40
0
40
0
40
1
40
1
40
1
40
1
41
1
41
1
41
1
41
1
10
-363.46793312499994
20
125.78780781250035
30
4.8331597140386543e-31
10
-364.06967500000002
20
125.09105406250035
30
4.9570868861934946e-31
10
-364.84560531250003
20
123.93507625000034
30
5.116887713445784e-31
10
-365.16231156250001
20
123.22248718750033
30
5.1821125408956986e-31
0
SPLINE
5
187
100
AcDbEntity
8
0
100
AcDbSpline
70
4
71
3
72
8
73
4
74
0
42
0.000000001
43
0.0000000001
44
0.0000000001
40
0
40
0
40
0
40
0
40
1
40
1
40
1
40
1
41
1
41
1
41
1
41
1
10
-365.16231156250001
20
123.22248718750033
30
5.1821125408956986e-31
10
-365.24148812500005
20
123.04829875000036
30
5.1984187477581764e-31
10
-365.38400593749998
20
122.84243968750033
30
5.2277699201106374e-31
10
-365.46318250000002
20
122.79493375000033
30
5.2440761269731161e-31
0
SPLINE
5
188
100
AcDbEntity
8
0
100
AcDbSpline
70
4
71
3
72
8
73
4
74
0
42
0.000000001
43
0.0000000001
44
0.0000000001
40
0
40
0
40
0
40
0
40
1
40
1
40
1
40
1
41
1
41
1
41
1
41
1
10
-365.46318250000002
20
122.79493375000033
30
5.2440761269731161e-31
10
-365.55819437499997
20
122.74742781250033
30
5.263643575208091e-31
10
-365.66904156250007
20
122.52573343750035
30
5.2864722648155587e-31
10
-365.71654749999999
20
122.30403906250035
30
5.2962559889330483e-31
0
SPLINE
5
189
100
AcDbEntity
8
0
100
AcDbSpline
70
4
71
3
72
8
73
4
74
0
42
0.000000001
43
0.0000000001
44
0.0000000001
40
0
40
0
40
0
40
0
40
1
40
1
40
1
40
1
41
1
41
1
41
1
41
1
10
-365.71654749999999
20
122.30403906250035
30
5.2962559889330483e-31
10
-365.77988875000005
20
122.08234468750035
30
5.3093009544230298e-31
10
-366.09659499999998
20
121.32224968750035
30
5.3745257818729453e-31
10
-366.44497187500002
20
120.60966062500034
30
5.4462730920678516e-31
0
SPLINE
5
190
100
AcDbEntity
8
0
100
AcDbSpline
70
4
71
3
72
8
73
4
74
0
42
0.000000001
43
0.0000000001
44
0.0000000001
40
0
40
0
40
0
40
0
40
1
40
1
40
1
40
1
41
1
41
1
41
1
41
1
10
-366.44497187500002
20
120.60966062500034
30
5.4462730920678516e-31
10
-366.79334875000001
20
119.88123625000036
30
5.5180204022627561e-31
10
-367.07838437500004
20
119.20031781250034
30
5.5767227469676808e-31
10
-367.07838437500004
20
119.08947062500035
30
5.5767227469676808e-31
0
SPLINE
5
191
100
AcDbEntity
8
0
100
AcDbSpline
70
4
71
3
72
8
73
4
74
0
42
0.000000001
43
0.0000000001
44
0.0000000001
40
0
40
0
40
0
40
0
40
1
40
1
40
1
40
1
41
1
41
1
41
1
41
1
10
-367.07838437500004
20
119.08947062500035
30
5.5767227469676808e-31
10
-367.07838437500004
20
118.97862343750035
30
5.5767227469676808e-31
10
-367.14172562500005
20
118.77276437500035
30
5.5897677124576624e-31
10
-367.2367375
20
118.61441125000034
30
5.6093351606926381e-31
0
SPLINE
5
192
100
AcDbEntity
8
0
100
AcDbSpline
70
4
71
3
72
8
73
4
74
0
42
0.000000001
43
0.0000000001
44
0.0000000001
40
0
40
0
40
0
40
0
40
1
40
1
40
1
40
1
41
1
41
1
41
1
41
1
10
-367.2367375
20
118.61441125000034
30
5.6093351606926381e-31
10
-367.39509062500008
20
118.34521093750034
30
5.6419475744175955e-31
10
-367.77513812500001
20
116.88836218750033
30
5.7202173673574916e-31
10
-368.02850312500004
20
115.57403125000035
30
5.7723972293174238e-31
0
SPLINE
5
193
100
AcDbEntity
8
0
100
AcDbSpline
70
4
71
3
72
8
73
4
74
0
42
0.000000001
43
0.0000000001
44
0.0000000001
40
0
40
0
40
0
40
0
40
1
40
1
40
1
40
1
41
1
41
1
41
1
41
1
10
-368.02850312500004
20
115.57403125000035
30
5.7723972293174238e-31
10
-368.20269156249998
20
114.67141843750035
30
5.8082708844148748e-31
10
-368.20269156249998
20
106.08867906250033
30
5.8082708844148748e-31
10
-368.02850312500004
20
103.77672343750034
30
5.7723972293174238e-31
0
SPLINE
5
194
100
AcDbEntity
8
0
100
AcDbSpline
70
4
71
3
72
8
73
4
74
0
42
0.000000001
43
0.0000000001
44
0.0000000001
40
0
40
0
40
0
40
0
40
1
40
1
40
1
40
1
41
1
41
1
41
1
41
1
10
-368.02850312500004
20
103.77672343750034
30
5.7723972293174238e-31
10
-367.96516187500004
20
102.81076937500033
30
5.7593522638274379e-31
10
-367.74346750000001
20
101.24307343750033
30
5.7136948846124991e-31
10
-367.55344374999999
20
100.29295468750034
30
5.6745599881425528e-31
0
SPLINE
5
195
100
AcDbEntity
8
0
100
AcDbSpline
70
4
71
3
72
8
73
4
74
0
42
0.000000001
43
0.0000000001
44
0.0000000001
40
0
40
0
40
0
40
0
40
1
40
1
40
1
40
1
41
1
41
1
41
1
41
1
10
-367.55344374999999
20
100.29295468750034
30
5.6745599881425528e-31
10
-366.55581906250001
20
95.257325312500313
30
5.4691017816753201e-31
10
-366.4608071875
20
94.528900937500339
30
5.4495343334403452e-31
10
-366.4608071875
20
92.137768750000333
30
5.4495343334403452e-31
0
SPLINE
5
196
100
AcDbEntity
8
0
100
AcDbSpline
70
4
71
3
72
8
73
4
74
0
42
0.000000001
43
0.0000000001
44
0.0000000001
40
0
40
0
40
0
40
0
40
1
40
1
40
1
40
1
41
1
41
1
41
1
41
1
10
-366.4608071875
20
92.137768750000333
30
5.4495343334403452e-31
10
-366.4608071875
20
89.144894687500326
30
5.4495343334403452e-31
10
-366.68250156250002
20
87.640540000000314
30
5.4951917126552884e-31
10
-367.53760843750001
20
84.378465625000331
30
5.6712987467700556e-31
0
SPLINE
5
197
100
AcDbEntity
8
0
100
AcDbSpline
70
4
71
3
72
8
73
4
74
0
42
0.000000001
43
0.0000000001
44
0.0000000001
40
0
40
0
40
0
40
0
40
1
40
1
40
1
40
1
41
1
41
1
41
1
41
1
10
-367.53760843750001
20
84.378465625000331
30
5.6712987467700556e-31
10
-368.13935031250003
20
82.066510000000335
30
5.7952259189248915e-31
10
-368.15518562500006
20
82.066510000000335
30
5.7984871602973886e-31
10
-368.17102093750003
20
84.410136250000321
30
5.8017484016698858e-31
0
SPLINE
5
198
100
AcDbEntity
8
0
100
AcDbSpline
70
4
71
3
72
8
73
4
74
0
42
0.000000001
43
0.0000000001
44
0.0000000001
40
0
40
0
40
0
40
0
40
1
40
1
40
1
40
1
41
1
41
1
41
1
41
1
10
-368.17102093750003
20
84.410136250000321
30
5.8017484016698858e-31
10
-368.18685625000001
20
85.597784687500322
30
5.8050096430423811e-31
10
-368.25019750000001
20
86.611244687500317
30
5.8180546085323635e-31
10
-368.32937406250005
20
86.658750625000337
30
5.8343608153948422e-31
0
SPLINE
5
199
100
AcDbEntity
8
0
100
AcDbSpline
70
4
71
3
72
8
73
4
74
0
42
0.000000001
43
0.0000000001
44
0.0000000001
40
0
40
0
40
0
40
0
40
1
40
1
40
1
40
1
41
1
41
1
41
1
41
1
10
-368.32937406250005
20
86.658750625000337
30
5.8343608153948422e-31
10
-368.40855062500003
20
86.706256562500315
30
5.8506670222573208e-31
10
-368.50356250000004
20
87.117974687500322
30
5.8702344704922966e-31
10
-368.55106843750002
20
87.577198750000321
30
5.8800181946097819e-31
0
SPLINE
5
200
100
AcDbEntity
8
0
100
AcDbSpline
70
4
71
3
72
8
73
4
74
0
42
0.000000001
43
0.0000000001
44
0.0000000001
40
0
40
0
40
0
40
0
40
1
40
1
40
1
40
1
41
1
41
1
41
1
41
1
10
-368.55106843750002
20
87.577198750000321
30
5.8800181946097819e-31
10
-368.61440968750003
20
88.036422812500319
30
5.8930631600997634e-31
10
-368.75692749999996
20
89.239906562500323
30
5.9224143324522245e-31
10
-368.89944531250001
20
90.23753125000033
30
5.9517655048046882e-31
0
SPLINE
5
201
100
AcDbEntity
8
0
100
AcDbSpline
70
4
71
3
72
8
73
4
74
0
42
0.000000001
43
0.0000000001
44
0.0000000001
40
0
40
0
40
0
40
0
40
1
40
1
40
1
40
1
41
1
41
1
41
1
41
1
10
-368.89944531250001
20
90.23753125000033
30
5.9517655048046882e-31
10
-369.04196312500005
20
91.235155937500309
30
5.9811166771571501e-31
10
-369.24782218750005
20
93.119558125000324
30
6.0235128149995927e-31
10
-369.37450468750001
20
94.433889062500342
30
6.049602745979561e-31
0
SPLINE
5
202
100
AcDbEntity
8
0
100
AcDbSpline
70
4
71
3
72
8
73
4
74
0
42
0.000000001
43
0.0000000001
44
0.0000000001
40
0
40
0
40
0
40
0
40
1
40
1
40
1
40
1
41
1
41
1
41
1
41
1
10
-369.37450468750001
20
94.433889062500342
30
6.049602745979561e-31
10
-369.48535187499999
20
95.732384687500328
30
6.0724314355870278e-31
10
-369.62786968750004
20
96.951703750000334
30
6.1017826079394888e-31
10
-369.67537562500007
20
97.125892187500327
30
6.1115663320569785e-31
0
SPLINE
5
203
100
AcDbEntity
8
0
100
AcDbSpline
70
4
71
3
72
8
73
4
74
0
42
0.000000001
43
0.0000000001
44
0.0000000001
40
0
40
0
40
0
40
0
40
1
40
1
40
1
40
1
41
1
41
1
41
1
41
1
10
-369.67537562500007
20
97.125892187500327
30
6.1115663320569785e-31
10
-369.73871687500002
20
97.300080625000334
30
6.1246112975469609e-31
10
-369.88123468750007
20
98.266034687500337
30
6.153962469899421e-31
10
-370.00791718750003
20
99.263659375000344
30
6.1800524008793893e-31
0
SPLINE
5
204
100
AcDbEntity
8
0
100
AcDbSpline
70
4
71
3
72
8
73
4
74
0
42
0.000000001
43
0.0000000001
44
0.0000000001
40
0
40
0
40
0
40
0
40
1
40
1
40
1
40
1
41
1
41
1
41
1
41
1
10
-370.00791718750003
20
99.263659375000344
30
6.1800524008793893e-31
10
-370.32462343750007
20
101.87648593750033
30
6.2452772283293031e-31
10
-370.70467093750005
20
104.33095937500033
30
6.3235470212692001e-31
10
-370.87885937500005
20
104.96437187500034
30
6.3594206763666537e-31
0
SPLINE
5
205
100
AcDbEntity
8
0
100
AcDbSpline
70
4
71
3
72
8
73
4
74
0
42
0.000000001
43
0.0000000001
44
0.0000000001
40
0
40
0
40
0
40
0
40
1
40
1
40
1
40
1
41
1
41
1
41
1
41
1
10
-370.87885937500005
20
104.96437187500034
30
6.3594206763666537e-31
10
-370.97387125
20
105.26524281250033
30
6.3789881246016251e-31
10
-371.08471843750004
20
106.13618500000032
30
6.4018168142090962e-31
10
-371.14805968750005
20
106.89628000000033
30
6.4148617796990786e-31
0
LINE
5
206
100
AcDbEntity
8
0
100
AcDbLine
10
-371.14805968749999
20
106.89628000000033
30
6.4148617796990786e-31
11
-371.24307156250006
21
108.25811687500034
31
6.4344292279340536e-31
0
LINE
5
207
100
AcDbEntity
8
0
100
AcDbLine
10
-371.24307156250006
20
108.25811687500034
30
6.4344292279340536e-31
11
-370.68883562500002
21
108.82818812500034
31
6.320285779896703e-31
0
SPLINE
5
208
100
AcDbEntity
8
0
100
AcDbSpline
70
4
71
3
72
8
73
4
74
0
42
0.000000001
43
0.0000000001
44
0.0000000001
40
0
40
0
40
0
40
0
40
1
40
1
40
1
40
1
41
1
41
1
41
1
41
1
10
-370.68883562500002
20
108.82818812500034
30
6.320285779896703e-31
10
-370.21377625000002
20
109.30324750000032
30
6.2224485387218319e-31
10
-369.88123468750007
20
109.88915406250032
30
6.153962469899421e-31
10
-369.105304375
20
111.55186187500034
30
5.9941616426471316e-31
0
SPLINE
5
209
100
AcDbEntity
8
0
100
AcDbSpline
70
4
71
3
72
8
73
4
74
0
42
0.000000001
43
0.0000000001
44
0.0000000001
40
0
40
0
40
0
40
0
40
1
40
1
40
1
40
1
41
1
41
1
41
1
41
1
10
-369.105304375
20
111.55186187500034
30
5.9941616426471316e-31
10
-369.02612781250002
20
111.74188562500035
30
5.977855435784653e-31
10
-368.99445718750002
20
112.39113343750034
30
5.9713329530396596e-31
10
-369.04196312500005
20
113.05621656250034
30
5.9811166771571501e-31
0
SPLINE
5
210
100
AcDbEntity
8
0
100
AcDbSpline
70
4
71
3
72
8
73
4
74
0
42
0.000000001
43
0.0000000001
44
0.0000000001
40
0
40
0
40
0
40
0
40
1
40
1
40
1
40
1
41
1
41
1
41
1
41
1
10
-369.04196312500005
20
113.05621656250034
30
5.9811166771571501e-31
10
-369.105304375
20
113.70546437500036
30
5.9941616426471316e-31
10
-369.18448093749998
20
115.76405500000035
30
6.0104678495096103e-31
10
-369.23198687500008
20
117.63262187500034
30
6.0202515736270964e-31
0
SPLINE
5
211
100
AcDbEntity
8
0
100
AcDbSpline
70
4
71
3
72
8
73
4
74
0
42
0.000000001
43
0.0000000001
44
0.0000000001
40
0
40
0
40
0
40
0
40
1
40
1
40
1
40
1
41
1
41
1
41
1
41
1
10
-369.23198687500008
20
117.63262187500034
30
6.0202515736270964e-31
10
-369.3111634375
20
120.79968437500035
30
6.0365577804895742e-31
10
-369.29532812499997
20
121.10055531250033
30
6.0332965391170814e-31
10
-368.97862187500004
20
122.09818000000034
30
5.9680717116671677e-31
0
SPLINE
5
212
100
AcDbEntity
8
0
100
AcDbSpline
70
4
71
3
72
8
73
4
74
0
42
0.000000001
43
0.0000000001
44
0.0000000001
40
0
40
0
40
0
40
0
40
1
40
1
40
1
40
1
41
1
41
1
41
1
41
1
10
-368.97862187500004
20
122.09818000000034
30
5.9680717116671677e-31
10
-368.78859812500002
20
122.68408656250034
30
5.928936815197217e-31
10
-368.25019750000001
20
123.76088781250034
30
5.8180546085323635e-31
10
-367.77513812500001
20
124.47347687500034
30
5.7202173673574916e-31
0
SPLINE
5
213
100
AcDbEntity
8
0
100
AcDbSpline
70
4
71
3
72
8
73
4
74
0
42
0.000000001
43
0.0000000001
44
0.0000000001
40
0
40
0
40
0
40
0
40
1
40
1
40
1
40
1
41
1
41
1
41
1
41
1
10
-367.77513812500001
20
124.47347687500034
30
5.7202173673574916e-31
10
-366.60332500000004
20
126.24703187500035
30
5.4788855057928089e-31
10
-366.63499562499999
20
126.53206750000035
30
5.4854079885377988e-31
10
-367.8859853125
20
125.67696062500033
30
5.7430460569649601e-31
0
SPLINE
5
214
100
AcDbEntity
8
0
100
AcDbSpline
70
4
71
3
72
8
73
4
74
0
42
0.000000001
43
0.0000000001
44
0.0000000001
40
0
40
0
40
0
40
0
40
1
40
1
40
1
40
1
41
1
41
1
41
1
41
1
10
-367.8859853125
20
125.67696062500033
30
5.7430460569649601e-31
10
-369.13697500000006
20
124.82185375000036
30
6.0006841253921241e-31
10
-370.2929528125
20
123.52335812500033
30
6.2387547455843106e-31
10
-370.84718874999999
20
122.39905093750033
30
6.3528981936216603e-31
0
SPLINE
5
215
100
AcDbEntity
8
0
100
AcDbSpline
70
4
71
3
72
8
73
4
74
0
42
0.000000001
43
0.0000000001
44
0.0000000001
40
0
40
0
40
0
40
0
40
1
40
1
40
1
40
1
41
1
41
1
41
1
41
1
10
-370.84718874999999
20
122.39905093750033
30
6.3528981936216603e-31
10
-371.27474218750001
20
121.52810875000034
30
6.4409517106790469e-31
10
-371.27474218750001
20
121.46476750000033
30
6.4409517106790469e-31
10
-371.35391875000005
20
117.55344531250034
30
6.4572579175415247e-31
0
SPLINE
5
216
100
AcDbEntity
8
0
100
AcDbSpline
70
4
71
3
72
8
73
4
74
0
42
0.000000001
43
0.0000000001
44
0.0000000001
40
0
40
0
40
0
40
0
40
1
40
1
40
1
40
1
41
1
41
1
41
1
41
1
10
-371.35391875000005
20
117.55344531250034
30
6.4572579175415247e-31
10
-371.41726000000006
20
114.76643031250035
30
6.4703028830315071e-31
10
-371.51227187500007
20
113.43626406250036
30
6.489870331266482e-31
10
-371.6547896875
20
113.07205187500034
30
6.5192215036189431e-31
0
SPLINE
5
217
100
AcDbEntity
8
0
100
AcDbSpline
70
4
71
3
72
8
73
4
74
0
42
0.000000001
43
0.0000000001
44
0.0000000001
40
0
40
0
40
0
40
0
40
1
40
1
40
1
40
1
41
1
41
1
41
1
41
1
10
-371.6547896875
20
113.07205187500034
30
6.5192215036189431e-31
10
-371.78147218749996
20
112.77118093750033
30
6.545311434598907e-31
10
-371.92399
20
112.59699250000034
30
6.5746626069513689e-31
10
-372.00316656250004
20
112.67616906250034
30
6.5909688138138467e-31
0
SPLINE
5
218
100
AcDbEntity
8
0
100
AcDbSpline
70
4
71
3
72
8
73
4
74
0
42
0.000000001
43
0.0000000001
44
0.0000000001
40
0
40
0
40
0
40
0
40
1
40
1
40
1
40
1
41
1
41
1
41
1
41
1
10
-372.00316656250004
20
112.67616906250034
30
6.5909688138138467e-31
10
-372.58907312500003
20
113.26207562500034
30
6.7116347445961907e-31
10
-372.58907312500003
20
124.56848875000034
30
6.7116347445961907e-31
10
-372.00316656250004
20
127.37133906250035
30
6.5909688138138467e-31
0
SPLINE
5
219
100
AcDbEntity
8
0
100
AcDbSpline
70
4
71
3
72
8
73
4
74
0
42
0.000000001
43
0.0000000001
44
0.0000000001
40
0
40
0
40
0
40
0
40
1
40
1
40
1
40
1
41
1
41
1
41
1
41
1
10
-372.00316656250004
20
127.37133906250035
30
6.5909688138138467e-31
10
-371.81314281250002
20
128.24228125000036
30
6.5518339173439004e-31
10
-371.60728374999997
20
129.06571750000035
30
6.5094377795014534e-31
10
-371.52810718750004
20
129.19240000000033
30
6.4931315726389757e-31
0
SPLINE
5
220
100
AcDbEntity
8
0
100
AcDbSpline
70
4
71
3
72
8
73
4
74
0
42
0.000000001
43
0.0000000001
44
0.0000000001
40
0
40
0
40
0
40
0
40
1
40
1
40
1
40
1
41
1
41
1
41
1
41
1
10
-371.52810718750004
20
129.19240000000033
30
6.4931315726389757e-31
10
-371.448930625
20
129.33491781250035
30
6.4768253657764961e-31
10
-371.33808343750002
20
129.76247125000035
30
6.4539966761690293e-31
10
-371.27474218750001
20
130.14251875000036
30
6.4409517106790469e-31
0
SPLINE
5
221
100
AcDbEntity
8
0
100
AcDbSpline
70
4
71
3
72
8
73
4
74
0
42
0.000000001
43
0.0000000001
44
0.0000000001
40
0
40
0
40
0
40
0
40
1
40
1
40
1
40
1
41
1
41
1
41
1
41
1
10
-371.27474218750001
20
130.14251875000036
30
6.4409517106790469e-31
10
-371.2114009375
20
130.53840156250035
30
6.427906745189061e-31
10
-370.87885937500005
20
131.53602625000033
30
6.3594206763666537e-31
10
-370.54631781250004
20
132.35946250000035
30
6.2909346075442428e-31
0
SPLINE
5
222
100
AcDbEntity
8
0
100
AcDbSpline
70
4
71
3
72
8
73
4
74
0
42
0.000000001
43
0.0000000001
44
0.0000000001
40
0
40
0
40
0
40
0
40
1
40
1
40
1
40
1
41
1
41
1
41
1
41
1
10
-370.54631781250004
20
132.35946250000035
30
6.2909346075442428e-31
10
-370.19794093749999
20
133.18289875000036
30
6.2191872973493348e-31
10
-369.92874062499999
20
133.92715843750037
30
6.1637461940169098e-31
10
-369.92874062499999
20
133.99049968750035
30
6.1637461940169098e-31
0
SPLINE
5
223
100
AcDbEntity
8
0
100
AcDbSpline
70
4
71
3
72
8
73
4
74
0
42
0.000000001
43
0.0000000001
44
0.0000000001
40
0
40
0
40
0
40
0
40
1
40
1
40
1
40
1
41
1
41
1
41
1
41
1
10
-369.92874062499999
20
133.99049968750035
30
6.1637461940169098e-31
10
-369.92874062499999
20
134.22802937500035
30
6.1637461940169098e-31
10
-368.53523312499999
20
137.25257406250034
30
5.8767569532372856e-31
10
-368.34520937500002
20
137.42676250000034
30
5.8376220567673376e-31
0
SPLINE
5
224
100
AcDbEntity
8
0
100
AcDbSpline
70
4
71
3
72
8
73
4
74
0
42
0.000000001
43
0.0000000001
44
0.0000000001
40
0
40
0
40
0
40
0
40
1
40
1
40
1
40
1
41
1
41
1
41
1
41
1
10
-368.34520937500002
20
137.42676250000034
30
5.8376220567673376e-31
10
-368.17102093750003
20
137.60095093750036
30
5.8017484016698858e-31
10
-367.55344374999999
20
138.53523437500036
30
5.6745599881425528e-31
10
-367.55344374999999
20
138.63024625000034
30
5.6745599881425528e-31
0
SPLINE
5
225
100
AcDbEntity
8
0
100
AcDbSpline
70
4
71
3
72
8
73
4
74
0
42
0.000000001
43
0.0000000001
44
0.0000000001
40
0
40
0
40
0
40
0
40
1
40
1
40
1
40
1
41
1
41
1
41
1
41
1
10
-367.55344374999999
20
138.63024625000034
30
5.6745599881425528e-31
10
-367.55344374999999
20
138.85194062500034
30
5.6745599881425528e-31
10
-366.39746593749999
20
140.15043625000035
30
5.4364893679503628e-31
10
-366.06492437500003
20
140.29295406250037
30
5.3680032991279519e-31
0
SPLINE
5
226
100
AcDbEntity
8
0
100
AcDbSpline
70
4
71
3
72
8
73
4
74
0
42
0.000000001
43
0.0000000001
44
0.0000000001
40
0
40
0
40
0
40
0
40
1
40
1
40
1
40
1
41
1
41
1
41
1
41
1
10
-366.06492437500003
20
140.29295406250037
30
5.3680032991279519e-31
10
-365.73238281249996
20
140.45130718750033
30
5.2995172303055446e-31
10
-365.27315874999999
20
141.21140218750037
30
5.2049412305031654e-31
10
-365.43151187500001
20
141.36975531250033
30
5.2375536442281236e-31
0
SPLINE
5
227
100
AcDbEntity
8
0
100
AcDbSpline
70
4
71
3
72
8
73
4
74
0
42
0.000000001
43
0.0000000001
44
0.0000000001
40
0
40
0
40
0
40
0
40
1
40
1
40
1
40
1
41
1
41
1
41
1
41
1
10
-365.43151187500001
20
141.36975531250033
30
5.2375536442281236e-31
10
-365.63737093750001
20
141.57561437500036
30
5.2799497820705697e-31
10
-366.79334875000001
20
141.36975531250033
30
5.5180204022627561e-31
10
-367.34758468749999
20
141.02137843750035
30
5.6321638503001067e-31
0
SPLINE
5
228
100
AcDbEntity
8
0
100
AcDbSpline
70
4
71
3
72
8
73
4
74
0
42
0.000000001
43
0.0000000001
44
0.0000000001
40
0
40
0
40
0
40
0
40
1
40
1
40
1
40
1
41
1
41
1
41
1
41
1
10
-367.34758468749999
20
141.02137843750035
30
5.6321638503001067e-31
10
-368.47189187499998
20
140.29295406250037
30
5.8637119877473024e-31
10
-371.43309531250003
20
136.82502062500035
30
6.4735641244040042e-31
10
-372.30403749999999
20
135.22565406250035
30
6.6529323998912686e-31
0
SPLINE
5
229
100
AcDbEntity
8
0
100
AcDbSpline
70
4
71
3
72
8
73
4
74
0
42
0.000000001
43
0.0000000001
44
0.0000000001
40
0
40
0
40
0
40
0
40
1
40
1
40
1
40
1
41
1
41
1
41
1
41
1
10
-372.30403749999999
20
135.22565406250035
30
6.6529323998912686e-31
10
-372.98495593750005
20
133.97466437500037
30
6.7931657789085831e-31
10
-373.82422750000001
20
132.13776812500035
30
6.9660115716508549e-31
10
-374.34679281249998
20
130.80760187500036
30
7.0736325369432156e-31
0
SPLINE
5
230
100
AcDbEntity
8
0
100
AcDbSpline
70
4
71
3
72
8
73
4
74
0
42
0.000000001
43
0.0000000001
44
0.0000000001
40
0
40
0
40
0
40
0
40
1
40
1
40
1
40
1
41
1
41
1
41
1
41
1
10
-374.34679281249998
20
130.80760187500036
30
7.0736325369432156e-31
10
-374.53681656250001
20
130.36421312500036
30
7.1127674334131619e-31
10
-374.82185218750004
20
129.65162406250033
30
7.1714697781180875e-31
10
-374.9802053125
20
129.22407062500037
30
7.2040821918430449e-31
0
SPLINE
5
231
100
AcDbEntity
8
0
100
AcDbSpline
70
4
71
3
72
8
73
4
74
0
42
0.000000001
43
0.0000000001
44
0.0000000001
40
0
40
0
40
0
40
0
40
1
40
1
40
1
40
1
41
1
41
1
41
1
41
1
10
-374.9802053125
20
129.22407062500037
30
7.2040821918430449e-31
10
-375.13855843750002
20
128.81235250000034
30
7.2366946055680022e-31
10
-375.32858218749999
20
128.22644593750033
30
7.2758295020379476e-31
10
-375.39192343750005
20
127.92557500000035
30
7.2888744675279335e-31
0
SPLINE
5
232
100
AcDbEntity
8
0
100
AcDbSpline
70
4
71
3
72
8
73
4
74
0
42
0.000000001
43
0.0000000001
44
0.0000000001
40
0
40
0
40
0
40
0
40
1
40
1
40
1
40
1
41
1
41
1
41
1
41
1
10
-375.39192343750005
20
127.92557500000035
30
7.2888744675279335e-31
10
-375.45526468750006
20
127.62470406250034
30
7.3019194330179159e-31
10
-375.56611187500005
20
127.14964468750034
30
7.3247481226253836e-31
10
-375.64528843749997
20
126.89627968750034
30
7.3410543294878622e-31
0
SPLINE
5
233
100
AcDbEntity
8
0
100
AcDbSpline
70
4
71
3
72
8
73
4
74
0
42
0.000000001
43
0.0000000001
44
0.0000000001
40
0
40
0
40
0
40
0
40
1
40
1
40
1
40
1
41
1
41
1
41
1
41
1
10
-375.64528843749997
20
126.89627968750034
30
7.3410543294878622e-31
10
-375.91448875000003
20
125.97783156250034
30
7.3964954328202916e-31
10
-376.27870093749999
20
124.34679437500034
30
7.4715039843876915e-31
10
-376.6112425
20
122.54156875000035
30
7.5399900532101023e-31
0
SPLINE
5
234
100
AcDbEntity
8
0
100
AcDbSpline
70
4
71
3
72
8
73
4
74
0
42
0.000000001
43
0.0000000001
44
0.0000000001
40
0
40
0
40
0
40
0
40
1
40
1
40
1
40
1
41
1
41
1
41
1
41
1
10
-376.6112425
20
122.54156875000035
30
7.5399900532101023e-31
10
-377.00712531249997
20
120.30878968750034
30
7.6215210875224947e-31
10
-377.18131374999996
20
113.86381750000034
30
7.6573947426199483e-31
10
-376.91211343750001
20
110.90261406250035
30
7.6019536392875198e-31
0
SPLINE
5
235
100
AcDbEntity
8
0
100
AcDbSpline
70
4
71
3
72
8
73
4
74
0
42
0.000000001
43
0.0000000001
44
0.0000000001
40
0
40
0
40
0
40
0
40
1
40
1
40
1
40
1
41
1
41
1
41
1
41
1
10
-376.91211343750001
20
110.90261406250035
30
7.6019536392875198e-31
10
-376.57957187500006
20
107.07046843750034
30
7.5334675704651133e-31
10
-376.38954812500003
20
105.50277250000033
30
7.4943326739951626e-31
10
-376.18368906250004
20
104.64766562500033
30
7.4519365361527201e-31
0
SPLINE
5
236
100
AcDbEntity
8
0
100
AcDbSpline
70
4
71
3
72
8
73
4
74
0
42
0.000000001
43
0.0000000001
44
0.0000000001
40
0
40
0
40
0
40
0
40
1
40
1
40
1
40
1
41
1
41
1
41
1
41
1
10
-376.18368906250004
20
104.64766562500033
30
7.4519365361527201e-31
10
-376.07284187499999
20
104.17260625000033
30
7.4291078465452489e-31
10
-375.93032406250006
20
103.20665218750034
30
7.399756674192787e-31
10
-375.8669828125
20
102.50989843750034
30
7.3867117087028054e-31
0
SPLINE
5
237
100
AcDbEntity
8
0
100
AcDbSpline
70
4
71
3
72
8
73
4
74
0
42
0.000000001
43
0.0000000001
44
0.0000000001
40
0
40
0
40
0
40
0
40
1
40
1
40
1
40
1
41
1
41
1
41
1
41
1
10
-375.8669828125
20
102.50989843750034
30
7.3867117087028054e-31
10
-375.81947687500008
20
101.81314468750033
30
7.3769279845853158e-31
10
-375.69279437500001
20
100.95803781250032
30
7.3508380536053519e-31
10
-375.59778249999999
20
100.62549625000032
30
7.3312706053703761e-31
0
SPLINE
5
238
100
AcDbEntity
8
0
100
AcDbSpline
70
4
71
3
72
8
73
4
74
0
42
0.000000001
43
0.0000000001
44
0.0000000001
40
0
40
0
40
0
40
0
40
1
40
1
40
1
40
1
41
1
41
1
41
1
41
1
10
-375.59778249999999
20
100.62549625000032
30
7.3312706053703761e-31
10
-375.17022906249997
20
98.962788437500336
30
7.2432170883129912e-31
10
-374.9485346875
20
95.954079062500327
30
7.1975597090980515e-31
10
-374.88519343749999
20
91.235155937500309
30
7.1845147436080691e-31
0
SPLINE
5
239
100
AcDbEntity
8
0
100
AcDbSpline
70
4
71
3
72
8
73
4
74
0
42
0.000000001
43
0.0000000001
44
0.0000000001
40
0
40
0
40
0
40
0
40
1
40
1
40
1
40
1
41
1
41
1
41
1
41
1
10
-374.88519343749999
20
91.235155937500309
30
7.1845147436080691e-31
10
-374.83768750000002
20
87.434680937500318
30
7.1747310194905829e-31
10
-374.86935812500002
20
86.136185312500317
30
7.1812535022355728e-31
10
-375.02771125000004
20
85.58194937500032
30
7.2138659159605301e-31
0
LINE
5
240
100
AcDbEntity
8
0
100
AcDbLine
10
-375.0277112500001
20
85.58194937500032
30
7.2138659159605301e-31
11
-375.24940562500001
21
84.853525000000332
31
7.2595232951754698e-31
0
LINE
5
241
100
AcDbEntity
8
0
100
AcDbLine
10
-375.24940562500001
20
84.853525000000332
30
7.2595232951754698e-31
11
-375.94615937500004
21
85.819479062500307
31
7.403017915565285e-31
0
SPLINE
5
242
100
AcDbEntity
8
0
100
AcDbSpline
70
4
71
3
72
8
73
4
74
0
42
0.000000001
43
0.0000000001
44
0.0000000001
40
0
40
0
40
0
40
0
40
1
40
1
40
1
40
1
41
1
41
1
41
1
41
1
10
-375.94615937500004
20
85.819479062500307
30
7.4030179155652841e-31
10
-376.3420421875
20
86.342044375000327
30
7.4845489498776774e-31
10
-376.7854309375
20
86.912115625000325
30
7.5758637083075559e-31
10
-376.92794875000004
20
87.086304062500318
30
7.6052148806600161e-31
0
SPLINE
5
243
100
AcDbEntity
8
0
100
AcDbSpline
70
4
71
3
72
8
73
4
74
0
42
0.000000001
43
0.0000000001
44
0.0000000001
40
0
40
0
40
0
40
0
40
1
40
1
40
1
40
1
41
1
41
1
41
1
41
1
10
-376.92794875000004
20
87.086304062500318
30
7.6052148806600161e-31
10
-377.086301875
20
87.244657187500323
30
7.6378272943849734e-31
10
-377.21298437500002
20
87.418845625000316
30
7.6639172253649417e-31
10
-377.21298437500002
20
87.466351562500336
30
7.6639172253649417e-31
0
SPLINE
5
244
100
AcDbEntity
8
0
100
AcDbSpline
70
4
71
3
72
8
73
4
74
0
42
0.000000001
43
0.0000000001
44
0.0000000001
40
0
40
0
40
0
40
0
40
1
40
1
40
1
40
1
41
1
41
1
41
1
41
1
10
-377.21298437500002
20
87.466351562500336
30
7.6639172253649417e-31
10
-377.21298437500002
20
87.513857500000327
30
7.6639172253649417e-31
10
-377.40300812500004
20
87.846399062500325
30
7.703052121834888e-31
10
-377.64053781249999
20
88.226446562500328
30
7.751970742422324e-31
0
SPLINE
5
245
100
AcDbEntity
8
0
100
AcDbSpline
70
4
71
3
72
8
73
4
74
0
42
0.000000001
43
0.0000000001
44
0.0000000001
40
0
40
0
40
0
40
0
40
1
40
1
40
1
40
1
41
1
41
1
41
1
41
1
10
-377.64053781249999
20
88.226446562500328
30
7.751970742422324e-31
10
-378.30562093750007
20
89.239906562500323
30
7.8889428800671466e-31
10
-378.36896218749996
20
89.366589062500324
30
7.9019878455571281e-31
10
-378.70150375000003
20
89.936660312500308
30
7.970473914379539e-31
0
SPLINE
5
246
100
AcDbEntity
8
0
100
AcDbSpline
70
4
71
3
72
8
73
4
74
0
42
0.000000001
43
0.0000000001
44
0.0000000001
40
0
40
0
40
0
40
0
40
1
40
1
40
1
40
1
41
1
41
1
41
1
41
1
10
-378.70150375000003
20
89.936660312500308
30
7.970473914379539e-31
10
-378.85985687500005
20
90.23753125000033
30
8.0030863281044963e-31
10
-379.28741031250001
20
90.870943750000336
30
8.0911398451618777e-31
10
-379.65162250000003
20
91.346003125000337
30
8.1661483967292811e-31
0
SPLINE
5
247
100
AcDbEntity
8
0
100
AcDbSpline
70
4
71
3
72
8
73
4
74
0
42
0.000000001
43
0.0000000001
44
0.0000000001
40
0
40
0
40
0
40
0
40
1
40
1
40
1
40
1
41
1
41
1
41
1
41
1
10
-379.65162250000003
20
91.346003125000337
30
8.1661483967292811e-31
10
-380.22169375000004
20
92.090262812500342
30
8.2835530861391289e-31
10
-380.60174125000003
20
92.739510625000335
30
8.361822879079025e-31
10
-381.61520125000004
20
94.608077500000348
30
8.5705423269187504e-31
0
SPLINE
5
248
100
AcDbEntity
8
0
100
AcDbSpline
70
4
71
3
72
8
73
4
74
0
42
0.000000001
43
0.0000000001
44
0.0000000001
40
0
40
0
40
0
40
0
40
1
40
1
40
1
40
1
41
1
41
1
41
1
41
1
10
-381.61520125000004
20
94.608077500000348
30
8.5705423269187504e-31
10
-382.04275468750006
20
95.384007812500343
30
8.6585958439761353e-31
10
-382.9295321875
20
97.58511625000034
30
8.8412253608358941e-31
10
-383.54710937499999
20
99.422012500000363
30
8.9684137743632306e-31
0
SPLINE
5
249
100
AcDbEntity
8
0
100
AcDbSpline
70
4
71
3
72
8
73
4
74
0
42
0.000000001
43
0.0000000001
44
0.0000000001
40
0
40
0
40
0
40
0
40
1
40
1
40
1
40
1
41
1
41
1
41
1
41
1
10
-383.54710937499999
20
99.422012500000363
30
8.9684137743632306e-31
10
-383.73713312500001
20
99.992083750000361
30
9.0075486708331752e-31
10
-383.95882749999998
20
100.59382562500035
30
9.0532060500481158e-31
10
-384.03800406250002
20
100.76801406250036
30
9.0695122569105953e-31
0
SPLINE
5
250
100
AcDbEntity
8
0
100
AcDbSpline
70
4
71
3
72
8
73
4
74
0
42
0.000000001
43
0.0000000001
44
0.0000000001
40
0
40
0
40
0
40
0
40
1
40
1
40
1
40
1
41
1
41
1
41
1
41
1
10
-384.03800406250002
20
100.76801406250036
30
9.0695122569105953e-31
10
-384.117180625
20
100.94220250000035
30
9.0858184637730731e-31
10
-384.46555750000005
20
102.00316843750034
30
9.1575657739679802e-31
10
-384.81393437500003
20
103.14331093750035
30
9.2293130841628874e-31
0
SPLINE
5
251
100
AcDbEntity
8
0
100
AcDbSpline
70
4
71
3
72
8
73
4
74
0
42
0.000000001
43
0.0000000001
44
0.0000000001
40
0
40
0
40
0
40
0
40
1
40
1
40
1
40
1
41
1
41
1
41
1
41
1
10
-384.81393437500003
20
103.14331093750035
30
9.2293130841628874e-31
10
-385.16231125000002
20
104.26761812500035
30
9.301060394357791e-31
10
-385.52652343750003
20
105.40776062500035
30
9.3760689459251944e-31
10
-385.62153531250004
20
105.67696093750035
30
9.3956363941601667e-31
0
SPLINE
5
252
100
AcDbEntity
8
0
100
AcDbSpline
70
4
71
3
72
8
73
4
74
0
42
0.000000001
43
0.0000000001
44
0.0000000001
40
0
40
0
40
0
40
0
40
1
40
1
40
1
40
1
41
1
41
1
41
1
41
1
10
-385.62153531250004
20
105.67696093750035
30
9.3956363941601667e-31
10
-385.71654718750005
20
105.93032593750036
30
9.4152038423951407e-31
10
-385.87490031250002
20
106.54790312500035
30
9.447816256120098e-31
10
-385.954076875
20
107.02296250000035
30
9.4641224629825775e-31
0
SPLINE
5
253
100
AcDbEntity
8
0
100
AcDbSpline
70
4
71
3
72
8
73
4
74
0
42
0.000000001
43
0.0000000001
44
0.0000000001
40
0
40
0
40
0
40
0
40
1
40
1
40
1
40
1
41
1
41
1
41
1
41
1
10
-385.954076875
20
107.02296250000035
30
9.4641224629825775e-31
10
-386.03325343749998
20
107.49802187500036
30
9.4804286698450553e-31
10
-386.20744187500003
20
108.24228156250035
30
9.5163023249425089e-31
10
-386.31828906250001
20
108.68567031250036
30
9.5391310145499809e-31
0
SPLINE
5
254
100
AcDbEntity
8
0
100
AcDbSpline
70
4
71
3
72
8
73
4
74
0
42
0.000000001
43
0.0000000001
44
0.0000000001
40
0
40
0
40
0
40
0
40
1
40
1
40
1
40
1
41
1
41
1
41
1
41
1
10
-386.31828906250001
20
108.68567031250036
30
9.5391310145499809e-31
10
-386.44497156250003
20
109.11322375000034
30
9.5652209455299457e-31
10
-386.61916000000008
20
110.82343750000035
30
9.6010946006273975e-31
10
-386.69833656250006
20
112.48614531250034
30
9.6174008074898771e-31
0
SPLINE
5
255
100
AcDbEntity
8
0
100
AcDbSpline
70
4
71
3
72
8
73
4
74
0
42
0.000000001
43
0.0000000001
44
0.0000000001
40
0
40
0
40
0
40
0
40
1
40
1
40
1
40
1
41
1
41
1
41
1
41
1
10
-386.69833656250006
20
112.48614531250034
30
9.6174008074898771e-31
10
-386.77751312499998
20
114.13301781250034
30
9.6337070143523566e-31
10
-386.92003093750003
20
115.70071375000033
30
9.6630581867048159e-31
10
-387.01504281250004
20
115.96991406250034
30
9.6826256349397917e-31
0
SPLINE
5
256
100
AcDbEntity
8
0
100
AcDbSpline
70
4
71
3
72
8
73
4
74
0
42
0.000000001
43
0.0000000001
44
0.0000000001
40
0
40
0
40
0
40
0
40
1
40
1
40
1
40
1
41
1
41
1
41
1
41
1
10
-387.01504281250004
20
115.96991406250034
30
9.6826256349397917e-31
10
-387.09421937500002
20
116.22327906250035
30
9.6989318418022695e-31
10
-387.20506656250001
20
118.10768125000035
30
9.721760531409738e-31
10
-387.23673718750001
20
120.11876593750034
30
9.7282830141547305e-31
0
SPLINE
5
257
100
AcDbEntity
8
0
100
AcDbSpline
70
4
71
3
72
8
73
4
74
0
42
0.000000001
43
0.0000000001
44
0.0000000001
40
0
40
0
40
0
40
0
40
1
40
1
40
1
40
1
41
1
41
1
41
1
41
1
10
-387.23673718750001
20
120.11876593750034
30
9.7282830141547305e-31
10
-387.28424312500005
20
122.76326312500035
30
9.7380667382722158e-31
10
-387.36341968750003
20
123.87173500000034
30
9.7543729451346953e-31
10
-387.50593750000002
20
124.04592343750036
30
9.7837241174871599e-31
0
SPLINE
5
258
100
AcDbEntity
8
0
100
AcDbSpline
70
4
71
3
72
8
73
4
74
0
42
0.000000001
43
0.0000000001
44
0.0000000001
40
0
40
0
40
0
40
0
40
1
40
1
40
1
40
1
41
1
41
1
41
1
41
1
10
-387.50593750000002
20
124.04592343750036
30
9.7837241174871599e-31
10
-387.79097312499999
20
124.39430031250033
30
9.8424264621920802e-31
10
-388.51939749999997
20
124.33095906250034
30
9.9924435653268853e-31
10
-388.86777437500001
20
123.95091156250034
30
1.0064190875521789e-30
0
SPLINE
5
259
100
AcDbEntity
8
0
100
AcDbSpline
70
4
71
3
72
8
73
4
74
0
42
0.000000001
43
0.0000000001
44
0.0000000001
40
0
40
0
40
0
40
0
40
1
40
1
40
1
40
1
41
1
41
1
41
1
41
1
10
-388.86777437500001
20
123.95091156250034
30
1.0064190875521789e-30
10
-389.13697468750001
20
123.65004062500034
30
1.0119631978854217e-30
10
-389.18448062500005
20
123.23832250000035
30
1.0129415702971702e-30
10
-389.29532781250003
20
120.18210718750034
30
1.0152244392579176e-30
0
SPLINE
5
260
100
AcDbEntity
8
0
100
AcDbSpline
70
4
71
3
72
8
73
4
74
0
42
0.000000001
43
0.0000000001
44
0.0000000001
40
0
40
0
40
0
40
0
40
1
40
1
40
1
40
1
41
1
41
1
41
1
41
1
10
-389.29532781250003
20
120.18210718750034
30
1.0152244392579176e-30
10
-389.58036343750001
20
112.47031000000035
30
1.0210946737284096e-30
10
-389.58036343750001
20
111.42517937500034
30
1.0210946737284096e-30
10
-389.34283375000001
20
109.47743593750035
30
1.0162028116696661e-30
0
SPLINE
5
261
100
AcDbEntity
8
0
100
AcDbSpline
70
4
71
3
72
8
73
4
74
0
42
0.000000001
43
0.0000000001
44
0.0000000001
40
0
40
0
40
0
40
0
40
1
40
1
40
1
40
1
41
1
41
1
41
1
41
1
10
-389.34283375000001
20
109.47743593750035
30
1.0162028116696661e-30
10
-389.12113937500004
20
107.75138687500035
30
1.011637073748172e-30
10
-388.804433125
20
104.26761812500035
30
1.0051145910031806e-30
10
-388.47189156250005
20
99.738718750000359
30
9.9826598412093948e-31
0
SPLINE
5
262
100
AcDbEntity
8
0
100
AcDbSpline
70
4
71
3
72
8
73
4
74
0
42
0.000000001
43
0.0000000001
44
0.0000000001
40
0
40
0
40
0
40
0
40
1
40
1
40
1
40
1
41
1
41
1
41
1
41
1
10
-388.47189156250005
20
99.738718750000359
30
9.9826598412093948e-31
10
-388.36104437500006
20
98.234364062500362
30
9.959831151601928e-31
10
-388.0601734375
20
96.840856562500335
30
9.8978675655245096e-31
10
-387.61678468750006
20
95.779890625000348
30
9.8065528070946267e-31
0
SPLINE
5
263
100
AcDbEntity
8
0
100
AcDbSpline
70
4
71
3
72
8
73
4
74
0
42
0.000000001
43
0.0000000001
44
0.0000000001
40
0
40
0
40
0
40
0
40
1
40
1
40
1
40
1
41
1
41
1
41
1
41
1
10
-387.61678468750006
20
95.779890625000348
30
9.8065528070946267e-31
10
-387.45843156250004
20
95.384007812500343
30
9.7739403933696711e-31
10
-387.36341968750003
20
95.003960312500354
30
9.7543729451346953e-31
10
-386.74584250000004
20
92.280286562500336
30
9.6271845316073623e-31
0
SPLINE
5
264
100
AcDbEntity
8
0
100
AcDbSpline
70
4
71
3
72
8
73
4
74
0
42
0.000000001
43
0.0000000001
44
0.0000000001
40
0
40
0
40
0
40
0
40
1
40
1
40
1
40
1
41
1
41
1
41
1
41
1
10
-386.74584250000004
20
92.280286562500336
30
9.6271845316073623e-31
10
-386.57165406249999
20
91.536026875000331
30
9.5913108765099088e-31
10
-386.23911250000003
20
90.364213750000332
30
9.5228248076875032e-31
10
-386.00158281250003
20
89.667460000000347
30
9.4739061871000663e-31
0
SPLINE
5
265
100
AcDbEntity
8
0
100
AcDbSpline
70
4
71
3
72
8
73
4
74
0
42
0.000000001
43
0.0000000001
44
0.0000000001
40
0
40
0
40
0
40
0
40
1
40
1
40
1
40
1
41
1
41
1
41
1
41
1
10
-386.00158281250003
20
89.667460000000347
30
9.4739061871000663e-31
10
-385.60570000000007
20
88.527317500000336
30
9.3923751527876739e-31
10
-385.41567625000005
20
87.73555187500034
30
9.3532402563177223e-31
10
-384.95645218750008
20
85.597784687500337
30
9.2586642565153484e-31
0
SPLINE
5
266
100
AcDbEntity
8
0
100
AcDbSpline
70
4
71
3
72
8
73
4
74
0
42
0.000000001
43
0.0000000001
44
0.0000000001
40
0
40
0
40
0
40
0
40
1
40
1
40
1
40
1
41
1
41
1
41
1
41
1
10
-384.95645218750008
20
85.597784687500337
30
9.2586642565153484e-31
10
-384.73475781249999
20
84.505148125000332
30
9.2130068773004078e-31
10
-384.8297696875
20
66.769598125000329
30
9.2325743255353801e-31
10
-385.06729937500006
20
66.468727187500335
30
9.2814929461228152e-31
0
SPLINE
5
267
100
AcDbEntity
8
0
100
AcDbSpline
70
4
71
3
72
8
73
4
74
0
42
0.000000001
43
0.0000000001
44
0.0000000001
40
0
40
0
40
0
40
0
40
1
40
1
40
1
40
1
41
1
41
1
41
1
41
1
10
-385.06729937500006
20
66.468727187500335
30
9.2814929461228152e-31
10
-385.16231125000002
20
66.342044687500334
30
9.301060394357791e-31
10
-385.28899375000003
20
65.851150000000331
30
9.3271503253377593e-31
10
-385.33649968750007
20
65.37609062500033
30
9.3369340494552446e-31
0
SPLINE
5
268
100
AcDbEntity
8
0
100
AcDbSpline
70
4
71
3
72
8
73
4
74
0
42
0.000000001
43
0.0000000001
44
0.0000000001
40
0
40
0
40
0
40
0
40
1
40
1
40
1
40
1
41
1
41
1
41
1
41
1
10
-385.33649968750007
20
65.37609062500033
30
9.3369340494552446e-31
10
-385.4790175
20
64.220112812500332
30
9.3662852218077056e-31
10
-386.27078312500004
20
62.636581562500325
30
9.5293472904324922e-31
10
-387.23673718750007
20
61.607286250000328
30
9.7282830141547305e-31
0
SPLINE
5
269
100
AcDbEntity
8
0
100
AcDbSpline
70
4
71
3
72
8
73
4
74
0
42
0.000000001
43
0.0000000001
44
0.0000000001
40
0
40
0
40
0
40
0
40
1
40
1
40
1
40
1
41
1
41
1
41
1
41
1
10
-387.23673718750007
20
61.607286250000328
30
9.7282830141547305e-31
10
-388.09184406250006
20
60.72050875000032
30
9.9043900482694986e-31
10
-388.67775062500004
20
60.546320312500335
30
1.0025055979051841e-30
10
-389.12113937500004
20
61.053050312500332
30
1.011637073748172e-30
0
SPLINE
5
270
100
AcDbEntity
8
0
100
AcDbSpline
70
4
71
3
72
8
73
4
74
0
42
0.000000001
43
0.0000000001
44
0.0000000001
40
0
40
0
40
0
40
0
40
1
40
1
40
1
40
1
41
1
41
1
41
1
41
1
10
-389.12113937500004
20
61.053050312500332
30
1.011637073748172e-30
10
-389.53285750000009
20
61.528109687500333
30
1.0201163013166611e-30
10
-390.35629375000008
20
63.174982187500319
30
1.037074756453639e-30
10
-390.35629375000008
20
63.539194375000335
30
1.037074756453639e-30
0
SPLINE
5
271
100
AcDbEntity
8
0
100
AcDbSpline
70
4
71
3
72
8
73
4
74
0
42
0.000000001
43
0.0000000001
44
0.0000000001
40
0
40
0
40
0
40
0
40
1
40
1
40
1
40
1
41
1
41
1
41
1
41
1
10
-390.35629375000008
20
63.539194375000335
30
1.037074756453639e-30
10
-390.35629375000008
20
63.72921812500033
30
1.037074756453639e-30
10
-390.45130562500003
20
63.982583125000332
30
1.0390315012771362e-30
10
-390.54631750000004
20
64.093430312500331
30
1.0409882461006334e-30
0
SPLINE
5
272
100
AcDbEntity
8
0
100
AcDbSpline
70
4
71
3
72
8
73
4
74
0
42
0.000000001
43
0.0000000001
44
0.0000000001
40
0
40
0
40
0
40
0
40
1
40
1
40
1
40
1
41
1
41
1
41
1
41
1
10
-390.54631750000004
20
64.093430312500331
30
1.0409882461006334e-30
10
-390.83135312500008
20
64.362630625000321
30
1.046858480571126e-30
10
-390.83135312500008
20
70.395884687500327
30
1.046858480571126e-30
10
-390.54631750000004
20
72.10609843750035
30
1.0409882461006334e-30
0
SPLINE
5
273
100
AcDbEntity
8
0
100
AcDbSpline
70
4
71
3
72
8
73
4
74
0
42
0.000000001
43
0.0000000001
44
0.0000000001
40
0
40
0
40
0
40
0
40
1
40
1
40
1
40
1
41
1
41
1
41
1
41
1
10
-390.54631750000004
20
72.10609843750035
30
1.0409882461006334e-30
10
-390.4354703125
20
72.802852187500349
30
1.0387053771398868e-30
10
-390.26128187500007
20
73.800476875000328
30
1.0351180116301414e-30
10
-390.18210531250008
20
74.323042187500349
30
1.0334873909438936e-30
0
SPLINE
5
274
100
AcDbEntity
8
0
100
AcDbSpline
70
4
71
3
72
8
73
4
74
0
42
0.000000001
43
0.0000000001
44
0.0000000001
40
0
40
0
40
0
40
0
40
1
40
1
40
1
40
1
41
1
41
1
41
1
41
1
10
-390.18210531250008
20
74.323042187500349
30
1.0334873909438936e-30
10
-390.10292875000005
20
74.845607500000341
30
1.0318567702576457e-30
10
-389.99208156250006
20
75.447349375000329
30
1.0295739012968986e-30
10
-389.92874031250005
20
75.669043750000341
30
1.0282694047479003e-30
0
LINE
5
275
100
AcDbEntity
8
0
100
AcDbLine
10
-389.92874031250011
20
75.669043750000341
30
1.0282694047479003e-30
11
-389.83372843750004
21
76.064926562500347
31
1.0263126599244027e-30
0
LINE
5
276
100
AcDbEntity
8
0
100
AcDbLine
10
-389.83372843750004
20
76.064926562500347
30
1.0263126599244027e-30
11
-390.18210531250008
21
75.748220312500351
31
1.0334873909438936e-30
0
SPLINE
5
277
100
AcDbEntity
8
0
100
AcDbSpline
70
4
71
3
72
8
73
4
74
0
42
0.000000001
43
0.0000000001
44
0.0000000001
40
0
40
0
40
0
40
0
40
1
40
1
40
1
40
1
41
1
41
1
41
1
41
1
10
-390.18210531250008
20
75.748220312500351
30
1.0334873909438936e-30
10
-390.38796437500002
20
75.574031875000344
30
1.0377270047281379e-30
10
-390.673
20
75.178149062500353
30
1.0435972391986304e-30
10
-390.83135312500008
20
74.877278125000345
30
1.046858480571126e-30
0
SPLINE
5
278
100
AcDbEntity
8
0
100
AcDbSpline
70
4
71
3
72
8
73
4
74
0
42
0.000000001
43
0.0000000001
44
0.0000000001
40
0
40
0
40
0
40
0
40
1
40
1
40
1
40
1
41
1
41
1
41
1
41
1
10
-390.83135312500008
20
74.877278125000345
30
1.046858480571126e-30
10
-390.97387093750001
20
74.576407187500337
30
1.0497935978063721e-30
10
-391.44893031250007
20
73.642123750000337
30
1.0595773219238591e-30
10
-391.8606484375
20
72.818687500000351
30
1.0680565494923482e-30
0
SPLINE
5
279
100
AcDbEntity
8
0
100
AcDbSpline
70
4
71
3
72
8
73
4
74
0
42
0.000000001
43
0.0000000001
44
0.0000000001
40
0
40
0
40
0
40
0
40
1
40
1
40
1
40
1
41
1
41
1
41
1
41
1
10
-391.8606484375
20
72.818687500000351
30
1.0680565494923482e-30
10
-392.2723665625
20
71.995251250000337
30
1.0765357770608368e-30
10
-392.76326125000003
20
71.155979687500349
30
1.0866456253155737e-30
10
-392.93744968750002
20
70.965955937500325
30
1.090232990825319e-30
0
SPLINE
5
280
100
AcDbEntity
8
0
100
AcDbSpline
70
4
71
3
72
8
73
4
74
0
42
0.000000001
43
0.0000000001
44
0.0000000001
40
0
40
0
40
0
40
0
40
1
40
1
40
1
40
1
41
1
41
1
41
1
41
1
10
-392.93744968750002
20
70.965955937500325
30
1.090232990825319e-30
10
-393.2541559375
20
70.61757906250034
30
1.0967554735703103e-30
10
-393.57086218750004
20
70.03167250000034
30
1.1032779563153018e-30
10
-395.13855812500003
20
66.927951250000334
30
1.1355642459030095e-30
0
SPLINE
5
281
100
AcDbEntity
8
0
100
AcDbSpline
70
4
71
3
72
8
73
4
74
0
42
0.000000001
43
0.0000000001
44
0.0000000001
40
0
40
0
40
0
40
0
40
1
40
1
40
1
40
1
41
1
41
1
41
1
41
1
10
-395.13855812500003
20
66.927951250000334
30
1.1355642459030095e-30
10
-396.13618281250007
20
64.948537187500335
30
1.1561100665497327e-30
10
-397.11797218750002
20
62.272369375000345
30
1.1763297630592058e-30
10
-397.32383125000007
20
60.942203125000347
30
1.1805693768434506e-30
0
SPLINE
5
282
100
AcDbEntity
8
0
100
AcDbSpline
70
4
71
3
72
8
73
4
74
0
42
0.000000001
43
0.0000000001
44
0.0000000001
40
0
40
0
40
0
40
0
40
1
40
1
40
1
40
1
41
1
41
1
41
1
41
1
10
-397.32383125000007
20
60.942203125000347
30
1.1805693768434506e-30
10
-397.4663490625
20
60.118766875000333
30
1.1835044940786965e-30
10
-397.68804343750003
20
59.422013125000333
30
1.1880702320001906e-30
10
-398.19477343750003
20
58.329376562500329
30
1.198506204392177e-30
0
SPLINE
5
283
100
AcDbEntity
8
0
100
AcDbSpline
70
4
71
3
72
8
73
4
74
0
42
0.000000001
43
0.0000000001
44
0.0000000001
40
0
40
0
40
0
40
0
40
1
40
1
40
1
40
1
41
1
41
1
41
1
41
1
10
-398.19477343750003
20
58.329376562500329
30
1.198506204392177e-30
10
-398.30562062500002
20
58.060176250000325
30
1.2007890733529237e-30
10
-398.52731500000004
20
57.490105000000327
30
1.2053548112744176e-30
10
-398.66983281249998
20
57.062551562500339
30
1.2082899285096642e-30
0
SPLINE
5
284
100
AcDbEntity
8
0
100
AcDbSpline
70
4
71
3
72
8
73
4
74
0
42
0.000000001
43
0.0000000001
44
0.0000000001
40
0
40
0
40
0
40
0
40
1
40
1
40
1
40
1
41
1
41
1
41
1
41
1
10
-398.66983281249998
20
57.062551562500339
30
1.2082899285096642e-30
10
-398.81235062500002
20
56.619162812500328
30
1.2112250457449102e-30
10
-399.14489218750009
20
55.589867500000324
30
1.2180736526271513e-30
10
-399.39825718750001
20
54.766431250000345
30
1.2232916388231442e-30
0
SPLINE
5
285
100
AcDbEntity
8
0
100
AcDbSpline
70
4
71
3
72
8
73
4
74
0
42
0.000000001
43
0.0000000001
44
0.0000000001
40
0
40
0
40
0
40
0
40
1
40
1
40
1
40
1
41
1
41
1
41
1
41
1
10
-399.39825718750001
20
54.766431250000345
30
1.2232916388231442e-30
10
-399.66745750000001
20
53.942995000000323
30
1.228835749156387e-30
10
-399.98416375000005
20
53.040382187500313
30
1.2353582319013784e-30
10
-400.11084625000001
20
52.755346562500321
30
1.2379672249993749e-30
0
SPLINE
5
286
100
AcDbEntity
8
0
100
AcDbSpline
70
4
71
3
72
8
73
4
74
0
42
0.000000001
43
0.0000000001
44
0.0000000001
40
0
40
0
40
0
40
0
40
1
40
1
40
1
40
1
41
1
41
1
41
1
41
1
10
-400.11084625000001
20
52.755346562500321
30
1.2379672249993749e-30
10
-400.23752875000008
20
52.486146250000317
30
1.2405762180973717e-30
10
-400.33254062500009
20
52.201110625000325
30
1.2425329629208692e-30
10
-400.33254062500009
20
52.121934062500337
30
1.2425329629208692e-30
0
SPLINE
5
287
100
AcDbEntity
8
0
100
AcDbSpline
70
4
71
3
72
8
73
4
74
0
42
0.000000001
43
0.0000000001
44
0.0000000001
40
0
40
0
40
0
40
0
40
1
40
1
40
1
40
1
41
1
41
1
41
1
41
1
10
-400.33254062500009
20
52.121934062500337
30
1.2425329629208692e-30
10
-400.33254062500009
20
51.94774562500033
30
1.2425329629208692e-30
10
-401.77355406250001
20
49.160730625000326
30
1.27221025941058e-30
10
-401.91607187500006
20
49.065718750000343
30
1.2751453766458265e-30
0
SPLINE
5
288
100
AcDbEntity
8
0
100
AcDbSpline
70
4
71
3
72
8
73
4
74
0
42
0.000000001
43
0.0000000001
44
0.0000000001
40
0
40
0
40
0
40
0
40
1
40
1
40
1
40
1
41
1
41
1
41
1
41
1
10
-401.91607187500006
20
49.065718750000343
30
1.2751453766458265e-30
10
-401.97941312500006
20
49.01821281250033
30
1.2764498731948246e-30
10
-402.28028406250007
20
48.57482406250034
30
1.2826462318025666e-30
10
-402.56531968750005
20
48.068094062500322
30
1.2885164662730587e-30
0
SPLINE
5
289
100
AcDbEntity
8
0
100
AcDbSpline
70
4
71
3
72
8
73
4
74
0
42
0.000000001
43
0.0000000001
44
0.0000000001
40
0
40
0
40
0
40
0
40
1
40
1
40
1
40
1
41
1
41
1
41
1
41
1
10
-402.56531968750005
20
48.068094062500322
30
1.2885164662730587e-30
10
-403.42042656249998
20
46.595410000000328
30
1.3061271696845358e-30
10
-403.27790875000005
20
46.817104375000334
30
1.3031920524492894e-30
10
-405.06729906250001
20
44.172607187500326
30
1.3400440799584913e-30
0
SPLINE
5
290
100
AcDbEntity
8
0
100
AcDbSpline
70
4
71
3
72
8
73
4
74
0
42
0.000000001
43
0.0000000001
44
0.0000000001
40
0
40
0
40
0
40
0
40
1
40
1
40
1
40
1
41
1
41
1
41
1
41
1
10
-405.06729906250001
20
44.172607187500326
30
1.3400440799584913e-30
10
-405.28899343750004
20
43.855900937500323
30
1.3446098178799852e-30
10
-406.30245343750005
20
42.763264375000318
30
1.3654817626639575e-30
10
-407.33174875000003
20
41.718133750000334
30
1.3866798315851799e-30
0
SPLINE
5
291
100
AcDbEntity
8
0
100
AcDbSpline
70
4
71
3
72
8
73
4
74
0
42
0.000000001
43
0.0000000001
44
0.0000000001
40
0
40
0
40
0
40
0
40
1
40
1
40
1
40
1
41
1
41
1
41
1
41
1
10
-407.33174875000003
20
41.718133750000334
30
1.3866798315851799e-30
10
-408.36104406250001
20
40.68883843750033
30
1.4078779005064019e-30
10
-409.20031562500009
20
39.786225625000341
30
1.4251624797806296e-30
10
-409.20031562500009
20
39.707049062500332
30
1.4251624797806296e-30
0
SPLINE
5
292
100
AcDbEntity
8
0
100
AcDbSpline
70
4
71
3
72
8
73
4
74
0
42
0.000000001
43
0.0000000001
44
0.0000000001
40
0
40
0
40
0
40
0
40
1
40
1
40
1
40
1
41
1
41
1
41
1
41
1
10
-409.20031562500009
20
39.707049062500332
30
1.4251624797806296e-30
10
-409.20031562500009
20
39.627872500000336
30
1.4251624797806296e-30
10
-409.26365687500004
20
39.564531250000329
30
1.4264669763296279e-30
10
-409.35866874999999
20
39.564531250000329
30
1.4284237211531253e-30
0
SPLINE
5
293
100
AcDbEntity
8
0
100
AcDbSpline
70
4
71
3
72
8
73
4
74
0
42
0.000000001
43
0.0000000001
44
0.0000000001
40
0
40
0
40
0
40
0
40
1
40
1
40
1
40
1
41
1
41
1
41
1
41
1
10
-409.35866874999999
20
39.564531250000329
30
1.4284237211531253e-30
10
-409.43784531250003
20
39.564531250000329
30
1.4300543418393731e-30
10
-409.99208125000001
20
39.105307187500316
30
1.4414686866431082e-30
10
-410.59382312500009
20
38.535235937500332
30
1.4538614038585917e-30
0
SPLINE
5
294
100
AcDbEntity
8
0
100
AcDbSpline
70
4
71
3
72
8
73
4
74
0
42
0.000000001
43
0.0000000001
44
0.0000000001
40
0
40
0
40
0
40
0
40
1
40
1
40
1
40
1
41
1
41
1
41
1
41
1
10
-410.59382312500009
20
38.535235937500332
30
1.4538614038585917e-30
10
-411.74980093750008
20
37.442599375000327
30
1.4776684658778109e-30
10
-413.36500281250005
20
36.555821875000341
30
1.5109331278772668e-30
10
-414.18843906250004
20
36.555821875000341
30
1.5278915830142448e-30
0
SPLINE
5
295
100
AcDbEntity
8
0
100
AcDbSpline
70
4
71
3
72
8
73
4
74
0
42
0.000000001
43
0.0000000001
44
0.0000000001
40
0
40
0
40
0
40
0
40
1
40
1
40
1
40
1
41
1
41
1
41
1
41
1
10
-414.18843906250004
20
36.555821875000341
30
1.5278915830142448e-30
10
-414.45763937500004
20
36.555821875000341
30
1.5334356933474872e-30
10
-414.75851031249999
20
36.476645312500331
30
1.5396320519552294e-30
10
-414.8535221875
20
36.381633437500334
30
1.5415887967787267e-30
0
SPLINE
5
296
100
AcDbEntity
8
0
100
AcDbSpline
70
4
71
3
72
8
73
4
74
0
42
0.000000001
43
0.0000000001
44
0.0000000001
40
0
40
0
40
0
40
0
40
1
40
1
40
1
40
1
41
1
41
1
41
1
41
1
10
-414.8535221875
20
36.381633437500334
30
1.5415887967787267e-30
10
-415.10688718750004
20
36.128268437500338
30
1.5468067829747198e-30
10
-416.13618250000002
20
36.904198750000319
30
1.568004851895942e-30
10
-416.88044218750008
20
37.870152812500336
30
1.5833326863466721e-30
0
SPLINE
5
297
100
AcDbEntity
8
0
100
AcDbSpline
70
4
71
3
72
8
73
4
74
0
42
0.000000001
43
0.0000000001
44
0.0000000001
40
0
40
0
40
0
40
0
40
1
40
1
40
1
40
1
41
1
41
1
41
1
41
1
10
-416.88044218750008
20
37.870152812500336
30
1.5833326863466721e-30
10
-417.84639625000005
20
39.121142500000317
30
1.6032262587188959e-30
10
-418.14726718750012
20
40.16627312500033
30
1.6094226173266376e-30
10
-418.13143187500003
20
42.256534375000342
30
1.6090964931893881e-30
0
SPLINE
5
298
100
AcDbEntity
8
0
100
AcDbSpline
70
4
71
3
72
8
73
4
74
0
42
0.000000001
43
0.0000000001
44
0.0000000001
40
0
40
0
40
0
40
0
40
1
40
1
40
1
40
1
41
1
41
1
41
1
41
1
10
-418.13143187500003
20
42.256534375000342
30
1.6090964931893881e-30
10
-418.13143187500003
20
43.935077500000318
30
1.6090964931893881e-30
10
-418.08392593750006
20
44.204277812500337
30
1.6081181207776394e-30
10
-417.56136062500002
20
45.756138437500326
30
1.5973560242484034e-30
0
SPLINE
5
299
100
AcDbEntity
8
0
100
AcDbSpline
70
4
71
3
72
8
73
4
74
0
42
0.000000001
43
0.0000000001
44
0.0000000001
40
0
40
0
40
0
40
0
40
1
40
1
40
1
40
1
41
1
41
1
41
1
41
1
10
-417.56136062500002
20
45.756138437500326
30
1.5973560242484034e-30
10
-416.72208906250006
20
48.163105937500333
30
1.5800714449741762e-30
10
-416.38954750000005
20
48.733177187500338
30
1.5732228380919351e-30
10
-414.17260375000006
20
51.631039375000327
30
1.5275654588769952e-30
0
SPLINE
5
300
100
AcDbEntity
8
0
100
AcDbSpline
70
4
71
3
72
8
73
4
74
0
42
0.000000001
43
0.0000000001
44
0.0000000001
40
0
40
0
40
0
40
0
40
1
40
1
40
1
40
1
41
1
41
1
41
1
41
1
10
-414.17260375000006
20
51.631039375000327
30
1.5275654588769952e-30
10
-413.36500281250005
20
52.676170000000333
30
1.5109331278772668e-30
10
-411.6706243750001
20
54.243865937500324
30
1.4760378451915629e-30
10
-410.53048187500002
20
55.003960937500338
30
1.4525569073095936e-30
0
SPLINE
5
301
100
AcDbEntity
8
0
100
AcDbSpline
70
4
71
3
72
8
73
4
74
0
42
0.000000001
43
0.0000000001
44
0.0000000001
40
0
40
0
40
0
40
0
40
1
40
1
40
1
40
1
41
1
41
1
41
1
41
1
10
-410.53048187500002
20
55.003960937500338
30
1.4525569073095936e-30
10
-410.07125781250005
20
55.320667187500341
30
1.443099307329356e-30
10
-409.64370437500003
20
55.653208750000331
30
1.4342939556236175e-30
10
-409.58036312500008
20
55.748220625000329
30
1.4329894590746194e-30
0
SPLINE
5
302
100
AcDbEntity
8
0
100
AcDbSpline
70
4
71
3
72
8
73
4
74
0
42
0.000000001
43
0.0000000001
44
0.0000000001
40
0
40
0
40
0
40
0
40
1
40
1
40
1
40
1
41
1
41
1
41
1
41
1
10
-409.58036312500008
20
55.748220625000329
30
1.4329894590746194e-30
10
-409.37450406250002
20
56.080762187500341
30
1.4287498452903747e-30
10
-410.79968218750003
20
55.716550000000339
30
1.4581010176428363e-30
10
-412.0348365625
20
55.130643437500325
30
1.4835387003483029e-30
0
SPLINE
5
303
100
AcDbEntity
8
0
100
AcDbSpline
70
4
71
3
72
8
73
4
74
0
42
0.000000001
43
0.0000000001
44
0.0000000001
40
0
40
0
40
0
40
0
40
1
40
1
40
1
40
1
41
1
41
1
41
1
41
1
10
-412.0348365625
20
55.130643437500325
30
1.4835387003483029e-30
10
-414.34679218750006
20
54.022171562500333
30
1.5311528243867404e-30
10
-416.05700593749998
20
52.644499375000322
30
1.566374231209694e-30
10
-418.30562031250003
20
50.126684687500322
30
1.6126838586991335e-30
0
SPLINE
5
304
100
AcDbEntity
8
0
100
AcDbSpline
70
4
71
3
72
8
73
4
74
0
42
0.000000001
43
0.0000000001
44
0.0000000001
40
0
40
0
40
0
40
0
40
1
40
1
40
1
40
1
41
1
41
1
41
1
41
1
10
-418.30562031250003
20
50.126684687500322
30
1.6126838586991335e-30
10
-419.73079843750008
20
48.543153437500322
30
1.6420350310515949e-30
10
-419.85748093750004
20
48.543153437500322
30
1.6446440241495915e-30
10
-420.15835187499999
20
50.110849375000313
30
1.6508403827573332e-30
0
SPLINE
5
305
100
AcDbEntity
8
0
100
AcDbSpline
70
4
71
3
72
8
73
4
74
0
42
0.000000001
43
0.0000000001
44
0.0000000001
40
0
40
0
40
0
40
0
40
1
40
1
40
1
40
1
41
1
41
1
41
1
41
1
10
-420.15835187499999
20
50.110849375000313
30
1.6508403827573332e-30
10
-420.66508187500006
20
52.692005312500342
30
1.6612763551493195e-30
10
-420.07917531250001
20
56.492480312500334
30
1.6492097620710853e-30
10
-418.36896156250009
20
61.733968750000336
30
1.6139883552481316e-30
0
SPLINE
5
306
100
AcDbEntity
8
0
100
AcDbSpline
70
4
71
3
72
8
73
4
74
0
42
0.000000001
43
0.0000000001
44
0.0000000001
40
0
40
0
40
0
40
0
40
1
40
1
40
1
40
1
41
1
41
1
41
1
41
1
10
-418.36896156250009
20
61.733968750000336
30
1.6139883552481316e-30
10
-418.08392593750006
20
62.620746250000323
30
1.6081181207776394e-30
10
-417.75138437500004
20
63.491688437500322
30
1.6012695138953982e-30
10
-417.37133687500005
20
64.346795312500333
30
1.5934425346014086e-30
0
SPLINE
5
307
100
AcDbEntity
8
0
100
AcDbSpline
70
4
71
3
72
8
73
4
74
0
42
0.000000001
43
0.0000000001
44
0.0000000001
40
0
40
0
40
0
40
0
40
1
40
1
40
1
40
1
41
1
41
1
41
1
41
1
10
-417.37133687500005
20
64.346795312500333
30
1.5934425346014086e-30
10
-417.24465437499998
20
64.600160312500336
30
1.5908335415034119e-30
10
-416.99128937500006
20
65.249408125000329
30
1.5856155553074189e-30
10
-416.80126562500004
20
65.77197343750035
30
1.5817020656604241e-30
0
SPLINE
5
308
100
AcDbEntity
8
0
100
AcDbSpline
70
4
71
3
72
8
73
4
74
0
42
0.000000001
43
0.0000000001
44
0.0000000001
40
0
40
0
40
0
40
0
40
1
40
1
40
1
40
1
41
1
41
1
41
1
41
1
10
-416.80126562500004
20
65.77197343750035
30
1.5817020656604241e-30
10
-416.37371218750002
20
66.912115937500332
30
1.5728967139546856e-30
10
-415.59778187500001
20
68.701506250000349
30
1.5569166312294566e-30
10
-414.96436937500005
20
70.000001875000336
30
1.5438716657394735e-30
0
SPLINE
5
309
100
AcDbEntity
8
0
100
AcDbSpline
70
4
71
3
72
8
73
4
74
0
42
0.000000001
43
0.0000000001
44
0.0000000001
40
0
40
0
40
0
40
0
40
1
40
1
40
1
40
1
41
1
41
1
41
1
41
1
10
-414.96436937500005
20
70.000001875000336
30
1.5438716657394735e-30
10
-414.80601625000008
20
70.332543437500334
30
1.540610424366978e-30
10
-414.72683968750005
20
70.633414375000342
30
1.53897980368073e-30
10
-414.77434562500002
20
70.680920312500334
30
1.5399581760924787e-30
0
SPLINE
5
310
100
AcDbEntity
8
0
100
AcDbSpline
70
4
71
3
72
8
73
4
74
0
42
0.000000001
43
0.0000000001
44
0.0000000001
40
0
40
0
40
0
40
0
40
1
40
1
40
1
40
1
41
1
41
1
41
1
41
1
10
-414.77434562500002
20
70.680920312500334
30
1.5399581760924787e-30
10
-414.86935749999998
20
70.775932187500331
30
1.5419149209159763e-30
10
-415.85114687500004
20
69.429930625000338
30
1.5621346174254497e-30
10
-415.85114687500004
20
69.192400937500324
30
1.5621346174254497e-30
0
SPLINE
5
311
100
AcDbEntity
8
0
100
AcDbSpline
70
4
71
3
72
8
73
4
74
0
42
0.000000001
43
0.0000000001
44
0.0000000001
40
0
40
0
40
0
40
0
40
1
40
1
40
1
40
1
41
1
41
1
41
1
41
1
10
-415.85114687500004
20
69.192400937500324
30
1.5621346174254497e-30
10
-415.85114687500004
20
69.12905968750033
30
1.5621346174254497e-30
10
-415.99366468750009
20
68.939035937500336
30
1.565069734660696e-30
10
-416.16785312500008
20
68.780682812500345
30
1.5686571001704412e-30
0
SPLINE
5
312
100
AcDbEntity
8
0
100
AcDbSpline
70
4
71
3
72
8
73
4
74
0
42
0.000000001
43
0.0000000001
44
0.0000000001
40
0
40
0
40
0
40
0
40
1
40
1
40
1
40
1
41
1
41
1
41
1
41
1
10
-416.16785312500008
20
68.780682812500345
30
1.5686571001704412e-30
10
-416.34204156250007
20
68.62232968750034
30
1.5722444656801866e-30
10
-416.484559375
20
68.416470625000329
30
1.5751795829154327e-30
10
-416.484559375
20
68.321458750000318
30
1.5751795829154327e-30
0
SPLINE
5
313
100
AcDbEntity
8
0
100
AcDbSpline
70
4
71
3
72
8
73
4
74
0
42
0.000000001
43
0.0000000001
44
0.0000000001
40
0
40
0
40
0
40
0
40
1
40
1
40
1
40
1
41
1
41
1
41
1
41
1
10
-416.484559375
20
68.321458750000318
30
1.5751795829154327e-30
10
-416.50039468750003
20
68.226446875000335
30
1.5755057070526823e-30
10
-416.73792437500003
20
67.751387500000334
30
1.580397569111426e-30
10
-417.03879531250004
20
67.276328125000347
30
1.586593927719168e-30
0
SPLINE
5
314
100
AcDbEntity
8
0
100
AcDbSpline
70
4
71
3
72
8
73
4
74
0
42
0.000000001
43
0.0000000001
44
0.0000000001
40
0
40
0
40
0
40
0
40
1
40
1
40
1
40
1
41
1
41
1
41
1
41
1
10
-417.03879531250004
20
67.276328125000347
30
1.586593927719168e-30
10
-417.32383093750002
20
66.801268750000347
30
1.5924641621896599e-30
10
-417.89390218749998
20
65.803644062500339
30
1.6042046311306446e-30
10
-418.28978500000005
20
65.059384375000349
30
1.6123577345618837e-30
0
SPLINE
5
315
100
AcDbEntity
8
0
100
AcDbSpline
70
4
71
3
72
8
73
4
74
0
42
0.000000001
43
0.0000000001
44
0.0000000001
40
0
40
0
40
0
40
0
40
1
40
1
40
1
40
1
41
1
41
1
41
1
41
1
10
-418.28978500000005
20
65.059384375000349
30
1.6123577345618837e-30
10
-418.66983250000004
20
64.315124687500344
30
1.6201847138558733e-30
10
-419.17656250000005
20
63.396676562500346
30
1.6306206862478599e-30
10
-419.39825687500002
20
63.000793750000348
30
1.635186424169354e-30
0
SPLINE
5
316
100
AcDbEntity
8
0
100
AcDbSpline
70
4
71
3
72
8
73
4
74
0
42
0.000000001
43
0.0000000001
44
0.0000000001
40
0
40
0
40
0
40
0
40
1
40
1
40
1
40
1
41
1
41
1
41
1
41
1
10
-419.39825687500002
20
63.000793750000348
30
1.635186424169354e-30
10
-419.61995124999999
20
62.604910937500335
30
1.6397521620908477e-30
10
-419.87331625000002
20
62.114016250000347
30
1.644970148286841e-30
10
-419.96832812500003
20
61.892321875000334
30
1.6469268931103384e-30
0
SPLINE
5
317
100
AcDbEntity
8
0
100
AcDbSpline
70
4
71
3
72
8
73
4
74
0
42
0.000000001
43
0.0000000001
44
0.0000000001
40
0
40
0
40
0
40
0
40
1
40
1
40
1
40
1
41
1
41
1
41
1
41
1
10
-419.96832812500003
20
61.892321875000334
30
1.6469268931103384e-30
10
-420.0633400000001
20
61.670627500000336
30
1.6488836379338362e-30
10
-420.34837562500002
20
61.068885625000334
30
1.654753872404328e-30
10
-420.58590531250002
20
60.546320312500335
30
1.6596457344630715e-30
0
SPLINE
5
318
100
AcDbEntity
8
0
100
AcDbSpline
70
4
71
3
72
8
73
4
74
0
42
0.000000001
43
0.0000000001
44
0.0000000001
40
0
40
0
40
0
40
0
40
1
40
1
40
1
40
1
41
1
41
1
41
1
41
1
10
-420.58590531250002
20
60.546320312500335
30
1.6596457344630715e-30
10
-421.45684749999998
20
58.725259375000348
30
1.6775825620117983e-30
10
-421.86856562500003
20
57.727634687500341
30
1.6860617895802872e-30
10
-421.86856562500003
20
57.442599062500328
30
1.6860617895802872e-30
0
SPLINE
5
319
100
AcDbEntity
8
0
100
AcDbSpline
70
4
71
3
72
8
73
4
74
0
42
0.000000001
43
0.0000000001
44
0.0000000001
40
0
40
0
40
0
40
0
40
1
40
1
40
1
40
1
41
1
41
1
41
1
41
1
10
-421.86856562500003
20
57.442599062500328
30
1.6860617895802872e-30
10
-421.86856562500003
20
57.284245937500344
30
1.6860617895802872e-30
10
-421.9319068750001
20
57.125892812500339
30
1.6873662861292853e-30
10
-422.01108343750008
20
57.062551562500339
30
1.6889969068155333e-30
0
SPLINE
5
320
100
AcDbEntity
8
0
100
AcDbSpline
70
4
71
3
72
8
73
4
74
0
42
0.000000001
43
0.0000000001
44
0.0000000001
40
0
40
0
40
0
40
0
40
1
40
1
40
1
40
1
41
1
41
1
41
1
41
1
10
-422.01108343750008
20
57.062551562500339
30
1.6889969068155333e-30
10
-422.09026000000006
20
57.015045625000326
30
1.6906275275017812e-30
10
-422.32778968750006
20
56.492480312500334
30
1.6955193895605244e-30
10
-422.53364875
20
55.906573750000334
30
1.699759003344769e-30
0
SPLINE
5
321
100
AcDbEntity
8
0
100
AcDbSpline
70
4
71
3
72
8
73
4
74
0
42
0.000000001
43
0.0000000001
44
0.0000000001
40
0
40
0
40
0
40
0
40
1
40
1
40
1
40
1
41
1
41
1
41
1
41
1
10
-422.53364875
20
55.906573750000334
30
1.699759003344769e-30
10
-422.88202562500004
20
54.893113750000339
30
1.7069337343642597e-30
10
-422.89786093750013
20
54.639748750000336
30
1.7072598585015095e-30
10
-422.89786093750013
20
50.570073437500334
30
1.7072598585015095e-30
0
SPLINE
5
322
100
AcDbEntity
8
0
100
AcDbSpline
70
4
71
3
72
8
73
4
74
0
42
0.000000001
43
0.0000000001
44
0.0000000001
40
0
40
0
40
0
40
0
40
1
40
1
40
1
40
1
41
1
41
1
41
1
41
1
10
-422.89786093750013
20
50.570073437500334
30
1.7072598585015095e-30
10
-422.89786093750013
20
46.215362500000339
30
1.7072598585015095e-30
10
-422.70783718750005
20
44.283454375000332
30
1.7033463688545144e-30
10
-422.10609531250009
20
42.589075937500326
30
1.6909536516390307e-30
0
SPLINE
5
323
100
AcDbEntity
8
0
100
AcDbSpline
70
4
71
3
72
8
73
4
74
0
42
0.000000001
43
0.0000000001
44
0.0000000001
40
0
40
0
40
0
40
0
40
1
40
1
40
1
40
1
41
1
41
1
41
1
41
1
10
-422.10609531250009
20
42.589075937500326
30
1.6909536516390307e-30
10
-421.99524812499999
20
42.256534375000342
30
1.6886707826782838e-30
10
-421.83689500000008
20
41.559780625000329
30
1.6854095413057879e-30
10
-421.78938906250005
20
41.053050625000331
30
1.6844311688940392e-30
0
SPLINE
5
324
100
AcDbEntity
8
0
100
AcDbSpline
70
4
71
3
72
8
73
4
74
0
42
0.000000001
43
0.0000000001
44
0.0000000001
40
0
40
0
40
0
40
0
40
1
40
1
40
1
40
1
41
1
41
1
41
1
41
1
10
-421.78938906250005
20
41.053050625000331
30
1.6844311688940392e-30
10
-421.7260478125001
20
40.530485312500332
30
1.6831266723450411e-30
10
-421.59936531250003
20
39.944578750000339
30
1.6805176792470444e-30
10
-421.52018875000005
20
39.722884375000334
30
1.6788870585607965e-30
0
SPLINE
5
325
100
AcDbEntity
8
0
100
AcDbSpline
70
4
71
3
72
8
73
4
74
0
42
0.000000001
43
0.0000000001
44
0.0000000001
40
0
40
0
40
0
40
0
40
1
40
1
40
1
40
1
41
1
41
1
41
1
41
1
10
-421.52018875000005
20
39.722884375000334
30
1.6788870585607965e-30
10
-421.42517687500003
20
39.501190000000328
30
1.6769303137372987e-30
10
-421.26682375000001
20
38.96278937500032
30
1.6736690723648032e-30
10
-421.15597656250003
20
38.535235937500332
30
1.6713862034040566e-30
0
SPLINE
5
326
100
AcDbEntity
8
0
100
AcDbSpline
70
4
71
3
72
8
73
4
74
0
42
0.000000001
43
0.0000000001
44
0.0000000001
40
0
40
0
40
0
40
0
40
1
40
1
40
1
40
1
41
1
41
1
41
1
41
1
10
-421.15597656250003
20
38.535235937500332
30
1.6713862034040566e-30
10
-420.87094093750005
20
37.458434687500329
30
1.6655159689335641e-30
10
-420.52256406250012
20
36.52415125000033
30
1.6583412379140737e-30
10
-419.93665750000002
20
35.288996875000329
30
1.6462746448358392e-30
0
SPLINE
5
327
100
AcDbEntity
8
0
100
AcDbSpline
70
4
71
3
72
8
73
4
74
0
42
0.000000001
43
0.0000000001
44
0.0000000001
40
0
40
0
40
0
40
0
40
1
40
1
40
1
40
1
41
1
41
1
41
1
41
1
10
-419.93665750000002
20
35.288996875000329
30
1.6462746448358392e-30
10
-419.47743343750005
20
34.291372187500322
30
1.6368170448556019e-30
10
-419.01820937500008
20
33.309582812500338
30
1.6273594448753644e-30
10
-418.47980875000007
20
32.090263750000325
30
1.6162712242088788e-30
0
SPLINE
5
328
100
AcDbEntity
8
0
100
AcDbSpline
70
4
71
3
72
8
73
4
74
0
42
0.000000001
43
0.0000000001
44
0.0000000001
40
0
40
0
40
0
40
0
40
1
40
1
40
1
40
1
41
1
41
1
41
1
41
1
10
-418.47980875000007
20
32.090263750000325
30
1.6162712242088788e-30
10
-418.33729093750003
20
31.773557500000322
30
1.6133361069736324e-30
10
-418.22644375000004
20
31.425180625000326
30
1.6110532380128855e-30
10
-418.22644375000004
20
31.330168750000329
30
1.6110532380128855e-30
0
SPLINE
5
329
100
AcDbEntity
8
0
100
AcDbSpline
70
4
71
3
72
8
73
4
74
0
42
0.000000001
43
0.0000000001
44
0.0000000001
40
0
40
0
40
0
40
0
40
1
40
1
40
1
40
1
41
1
41
1
41
1
41
1
10
-418.22644375000004
20
31.330168750000329
30
1.6110532380128855e-30
10
-418.22644375000004
20
31.219321562500326
30
1.6110532380128855e-30
10
-417.98891406250004
20
30.728426875000316
30
1.606161375954142e-30
10
-417.68804312500009
20
30.237532187500324
30
1.5999650173464004e-30
0
SPLINE
5
330
100
AcDbEntity
8
0
100
AcDbSpline
70
4
71
3
72
8
73
4
74
0
42
0.000000001
43
0.0000000001
44
0.0000000001
40
0
40
0
40
0
40
0
40
1
40
1
40
1
40
1
41
1
41
1
41
1
41
1
10
-417.68804312500009
20
30.237532187500324
30
1.5999650173464004e-30
10
-417.40300750000006
20
29.746637500000332
30
1.5940947828759078e-30
10
-416.86460687500005
20
28.74901281250029
30
1.5830065622094223e-30
10
-416.53206531250009
20
28.004753125000299
30
1.5761579553271812e-30
0
SPLINE
5
331
100
AcDbEntity
8
0
100
AcDbSpline
70
4
71
3
72
8
73
4
74
0
42
0.000000001
43
0.0000000001
44
0.0000000001
40
0
40
0
40
0
40
0
40
1
40
1
40
1
40
1
41
1
41
1
41
1
41
1
10
-416.53206531250009
20
28.004753125000299
30
1.5761579553271812e-30
10
-416.18368843750005
20
27.260493437500308
30
1.568983224307691e-30
10
-415.77197031250012
20
26.563739687500281
30
1.560503996739202e-30
10
-415.62945250000007
20
26.437057187500308
30
1.5575688795039557e-30
0
SPLINE
5
332
100
AcDbEntity
8
0
100
AcDbSpline
70
4
71
3
72
8
73
4
74
0
42
0.000000001
43
0.0000000001
44
0.0000000001
40
0
40
0
40
0
40
0
40
1
40
1
40
1
40
1
41
1
41
1
41
1
41
1
10
-415.62945250000007
20
26.437057187500308
30
1.5575688795039557e-30
10
-415.48693468750002
20
26.326210000000287
30
1.5546337622687094e-30
10
-415.37608750000004
20
26.136186250000328
30
1.5523508933079626e-30
10
-415.37608750000004
20
26.041174375000296
30
1.5523508933079626e-30
0
SPLINE
5
333
100
AcDbEntity
8
0
100
AcDbSpline
70
4
71
3
72
8
73
4
74
0
42
0.000000001
43
0.0000000001
44
0.0000000001
40
0
40
0
40
0
40
0
40
1
40
1
40
1
40
1
41
1
41
1
41
1
41
1
10
-415.37608750000004
20
26.041174375000296
30
1.5523508933079626e-30
10
-415.37608750000004
20
25.819480000000326
30
1.5523508933079626e-30
10
-415.04354593750008
20
25.376091250000279
30
1.5455022864257215e-30
10
-414.20427437500007
20
24.410137187500318
30
1.5282177071514945e-30
0
SPLINE
5
334
100
AcDbEntity
8
0
100
AcDbSpline
70
4
71
3
72
8
73
4
74
0
42
0.000000001
43
0.0000000001
44
0.0000000001
40
0
40
0
40
0
40
0
40
1
40
1
40
1
40
1
41
1
41
1
41
1
41
1
10
-414.20427437500007
20
24.410137187500318
30
1.5282177071514945e-30
10
-413.77672093750004
20
23.935077812500296
30
1.5194123554457558e-30
10
-413.47585000000009
20
23.729218750000314
30
1.5132159968380141e-30
10
-413.25415562500007
20
23.760889375000325
30
1.5086502589165201e-30
0
SPLINE
5
335
100
AcDbEntity
8
0
100
AcDbSpline
70
4
71
3
72
8
73
4
74
0
42
0.000000001
43
0.0000000001
44
0.0000000001
40
0
40
0
40
0
40
0
40
1
40
1
40
1
40
1
41
1
41
1
41
1
41
1
10
-413.25415562500007
20
23.760889375000325
30
1.5086502589165201e-30
10
-412.95328468750006
20
23.808395312500323
30
1.5024539003087779e-30
10
-412.9216140625
20
23.919242500000308
30
1.501801652034279e-30
10
-412.9216140625
20
24.726843437500321
30
1.501801652034279e-30
0
SPLINE
5
336
100
AcDbEntity
8
0
100
AcDbSpline
70
4
71
3
72
8
73
4
74
0
42
0.000000001
43
0.0000000001
44
0.0000000001
40
0
40
0
40
0
40
0
40
1
40
1
40
1
40
1
41
1
41
1
41
1
41
1
10
-412.9216140625
20
24.726843437500321
30
1.501801652034279e-30
10
-412.9216140625
20
25.328585312500316
30
1.501801652034279e-30
10
-413.00079062500004
20
25.692797500000282
30
1.5034322727205269e-30
10
-413.14330843750008
20
25.787809375000315
30
1.506367389955773e-30
0
SPLINE
5
337
100
AcDbEntity
8
0
100
AcDbSpline
70
4
71
3
72
8
73
4
74
0
42
0.000000001
43
0.0000000001
44
0.0000000001
40
0
40
0
40
0
40
0
40
1
40
1
40
1
40
1
41
1
41
1
41
1
41
1
10
-413.14330843750008
20
25.787809375000315
30
1.506367389955773e-30
10
-413.26999093750004
20
25.851150625000301
30
1.5089763830537693e-30
10
-413.31749687500007
20
26.025339062500308
30
1.5099547554655182e-30
10
-413.26999093750004
20
26.167856875000304
30
1.5089763830537693e-30
0
SPLINE
5
338
100
AcDbEntity
8
0
100
AcDbSpline
70
4
71
3
72
8
73
4
74
0
42
0.000000001
43
0.0000000001
44
0.0000000001
40
0
40
0
40
0
40
0
40
1
40
1
40
1
40
1
41
1
41
1
41
1
41
1
10
-413.26999093750004
20
26.167856875000304
30
1.5089763830537693e-30
10
-413.09580250000005
20
26.595410312500292
30
1.5053890175440243e-30
10
-412.68408437500005
20
26.64291625000029
30
1.4969097899755355e-30
10
-412.24069562500006
20
26.278704062500289
30
1.487778314132547e-30
0
SPLINE
5
339
100
AcDbEntity
8
0
100
AcDbSpline
70
4
71
3
72
8
73
4
74
0
42
0.000000001
43
0.0000000001
44
0.0000000001
40
0
40
0
40
0
40
0
40
1
40
1
40
1
40
1
41
1
41
1
41
1
41
1
10
-412.24069562500006
20
26.278704062500289
30
1.487778314132547e-30
10
-411.38558875000001
20
25.59778562500032
30
1.4701676107210704e-30
10
-409.64370437500008
20
24.489313750000292
30
1.4342939556236175e-30
10
-409.56452781250005
20
24.58432562500029
30
1.4326633349373696e-30
0
SPLINE
5
340
100
AcDbEntity
8
0
100
AcDbSpline
70
4
71
3
72
8
73
4
74
0
42
0.000000001
43
0.0000000001
44
0.0000000001
40
0
40
0
40
0
40
0
40
1
40
1
40
1
40
1
41
1
41
1
41
1
41
1
10
-409.56452781250005
20
24.58432562500029
30
1.4326633349373696e-30
10
-409.51702187500007
20
24.631831562500324
30
1.431684962525621e-30
10
-409.59619843750005
20
24.916867187500316
30
1.433315583211869e-30
10
-409.73871625000004
20
25.217738125000295
30
1.4362507004471149e-30
0
SPLINE
5
341
100
AcDbEntity
8
0
100
AcDbSpline
70
4
71
3
72
8
73
4
74
0
42
0.000000001
43
0.0000000001
44
0.0000000001
40
0
40
0
40
0
40
0
40
1
40
1
40
1
40
1
41
1
41
1
41
1
41
1
10
-409.73871625000004
20
25.217738125000295
30
1.4362507004471149e-30
10
-409.88123406250003
20
25.51860906250031
30
1.439185817682361e-30
10
-409.99208125000001
20
25.866985937500324
30
1.4414686866431082e-30
10
-409.99208125000001
20
25.993668437500297
30
1.4414686866431082e-30
0
SPLINE
5
342
100
AcDbEntity
8
0
100
AcDbSpline
70
4
71
3
72
8
73
4
74
0
42
0.000000001
43
0.0000000001
44
0.0000000001
40
0
40
0
40
0
40
0
40
1
40
1
40
1
40
1
41
1
41
1
41
1
41
1
10
-409.99208125000001
20
25.993668437500297
30
1.4414686866431082e-30
10
-409.99208125000001
20
26.136186250000328
30
1.4414686866431082e-30
10
-410.05542250000008
20
26.278704062500289
30
1.4427731831921064e-30
10
-410.11876375000008
20
26.326210000000287
30
1.4440776797411045e-30
0
SPLINE
5
343
100
AcDbEntity
8
0
100
AcDbSpline
70
4
71
3
72
8
73
4
74
0
42
0.000000001
43
0.0000000001
44
0.0000000001
40
0
40
0
40
0
40
0
40
1
40
1
40
1
40
1
41
1
41
1
41
1
41
1
10
-410.11876375000008
20
26.326210000000287
30
1.4440776797411045e-30
10
-410.19794031250001
20
26.373715937500322
30
1.4457083004273525e-30
10
-410.34045812500005
20
26.817104687500333
30
1.4486434176625986e-30
10
-410.45130531250004
20
27.32383468750033
30
1.4509262866233456e-30
0
SPLINE
5
344
100
AcDbEntity
8
0
100
AcDbSpline
70
4
71
3
72
8
73
4
74
0
42
0.000000001
43
0.0000000001
44
0.0000000001
40
0
40
0
40
0
40
0
40
1
40
1
40
1
40
1
41
1
41
1
41
1
41
1
10
-410.45130531250004
20
27.32383468750033
30
1.4509262866233456e-30
10
-410.56215250000008
20
27.830564687500292
30
1.4532091555840928e-30
10
-410.72050562500004
20
28.305624062500314
30
1.4564703969565885e-30
10
-410.78384687500005
20
28.400635937500311
30
1.4577748935055867e-30
0
SPLINE
5
345
100
AcDbEntity
8
0
100
AcDbSpline
70
4
71
3
72
8
73
4
74
0
42
0.000000001
43
0.0000000001
44
0.0000000001
40
0
40
0
40
0
40
0
40
1
40
1
40
1
40
1
41
1
41
1
41
1
41
1
10
-410.78384687500005
20
28.400635937500311
30
1.4577748935055867e-30
10
-410.91052937500001
20
28.558989062500331
30
1.4603838866035832e-30
10
-410.98970593750005
20
29.113225000000327
30
1.4620145072898311e-30
10
-410.95803531250004
20
29.619955000000289
30
1.4613622590153322e-30
0
SPLINE
5
346
100
AcDbEntity
8
0
100
AcDbSpline
70
4
71
3
72
8
73
4
74
0
42
0.000000001
43
0.0000000001
44
0.0000000001
40
0
40
0
40
0
40
0
40
1
40
1
40
1
40
1
41
1
41
1
41
1
41
1
10
-410.95803531250004
20
29.619955000000289
30
1.4613622590153322e-30
10
-410.94220000000007
20
30.015837812500319
30
1.4610361348780826e-30
10
-407.553443125
20
32.73951156250034
30
1.3912455695066739e-30
10
-407.07838375
20
32.755346875000342
30
1.3814618453891866e-30
0
SPLINE
5
347
100
AcDbEntity
8
0
100
AcDbSpline
70
4
71
3
72
8
73
4
74
0
42
0.000000001
43
0.0000000001
44
0.0000000001
40
0
40
0
40
0
40
0
40
1
40
1
40
1
40
1
41
1
41
1
41
1
41
1
10
-407.07838375
20
32.755346875000342
30
1.3814618453891866e-30
10
-406.99920718750008
20
32.755346875000342
30
1.3798312247029386e-30
10
-406.60332437500006
20
32.961205937500324
30
1.3716781212716994e-30
10
-406.20744156250004
20
33.214570937500326
30
1.3635250178404603e-30
0
SPLINE
5
348
100
AcDbEntity
8
0
100
AcDbSpline
70
4
71
3
72
8
73
4
74
0
42
0.000000001
43
0.0000000001
44
0.0000000001
40
0
40
0
40
0
40
0
40
1
40
1
40
1
40
1
41
1
41
1
41
1
41
1
10
-406.20744156250004
20
33.214570937500326
30
1.3635250178404603e-30
10
-405.79572343749999
20
33.452100625000334
30
1.3550457902719716e-30
10
-405.28899343750004
20
33.721300937500317
30
1.3446098178799852e-30
10
-405.06729906250001
20
33.784642187500339
30
1.3400440799584913e-30
0
SPLINE
5
349
100
AcDbEntity
8
0
100
AcDbSpline
70
4
71
3
72
8
73
4
74
0
42
0.000000001
43
0.0000000001
44
0.0000000001
40
0
40
0
40
0
40
0
40
1
40
1
40
1
40
1
41
1
41
1
41
1
41
1
10
-405.06729906250001
20
33.784642187500339
30
1.3400440799584913e-30
10
-404.71892218750008
20
33.879654062500322
30
1.3328693489390006e-30
10
-403.43626187500007
20
34.338878125000335
30
1.3064532938217853e-30
10
-402.62866093750006
20
34.671419687500332
30
1.2898209628220573e-30
0
SPLINE
5
350
100
AcDbEntity
8
0
100
AcDbSpline
70
4
71
3
72
8
73
4
74
0
42
0.000000001
43
0.0000000001
44
0.0000000001
40
0
40
0
40
0
40
0
40
1
40
1
40
1
40
1
41
1
41
1
41
1
41
1
10
-402.62866093750006
20
34.671419687500332
30
1.2898209628220573e-30
10
-401.07680031250004
20
35.27316156250032
30
1.2578607973715989e-30
10
-398.78068000000007
20
35.700715000000329
30
1.2105727974704111e-30
10
-396.15201812500004
20
35.874903437500322
30
1.156436190686982e-30
0
SPLINE
5
351
100
AcDbEntity
8
0
100
AcDbSpline
70
4
71
3
72
8
73
4
74
0
42
0.000000001
43
0.0000000001
44
0.0000000001
40
0
40
0
40
0
40
0
40
1
40
1
40
1
40
1
41
1
41
1
41
1
41
1
10
-396.15201812500004
20
35.874903437500322
30
1.156436190686982e-30
10
-394.93269906250009
20
35.938244687500323
30
1.1313246321187652e-30
10
-393.20665000000008
20
35.605703125000332
30
1.0957771011585618e-30
10
-393.20665000000008
20
35.304832187500317
30
1.0957771011585618e-30
0
SPLINE
5
352
100
AcDbEntity
8
0
100
AcDbSpline
70
4
71
3
72
8
73
4
74
0
42
0.000000001
43
0.0000000001
44
0.0000000001
40
0
40
0
40
0
40
0
40
1
40
1
40
1
40
1
41
1
41
1
41
1
41
1
10
-393.20665000000008
20
35.304832187500317
30
1.0957771011585618e-30
10
-393.20665000000008
20
35.24149093750033
30
1.0957771011585618e-30
10
-393.03246156250003
20
35.098973125000335
30
1.0921897356488164e-30
10
-392.84243781250007
20
35.019796562500325
30
1.0882762460018216e-30
0
SPLINE
5
353
100
AcDbEntity
8
0
100
AcDbSpline
70
4
71
3
72
8
73
4
74
0
42
0.000000001
43
0.0000000001
44
0.0000000001
40
0
40
0
40
0
40
0
40
1
40
1
40
1
40
1
41
1
41
1
41
1
41
1
10
-392.84243781250007
20
35.019796562500325
30
1.0882762460018216e-30
10
-392.14568406250004
20
34.703090312500322
30
1.0739267839628405e-30
10
-391.93982500000004
20
33.927160000000342
30
1.0696871701785961e-30
10
-391.95566031250002
20
31.773557500000322
30
1.0700132943158454e-30
0
SPLINE
5
354
100
AcDbEntity
8
0
100
AcDbSpline
70
4
71
3
72
8
73
4
74
0
42
0.000000001
43
0.0000000001
44
0.0000000001
40
0
40
0
40
0
40
0
40
1
40
1
40
1
40
1
41
1
41
1
41
1
41
1
10
-391.95566031250002
20
31.773557500000322
30
1.0700132943158454e-30
10
-391.97149562499999
20
28.780683437500301
30
1.070339418453095e-30
10
-392.24069593750005
20
27.608870312500322
30
1.0758835287863379e-30
10
-393.28582656250006
20
26.025339062500308
30
1.0974077218448097e-30
0
SPLINE
5
355
100
AcDbEntity
8
0
100
AcDbSpline
70
4
71
3
72
8
73
4
74
0
42
0.000000001
43
0.0000000001
44
0.0000000001
40
0
40
0
40
0
40
0
40
1
40
1
40
1
40
1
41
1
41
1
41
1
41
1
10
-393.28582656250006
20
26.025339062500308
30
1.0974077218448097e-30
10
-393.58669750000001
20
25.566115000000309
30
1.1036040804525514e-30
10
-393.84006250000004
20
25.138561562500286
30
1.1088220666485449e-30
10
-393.84006250000004
20
25.059385000000276
30
1.1088220666485449e-30
0
SPLINE
5
356
100
AcDbEntity
8
0
100
AcDbSpline
70
4
71
3
72
8
73
4
74
0
42
0.000000001
43
0.0000000001
44
0.0000000001
40
0
40
0
40
0
40
0
40
1
40
1
40
1
40
1
41
1
41
1
41
1
41
1
10
-393.84006250000004
20
25.059385000000276
30
1.1088220666485449e-30
10
-393.84006250000004
20
24.885196562500305
30
1.1088220666485449e-30
10
-395.05938156250005
20
22.937453125000324
30
1.1339336252167615e-30
10
-395.75613531250008
20
22.019005000000327
30
1.1482830872557426e-30
0
SPLINE
5
357
100
AcDbEntity
8
0
100
AcDbSpline
70
4
71
3
72
8
73
4
74
0
42
0.000000001
43
0.0000000001
44
0.0000000001
40
0
40
0
40
0
40
0
40
1
40
1
40
1
40
1
41
1
41
1
41
1
41
1
10
-395.75613531250008
20
22.019005000000327
30
1.1482830872557426e-30
10
-396.73792468750003
20
20.704674062500281
30
1.1685027837652162e-30
10
-398.60649156250008
20
19.342837187500308
30
1.2069854319606656e-30
10
-400.44338781250008
20
18.598577500000282
30
1.244815831881616e-30
0
SPLINE
5
358
100
AcDbEntity
8
0
100
AcDbSpline
70
4
71
3
72
8
73
4
74
0
42
0.000000001
43
0.0000000001
44
0.0000000001
40
0
40
0
40
0
40
0
40
1
40
1
40
1
40
1
41
1
41
1
41
1
41
1
10
-400.44338781250008
20
18.598577500000282
30
1.244815831881616e-30
10
-401.88440125000005
20
18.028506250000298
30
1.2744931283713272e-30
10
-402.37529593750003
20
18.107682812500308
30
1.2846029766260639e-30
10
-403.75296812500005
20
19.152813437500313
30
1.3129757765667766e-30
0
SPLINE
5
359
100
AcDbEntity
8
0
100
AcDbSpline
70
4
71
3
72
8
73
4
74
0
42
0.000000001
43
0.0000000001
44
0.0000000001
40
0
40
0
40
0
40
0
40
1
40
1
40
1
40
1
41
1
41
1
41
1
41
1
10
-403.75296812500005
20
19.152813437500313
30
1.3129757765667766e-30
10
-404.33887468750004
20
19.580366875000301
30
1.325042369645011e-30
10
-405.00395781250006
20
19.992085000000301
30
1.3387395834094931e-30
10
-405.25732281249998
20
20.039590937500336
30
1.3439575696054857e-30
0
SPLINE
5
360
100
AcDbEntity
8
0
100
AcDbSpline
70
4
71
3
72
8
73
4
74
0
42
0.000000001
43
0.0000000001
44
0.0000000001
40
0
40
0
40
0
40
0
40
1
40
1
40
1
40
1
41
1
41
1
41
1
41
1
10
-405.25732281249998
20
20.039590937500336
30
1.3439575696054857e-30
10
-405.51068781250001
20
20.087096875000299
30
1.3491755558014792e-30
10
-405.76405281250004
20
20.197944062500319
30
1.3543935419974724e-30
10
-405.81155875000007
20
20.261285312500306
30
1.3553719144092209e-30
0
SPLINE
5
361
100
AcDbEntity
8
0
100
AcDbSpline
70
4
71
3
72
8
73
4
74
0
42
0.000000001
43
0.0000000001
44
0.0000000001
40
0
40
0
40
0
40
0
40
1
40
1
40
1
40
1
41
1
41
1
41
1
41
1
10
-405.81155875000007
20
20.261285312500306
30
1.3553719144092209e-30
10
-405.95407656250006
20
20.482979687500311
30
1.3583070316444673e-30
10
-406.50831250000005
20
20.419638437500289
30
1.3697213764482025e-30
10
-406.50831250000005
20
20.182108750000296
30
1.3697213764482025e-30
0
SPLINE
5
362
100
AcDbEntity
8
0
100
AcDbSpline
70
4
71
3
72
8
73
4
74
0
42
0.000000001
43
0.0000000001
44
0.0000000001
40
0
40
0
40
0
40
0
40
1
40
1
40
1
40
1
41
1
41
1
41
1
41
1
10
-406.50831250000005
20
20.182108750000296
30
1.3697213764482025e-30
10
-406.50831250000005
20
20.055426250000323
30
1.3697213764482025e-30
10
-406.19160625000006
20
19.532860937500303
30
1.3631988937032109e-30
10
-405.79572343749999
20
18.994460312500294
30
1.3550457902719716e-30
0
SPLINE
5
363
100
AcDbEntity
8
0
100
AcDbSpline
70
4
71
3
72
8
73
4
74
0
42
0.000000001
43
0.0000000001
44
0.0000000001
40
0
40
0
40
0
40
0
40
1
40
1
40
1
40
1
41
1
41
1
41
1
41
1
10
-405.79572343749999
20
18.994460312500294
30
1.3550457902719716e-30
10
-405.01979312500004
20
17.933494375000301
30
1.3390657075467422e-30
10
-404.95645187500003
20
17.759305937500294
30
1.3377612109977441e-30
10
-405.33649937500002
20
17.474270312500302
30
1.3455881902917337e-30
0
SPLINE
5
364
100
AcDbEntity
8
0
100
AcDbSpline
70
4
71
3
72
8
73
4
74
0
42
0.000000001
43
0.0000000001
44
0.0000000001
40
0
40
0
40
0
40
0
40
1
40
1
40
1
40
1
41
1
41
1
41
1
41
1
10
-405.33649937500002
20
17.474270312500302
30
1.3455881902917337e-30
10
-405.55819375000004
20
17.315917187500318
30
1.3501539282132279e-30
10
-405.54235843750007
20
17.205070000000298
30
1.3498278040759783e-30
10
-405.09896968750007
20
16.492480937500318
30
1.3406963282329902e-30
0
SPLINE
5
365
100
AcDbEntity
8
0
100
AcDbSpline
70
4
71
3
72
8
73
4
74
0
42
0.000000001
43
0.0000000001
44
0.0000000001
40
0
40
0
40
0
40
0
40
1
40
1
40
1
40
1
41
1
41
1
41
1
41
1
10
-405.09896968750007
20
16.492480937500318
30
1.3406963282329902e-30
10
-404.27553343750003
20
15.162314687500285
30
1.3237378730960126e-30
10
-404.40221593750005
20
14.861443750000305
30
1.3263468661940091e-30
10
-406.34995937500008
20
13.54711281250033
30
1.3664601350757066e-30
0
SPLINE
5
366
100
AcDbEntity
8
0
100
AcDbSpline
70
4
71
3
72
8
73
4
74
0
42
0.000000001
43
0.0000000001
44
0.0000000001
40
0
40
0
40
0
40
0
40
1
40
1
40
1
40
1
41
1
41
1
41
1
41
1
10
-406.34995937500008
20
13.54711281250033
30
1.3664601350757066e-30
10
-406.90419531250006
20
13.182900625000293
30
1.3778744798794416e-30
10
-407.37925468750007
20
12.787017812500281
30
1.3876582039969287e-30
10
-407.42676062500004
20
12.676170625000331
30
1.3886365764086773e-30
0
SPLINE
5
367
100
AcDbEntity
8
0
100
AcDbSpline
70
4
71
3
72
8
73
4
74
0
42
0.000000001
43
0.0000000001
44
0.0000000001
40
0
40
0
40
0
40
0
40
1
40
1
40
1
40
1
41
1
41
1
41
1
41
1
10
-407.42676062500004
20
12.676170625000331
30
1.3886365764086773e-30
10
-407.50593718750002
20
12.406970312500327
30
1.3902671970949252e-30
10
-406.76167750000002
20
12.438640937500303
30
1.3749393626441951e-30
10
-405.63737031250008
20
12.755347187500305
30
1.3517845488994759e-30
0
SPLINE
5
368
100
AcDbEntity
8
0
100
AcDbSpline
70
4
71
3
72
8
73
4
74
0
42
0.000000001
43
0.0000000001
44
0.0000000001
40
0
40
0
40
0
40
0
40
1
40
1
40
1
40
1
41
1
41
1
41
1
41
1
10
-405.63737031250008
20
12.755347187500305
30
1.3517845488994759e-30
10
-404.90894593750005
20
12.961206250000323
30
1.3367828385859954e-30
10
-404.00633312500008
20
13.024547500000274
30
1.3181937627627697e-30
10
-401.83689531250002
20
13.024547500000274
30
1.2735147559595787e-30
0
SPLINE
5
369
100
AcDbEntity
8
0
100
AcDbSpline
70
4
71
3
72
8
73
4
74
0
42
0.000000001
43
0.0000000001
44
0.0000000001
40
0
40
0
40
0
40
0
40
1
40
1
40
1
40
1
41
1
41
1
41
1
41
1
10
-401.83689531250002
20
13.024547500000274
30
1.2735147559595787e-30
10
-398.40063250000009
20
13.040382812500297
30
1.2027458181764215e-30
10
-397.71971406250003
20
12.897865000000301
30
1.18872248027469e-30
10
-394.83768718750008
20
11.599369375000279
30
1.1293678872952676e-30
0
SPLINE
5
370
100
AcDbEntity
8
0
100
AcDbSpline
70
4
71
3
72
8
73
4
74
0
42
0.000000001
43
0.0000000001
44
0.0000000001
40
0
40
0
40
0
40
0
40
1
40
1
40
1
40
1
41
1
41
1
41
1
41
1
10
-394.83768718750008
20
11.599369375000279
30
1.1293678872952676e-30
10
-394.56848687500008
20
11.472686875000306
30
1.1238237769620249e-30
10
-394.10926281250005
20
11.377675000000309
30
1.1143661769817873e-30
10
-393.80839187499998
20
11.377675000000309
30
1.1081698183740455e-30
0
SPLINE
5
371
100
AcDbEntity
8
0
100
AcDbSpline
70
4
71
3
72
8
73
4
74
0
42
0.000000001
43
0.0000000001
44
0.0000000001
40
0
40
0
40
0
40
0
40
1
40
1
40
1
40
1
41
1
41
1
41
1
41
1
10
-393.80839187499998
20
11.377675000000309
30
1.1081698183740455e-30
10
-393.52335625000001
20
11.377675000000309
30
1.1022995839035534e-30
10
-393.01662625000006
20
11.298498437500299
30
1.0918636115115668e-30
10
-392.66824937500007
20
11.203486562500302
30
1.0846888804920761e-30
0
SPLINE
5
372
100
AcDbEntity
8
0
100
AcDbSpline
70
4
71
3
72
8
73
4
74
0
42
0.000000001
43
0.0000000001
44
0.0000000001
40
0
40
0
40
0
40
0
40
1
40
1
40
1
40
1
41
1
41
1
41
1
41
1
10
-392.66824937500007
20
11.203486562500302
30
1.0846888804920761e-30
10
-392.22486062500002
20
11.076804062500294
30
1.0755574046490881e-30
10
-391.8606484375
20
11.092639375000317
30
1.0680565494923482e-30
10
-391.29057718750005
20
11.219321875000325
30
1.0563160805513636e-30
0
SPLINE
5
373
100
AcDbEntity
8
0
100
AcDbSpline
70
4
71
3
72
8
73
4
74
0
42
0.000000001
43
0.0000000001
44
0.0000000001
40
0
40
0
40
0
40
0
40
1
40
1
40
1
40
1
41
1
41
1
41
1
41
1
10
-391.29057718750005
20
11.219321875000325
30
1.0563160805513636e-30
10
-390.19794062500006
20
11.48852218750033
30
1.0338135150811432e-30
10
-388.20269125000004
20
11.504357500000317
30
9.9272187378769707e-31
10
-387.96516156250004
20
11.250992500000301
30
9.8783001172895338e-31
0
SPLINE
5
374
100
AcDbEntity
8
0
100
AcDbSpline
70
4
71
3
72
8
73
4
74
0
42
0.000000001
43
0.0000000001
44
0.0000000001
40
0
40
0
40
0
40
0
40
1
40
1
40
1
40
1
41
1
41
1
41
1
41
1
10
-387.96516156250004
20
11.250992500000301
30
9.8783001172895338e-31
10
-387.82264375000005
20
11.124310000000293
30
9.8489489449370728e-31
10
-387.22090187499998
20
11.060968750000306
30
9.7250217727822343e-31
10
-386.12826531250005
20
11.060968750000306
30
9.4999961180800294e-31
0
SPLINE
5
375
100
AcDbEntity
8
0
100
AcDbSpline
70
4
71
3
72
8
73
4
74
0
42
0.000000001
43
0.0000000001
44
0.0000000001
40
0
40
0
40
0
40
0
40
1
40
1
40
1
40
1
41
1
41
1
41
1
41
1
10
-386.12826531250005
20
11.060968750000306
30
9.4999961180800294e-31
10
-384.59224000000006
20
11.060968750000306
30
9.1836557049479433e-31
10
-384.46555750000005
20
11.092639375000317
30
9.1575657739679802e-31
10
-383.67379187500006
20
11.55186343750028
30
8.9945037053431937e-31
0
SPLINE
5
376
100
AcDbEntity
8
0
100
AcDbSpline
70
4
71
3
72
8
73
4
74
0
42
0.000000001
43
0.0000000001
44
0.0000000001
40
0
40
0
40
0
40
0
40
1
40
1
40
1
40
1
41
1
41
1
41
1
41
1
10
-383.67379187500006
20
11.55186343750028
30
8.9945037053431937e-31
10
-383.21456781250004
20
11.836899062500272
30
8.899927705540818e-31
10
-382.723673125
20
12.169440625000298
30
8.7988292229934516e-31
10
-382.59699062500005
20
12.327793750000318
30
8.7727392920134868e-31
0
SPLINE
5
377
100
AcDbEntity
8
0
100
AcDbSpline
70
4
71
3
72
8
73
4
74
0
42
0.000000001
43
0.0000000001
44
0.0000000001
40
0
40
0
40
0
40
0
40
1
40
1
40
1
40
1
41
1
41
1
41
1
41
1
10
-382.59699062500005
20
12.327793750000318
30
8.7727392920134868e-31
10
-382.40696687500008
20
12.5336528125003
30
8.7336043955435369e-31
10
-381.96357812500003
20
12.61282937500031
30
8.6422896371136575e-31
10
-380.58590593750006
20
12.692005937500319
30
8.3585616377065287e-31
0
SPLINE
5
378
100
AcDbEntity
8
0
100
AcDbSpline
70
4
71
3
72
8
73
4
74
0
42
0.000000001
43
0.0000000001
44
0.0000000001
40
0
40
0
40
0
40
0
40
1
40
1
40
1
40
1
41
1
41
1
41
1
41
1
10
-380.58590593750006
20
12.692005937500319
30
8.3585616377065287e-31
10
-378.59065656250004
20
12.787017812500281
30
7.947645224772067e-31
10
-378.16310312500008
20
12.961206250000323
30
7.8595917077146856e-31
10
-377.18131375000007
20
13.958830937500295
30
7.6573947426199483e-31
0
SPLINE
5
379
100
AcDbEntity
8
0
100
AcDbSpline
70
4
71
3
72
8
73
4
74
0
42
0.000000001
43
0.0000000001
44
0.0000000001
40
0
40
0
40
0
40
0
40
1
40
1
40
1
40
1
41
1
41
1
41
1
41
1
10
-377.18131375000007
20
13.958830937500295
30
7.6573947426199483e-31
10
-376.21535968750004
20
14.956455625000302
30
7.4584590188977091e-31
10
-375.58194718750002
20
16.508316250000306
30
7.3280093639978807e-31
10
-375.39192343750005
20
18.345212500000301
30
7.2888744675279335e-31
0
SPLINE
5
380
100
AcDbEntity
8
0
100
AcDbSpline
70
4
71
3
72
8
73
4
74
0
42
0.000000001
43
0.0000000001
44
0.0000000001
40
0
40
0
40
0
40
0
40
1
40
1
40
1
40
1
41
1
41
1
41
1
41
1
10
-375.39192343750005
20
18.345212500000301
30
7.2888744675279335e-31
10
-375.217735
20
20.055426250000323
30
7.2530008124304799e-31
10
-374.235945625
20
21.512275000000329
30
7.0508038473357436e-31
10
-373.26999156250002
20
21.512275000000329
30
6.8518681236135043e-31
0
SPLINE
5
381
100
AcDbEntity
8
0
100
AcDbSpline
70
4
71
3
72
8
73
4
74
0
42
0.000000001
43
0.0000000001
44
0.0000000001
40
0
40
0
40
0
40
0
40
1
40
1
40
1
40
1
41
1
41
1
41
1
41
1
10
-373.26999156250002
20
21.512275000000329
30
6.8518681236135043e-31
10
-373.07996781250006
20
21.512275000000329
30
6.8127332271435589e-31
10
-372.79493218750008
20
21.57561625000028
30
6.7540308824386333e-31
10
-372.6365790625
20
21.670628125000313
30
6.721418468713676e-31
0
SPLINE
5
382
100
AcDbEntity
8
0
100
AcDbSpline
70
4
71
3
72
8
73
4
74
0
42
0.000000001
43
0.0000000001
44
0.0000000001
40
0
40
0
40
0
40
0
40
1
40
1
40
1
40
1
41
1
41
1
41
1
41
1
10
-372.6365790625
20
21.670628125000313
30
6.721418468713676e-31
10
-372.47822593750004
20
21.749804687500323
30
6.6888060549887178e-31
10
-371.87648406250003
20
21.892322500000283
30
6.5648788828338828e-31
10
-371.30641281250001
20
21.987334375000316
30
6.4474741934240359e-31
0
SPLINE
5
383
100
AcDbEntity
8
0
100
AcDbSpline
70
4
71
3
72
8
73
4
74
0
42
0.000000001
43
0.0000000001
44
0.0000000001
40
0
40
0
40
0
40
0
40
1
40
1
40
1
40
1
41
1
41
1
41
1
41
1
10
-371.30641281250001
20
21.987334375000316
30
6.4474741934240359e-31
10
-369.86539937500004
20
22.209028750000286
30
6.1507012285269239e-31
10
-369.04196312500005
20
22.604911562500298
30
5.9811166771571501e-31
10
-368.02850312500004
20
23.539195000000319
30
5.7723972293174238e-31
0
SPLINE
5
384
100
AcDbEntity
8
0
100
AcDbSpline
70
4
71
3
72
8
73
4
74
0
42
0.000000001
43
0.0000000001
44
0.0000000001
40
0
40
0
40
0
40
0
40
1
40
1
40
1
40
1
41
1
41
1
41
1
41
1
10
-368.02850312500004
20
23.539195000000319
30
5.7723972293174238e-31
10
-367.06254906250001
20
24.425972500000306
30
5.5734615055951846e-31
10
-366.65083093750007
20
25.122726250000298
30
5.4886692299102942e-31
10
-366.0490890625
20
26.975457812500316
30
5.3647420577554592e-31
0
SPLINE
5
385
100
AcDbEntity
8
0
100
AcDbSpline
70
4
71
3
72
8
73
4
74
0
42
0.000000001
43
0.0000000001
44
0.0000000001
40
0
40
0
40
0
40
0
40
1
40
1
40
1
40
1
41
1
41
1
41
1
41
1
10
-366.0490890625
20
26.975457812500316
30
5.3647420577554592e-31
10
-365.81155937500006
20
27.672211562500308
30
5.3158234371680232e-31
10
-365.52652375000002
20
28.463977187500298
30
5.2571210924630985e-31
10
-365.39984125000001
20
28.74901281250029
30
5.2310311614831337e-31
0
SPLINE
5
386
100
AcDbEntity
8
0
100
AcDbSpline
70
4
71
3
72
8
73
4
74
0
42
0.000000001
43
0.0000000001
44
0.0000000001
40
0
40
0
40
0
40
0
40
1
40
1
40
1
40
1
41
1
41
1
41
1
41
1
10
-365.39984125000001
20
28.74901281250029
30
5.2310311614831337e-31
10
-365.27315874999999
20
29.018213125000329
30
5.2049412305031654e-31
10
-365.17814687500004
20
29.319084062500309
30
5.1853737822681949e-31
10
-365.17814687500004
20
29.398260625000319
30
5.1853737822681949e-31
0
SPLINE
5
387
100
AcDbEntity
8
0
100
AcDbSpline
70
4
71
3
72
8
73
4
74
0
42
0.000000001
43
0.0000000001
44
0.0000000001
40
0
40
0
40
0
40
0
40
1
40
1
40
1
40
1
41
1
41
1
41
1
41
1
10
-365.17814687500004
20
29.398260625000319
30
5.1853737822681949e-31
10
-365.17814687500004
20
29.619955000000289
30
5.1853737822681949e-31
10
-363.97466312500001
20
31.710216250000318
30
4.9375194379585197e-31
10
-363.30958000000004
20
32.6444996875003
30
4.800547300313697e-31
0
SPLINE
5
388
100
AcDbEntity
8
0
100
AcDbSpline
70
4
71
3
72
8
73
4
74
0
42
0.000000001
43
0.0000000001
44
0.0000000001
40
0
40
0
40
0
40
0
40
1
40
1
40
1
40
1
41
1
41
1
41
1
41
1
10
-363.30958000000004
20
32.6444996875003
30
4.800547300313697e-31
10
-363.00870906250003
20
33.072053125000309
30
4.7385837142362795e-31
10
-362.43863781250008
20
33.657959687500295
30
4.6211790248264327e-31
10
-362.042755
20
33.958830625000296
30
4.5396479905140403e-31
0
SPLINE
5
389
100
AcDbEntity
8
0
100
AcDbSpline
70
4
71
3
72
8
73
4
74
0
42
0.000000001
43
0.0000000001
44
0.0000000001
40
0
40
0
40
0
40
0
40
1
40
1
40
1
40
1
41
1
41
1
41
1
41
1
10
-362.042755
20
33.958830625000296
30
4.5396479905140403e-31
10
-361.34600125000009
20
34.481395937500317
30
4.3961533701242286e-31
10
-361.29849531249999
20
34.497231250000326
30
4.3863696460067434e-31
10
-359.85748187500002
20
34.497231250000326
30
4.0895966811096322e-31
0
SPLINE
5
390
100
AcDbEntity
8
0
100
AcDbSpline
70
4
71
3
72
8
73
4
74
0
42
0.000000001
43
0.0000000001
44
0.0000000001
40
0
40
0
40
0
40
0
40
1
40
1
40
1
40
1
41
1
41
1
41
1
41
1
10
-359.85748187500002
20
34.497231250000326
30
4.0895966811096322e-31
10
-359.03404562499998
20
34.497231250000326
30
3.9200121297398531e-31
10
-358.36896250000001
20
34.560572500000305
30
3.7830399920950353e-31
10
-358.36896250000001
20
34.623913750000312
30
3.7830399920950353e-31
0
SPLINE
5
391
100
AcDbEntity
8
0
100
AcDbSpline
70
4
71
3
72
8
73
4
74
0
42
0.000000001
43
0.0000000001
44
0.0000000001
40
0
40
0
40
0
40
0
40
1
40
1
40
1
40
1
41
1
41
1
41
1
41
1
10
-358.36896250000001
20
34.623913750000312
30
3.7830399920950353e-31
10
-358.36896250000001
20
34.703090312500308
30
3.7830399920950353e-31
10
-358.46397437500002
20
34.893114062500317
30
3.8026074403300067e-31
10
-358.59065687500004
20
35.067302500000309
30
3.8286973713099742e-31
0
SPLINE
5
392
100
AcDbEntity
8
0
100
AcDbSpline
70
4
71
3
72
8
73
4
74
0
42
0.000000001
43
0.0000000001
44
0.0000000001
40
0
40
0
40
0
40
0
40
1
40
1
40
1
40
1
41
1
41
1
41
1
41
1
10
-358.59065687500004
20
35.067302500000309
30
3.8286973713099742e-31
10
-358.78068062500006
20
35.320667500000305
30
3.8678322677799209e-31
10
-359.0182103125
20
35.368173437500317
30
3.9167508883673564e-31
10
-360.1425175
20
35.368173437500317
30
4.1482990258145534e-31
0
SPLINE
5
393
100
AcDbEntity
8
0
100
AcDbSpline
70
4
71
3
72
8
73
4
74
0
42
0.000000001
43
0.0000000001
44
0.0000000001
40
0
40
0
40
0
40
0
40
1
40
1
40
1
40
1
41
1
41
1
41
1
41
1
10
-360.1425175
20
35.368173437500317
30
4.1482990258145534e-31
10
-361.42517781250007
20
35.368173437500317
30
4.4124595769867073e-31
10
-361.48851906250002
20
35.352338125000315
30
4.4255045424766897e-31
10
-362.26444937500003
20
34.782266875000317
30
4.5853053697289791e-31
0
SPLINE
5
394
100
AcDbEntity
8
0
100
AcDbSpline
70
4
71
3
72
8
73
4
74
0
42
0.000000001
43
0.0000000001
44
0.0000000001
40
0
40
0
40
0
40
0
40
1
40
1
40
1
40
1
41
1
41
1
41
1
41
1
10
-362.26444937500003
20
34.782266875000317
30
4.5853053697289791e-31
10
-363.95882781250003
20
33.54711250000031
30
4.9342581965860234e-31
10
-365.43151187500001
20
31.124309687500311
30
5.2375536442281236e-31
10
-366.5241484375
20
27.767223437500306
30
5.4625792989303311e-31
0
SPLINE
5
395
100
AcDbEntity
8
0
100
AcDbSpline
70
4
71
3
72
8
73
4
74
0
42
0.000000001
43
0.0000000001
44
0.0000000001
40
0
40
0
40
0
40
0
40
1
40
1
40
1
40
1
41
1
41
1
41
1
41
1
10
-366.5241484375
20
27.767223437500306
30
5.4625792989303311e-31
10
-367.75930281250004
20
23.998419062500318
30
5.7169561259849953e-31
10
-368.88361000000003
20
22.984959062500323
30
5.9485042634321928e-31
10
-372.24069625000004
20
22.604911562500298
30
6.6398874344012827e-31
0
SPLINE
5
396
100
AcDbEntity
8
0
100
AcDbSpline
70
4
71
3
72
8
73
4
74
0
42
0.000000001
43
0.0000000001
44
0.0000000001
40
0
40
0
40
0
40
0
40
1
40
1
40
1
40
1
41
1
41
1
41
1
41
1
10
-372.24069625000004
20
22.604911562500298
30
6.6398874344012827e-31
10
-373.34916812500006
20
22.47822906250029
30
6.868174330475983e-31
10
-373.72921562500005
20
22.367381875000305
30
6.9464441234158835e-31
10
-374.29928687500001
20
21.971499062500293
30
7.063848812825726e-31
0
SPLINE
5
397
100
AcDbEntity
8
0
100
AcDbSpline
70
4
71
3
72
8
73
4
74
0
42
0.000000001
43
0.0000000001
44
0.0000000001
40
0
40
0
40
0
40
0
40
1
40
1
40
1
40
1
41
1
41
1
41
1
41
1
10
-374.29928687500001
20
21.971499062500293
30
7.063848812825726e-31
10
-375.51860593750007
20
21.132227500000305
30
7.3149643985078983e-31
10
-375.85114750000002
20
20.419638437500289
30
7.3834504673303092e-31
10
-376.27870093750005
20
17.711800000000295
30
7.4715039843876915e-31
0
SPLINE
5
398
100
AcDbEntity
8
0
100
AcDbSpline
70
4
71
3
72
8
73
4
74
0
42
0.000000001
43
0.0000000001
44
0.0000000001
40
0
40
0
40
0
40
0
40
1
40
1
40
1
40
1
41
1
41
1
41
1
41
1
10
-376.27870093750005
20
17.711800000000295
30
7.4715039843876915e-31
10
-376.48456000000004
20
16.349963125000286
30
7.5139001222301376e-31
10
-376.94378406250001
20
15.431515000000289
30
7.6084761220325132e-31
10
-377.83056156250007
20
14.497231562500303
30
7.7911056388922747e-31
0
LINE
5
399
100
AcDbEntity
8
0
100
AcDbLine
10
-377.83056156250012
20
14.497231562500302
30
7.7911056388922729e-31
11
-378.54315062500007
21
13.752971875000297
31
7.9378615006545817e-31
0
LINE
5
400
100
AcDbEntity
8
0
100
AcDbLine
10
-378.54315062500007
20
13.752971875000297
30
7.9378615006545817e-31
11
-380.15835250000009
21
13.752971875000313
31
8.2705081206491421e-31
0
LINE
5
401
100
AcDbEntity
8
0
100
AcDbLine
10
-380.15835250000009
20
13.752971875000313
30
8.2705081206491421e-31
11
-381.75771906250009
21
13.752971875000313
31
8.5998934992712114e-31
0
LINE
5
402
100
AcDbEntity
8
0
100
AcDbLine
10
-381.75771906250009
20
13.752971875000313
30
8.5998934992712114e-31
11
-381.86856625000007
21
14.243866562500298
31
8.6227221888786817e-31
0
SPLINE
5
403
100
AcDbEntity
8
0
100
AcDbSpline
70
4
71
3
72
8
73
4
74
0
42
0.000000001
43
0.0000000001
44
0.0000000001
40
0
40
0
40
0
40
0
40
1
40
1
40
1
40
1
41
1
41
1
41
1
41
1
10
-381.86856625000007
20
14.243866562500287
30
8.6227221888786835e-31
10
-382.0110840625
20
15.003961562500301
30
8.6520733612311428e-31
10
-381.99524875000003
20
15.019796875000324
30
8.6488121198586465e-31
10
-381.42517750000002
20
15.019796875000324
30
8.5314074304487988e-31
0
SPLINE
5
404
100
AcDbEntity
8
0
100
AcDbSpline
70
4
71
3
72
8
73
4
74
0
42
0.000000001
43
0.0000000001
44
0.0000000001
40
0
40
0
40
0
40
0
40
1
40
1
40
1
40
1
41
1
41
1
41
1
41
1
10
-381.42517750000002
20
15.019796875000324
30
8.5314074304487988e-31
10
-380.69675312500004
20
15.019796875000324
30
8.381390327313999e-31
10
-379.88915218750003
20
15.605703437500331
30
8.215067017316718e-31
10
-379.46159875000006
20
16.444975000000319
30
8.1270135002593331e-31
0
SPLINE
5
405
100
AcDbEntity
8
0
100
AcDbSpline
70
4
71
3
72
8
73
4
74
0
42
0.000000001
43
0.0000000001
44
0.0000000001
40
0
40
0
40
0
40
0
40
1
40
1
40
1
40
1
41
1
41
1
41
1
41
1
10
-379.46159875000006
20
16.444975000000319
30
8.1270135002593331e-31
10
-379.12905718750005
20
17.110058125000336
30
8.0585274314369204e-31
10
-379.11322187500002
20
17.315917187500318
30
8.0552661900644277e-31
10
-379.11322187500002
20
20.926368437500322
30
8.0552661900644277e-31
0
SPLINE
5
406
100
AcDbEntity
8
0
100
AcDbSpline
70
4
71
3
72
8
73
4
74
0
42
0.000000001
43
0.0000000001
44
0.0000000001
40
0
40
0
40
0
40
0
40
1
40
1
40
1
40
1
41
1
41
1
41
1
41
1
10
-379.11322187500002
20
20.926368437500322
30
8.0552661900644277e-31
10
-379.11322187500002
20
24.758514062500332
30
8.0552661900644277e-31
10
-379.06571593750004
20
25.138561562500286
30
8.0454824659469389e-31
10
-378.49564468750003
20
25.59778562500032
30
7.9280777765370912e-31
0
SPLINE
5
407
100
AcDbEntity
8
0
100
AcDbSpline
70
4
71
3
72
8
73
4
74
0
42
0.000000001
43
0.0000000001
44
0.0000000001
40
0
40
0
40
0
40
0
40
1
40
1
40
1
40
1
41
1
41
1
41
1
41
1
10
-378.49564468750003
20
25.59778562500032
30
7.9280777765370912e-31
10
-377.75138500000003
20
26.167856875000304
30
7.7747994320297952e-31
10
-376.75376031250005
20
26.452892500000331
30
7.5693412255625625e-31
10
-375.0593818750001
20
26.579575000000304
30
7.2203883987055226e-31
0
SPLINE
5
408
100
AcDbEntity
8
0
100
AcDbSpline
70
4
71
3
72
8
73
4
74
0
42
0.000000001
43
0.0000000001
44
0.0000000001
40
0
40
0
40
0
40
0
40
1
40
1
40
1
40
1
41
1
41
1
41
1
41
1
10
-375.0593818750001
20
26.579575000000304
30
7.2203883987055226e-31
10
-373.66587437500004
20
26.674586875000301
30
6.9333991579258976e-31
10
-373.11163843750001
20
26.801269375000309
30
6.8192557098885479e-31
10
-372.41488468750003
20
27.117975625000277
30
6.6757610894987371e-31
0
SPLINE
5
409
100
AcDbEntity
8
0
100
AcDbSpline
70
4
71
3
72
8
73
4
74
0
42
0.000000001
43
0.0000000001
44
0.0000000001
40
0
40
0
40
0
40
0
40
1
40
1
40
1
40
1
41
1
41
1
41
1
41
1
10
-372.41488468750003
20
27.117975625000277
30
6.6757610894987371e-31
10
-371.93982531250003
20
27.355505312500306
30
6.5779238483238643e-31
10
-371.48060125000001
20
27.62470562500031
30
6.4833478485214895e-31
10
-371.40142468750008
20
27.735552812500295
30
6.4670416416590109e-31
0
SPLINE
5
410
100
AcDbEntity
8
0
100
AcDbSpline
70
4
71
3
72
8
73
4
74
0
42
0.000000001
43
0.0000000001
44
0.0000000001
40
0
40
0
40
0
40
0
40
1
40
1
40
1
40
1
41
1
41
1
41
1
41
1
10
-371.40142468750008
20
27.735552812500295
30
6.4670416416590109e-31
10
-371.08471843750004
20
28.131435625000307
30
6.4018168142090962e-31
10
-369.92874062500005
20
30.55423843750031
30
6.1637461940169098e-31
10
-369.92874062500005
20
30.807603437500308
30
6.1637461940169098e-31
0
SPLINE
5
411
100
AcDbEntity
8
0
100
AcDbSpline
70
4
71
3
72
8
73
4
74
0
42
0.000000001
43
0.0000000001
44
0.0000000001
40
0
40
0
40
0
40
0
40
1
40
1
40
1
40
1
41
1
41
1
41
1
41
1
10
-369.92874062500005
20
30.807603437500308
30
6.1637461940169098e-31
10
-369.92874062500005
20
30.902615312500306
30
6.1637461940169098e-31
10
-369.69121093750005
20
31.646875000000314
30
6.1148275734294747e-31
10
-369.39034000000004
20
32.454475937500305
30
6.0528639873520528e-31
0
SPLINE
5
412
100
AcDbEntity
8
0
100
AcDbSpline
70
4
71
3
72
8
73
4
74
0
42
0.000000001
43
0.0000000001
44
0.0000000001
40
0
40
0
40
0
40
0
40
1
40
1
40
1
40
1
41
1
41
1
41
1
41
1
10
-369.39034000000004
20
32.454475937500305
30
6.0528639873520528e-31
10
-369.08946906250003
20
33.277912187500306
30
5.9909004012746354e-31
10
-368.66191562500006
20
34.544737187500303
30
5.9028468842172531e-31
10
-368.44022125000004
20
35.288996875000308
30
5.8571895050023099e-31
0
SPLINE
5
413
100
AcDbEntity
8
0
100
AcDbSpline
70
4
71
3
72
8
73
4
74
0
42
0.000000001
43
0.0000000001
44
0.0000000001
40
0
40
0
40
0
40
0
40
1
40
1
40
1
40
1
41
1
41
1
41
1
41
1
10
-368.44022125000004
20
35.288996875000308
30
5.8571895050023099e-31
10
-367.83847937500008
20
37.252575625000318
30
5.7332623328474749e-31
10
-366.49247781250006
20
39.770390312500311
30
5.4560568161853377e-31
10
-365.95407718750005
20
39.960414062500327
30
5.3451746095204834e-31
0
SPLINE
5
414
100
AcDbEntity
8
0
100
AcDbSpline
70
4
71
3
72
8
73
4
74
0
42
0.000000001
43
0.0000000001
44
0.0000000001
40
0
40
0
40
0
40
0
40
1
40
1
40
1
40
1
41
1
41
1
41
1
41
1
10
-365.95407718750005
20
39.960414062500327
30
5.3451746095204834e-31
10
-365.811559375
20
40.007920000000311
30
5.3158234371680232e-31
10
-365.60570031250001
20
40.22961437500031
30
5.2734272993255763e-31
10
-365.49485312500002
20
40.435473437500313
30
5.2505986097181095e-31
0
SPLINE
5
415
100
AcDbEntity
8
0
100
AcDbSpline
70
4
71
3
72
8
73
4
74
0
42
0.000000001
43
0.0000000001
44
0.0000000001
40
0
40
0
40
0
40
0
40
1
40
1
40
1
40
1
41
1
41
1
41
1
41
1
10
-365.49485312500002
20
40.435473437500313
30
5.2505986097181095e-31
10
-365.38400593750004
20
40.657167812500319
30
5.2277699201106374e-31
10
-365.22565281250002
20
40.831356250000326
30
5.195157506385681e-31
10
-365.16231156250001
20
40.831356250000326
30
5.1821125408956986e-31
0
SPLINE
5
416
100
AcDbEntity
8
0
100
AcDbSpline
70
4
71
3
72
8
73
4
74
0
42
0.000000001
43
0.0000000001
44
0.0000000001
40
0
40
0
40
0
40
0
40
1
40
1
40
1
40
1
41
1
41
1
41
1
41
1
10
-365.16231156250001
20
40.831356250000326
30
5.1821125408956986e-31
10
-365.08313499999997
20
40.831356250000326
30
5.1658063340332191e-31
10
-364.79809937499999
20
41.037215312500308
30
5.1071039893282943e-31
10
-364.51306375000001
20
41.29058031250031
30
5.0484016446233731e-31
0
SPLINE
5
417
100
AcDbEntity
8
0
100
AcDbSpline
70
4
71
3
72
8
73
4
74
0
42
0.000000001
43
0.0000000001
44
0.0000000001
40
0
40
0
40
0
40
0
40
1
40
1
40
1
40
1
41
1
41
1
41
1
41
1
10
-364.51306375000001
20
41.29058031250031
30
5.0484016446233731e-31
10
-363.57878031250004
20
42.098181250000323
30
4.8559884036461264e-31
10
-363.08788562500007
20
42.256534375000321
30
4.7548899210987582e-31
10
-361.58353093750003
20
42.256534375000321
30
4.4450719907116646e-31
0
SPLINE
5
418
100
AcDbEntity
8
0
100
AcDbSpline
70
4
71
3
72
8
73
4
74
0
42
0.000000001
43
0.0000000001
44
0.0000000001
40
0
40
0
40
0
40
0
40
1
40
1
40
1
40
1
41
1
41
1
41
1
41
1
10
-361.58353093750003
20
42.256534375000321
30
4.4450719907116646e-31
10
-360.09501156250002
20
42.256534375000321
30
4.1385153016970673e-31
10
-359.28741062500001
20
42.003169375000326
30
3.9721919916997854e-31
10
-358.25811531250002
20
41.211403750000315
30
3.7602113024875633e-31
0
SPLINE
5
419
100
AcDbEntity
8
0
100
AcDbSpline
70
4
71
3
72
8
73
4
74
0
42
0.000000001
43
0.0000000001
44
0.0000000001
40
0
40
0
40
0
40
0
40
1
40
1
40
1
40
1
41
1
41
1
41
1
41
1
10
-358.25811531250002
20
41.211403750000315
30
3.7602113024875633e-31
10
-357.6247028125
20
40.736344375000314
30
3.6297616475877349e-31
10
-357.41884375000006
20
40.736344375000314
30
3.5873655097452915e-31
10
-357.41884375000006
20
41.227239062500317
30
3.5873655097452915e-31
0
SPLINE
5
420
100
AcDbEntity
8
0
100
AcDbSpline
70
4
71
3
72
8
73
4
74
0
42
0.000000001
43
0.0000000001
44
0.0000000001
40
0
40
0
40
0
40
0
40
1
40
1
40
1
40
1
41
1
41
1
41
1
41
1
10
-357.41884375000006
20
41.227239062500317
30
3.5873655097452915e-31
10
-357.41884375000006
20
41.528110000000318
30
3.5873655097452915e-31
10
-357.64053812500003
20
41.7339690625003
30
3.6330228889602312e-31
10
-358.55898625000003
20
42.288205000000318
30
3.8221748885649812e-31
0
LINE
5
421
100
AcDbEntity
8
0
100
AcDbLine
10
-358.55898625000003
20
42.288205000000318
30
3.8221748885649812e-31
11
-359.71496406250003
21
42.95328812500032
31
4.0602455087571712e-31
0
LINE
5
422
100
AcDbEntity
8
0
100
AcDbLine
10
-359.71496406250003
20
42.95328812500032
30
4.0602455087571712e-31
11
-361.53602500000005
21
42.953288125000313
31
4.4352882665941785e-31
0
SPLINE
5
423
100
AcDbEntity
8
0
100
AcDbSpline
70
4
71
3
72
8
73
4
74
0
42
0.000000001
43
0.0000000001
44
0.0000000001
40
0
40
0
40
0
40
0
40
1
40
1
40
1
40
1
41
1
41
1
41
1
41
1
10
-361.53602500000005
20
42.953288125000313
30
4.4352882665941793e-31
10
-363.24623874999997
20
42.953288125000313
30
4.7875023348237155e-31
10
-363.40459187500005
20
42.937452812500311
30
4.8201147485486728e-31
10
-364.11718093750005
20
42.509899375000302
30
4.9668706103109798e-31
0
SPLINE
5
424
100
AcDbEntity
8
0
100
AcDbSpline
70
4
71
3
72
8
73
4
74
0
42
0.000000001
43
0.0000000001
44
0.0000000001
40
0
40
0
40
0
40
0
40
1
40
1
40
1
40
1
41
1
41
1
41
1
41
1
10
-364.11718093750005
20
42.509899375000302
30
4.9668706103109798e-31
10
-365.46318250000007
20
41.718133750000312
30
5.2440761269731161e-31
10
-367.55344375000004
20
39.390342812500307
30
5.6745599881425528e-31
10
-368.23436218750004
20
37.949329375000303
30
5.8147933671598664e-31
0
SPLINE
5
425
100
AcDbEntity
8
0
100
AcDbSpline
70
4
71
3
72
8
73
4
74
0
42
0.000000001
43
0.0000000001
44
0.0000000001
40
0
40
0
40
0
40
0
40
1
40
1
40
1
40
1
41
1
41
1
41
1
41
1
10
-368.23436218750004
20
37.949329375000303
30
5.8147933671598664e-31
10
-368.45605656250001
20
37.490105312500305
30
5.8604507463748061e-31
10
-368.82026875000003
20
36.460810000000308
30
5.9354592979422104e-31
10
-369.05779843750003
20
35.684879687500327
30
5.9843779185296455e-31
0
SPLINE
5
426
100
AcDbEntity
8
0
100
AcDbSpline
70
4
71
3
72
8
73
4
74
0
42
0.000000001
43
0.0000000001
44
0.0000000001
40
0
40
0
40
0
40
0
40
1
40
1
40
1
40
1
41
1
41
1
41
1
41
1
10
-369.05779843750003
20
35.684879687500327
30
5.9843779185296455e-31
10
-369.29532812500008
20
34.893114062500317
30
6.0332965391170814e-31
10
-369.58036375000006
20
34.038007187500305
30
6.0919988838220035e-31
10
-369.70704625000002
20
33.752971562500313
30
6.1180888148019675e-31
0
SPLINE
5
427
100
AcDbEntity
8
0
100
AcDbSpline
70
4
71
3
72
8
73
4
74
0
42
0.000000001
43
0.0000000001
44
0.0000000001
40
0
40
0
40
0
40
0
40
1
40
1
40
1
40
1
41
1
41
1
41
1
41
1
10
-369.70704625000002
20
33.752971562500313
30
6.1180888148019675e-31
10
-369.83372874999998
20
33.483771250000309
30
6.1441787457819349e-31
10
-369.92874062500005
20
33.198735625000317
30
6.1637461940169098e-31
10
-369.92874062500005
20
33.119559062500308
30
6.1637461940169098e-31
0
SPLINE
5
428
100
AcDbEntity
8
0
100
AcDbSpline
70
4
71
3
72
8
73
4
74
0
42
0.000000001
43
0.0000000001
44
0.0000000001
40
0
40
0
40
0
40
0
40
1
40
1
40
1
40
1
41
1
41
1
41
1
41
1
10
-369.92874062500005
20
33.119559062500308
30
6.1637461940169098e-31
10
-369.92874062500005
20
33.056217812500321
30
6.1637461940169098e-31
10
-370.15043500000002
20
32.454475937500305
30
6.2094035732318495e-31
10
-370.41963531250008
20
31.805228125000315
30
6.2648446765642745e-31
0
SPLINE
5
429
100
AcDbEntity
8
0
100
AcDbSpline
70
4
71
3
72
8
73
4
74
0
42
0.000000001
43
0.0000000001
44
0.0000000001
40
0
40
0
40
0
40
0
40
1
40
1
40
1
40
1
41
1
41
1
41
1
41
1
10
-370.41963531250008
20
31.805228125000315
30
6.2648446765642745e-31
10
-370.68883562500002
20
31.155980312500304
30
6.320285779896703e-31
10
-371.02137718749998
20
30.253367500000312
30
6.3887718487191138e-31
10
-371.14805968750005
20
29.825814062500307
30
6.4148617796990786e-31
0
SPLINE
5
430
100
AcDbEntity
8
0
100
AcDbSpline
70
4
71
3
72
8
73
4
74
0
42
0.000000001
43
0.0000000001
44
0.0000000001
40
0
40
0
40
0
40
0
40
1
40
1
40
1
40
1
41
1
41
1
41
1
41
1
10
-371.14805968750005
20
29.825814062500307
30
6.4148617796990786e-31
10
-371.36975406250002
20
29.049883750000305
30
6.4605191589140183e-31
10
-372.06650781250005
20
28.147270937500295
30
6.6040137793038326e-31
10
-372.69992031250007
20
27.814729375000304
30
6.7344634342036619e-31
0
SPLINE
5
431
100
AcDbEntity
8
0
100
AcDbSpline
70
4
71
3
72
8
73
4
74
0
42
0.000000001
43
0.0000000001
44
0.0000000001
40
0
40
0
40
0
40
0
40
1
40
1
40
1
40
1
41
1
41
1
41
1
41
1
10
-372.69992031250007
20
27.814729375000304
30
6.7344634342036619e-31
10
-372.87410875000006
20
27.719717500000307
30
6.770337089301111e-31
10
-373.65003906250001
20
27.577199687500311
30
6.9301379165534048e-31
10
-374.44180468750005
20
27.513858437500289
30
7.0931999851781914e-31
0
SPLINE
5
432
100
AcDbEntity
8
0
100
AcDbSpline
70
4
71
3
72
8
73
4
74
0
42
0.000000001
43
0.0000000001
44
0.0000000001
40
0
40
0
40
0
40
0
40
1
40
1
40
1
40
1
41
1
41
1
41
1
41
1
10
-374.44180468750005
20
27.513858437500289
30
7.0931999851781914e-31
10
-377.03879593750003
20
27.307999375000307
30
7.6280435702674881e-31
10
-378.60649187500002
20
26.737928125000323
30
7.9509064661445632e-31
10
-379.39825750000006
20
25.756138750000304
30
8.1139685347693498e-31
0
LINE
5
433
100
AcDbEntity
8
0
100
AcDbLine
10
-379.39825750000006
20
25.756138750000304
30
8.1139685347693498e-31
11
-379.85748156250003
21
25.170232187500297
31
8.2085445345717255e-31
0
LINE
5
434
100
AcDbEntity
8
0
100
AcDbLine
10
-379.85748156250003
20
25.170232187500297
30
8.2085445345717255e-31
11
-379.96832875000001
21
20.926368437500305
31
8.2313732241791958e-31
0
SPLINE
5
435
100
AcDbEntity
8
0
100
AcDbSpline
70
4
71
3
72
8
73
4
74
0
42
0.000000001
43
0.0000000001
44
0.0000000001
40
0
40
0
40
0
40
0
40
1
40
1
40
1
40
1
41
1
41
1
41
1
41
1
10
-379.96832875000001
20
20.926368437500322
30
8.2313732241791958e-31
10
-380.06334062500002
20
16.872528437500307
30
8.2509406724141715e-31
10
-380.0791759375
20
16.666669375000289
30
8.2542019137866643e-31
10
-380.39588218750004
20
16.397469062500321
30
8.3194267412365789e-31
0
SPLINE
5
436
100
AcDbEntity
8
0
100
AcDbSpline
70
4
71
3
72
8
73
4
74
0
42
0.000000001
43
0.0000000001
44
0.0000000001
40
0
40
0
40
0
40
0
40
1
40
1
40
1
40
1
41
1
41
1
41
1
41
1
10
-380.39588218750004
20
16.397469062500321
30
8.3194267412365789e-31
10
-380.58590593750006
20
16.254951250000289
30
8.3585616377065287e-31
10
-380.96595343750005
20
16.128268750000316
30
8.4368314306464249e-31
10
-381.266824375
20
16.128268750000316
30
8.4987950167238433e-31
0
SPLINE
5
437
100
AcDbEntity
8
0
100
AcDbSpline
70
4
71
3
72
8
73
4
74
0
42
0.000000001
43
0.0000000001
44
0.0000000001
40
0
40
0
40
0
40
0
40
1
40
1
40
1
40
1
41
1
41
1
41
1
41
1
10
-381.266824375
20
16.128268750000316
30
8.4987950167238433e-31
10
-381.74188375
20
16.128268750000316
30
8.5966322578987152e-31
10
-381.83689562500007
20
16.207445312500326
30
8.6161997061336892e-31
10
-382.12193125000005
20
16.825022500000308
30
8.6749020508386148e-31
0
SPLINE
5
438
100
AcDbEntity
8
0
100
AcDbSpline
70
4
71
3
72
8
73
4
74
0
42
0.000000001
43
0.0000000001
44
0.0000000001
40
0
40
0
40
0
40
0
40
1
40
1
40
1
40
1
41
1
41
1
41
1
41
1
10
-382.12193125000005
20
16.825022500000308
30
8.6749020508386148e-31
10
-382.2961196875001
20
17.220905312500285
30
8.7107757059360649e-31
10
-382.43863750000003
20
17.569282187500299
30
8.7401268782885295e-31
10
-382.43863750000003
20
17.616788125000298
30
8.7401268782885295e-31
0
SPLINE
5
439
100
AcDbEntity
8
0
100
AcDbSpline
70
4
71
3
72
8
73
4
74
0
42
0.000000001
43
0.0000000001
44
0.0000000001
40
0
40
0
40
0
40
0
40
1
40
1
40
1
40
1
41
1
41
1
41
1
41
1
10
-382.43863750000003
20
17.616788125000298
30
8.7401268782885295e-31
10
-382.43863750000003
20
17.648458750000309
30
8.7401268782885295e-31
10
-382.78701437500001
20
18.42438906250031
30
8.8118741884834331e-31
10
-383.21456781250004
20
19.32700187500032
30
8.899927705540818e-31
0
SPLINE
5
440
100
AcDbEntity
8
0
100
AcDbSpline
70
4
71
3
72
8
73
4
74
0
42
0.000000001
43
0.0000000001
44
0.0000000001
40
0
40
0
40
0
40
0
40
1
40
1
40
1
40
1
41
1
41
1
41
1
41
1
10
-383.21456781250004
20
19.32700187500032
30
8.899927705540818e-31
10
-384.65558125000001
20
22.383217187500328
30
9.19670067043793e-31
10
-385.39984093750007
20
24.568490312500302
30
9.3499790149452278e-31
10
-385.20981718750011
20
25.265244062500329
30
9.3108441184752798e-31
0
SPLINE
5
441
100
AcDbEntity
8
0
100
AcDbSpline
70
4
71
3
72
8
73
4
74
0
42
0.000000001
43
0.0000000001
44
0.0000000001
40
0
40
0
40
0
40
0
40
1
40
1
40
1
40
1
41
1
41
1
41
1
41
1
10
-385.20981718750011
20
25.265244062500329
30
9.3108441184752798e-31
10
-385.16231125000002
20
25.502773750000323
30
9.301060394357791e-31
10
-385.05146406250003
20
26.262868750000301
30
9.2782317047503224e-31
10
-384.97228750000005
20
26.927951875000318
30
9.2619254978878447e-31
0
SPLINE
5
442
100
AcDbEntity
8
0
100
AcDbSpline
70
4
71
3
72
8
73
4
74
0
42
0.000000001
43
0.0000000001
44
0.0000000001
40
0
40
0
40
0
40
0
40
1
40
1
40
1
40
1
41
1
41
1
41
1
41
1
10
-384.97228750000005
20
26.927951875000318
30
9.2619254978878447e-31
10
-384.86144031250006
20
28.068094375000321
30
9.2390968082803726e-31
10
-384.71892250000002
20
28.52731843750032
30
9.2097456359279116e-31
10
-383.81630968750005
20
30.775932812500333
30
9.0238548776956547e-31
0
SPLINE
5
443
100
AcDbEntity
8
0
100
AcDbSpline
70
4
71
3
72
8
73
4
74
0
42
0.000000001
43
0.0000000001
44
0.0000000001
40
0
40
0
40
0
40
0
40
1
40
1
40
1
40
1
41
1
41
1
41
1
41
1
10
-383.81630968750005
20
30.775932812500333
30
9.0238548776956547e-31
10
-382.69200250000006
20
33.642124375000328
30
8.7923067402484573e-31
10
-380.91844750000007
20
37.030881250000327
30
8.4270477065289396e-31
10
-379.95249343750004
20
38.234365000000295
30
8.2281119828066995e-31
0
SPLINE
5
444
100
AcDbEntity
8
0
100
AcDbSpline
70
4
71
3
72
8
73
4
74
0
42
0.000000001
43
0.0000000001
44
0.0000000001
40
0
40
0
40
0
40
0
40
1
40
1
40
1
40
1
41
1
41
1
41
1
41
1
10
-379.95249343750004
20
38.234365000000295
30
8.2281119828066995e-31
10
-379.66745781250006
20
38.598577187500318
30
8.1694096381017791e-31
10
-379.429928125
20
38.946954062500296
30
8.1204910175143423e-31
10
-379.429928125
20
39.010295312500318
30
8.1204910175143423e-31
0
SPLINE
5
445
100
AcDbEntity
8
0
100
AcDbSpline
70
4
71
3
72
8
73
4
74
0
42
0.000000001
43
0.0000000001
44
0.0000000001
40
0
40
0
40
0
40
0
40
1
40
1
40
1
40
1
41
1
41
1
41
1
41
1
10
-379.429928125
20
39.010295312500318
30
8.1204910175143423e-31
10
-379.429928125
20
39.152813125000314
30
8.1204910175143423e-31
10
-377.78305562500003
20
40.989709375000331
30
7.7813219147747842e-31
10
-376.70625437500001
20
42.066510625000305
30
7.5595575014450773e-31
0
SPLINE
5
446
100
AcDbEntity
8
0
100
AcDbSpline
70
4
71
3
72
8
73
4
74
0
42
0.000000001
43
0.0000000001
44
0.0000000001
40
0
40
0
40
0
40
0
40
1
40
1
40
1
40
1
41
1
41
1
41
1
41
1
10
-376.70625437500001
20
42.066510625000305
30
7.5595575014450773e-31
10
-375.81947687500008
20
42.953288125000313
30
7.3769279845853158e-31
10
-373.58669781250001
20
44.631831250000324
30
6.9170929510634189e-31
10
-373.3174975
20
44.631831250000324
30
6.861651847730994e-31
0
SPLINE
5
447
100
AcDbEntity
8
0
100
AcDbSpline
70
4
71
3
72
8
73
4
74
0
42
0.000000001
43
0.0000000001
44
0.0000000001
40
0
40
0
40
0
40
0
40
1
40
1
40
1
40
1
41
1
41
1
41
1
41
1
10
-373.3174975
20
44.631831250000324
30
6.861651847730994e-31
10
-373.19081500000004
20
44.631831250000324
30
6.8355619167510257e-31
10
-373.09580312500003
20
44.679337187500309
30
6.8159944685160543e-31
10
-373.09580312500003
20
44.758513750000319
30
6.8159944685160543e-31
0
SPLINE
5
448
100
AcDbEntity
8
0
100
AcDbSpline
70
4
71
3
72
8
73
4
74
0
42
0.000000001
43
0.0000000001
44
0.0000000001
40
0
40
0
40
0
40
0
40
1
40
1
40
1
40
1
41
1
41
1
41
1
41
1
10
-373.09580312500003
20
44.758513750000319
30
6.8159944685160543e-31
10
-373.09580312500003
20
44.885196250000305
30
6.8159944685160543e-31
10
-372.35154343750003
20
45.281079062500297
30
6.6627161240087538e-31
10
-370.79968281250001
20
45.993668125000298
30
6.343114469504175e-31
0
SPLINE
5
449
100
AcDbEntity
8
0
100
AcDbSpline
70
4
71
3
72
8
73
4
74
0
42
0.000000001
43
0.0000000001
44
0.0000000001
40
0
40
0
40
0
40
0
40
1
40
1
40
1
40
1
41
1
41
1
41
1
41
1
10
-370.79968281250001
20
45.993668125000298
30
6.343114469504175e-31
10
-370.27711750000003
20
46.231197812500312
30
6.2354935042118143e-31
10
-369.78622281250006
20
46.484562812500307
30
6.1343950216644461e-31
10
-369.69121093750005
20
46.563739375000317
30
6.1148275734294747e-31
0
SPLINE
5
450
100
AcDbEntity
8
0
100
AcDbSpline
70
4
71
3
72
8
73
4
74
0
42
0.000000001
43
0.0000000001
44
0.0000000001
40
0
40
0
40
0
40
0
40
1
40
1
40
1
40
1
41
1
41
1
41
1
41
1
10
-369.69121093750005
20
46.563739375000317
30
6.1148275734294747e-31
10
-369.61203437500001
20
46.642915937500305
30
6.0985213665669961e-31
10
-369.07363375
20
47.038798750000304
30
5.9876391599021391e-31
10
-368.50356250000004
20
47.466352187500306
30
5.8702344704922966e-31
0
SPLINE
5
451
100
AcDbEntity
8
0
100
AcDbSpline
70
4
71
3
72
8
73
4
74
0
42
0.000000001
43
0.0000000001
44
0.0000000001
40
0
40
0
40
0
40
0
40
1
40
1
40
1
40
1
41
1
41
1
41
1
41
1
10
-368.50356250000004
20
47.466352187500306
30
5.8702344704922966e-31
10
-366.98337250000003
20
48.590659375000328
30
5.557155298732705e-31
10
-366.77751343750003
20
48.907365625000324
30
5.514759160890259e-31
10
-365.39984125000001
20
52.106098750000314
30
5.2310311614831337e-31
0
SPLINE
5
452
100
AcDbEntity
8
0
100
AcDbSpline
70
4
71
3
72
8
73
4
74
0
42
0.000000001
43
0.0000000001
44
0.0000000001
40
0
40
0
40
0
40
0
40
1
40
1
40
1
40
1
41
1
41
1
41
1
41
1
10
-365.39984125000001
20
52.106098750000314
30
5.2310311614831337e-31
10
-364.19635750000003
20
54.908949062500326
30
4.9831768171734585e-31
10
-361.88440187499998
20
57.046716250000316
30
4.5070355767890821e-31
10
-358.92319843749999
20
58.076011562500312
30
3.897183440132385e-31
0
SPLINE
5
453
100
AcDbEntity
8
0
100
AcDbSpline
70
4
71
3
72
8
73
4
74
0
42
0.000000001
43
0.0000000001
44
0.0000000001
40
0
40
0
40
0
40
0
40
1
40
1
40
1
40
1
41
1
41
1
41
1
41
1
10
-358.92319843749999
20
58.076011562500312
30
3.897183440132385e-31
10
-358.11559750000004
20
58.361047187500304
30
3.7308601301351027e-31
10
-357.60886750000003
20
58.408553125000324
30
3.6265004062152382e-31
10
-355.42359437500005
20
58.408553125000324
30
3.1764490968108301e-31
0
SPLINE
5
454
100
AcDbEntity
8
0
100
AcDbSpline
70
4
71
3
72
8
73
4
74
0
42
0.000000001
43
0.0000000001
44
0.0000000001
40
0
40
0
40
0
40
0
40
1
40
1
40
1
40
1
41
1
41
1
41
1
41
1
10
-355.42359437500005
20
58.408553125000324
30
3.1764490968108301e-31
10
-352.00316687499998
20
58.408553125000324
30
2.4720209603517543e-31
10
-349.849564375
20
57.917658437500315
30
2.0284921336923357e-31
10
-347.41092624999999
20
56.587492187500317
30
1.5262609623279954e-31
0
SPLINE
5
455
100
AcDbEntity
8
0
100
AcDbSpline
70
4
71
3
72
8
73
4
74
0
42
0.000000001
43
0.0000000001
44
0.0000000001
40
0
40
0
40
0
40
0
40
1
40
1
40
1
40
1
41
1
41
1
41
1
41
1
10
-347.41092624999999
20
56.587492187500317
30
1.5262609623279954e-31
10
-347.18923187500002
20
56.460809687500308
30
1.4806035831130561e-31
10
-346.85669031250001
20
56.349962500000323
30
1.4121175142906452e-31
10
-346.69833718750004
20
56.349962500000323
30
1.3795051005656879e-31
0
SPLINE
5
456
100
AcDbEntity
8
0
100
AcDbSpline
70
4
71
3
72
8
73
4
74
0
42
0.000000001
43
0.0000000001
44
0.0000000001
40
0
40
0
40
0
40
0
40
1
40
1
40
1
40
1
41
1
41
1
41
1
41
1
10
-346.69833718750004
20
56.349962500000323
30
1.3795051005656879e-31
10
-346.53998406250003
20
56.349962500000323
30
1.3468926868407308e-31
10
-346.3182896875
20
56.270785937500314
30
1.3012353076257913e-31
10
-346.20744250000001
20
56.159938750000308
30
1.27840661801832e-31
0
SPLINE
5
457
100
AcDbEntity
8
0
100
AcDbSpline
70
4
71
3
72
8
73
4
74
0
42
0.000000001
43
0.0000000001
44
0.0000000001
40
0
40
0
40
0
40
0
40
1
40
1
40
1
40
1
41
1
41
1
41
1
41
1
10
-346.20744250000001
20
56.159938750000308
30
1.27840661801832e-31
10
-346.112430625
20
56.06492687500031
30
1.258839169783345e-31
10
-345.98574812500004
20
56.017420937500319
30
1.2327492388033807e-31
10
-345.93824218750001
20
56.049091562500308
30
1.222965514685895e-31
0
SPLINE
5
458
100
AcDbEntity
8
0
100
AcDbSpline
70
4
71
3
72
8
73
4
74
0
42
0.000000001
43
0.0000000001
44
0.0000000001
40
0
40
0
40
0
40
0
40
1
40
1
40
1
40
1
41
1
41
1
41
1
41
1
10
-345.93824218750001
20
56.049091562500308
30
1.222965514685895e-31
10
-345.90657156250006
20
56.096597500000328
30
1.216443031940902e-31
10
-346.09659531250003
20
56.302456562500311
30
1.2555779284108521e-31
10
-346.36579562500003
20
56.524150937500309
30
1.3110190317432771e-31
0
SPLINE
5
459
100
AcDbEntity
8
0
100
AcDbSpline
70
4
71
3
72
8
73
4
74
0
42
0.000000001
43
0.0000000001
44
0.0000000001
40
0
40
0
40
0
40
0
40
1
40
1
40
1
40
1
41
1
41
1
41
1
41
1
10
-376.89627812500009
20
50.253367187500317
30
7.5986923979150271e-31
10
-377.16547843749998
20
49.794143125000318
30
7.6541335012474529e-31
10
-377.48218468750002
20
49.334919062500319
30
7.7193583286973667e-31
10
-377.60886718749998
20
49.224071875000313
30
7.745448259677335e-31
0
SPLINE
5
460
100
AcDbEntity
8
0
100
AcDbSpline
70
4
71
3
72
8
73
4
74
0
42
0.000000001
43
0.0000000001
44
0.0000000001
40
0
40
0
40
0
40
0
40
1
40
1
40
1
40
1
41
1
41
1
41
1
41
1
10
-377.60886718749998
20
49.224071875000313
30
7.745448259677335e-31
10
-377.73554968750005
20
49.113224687500306
30
7.7715381906572989e-31
10
-378.11559718750004
20
48.590659375000328
30
7.849807983597195e-31
10
-378.43230343750002
20
48.052258750000298
30
7.9150328110471097e-31
0
SPLINE
5
461
100
AcDbEntity
8
0
100
AcDbSpline
70
4
71
3
72
8
73
4
74
0
42
0.000000001
43
0.0000000001
44
0.0000000001
40
0
40
0
40
0
40
0
40
1
40
1
40
1
40
1
41
1
41
1
41
1
41
1
10
-378.43230343750002
20
48.052258750000298
30
7.9150328110471097e-31
10
-378.87569218750002
20
47.323834375000317
30
8.0063475694769908e-31
10
-380.50672937500002
20
45.091055312500345
30
8.3422554308440492e-31
10
-381.28265968749997
20
44.156771875000338
30
8.5020562580963395e-31
0
SPLINE
5
462
100
AcDbEntity
8
0
100
AcDbSpline
70
4
71
3
72
8
73
4
74
0
42
0.000000001
43
0.0000000001
44
0.0000000001
40
0
40
0
40
0
40
0
40
1
40
1
40
1
40
1
41
1
41
1
41
1
41
1
10
-381.28265968749997
20
44.156771875000338
30
8.5020562580963395e-31
10
-381.45684812500002
20
43.966748125000322
30
8.5379299131937931e-31
10
-381.86856625000007
20
44.489313437500329
30
8.6227221888786835e-31
10
-382.23277843750003
20
45.34442031250034
30
8.6977307404460834e-31
0
SPLINE
5
463
100
AcDbEntity
8
0
100
AcDbSpline
70
4
71
3
72
8
73
4
74
0
42
0.000000001
43
0.0000000001
44
0.0000000001
40
0
40
0
40
0
40
0
40
1
40
1
40
1
40
1
41
1
41
1
41
1
41
1
10
-382.23277843750003
20
45.34442031250034
30
8.6977307404460834e-31
10
-382.43863750000003
20
45.866985625000325
30
8.7401268782885295e-31
10
-382.723673125
20
46.516233437500333
30
8.7988292229934516e-31
10
-382.85035562500002
20
46.801269062500324
30
8.8249191539734146e-31
0
SPLINE
5
464
100
AcDbEntity
8
0
100
AcDbSpline
70
4
71
3
72
8
73
4
74
0
42
0.000000001
43
0.0000000001
44
0.0000000001
40
0
40
0
40
0
40
0
40
1
40
1
40
1
40
1
41
1
41
1
41
1
41
1
10
-382.85035562500002
20
46.801269062500324
30
8.8249191539734146e-31
10
-383.29374437500007
20
47.78305843750033
30
8.9162339124032975e-31
10
-383.21456781250004
20
47.862235000000339
30
8.899927705540818e-31
10
-380.25336437500005
20
49.54077812500033
30
8.2900755688841179e-31
0
SPLINE
5
465
100
AcDbEntity
8
0
100
AcDbSpline
70
4
71
3
72
8
73
4
74
0
42
0.000000001
43
0.0000000001
44
0.0000000001
40
0
40
0
40
0
40
0
40
1
40
1
40
1
40
1
41
1
41
1
41
1
41
1
10
-380.25336437500005
20
49.54077812500033
30
8.2900755688841179e-31
10
-380.01583468750005
20
49.667460625000324
30
8.241156948296681e-31
10
-379.47743406250004
20
50.015837500000316
30
8.1302747416318276e-31
10
-379.06571593750004
20
50.300873125000308
30
8.0454824659469389e-31
0
SPLINE
5
466
100
AcDbEntity
8
0
100
AcDbSpline
70
4
71
3
72
8
73
4
74
0
42
0.000000001
43
0.0000000001
44
0.0000000001
40
0
40
0
40
0
40
0
40
1
40
1
40
1
40
1
41
1
41
1
41
1
41
1
10
-379.06571593750004
20
50.300873125000308
30
8.0454824659469389e-31
10
-378.65399781250005
20
50.570073437500312
30
7.9606901902620485e-31
10
-378.25811499999998
20
50.807603125000327
30
7.8791591559496561e-31
10
-378.21060906250005
20
50.807603125000327
30
7.8693754318321708e-31
0
SPLINE
5
467
100
AcDbEntity
8
0
100
AcDbSpline
70
4
71
3
72
8
73
4
74
0
42
0.000000001
43
0.0000000001
44
0.0000000001
40
0
40
0
40
0
40
0
40
1
40
1
40
1
40
1
41
1
41
1
41
1
41
1
10
-378.21060906250005
20
50.807603125000327
30
7.8693754318321708e-31
10
-378.16310312500008
20
50.807603125000327
30
7.8595917077146856e-31
10
-377.84639687500004
20
51.029297500000311
30
7.7943668802647701e-31
10
-377.51385531250003
20
51.298497812500301
30
7.7258808114423592e-31
0
SPLINE
5
468
100
AcDbEntity
8
0
100
AcDbSpline
70
4
71
3
72
8
73
4
74
0
42
0.000000001
43
0.0000000001
44
0.0000000001
40
0
40
0
40
0
40
0
40
1
40
1
40
1
40
1
41
1
41
1
41
1
41
1
10
-377.51385531250003
20
51.298497812500301
30
7.7258808114423592e-31
10
-376.40538343750001
20
52.1694400000003
30
7.4975939153676598e-31
10
-376.10451250000006
20
51.646874687500315
30
7.4356303292902405e-31
10
-376.89627812500009
20
50.253367187500317
30
7.5986923979150271e-31
0
ENDSEC
0
SECTION
2
OBJECTS
0
DICTIONARY
5
C
100
AcDbDictionary
3
ACAD_GROUP
350
D
3
ACAD_MLINESTYLE
350
17
0
DICTIONARY
5
D
100
AcDbDictionary
0
DICTIONARY
5
1A
330
C
100
AcDbDictionary
0
DICTIONARY
5
17
100
AcDbDictionary
0
ENDSEC
0
EOF
