0
SECTION
2
HEADER
9
$INSUNITS
70
4
9
$ACADVER
1
AC1014
9
$HANDSEED
5
FFFF
0
ENDSEC
0
SECTION
2
TABLES
0
TABLE
2
VPORT
5
8
100
AcDbSymbolTable
0
ENDTAB
0
TABLE
2
LTYPE
5
5
100
AcDbSymbolTable
0
LTYPE
5
14
100
AcDbSymbolTableRecord
100
AcDbLinetypeTableRecord
2
BYBLOCK
70
0
0
LTYPE
5
15
100
AcDbSymbolTableRecord
100
AcDbLinetypeTableRecord
2
BYLAYER
70
0
0
ENDTAB
0
TABLE
2
LAYER
5
2
100
AcDbSymbolTable
70
2
0
LAYER
5
50
100
AcDbSymbolTableRecord
100
AcDbLayerTableRecord
2
0
70
0
6
CONTINUOUS
0
ENDTAB
0
TABLE
2
STYLE
5
3
100
AcDbSymbolTable
70
1
0
STYLE
5
11
100
AcDbSymbolTableRecord
100
AcDbTextStyleTableRecord
2
STANDARD
70
0
0
ENDTAB
0
TABLE
2
VIEW
5
6
100
AcDbSymbolTable
70
0
0
ENDTAB
0
TABLE
2
UCS
5
7
100
AcDbSymbolTable
70
0
0
ENDTAB
0
TABLE
2
APPID
5
9
100
AcDbSymbolTable
70
2
0
APPID
5
12
100
AcDbSymbolTableRecord
100
AcDbRegAppTableRecord
2
ACAD
70
0
0
ENDTAB
0
TABLE
2
DIMSTYLE
5
A
100
AcDbSymbolTable
70
1
0
ENDTAB
0
TABLE
2
BLOCK_RECORD
5
1
100
AcDbSymbolTable
70
1
0
BLOCK_RECORD
5
1F
100
AcDbSymbolTableRecord
100
AcDbBlockTableRecord
2
*MODEL_SPACE
0
BLOCK_RECORD
5
1B
100
AcDbSymbolTableRecord
100
AcDbBlockTableRecord
2
*PAPER_SPACE
0
ENDTAB
0
ENDSEC
0
SECTION
2
BLOCKS
0
BLOCK
5
20
100
AcDbEntity
100
AcDbBlockBegin
2
*MODEL_SPACE
0
ENDBLK
5
21
100
AcDbEntity
100
AcDbBlockEnd
0
BLOCK
5
1C
100
AcDbEntity
100
AcDbBlockBegin
2
*PAPER_SPACE
0
ENDBLK
5
1D
100
AcDbEntity
100
AcDbBlockEnd
0
ENDSEC
0
SECTION
2
ENTITIES
0
LWPOLYLINE
5
100
100
AcDbEntity
8
0
100
AcDbPolyline
90
6
70
1
43
0.0
10
-455.83937300215831
20
729.0314594523054
10
-453.52997192539982
20
725.03145945230528
10
-455.83937300215831
20
721.03145945230517
10
-460.45817515567541
20
721.03145945230517
10
-462.7675762324339
20
725.03145945230528
10
-460.45817515567535
20
729.0314594523054
0
LWPOLYLINE
5
101
100
AcDbEntity
8
0
100
AcDbPolyline
90
6
70
1
43
0.0
10
-464.49962704000268
20
726.03145945230517
10
-469.11842919351983
20
726.03145945230517
10
-471.42783027027832
20
730.03145945230528
10
-470.03160490427638
20
732.44979272503701
42
-0.037147168841160566
10
-464.36381136390656
20
733.79621980084255
10
-462.19022596324419
20
730.03145945230528
0
LWPOLYLINE
5
102
100
AcDbEntity
8
0
100
AcDbPolyline
90
6
70
1
43
0.0
10
-455.83937300215831
20
719.0314594523054
10
-453.52997192539982
20
715.03145945230528
10
-455.83937300215831
20
711.03145945230517
10
-460.45817515567541
20
711.03145945230517
10
-462.7675762324339
20
715.03145945230528
10
-460.45817515567535
20
719.0314594523054
0
LWPOLYLINE
5
103
100
AcDbEntity
8
0
100
AcDbPolyline
90
4
70
1
43
0.0
10
-425.81715900429788
20
711.03145945230517
10
-428.12656008105637
20
715.03145945230528
10
-426.36659473870168
20
718.07980884482481
42
-0.051966053334794315
10
-422.29722831958679
20
711.0314594523054
0
LWPOLYLINE
5
104
100
AcDbEntity
8
0
100
AcDbPolyline
90
6
70
1
43
0.0
10
-438.51886492646952
20
709.0314594523054
10
-436.20946384971103
20
705.03145945230528
10
-438.51886492646952
20
701.03145945230517
10
-443.13766707998667
20
701.03145945230517
10
-445.44706815674516
20
705.03145945230528
10
-443.13766707998661
20
709.0314594523054
0
LWPOLYLINE
5
105
100
AcDbEntity
8
0
100
AcDbPolyline
90
6
70
1
43
0.0
10
-464.49962704000268
20
694.0314594523054
10
-462.19022596324419
20
690.03145945230528
10
-464.49962704000268
20
686.03145945230517
10
-469.11842919351983
20
686.03145945230517
10
-471.42783027027832
20
690.03145945230528
10
-469.11842919351977
20
694.0314594523054
0
LWPOLYLINE
5
106
100
AcDbEntity
8
0
100
AcDbPolyline
90
6
70
1
43
0.0
10
-481.82013511569147
20
704.0314594523054
10
-479.51073403893298
20
700.03145945230528
10
-481.82013511569147
20
696.03145945230517
10
-486.43893726920857
20
696.03145945230517
10
-488.74833834596706
20
700.03145945230528
10
-486.43893726920851
20
704.0314594523054
0
LWPOLYLINE
5
107
100
AcDbEntity
8
0
100
AcDbPolyline
90
6
70
1
43
0.0
10
-490.48038915353584
20
689.0314594523054
10
-488.17098807677735
20
685.03145945230528
10
-490.48038915353584
20
681.03145945230517
10
-494.82755995486144
20
681.03145945230483
42
-0.037147168841166457
10
-496.49541667305482
20
686.61312617957367
10
-495.09919130705293
20
689.0314594523054
0
LWPOLYLINE
5
108
100
AcDbEntity
8
0
100
AcDbPolyline
90
4
70
1
43
0.0
10
-490.48038915353584
20
679.0314594523054
10
-488.17098807677735
20
675.03145945230528
10
-489.93095341913374
20
671.98311005978439
42
-0.051966053334797986
10
-494.00031983824692
20
679.03145945230517
0
LWPOLYLINE
5
109
100
AcDbEntity
8
0
100
AcDbPolyline
90
6
70
1
43
0.0
10
-455.83937300215831
20
689.0314594523054
10
-453.52997192539982
20
685.03145945230528
10
-455.83937300215831
20
681.03145945230517
10
-460.45817515567541
20
681.03145945230517
10
-462.7675762324339
20
685.03145945230528
10
-460.45817515567535
20
689.0314594523054
0
LWPOLYLINE
5
110
100
AcDbEntity
8
0
100
AcDbPolyline
90
6
70
1
43
0.0
10
-447.17911896431389
20
684.0314594523054
10
-444.8697178875554
20
680.03145945230528
10
-447.17911896431389
20
676.03145945230517
10
-451.79792111783104
20
676.03145945230517
10
-454.10732219458953
20
680.03145945230528
10
-451.79792111783092
20
684.0314594523054
0
LWPOLYLINE
5
111
100
AcDbEntity
8
0
100
AcDbPolyline
90
6
70
1
43
0.0
10
-469.11842919351977
20
664.0314594523054
10
-464.49962704000268
20
664.0314594523054
10
-462.19022596324419
20
660.03145945230528
10
-464.36381136390656
20
656.26669910376779
42
-0.037147168841171127
10
-470.03160490427649
20
657.61312617957356
10
-471.42783027027832
20
660.03145945230528
0
LWPOLYLINE
5
112
100
AcDbEntity
8
0
100
AcDbPolyline
90
6
70
1
43
0.0
10
-451.79792111783092
20
664.0314594523054
10
-447.17911896431389
20
664.0314594523054
10
-444.8697178875554
20
660.03145945230528
10
-446.26594325355723
20
657.61312617957356
42
-0.037147168841171127
10
-451.93373679392715
20
656.26669910376802
10
-454.10732219458953
20
660.03145945230528
0
LWPOLYLINE
5
113
100
AcDbEntity
8
0
100
AcDbPolyline
90
6
70
1
43
0.0
10
-429.85861088862515
20
694.0314594523054
10
-427.54920981186666
20
690.03145945230528
10
-429.85861088862515
20
686.03145945230517
10
-434.47741304214225
20
686.03145945230517
10
-436.78681411890074
20
690.03145945230528
10
-434.47741304214219
20
694.0314594523054
0
LWPOLYLINE
5
114
100
AcDbEntity
8
0
100
AcDbPolyline
90
6
70
1
43
0.0
10
-428.12656008105637
20
685.03145945230528
10
-425.81715900429776
20
689.0314594523054
10
-421.19835685078073
20
689.0314594523054
10
-419.80213148477947
20
686.6131261795739
42
-0.037147168841170017
10
-421.46998820297301
20
681.03145945230517
10
-425.81715900429788
20
681.03145945230517
0
LWPOLYLINE
5
115
100
AcDbEntity
8
0
100
AcDbPolyline
90
6
70
1
43
0.0
10
-461.02013511569675
20
589.13145945230599
10
-458.71073403893843
20
585.13145945230519
10
-461.02013511569709
20
581.13145945230531
10
-465.63893726921401
20
581.13145945230553
10
-467.94833834597227
20
585.13145945230565
10
-465.63893726921367
20
589.13145945230599
0
LWPOLYLINE
5
116
100
AcDbEntity
8
0
100
AcDbPolyline
90
3
70
1
43
0.0
10
-476.03124211462773
20
575.13145945230599
10
-478.34064319138548
20
571.1314594523061
10
-478.34064319138548
20
579.13145945230599
0
LWPOLYLINE
5
117
100
AcDbEntity
8
0
100
AcDbPolyline
90
6
70
1
43
0.0
10
-465.63893726921447
20
571.13145945230553
10
-467.94833834597279
20
575.13145945230565
10
-465.63893726921413
20
579.13145945230542
10
-461.02013511569726
20
579.13145945230531
10
-458.71073403893894
20
575.13145945230519
10
-461.0201351156976
20
571.13145945230531
0
LWPOLYLINE
5
118
100
AcDbEntity
8
0
100
AcDbPolyline
90
4
70
1
43
0.0
10
-467.94833834597233
20
551.13145945230235
10
-476.03124211463091
20
551.13145945230235
10
-474.2991913070598
20
554.13145945230588
10
-469.68038915354293
20
554.13145945230565
0
LWPOLYLINE
5
119
100
AcDbEntity
8
0
100
AcDbPolyline
90
6
70
1
43
0.0
10
-456.97868323137095
20
556.13145945230508
10
-459.28808430812921
20
560.13145945230519
10
-456.97868323137061
20
564.13145945230508
10
-452.35988107785369
20
564.13145945230485
10
-450.05048000109537
20
560.13145945230474
10
-452.35988107785403
20
556.13145945230497
0
LWPOLYLINE
5
120
100
AcDbEntity
8
0
100
AcDbPolyline
90
4
70
1
43
0.0
10
-441.39022596325037
20
589.13145945230599
10
-433.30732219459367
20
589.13145945230599
10
-435.03937300216376
20
586.13145945230417
10
-439.65817515568068
20
586.1314594523044
0
LWPOLYLINE
5
121
100
AcDbEntity
8
0
100
AcDbPolyline
90
6
70
1
43
0.0
10
-439.65817515568222
20
556.1314594523044
10
-441.96757623244048
20
560.1314594523044
10
-439.65817515568182
20
564.13145945230428
10
-435.03937300216489
20
564.13145945230406
10
-432.72997192540663
20
560.13145945230394
10
-435.03937300216529
20
556.13145945230417
0
LWPOLYLINE
5
122
100
AcDbEntity
8
0
100
AcDbPolyline
90
6
70
1
43
0.0
10
-430.99792111783705
20
571.13145945230394
10
-433.30732219459537
20
575.13145945230394
10
-430.99792111783671
20
579.13145945230383
10
-426.37911896431979
20
579.1314594523036
10
-424.06971788756152
20
575.1314594523036
10
-426.37911896432013
20
571.13145945230372
0
LWPOLYLINE
5
123
100
AcDbEntity
8
0
100
AcDbPolyline
90
6
70
1
43
0.0
10
-422.33766707999246
20
576.1314594523036
10
-424.64706815675072
20
580.1314594523036
10
-422.33766707999212
20
584.13145945230349
10
-417.71886492647519
20
584.13145945230326
10
-415.40946384971687
20
580.13145945230326
10
-417.71886492647553
20
576.13145945230337
0
LWPOLYLINE
5
124
100
AcDbEntity
8
0
100
AcDbPolyline
90
6
70
1
43
0.0
10
-413.6774130421494
20
551.13145945230235
10
-415.98681411890766
20
555.13145945230326
10
-413.67741304214906
20
559.13145945230303
10
-409.05861088863213
20
559.13145945230281
10
-406.74920981187381
20
555.13145945230281
10
-409.05861088863247
20
551.13145945230235
0
LWPOLYLINE
5
125
100
AcDbEntity
8
0
100
AcDbPolyline
90
3
70
1
43
0.0
10
-396.35690496646066
20
581.13145945230235
10
-398.66630604321745
20
585.13145945230247
10
-396.35690496646066
20
589.13145945230599
0
LWPOLYLINE
5
126
100
AcDbEntity
8
0
100
AcDbPolyline
90
3
70
1
43
0.0
10
-398.66630604321841
20
565.13145945230247
10
-396.35690496646066
20
569.13145945230224
10
-396.35690496646066
20
561.13145945230235
0
LWPOLYLINE
5
127
100
AcDbEntity
8
0
100
AcDbPolyline
90
4
70
1
43
0.0
10
-398.66630604321927
20
551.13145945230235
10
-406.74920981187415
20
551.13145945230235
10
-405.01715900430492
20
554.13145945230258
10
-400.39835685078799
20
554.13145945230235
0
LWPOLYLINE
5
128
100
AcDbEntity
8
0
100
AcDbPolyline
90
6
70
1
43
0.0
10
-405.01715900430429
20
566.13145945230269
10
-407.32656008106255
20
570.13145945230281
10
-405.01715900430389
20
574.13145945230258
10
-400.39835685078697
20
574.13145945230235
10
-398.0889557740287
20
570.13145945230235
10
-400.39835685078737
20
566.13145945230247
0
LWPOLYLINE
5
129
100
AcDbEntity
8
0
100
AcDbPolyline
90
4
70
1
43
0.0
10
-406.74920981187375
20
589.13145945230599
10
-398.66630604321523
20
589.13145945230599
10
-400.39835685078629
20
586.13145945230247
10
-405.01715900430321
20
586.13145945230269
0
LWPOLYLINE
5
130
100
AcDbEntity
8
0
100
AcDbPolyline
90
4
70
1
43
0.0
10
-415.98681411890755
20
551.13145945230235
10
-424.06971788756329
20
551.13145945230235
10
-422.33766707999365
20
554.13145945230349
10
-417.71886492647673
20
554.13145945230326
0
LWPOLYLINE
5
131
100
AcDbEntity
8
0
100
AcDbPolyline
90
6
70
1
43
0.0
10
-409.05861088863054
20
589.13145945230599
10
-406.74920981187228
20
585.13145945230281
10
-409.05861088863094
20
581.13145945230292
10
-413.6774130421478
20
581.13145945230315
10
-415.98681411890607
20
585.13145945230326
10
-413.67741304214746
20
589.13145945230599
0
LWPOLYLINE
5
132
100
AcDbEntity
8
0
100
AcDbPolyline
90
6
70
1
43
0.0
10
-430.99792111783756
20
561.13145945230394
10
-433.30732219459583
20
565.13145945230394
10
-430.99792111783722
20
569.13145945230383
10
-426.3791189643203
20
569.1314594523036
10
-424.06971788756204
20
565.1314594523036
10
-426.37911896432064
20
561.13145945230372
0
LWPOLYLINE
5
133
100
AcDbEntity
8
0
100
AcDbPolyline
90
6
70
1
43
0.0
10
-448.3184291935263
20
561.13145945230474
10
-450.62783027028456
20
565.13145945230485
10
-448.31842919352596
20
569.13145945230463
10
-443.69962704000903
20
569.13145945230451
10
-441.39022596325077
20
565.1314594523044
10
-443.69962704000943
20
561.13145945230463
0
LWPOLYLINE
5
134
100
AcDbEntity
8
0
100
AcDbPolyline
90
6
70
1
43
0.0
10
-443.69962704000807
20
589.13145945230599
10
-441.3902259632498
20
585.1314594523044
10
-443.69962704000841
20
581.13145945230463
10
-448.31842919352533
20
581.13145945230474
10
-450.6278302702836
20
585.13145945230485
10
-448.31842919352493
20
589.13145945230599
0
LWPOLYLINE
5
135
100
AcDbEntity
8
0
100
AcDbPolyline
90
6
70
1
43
0.0
10
-448.31842919352681
20
551.13145945230235
10
-450.62783027028507
20
555.13145945230485
10
-448.31842919352647
20
559.13145945230463
10
-443.69962704000955
20
559.13145945230451
10
-441.39022596325128
20
555.1314594523044
10
-443.69962704000989
20
551.13145945230235
0
LWPOLYLINE
5
136
100
AcDbEntity
8
0
100
AcDbPolyline
90
6
70
1
43
0.0
10
-474.29919130705969
20
556.13145945230599
10
-476.60859238381795
20
560.13145945230599
10
-474.29919130705935
20
564.13145945230588
10
-469.68038915354242
20
564.13145945230565
10
-467.37098807678416
20
560.13145945230565
10
-469.68038915354276
20
556.13145945230576
0
LWPOLYLINE
5
137
100
AcDbEntity
8
0
100
AcDbPolyline
90
6
70
1
43
0.0
10
-474.29919130705912
20
566.13145945230599
10
-476.60859238381738
20
570.13145945230599
10
-474.29919130705878
20
574.13145945230588
10
-469.68038915354185
20
574.13145945230565
10
-467.37098807678359
20
570.13145945230565
10
-469.68038915354219
20
566.13145945230576
0
LWPOLYLINE
5
138
100
AcDbEntity
8
0
100
AcDbPolyline
90
6
70
1
43
0.0
10
-474.29919130705861
20
576.13145945230599
10
-476.60859238381693
20
580.13145945230599
10
-474.29919130705827
20
584.13145945230588
10
-469.68038915354134
20
584.13145945230565
10
-467.37098807678308
20
580.13145945230565
10
-469.68038915354168
20
576.13145945230576
0
LWPOLYLINE
5
139
100
AcDbEntity
8
0
100
AcDbPolyline
90
4
70
1
43
0.0
10
-458.7107340389386
20
589.13145945230599
10
-450.6278302702828
20
589.13145945230599
10
-452.35988107785249
20
586.13145945230497
10
-456.97868323136936
20
586.13145945230508
0
LWPOLYLINE
5
140
100
AcDbEntity
8
0
100
AcDbPolyline
90
6
70
1
43
0.0
10
-421.19835685078073
20
699.0314594523054
10
-418.88895577402224
20
695.03145945230528
10
-421.19835685078073
20
691.03145945230517
10
-425.81715900429788
20
691.03145945230517
10
-428.12656008105637
20
695.03145945230528
10
-425.81715900429776
20
699.0314594523054
0
LWPOLYLINE
5
141
100
AcDbEntity
8
0
100
AcDbPolyline
90
6
70
1
43
0.0
10
-429.85861088862515
20
684.0314594523054
10
-427.54920981186666
20
680.03145945230528
10
-429.85861088862515
20
676.03145945230517
10
-434.47741304214225
20
676.03145945230517
10
-436.78681411890074
20
680.03145945230528
10
-434.47741304214219
20
684.0314594523054
0
LWPOLYLINE
5
142
100
AcDbEntity
8
0
100
AcDbPolyline
90
6
70
1
43
0.0
10
-447.17911896431389
20
674.0314594523054
10
-444.8697178875554
20
670.03145945230528
10
-447.17911896431389
20
666.03145945230517
10
-451.79792111783104
20
666.03145945230517
10
-454.10732219458953
20
670.03145945230528
10
-451.79792111783092
20
674.0314594523054
0
LWPOLYLINE
5
143
100
AcDbEntity
8
0
100
AcDbPolyline
90
6
70
1
43
0.0
10
-473.15988107784705
20
669.0314594523054
10
-470.85048000108856
20
665.03145945230528
10
-473.15988107784705
20
661.03145945230517
10
-477.7786832313642
20
661.03145945230517
10
-480.08808430812269
20
665.03145945230528
10
-477.77868323136408
20
669.0314594523054
0
LWPOLYLINE
5
144
100
AcDbEntity
8
0
100
AcDbPolyline
90
6
70
1
43
0.0
10
-438.51886492646952
20
689.0314594523054
10
-436.20946384971103
20
685.03145945230528
10
-438.51886492646952
20
681.03145945230517
10
-443.13766707998667
20
681.03145945230517
10
-445.44706815674516
20
685.03145945230528
10
-443.13766707998661
20
689.0314594523054
0
LWPOLYLINE
5
145
100
AcDbEntity
8
0
100
AcDbPolyline
90
6
70
1
43
0.0
10
-464.49962704000268
20
684.0314594523054
10
-462.19022596324419
20
680.03145945230528
10
-464.49962704000268
20
676.03145945230517
10
-469.11842919351983
20
676.03145945230517
10
-471.42783027027832
20
680.03145945230528
10
-469.11842919351977
20
684.0314594523054
0
LWPOLYLINE
5
146
100
AcDbEntity
8
0
100
AcDbPolyline
90
6
70
1
43
0.0
10
-481.82013511569147
20
684.0314594523054
10
-479.51073403893298
20
680.03145945230528
10
-481.82013511569147
20
676.03145945230517
10
-486.43893726920857
20
676.03145945230517
10
-488.74833834596706
20
680.03145945230528
10
-486.43893726920851
20
684.0314594523054
0
LWPOLYLINE
5
147
100
AcDbEntity
8
0
100
AcDbPolyline
90
6
70
1
43
0.0
10
-490.48038915353584
20
699.0314594523054
10
-488.17098807677735
20
695.03145945230528
10
-490.48038915353584
20
691.03145945230517
10
-495.09919130705299
20
691.03145945230517
10
-497.40859238381148
20
695.03145945230528
10
-495.09919130705293
20
699.0314594523054
0
LWPOLYLINE
5
148
100
AcDbEntity
8
0
100
AcDbPolyline
90
6
70
1
43
0.0
10
-473.15988107784705
20
709.0314594523054
10
-470.85048000108856
20
705.03145945230528
10
-473.15988107784705
20
701.03145945230517
10
-477.7786832313642
20
701.03145945230517
10
-480.08808430812269
20
705.03145945230528
10
-477.77868323136408
20
709.0314594523054
0
LWPOLYLINE
5
149
100
AcDbEntity
8
0
100
AcDbPolyline
90
6
70
1
43
0.0
10
-462.7675762324339
20
695.03145945230528
10
-460.45817515567535
20
699.0314594523054
10
-455.83937300215831
20
699.0314594523054
10
-453.52997192539982
20
695.03145945230528
10
-455.83937300215831
20
691.03145945230517
10
-460.45817515567541
20
691.03145945230517
0
LWPOLYLINE
5
150
100
AcDbEntity
8
0
100
AcDbPolyline
90
6
70
1
43
0.0
10
-447.17911896431389
20
714.0314594523054
10
-444.8697178875554
20
710.03145945230528
10
-447.17911896431389
20
706.03145945230517
10
-451.79792111783104
20
706.03145945230517
10
-454.10732219458953
20
710.03145945230528
10
-451.79792111783092
20
714.0314594523054
0
LWPOLYLINE
5
151
100
AcDbEntity
8
0
100
AcDbPolyline
90
6
70
1
43
0.0
10
-434.47741304214225
20
716.03145945230517
10
-436.78681411890074
20
720.03145945230528
10
-434.47741304214219
20
724.0314594523054
10
-431.68496231013881
20
724.03145945230472
42
-0.037147168841162453
10
-427.68502548796278
20
719.79621980084266
10
-429.85861088862515
20
716.03145945230517
0
LWPOLYLINE
5
152
100
AcDbEntity
8
0
100
AcDbPolyline
90
6
70
1
43
0.0
10
-464.49962704000268
20
714.0314594523054
10
-462.19022596324419
20
710.03145945230528
10
-464.49962704000268
20
706.03145945230517
10
-469.11842919351983
20
706.03145945230517
10
-471.42783027027832
20
710.03145945230528
10
-469.11842919351977
20
714.0314594523054
0
LWPOLYLINE
5
153
100
AcDbEntity
8
0
100
AcDbPolyline
90
6
70
1
43
0.0
10
-473.15988107784705
20
729.0314594523054
10
-470.85048000108856
20
725.03145945230528
10
-473.15988107784705
20
721.03145945230517
10
-477.7786832313642
20
721.03145945230517
10
-480.08808430812269
20
725.03145945230528
10
-477.77868323136408
20
729.0314594523054
0
LWPOLYLINE
5
154
100
AcDbEntity
8
0
100
AcDbPolyline
90
6
70
1
43
0.0
10
-447.17911896431389
20
726.03145945230517
10
-451.79792111783104
20
726.03145945230517
10
-454.10732219458953
20
730.03145945230528
10
-451.93373679392715
20
733.79621980084221
42
-0.037147168841161121
10
-446.26594325355734
20
732.44979272503713
10
-444.8697178875554
20
730.03145945230528
0
LWPOLYLINE
5
155
100
AcDbEntity
8
0
100
AcDbPolyline
90
4
70
1
43
0.0
10
-488.17098807677735
20
715.03145945230528
10
-490.48038915353584
20
711.03145945230517
10
-494.00031983824772
20
711.03145945230563
42
-0.051966053334792088
10
-489.93095341913289
20
718.07980884482549
0
LWPOLYLINE
5
156
100
AcDbEntity
8
0
100
AcDbPolyline
90
6
70
1
43
0.0
10
-464.49962704000268
20
724.0314594523054
10
-462.19022596324419
20
720.03145945230528
10
-464.49962704000268
20
716.03145945230517
10
-469.11842919351983
20
716.03145945230517
10
-471.42783027027832
20
720.03145945230528
10
-469.11842919351977
20
724.0314594523054
0
LWPOLYLINE
5
157
100
AcDbEntity
8
0
100
AcDbPolyline
90
6
70
1
43
0.0
10
-447.17911896431389
20
724.0314594523054
10
-444.8697178875554
20
720.03145945230528
10
-447.17911896431389
20
716.03145945230517
10
-451.79792111783104
20
716.03145945230517
10
-454.10732219458953
20
720.03145945230528
10
-451.79792111783092
20
724.0314594523054
0
LWPOLYLINE
5
158
100
AcDbEntity
8
0
100
AcDbPolyline
90
6
70
1
43
0.0
10
-429.85861088862515
20
714.0314594523054
10
-427.54920981186666
20
710.03145945230528
10
-429.85861088862515
20
706.03145945230517
10
-434.47741304214225
20
706.03145945230517
10
-436.78681411890074
20
710.03145945230528
10
-434.47741304214219
20
714.0314594523054
0
LWPOLYLINE
5
159
100
AcDbEntity
8
0
100
AcDbPolyline
90
6
70
1
43
0.0
10
-447.17911896431389
20
704.0314594523054
10
-444.8697178875554
20
700.03145945230528
10
-447.17911896431389
20
696.03145945230517
10
-451.79792111783104
20
696.03145945230517
10
-454.10732219458953
20
700.03145945230528
10
-451.79792111783092
20
704.0314594523054
0
LWPOLYLINE
5
160
100
AcDbEntity
8
0
100
AcDbPolyline
90
6
70
1
43
0.0
10
-464.49962704000268
20
704.0314594523054
10
-462.19022596324419
20
700.03145945230528
10
-464.49962704000268
20
696.03145945230517
10
-469.11842919351983
20
696.03145945230517
10
-471.42783027027832
20
700.03145945230528
10
-469.11842919351977
20
704.0314594523054
0
LWPOLYLINE
5
161
100
AcDbEntity
8
0
100
AcDbPolyline
90
6
70
1
43
0.0
10
-481.82013511569147
20
714.0314594523054
10
-479.51073403893298
20
710.03145945230528
10
-481.82013511569147
20
706.03145945230517
10
-486.43893726920857
20
706.03145945230517
10
-488.74833834596706
20
710.03145945230528
10
-486.43893726920851
20
714.0314594523054
0
LWPOLYLINE
5
162
100
AcDbEntity
8
0
100
AcDbPolyline
90
6
70
1
43
0.0
10
-481.82013511569147
20
694.0314594523054
10
-479.51073403893298
20
690.03145945230528
10
-481.82013511569147
20
686.03145945230517
10
-486.43893726920857
20
686.03145945230517
10
-488.74833834596706
20
690.03145945230528
10
-486.43893726920851
20
694.0314594523054
0
LWPOLYLINE
5
163
100
AcDbEntity
8
0
100
AcDbPolyline
90
6
70
1
43
0.0
10
-481.82013511569147
20
674.0314594523054
10
-479.51073403893298
20
670.03145945230528
10
-481.82013511569147
20
666.03145945230517
10
-484.61258584769581
20
666.03145945230472
42
-0.037147168841167567
10
-488.61252266987094
20
670.26669910376791
10
-486.43893726920851
20
674.0314594523054
0
LWPOLYLINE
5
164
100
AcDbEntity
8
0
100
AcDbPolyline
90
6
70
1
43
0.0
10
-447.17911896431389
20
694.0314594523054
10
-444.8697178875554
20
690.03145945230528
10
-447.17911896431389
20
686.03145945230517
10
-451.79792111783104
20
686.03145945230517
10
-454.10732219458953
20
690.03145945230528
10
-451.79792111783092
20
694.0314594523054
0
LWPOLYLINE
5
165
100
AcDbEntity
8
0
100
AcDbPolyline
90
6
70
1
43
0.0
10
-455.83937300215831
20
679.0314594523054
10
-453.52997192539982
20
675.03145945230528
10
-455.83937300215831
20
671.03145945230517
10
-460.45817515567541
20
671.03145945230517
10
-462.7675762324339
20
675.03145945230528
10
-460.45817515567535
20
679.0314594523054
0
LWPOLYLINE
5
166
100
AcDbEntity
8
0
100
AcDbPolyline
90
4
70
1
43
0.0
10
-460.45817515567535
20
659.0314594523054
10
-455.83937300215831
20
659.0314594523054
10
-454.07940765980277
20
655.98311005978485
42
-0.051966053334803669
10
-462.21814049803095
20
655.98311005978519
0
LWPOLYLINE
5
167
100
AcDbEntity
8
0
100
AcDbPolyline
90
6
70
1
43
0.0
10
-438.51886492646952
20
669.0314594523054
10
-436.20946384971103
20
665.03145945230528
10
-438.51886492646952
20
661.03145945230517
10
-443.13766707998667
20
661.03145945230517
10
-445.44706815674516
20
665.03145945230528
10
-443.13766707998661
20
669.0314594523054
0
LWPOLYLINE
5
168
100
AcDbEntity
8
0
100
AcDbPolyline
90
6
70
1
43
0.0
10
-429.85861088862515
20
704.0314594523054
10
-427.54920981186666
20
700.03145945230528
10
-429.85861088862515
20
696.03145945230517
10
-434.47741304214225
20
696.03145945230517
10
-436.78681411890074
20
700.03145945230528
10
-434.47741304214219
20
704.0314594523054
0
LWPOLYLINE
5
169
100
AcDbEntity
8
0
100
AcDbPolyline
90
4
70
1
43
0.0
10
-428.12656008105637
20
675.03145945230528
10
-425.81715900429776
20
679.0314594523054
10
-422.29722831958748
20
679.03145945230563
42
-0.051966053334802219
10
-426.36659473870083
20
671.98311005978508
0
LWPOLYLINE
5
170
100
AcDbEntity
8
0
100
AcDbPolyline
90
3
70
1
43
0.0
10
-476.03124211462722
20
585.13145945230599
10
-478.34064319138548
20
581.1314594523061
10
-478.34064319138548
20
589.13145945230599
0
LWPOLYLINE
5
171
100
AcDbEntity
8
0
100
AcDbPolyline
90
3
70
1
43
0.0
10
-476.03124211462818
20
565.13145945230599
10
-478.34064319138548
20
561.1314594523061
10
-478.34064319138548
20
569.13145945230599
0
LWPOLYLINE
5
172
100
AcDbEntity
8
0
100
AcDbPolyline
90
6
70
1
43
0.0
10
-456.97868323136993
20
576.13145945230508
10
-459.28808430812819
20
580.13145945230519
10
-456.97868323136959
20
584.13145945230508
10
-452.35988107785266
20
584.13145945230485
10
-450.0504800010944
20
580.13145945230474
10
-452.35988107785306
20
576.13145945230497
0
LWPOLYLINE
5
173
100
AcDbEntity
8
0
100
AcDbPolyline
90
6
70
1
43
0.0
10
-465.63893726921555
20
551.13145945230235
10
-467.94833834597387
20
555.13145945230565
10
-465.63893726921521
20
559.13145945230542
10
-461.02013511569828
20
559.13145945230531
10
-458.71073403894002
20
555.13145945230519
10
-461.02013511569862
20
551.13145945230235
0
LWPOLYLINE
5
174
100
AcDbEntity
8
0
100
AcDbPolyline
90
6
70
1
43
0.0
10
-456.97868323137044
20
566.13145945230508
10
-459.2880843081287
20
570.13145945230519
10
-456.9786832313701
20
574.13145945230508
10
-452.35988107785317
20
574.13145945230485
10
-450.05048000109491
20
570.13145945230474
10
-452.35988107785352
20
566.13145945230497
0
LWPOLYLINE
5
175
100
AcDbEntity
8
0
100
AcDbPolyline
90
6
70
1
43
0.0
10
-439.65817515568119
20
576.1314594523044
10
-441.96757623243946
20
580.1314594523044
10
-439.65817515568085
20
584.13145945230428
10
-435.03937300216393
20
584.13145945230406
10
-432.72997192540566
20
580.13145945230394
10
-435.03937300216427
20
576.13145945230417
0
LWPOLYLINE
5
176
100
AcDbEntity
8
0
100
AcDbPolyline
90
4
70
1
43
0.0
10
-433.30732219459577
20
551.13145945230235
10
-441.39022596325248
20
551.13145945230235
10
-439.65817515568233
20
554.13145945230428
10
-435.03937300216541
20
554.13145945230406
0
LWPOLYLINE
5
177
100
AcDbEntity
8
0
100
AcDbPolyline
90
6
70
1
43
0.0
10
-426.37911896431933
20
589.13145945230599
10
-424.06971788756101
20
585.1314594523036
10
-426.37911896431967
20
581.13145945230372
10
-430.99792111783654
20
581.13145945230394
10
-433.30732219459486
20
585.13145945230394
10
-430.9979211178362
20
589.13145945230599
0
LWPOLYLINE
5
178
100
AcDbEntity
8
0
100
AcDbPolyline
90
6
70
1
43
0.0
10
-422.33766707999291
20
566.1314594523036
10
-424.64706815675123
20
570.1314594523036
10
-422.33766707999257
20
574.13145945230349
10
-417.7188649264757
20
574.13145945230326
10
-415.40946384971738
20
570.13145945230326
10
-417.71886492647604
20
566.13145945230337
0
LWPOLYLINE
5
179
100
AcDbEntity
8
0
100
AcDbPolyline
90
6
70
1
43
0.0
10
-413.67741304214888
20
561.13145945230315
10
-415.98681411890715
20
565.13145945230326
10
-413.67741304214854
20
569.13145945230303
10
-409.05861088863162
20
569.13145945230281
10
-406.74920981187336
20
565.13145945230281
10
-409.05861088863196
20
561.13145945230292
0
LWPOLYLINE
5
180
100
AcDbEntity
8
0
100
AcDbPolyline
90
3
70
1
43
0.0
10
-398.6663060432179
20
575.13145945230247
10
-396.35690496646066
20
579.13145945230224
10
-396.35690496646066
20
571.13145945230235
0
LWPOLYLINE
5
181
100
AcDbEntity
8
0
100
AcDbPolyline
90
6
70
1
43
0.0
10
-405.01715900430474
20
556.13145945230269
10
-407.32656008106301
20
560.13145945230281
10
-405.0171590043044
20
564.13145945230258
10
-400.39835685078748
20
564.13145945230235
10
-398.08895577402922
20
560.13145945230235
10
-400.39835685078788
20
556.13145945230247
0
LWPOLYLINE
5
182
100
AcDbEntity
8
0
100
AcDbPolyline
90
3
70
1
43
0.0
10
-398.66630604321892
20
555.13145945230247
10
-396.35690496646066
20
559.13145945230224
10
-396.35690496646066
20
551.13145945230235
0
LWPOLYLINE
5
183
100
AcDbEntity
8
0
100
AcDbPolyline
90
6
70
1
43
0.0
10
-405.01715900430372
20
576.13145945230269
10
-407.32656008106198
20
580.13145945230281
10
-405.01715900430332
20
584.13145945230258
10
-400.3983568507864
20
584.13145945230235
10
-398.08895577402814
20
580.13145945230235
10
-400.3983568507868
20
576.13145945230247
0
LWPOLYLINE
5
184
100
AcDbEntity
8
0
100
AcDbPolyline
90
6
70
1
43
0.0
10
-413.67741304214832
20
571.13145945230315
10
-415.98681411890658
20
575.13145945230326
10
-413.67741304214798
20
579.13145945230303
10
-409.05861088863105
20
579.13145945230281
10
-406.74920981187279
20
575.13145945230281
10
-409.05861088863139
20
571.13145945230292
0
LWPOLYLINE
5
185
100
AcDbEntity
8
0
100
AcDbPolyline
90
6
70
1
43
0.0
10
-422.33766707999342
20
556.1314594523036
10
-424.64706815675174
20
560.1314594523036
10
-422.33766707999308
20
564.13145945230349
10
-417.71886492647616
20
564.13145945230326
10
-415.40946384971789
20
560.13145945230326
10
-417.7188649264765
20
556.13145945230337
0
LWPOLYLINE
5
186
100
AcDbEntity
8
0
100
AcDbPolyline
90
4
70
1
43
0.0
10
-424.06971788756204
20
589.13145945230599
10
-415.98681411890448
20
589.13145945230599
10
-417.71886492647502
20
586.13145945230337
10
-422.33766707999195
20
586.1314594523036
0
LWPOLYLINE
5
187
100
AcDbEntity
8
0
100
AcDbPolyline
90
6
70
1
43
0.0
10
-430.99792111783808
20
551.13145945230235
10
-433.30732219459634
20
555.13145945230394
10
-430.99792111783768
20
559.13145945230383
10
-426.37911896432081
20
559.1314594523036
10
-424.06971788756255
20
555.1314594523036
10
-426.37911896432115
20
551.13145945230235
0
LWPOLYLINE
5
188
100
AcDbEntity
8
0
100
AcDbPolyline
90
6
70
1
43
0.0
10
-441.96757623243997
20
570.1314594523044
10
-439.65817515568131
20
574.13145945230428
10
-435.03937300216444
20
574.13145945230406
10
-432.72997192540618
20
570.13145945230394
10
-435.03937300216478
20
566.13145945230417
10
-439.6581751556817
20
566.1314594523044
0
LWPOLYLINE
5
189
100
AcDbEntity
8
0
100
AcDbPolyline
90
6
70
1
43
0.0
10
-448.31842919352584
20
571.13145945230474
10
-450.62783027028411
20
575.13145945230485
10
-448.31842919352545
20
579.13145945230463
10
-443.69962704000852
20
579.13145945230451
10
-441.39022596325026
20
575.1314594523044
10
-443.69962704000892
20
571.13145945230463
0
LWPOLYLINE
5
190
100
AcDbEntity
8
0
100
AcDbPolyline
90
4
70
1
43
0.0
10
-450.62783027028411
20
551.13145945230235
10
-458.71073403894167
20
551.13145945230235
10
-456.97868323137106
20
554.13145945230508
10
-452.3598810778542
20
554.13145945230485
0
LWPOLYLINE
5
191
100
AcDbEntity
8
0
100
AcDbPolyline
90
6
70
1
43
0.0
10
-465.63893726921503
20
561.13145945230553
10
-467.94833834597335
20
565.13145945230565
10
-465.63893726921469
20
569.13145945230542
10
-461.02013511569783
20
569.13145945230531
10
-458.71073403893951
20
565.13145945230519
10
-461.02013511569817
20
561.13145945230531
0
LWPOLYLINE
5
192
100
AcDbEntity
8
0
100
AcDbPolyline
90
3
70
1
43
0.0
10
-478.34064319138548
20
559.13145945230599
10
-476.0312421146287
20
555.13145945230599
10
-478.34064319138548
20
551.13145945230235
0
LWPOLYLINE
5
193
100
AcDbEntity
8
0
100
AcDbPolyline
90
4
70
1
43
0.0
10
-476.03124211462682
20
589.13145945230599
10
-467.94833834597199
20
589.13145945230599
10
-469.68038915354123
20
586.13145945230576
10
-474.29919130705809
20
586.13145945230599
0
LWPOLYLINE
5
194
100
AcDbEntity
8
0
100
AcDbPolyline
90
6
70
1
43
0.0
10
-436.78681411890074
20
670.03145945230528
10
-434.47741304214219
20
674.0314594523054
10
-429.85861088862515
20
674.0314594523054
10
-427.68502548796312
20
670.26669910376825
42
-0.037147168841169462
10
-431.68496231013842
20
666.03145945230517
10
-434.47741304214225
20
666.03145945230517
0
LWPOLYLINE
5
195
100
AcDbEntity
8
0
100
AcDbPolyline
90
6
70
1
43
0.0
10
-425.81715900429788
20
701.03145945230517
10
-428.12656008105637
20
705.03145945230528
10
-425.81715900429776
20
709.0314594523054
10
-421.46998820297375
20
709.03145945230506
42
-0.037147168841167123
10
-419.80213148477878
20
703.44979272503679
10
-421.19835685078073
20
701.03145945230517
0
LWPOLYLINE
5
196
100
AcDbEntity
8
0
100
AcDbPolyline
90
6
70
1
43
0.0
10
-438.51886492646952
20
679.0314594523054
10
-436.20946384971103
20
675.03145945230528
10
-438.51886492646952
20
671.03145945230517
10
-443.13766707998667
20
671.03145945230517
10
-445.44706815674516
20
675.03145945230528
10
-443.13766707998661
20
679.0314594523054
0
LWPOLYLINE
5
197
100
AcDbEntity
8
0
100
AcDbPolyline
90
6
70
1
43
0.0
10
-455.83937300215831
20
669.0314594523054
10
-453.52997192539982
20
665.03145945230528
10
-455.83937300215831
20
661.03145945230517
10
-460.45817515567541
20
661.03145945230517
10
-462.7675762324339
20
665.03145945230528
10
-460.45817515567535
20
669.0314594523054
0
LWPOLYLINE
5
198
100
AcDbEntity
8
0
100
AcDbPolyline
90
6
70
1
43
0.0
10
-464.49962704000268
20
674.0314594523054
10
-462.19022596324419
20
670.03145945230528
10
-464.49962704000268
20
666.03145945230517
10
-469.11842919351983
20
666.03145945230517
10
-471.42783027027832
20
670.03145945230528
10
-469.11842919351977
20
674.0314594523054
0
LWPOLYLINE
5
199
100
AcDbEntity
8
0
100
AcDbPolyline
90
6
70
1
43
0.0
10
-438.51886492646952
20
699.0314594523054
10
-436.20946384971103
20
695.03145945230528
10
-438.51886492646952
20
691.03145945230517
10
-443.13766707998667
20
691.03145945230517
10
-445.44706815674516
20
695.03145945230528
10
-443.13766707998661
20
699.0314594523054
0
LWPOLYLINE
5
200
100
AcDbEntity
8
0
100
AcDbPolyline
90
6
70
1
43
0.0
10
-473.15988107784705
20
679.0314594523054
10
-470.85048000108856
20
675.03145945230528
10
-473.15988107784705
20
671.03145945230517
10
-477.7786832313642
20
671.03145945230517
10
-480.08808430812269
20
675.03145945230528
10
-477.77868323136408
20
679.0314594523054
0
LWPOLYLINE
5
201
100
AcDbEntity
8
0
100
AcDbPolyline
90
6
70
1
43
0.0
10
-473.15988107784705
20
689.0314594523054
10
-470.85048000108856
20
685.03145945230528
10
-473.15988107784705
20
681.03145945230517
10
-477.7786832313642
20
681.03145945230517
10
-480.08808430812269
20
685.03145945230528
10
-477.77868323136408
20
689.0314594523054
0
LWPOLYLINE
5
202
100
AcDbEntity
8
0
100
AcDbPolyline
90
6
70
1
43
0.0
10
-488.17098807677735
20
705.03145945230528
10
-490.48038915353584
20
701.03145945230517
10
-495.09919130705299
20
701.03145945230517
10
-496.49541667305556
20
703.44979272503701
42
-0.037147168841164126
10
-494.8275599548607
20
709.0314594523054
10
-490.48038915353584
20
709.0314594523054
0
LWPOLYLINE
5
203
100
AcDbEntity
8
0
100
AcDbPolyline
90
6
70
1
43
0.0
10
-473.15988107784705
20
699.0314594523054
10
-470.85048000108856
20
695.03145945230528
10
-473.15988107784705
20
691.03145945230517
10
-477.7786832313642
20
691.03145945230517
10
-480.08808430812269
20
695.03145945230528
10
-477.77868323136408
20
699.0314594523054
0
LWPOLYLINE
5
204
100
AcDbEntity
8
0
100
AcDbPolyline
90
6
70
1
43
0.0
10
-455.83937300215831
20
709.0314594523054
10
-453.52997192539982
20
705.03145945230528
10
-455.83937300215831
20
701.03145945230517
10
-460.45817515567541
20
701.03145945230517
10
-462.7675762324339
20
705.03145945230528
10
-460.45817515567535
20
709.0314594523054
0
LWPOLYLINE
5
205
100
AcDbEntity
8
0
100
AcDbPolyline
90
6
70
1
43
0.0
10
-438.51886492646952
20
719.0314594523054
10
-436.20946384971103
20
715.03145945230528
10
-438.51886492646952
20
711.03145945230517
10
-443.13766707998667
20
711.03145945230517
10
-445.44706815674516
20
715.03145945230528
10
-443.13766707998661
20
719.0314594523054
0
LWPOLYLINE
5
206
100
AcDbEntity
8
0
100
AcDbPolyline
90
6
70
1
43
0.0
10
-438.51886492646952
20
729.0314594523054
10
-436.20946384971103
20
725.03145945230528
10
-438.51886492646952
20
721.03145945230517
10
-443.13766707998667
20
721.03145945230517
10
-445.44706815674516
20
725.03145945230528
10
-443.13766707998661
20
729.0314594523054
0
LWPOLYLINE
5
207
100
AcDbEntity
8
0
100
AcDbPolyline
90
6
70
1
43
0.0
10
-473.15988107784705
20
719.0314594523054
10
-470.85048000108856
20
715.03145945230528
10
-473.15988107784705
20
711.03145945230517
10
-477.7786832313642
20
711.03145945230517
10
-480.08808430812269
20
715.03145945230528
10
-477.77868323136408
20
719.0314594523054
0
LWPOLYLINE
5
208
100
AcDbEntity
8
0
100
AcDbPolyline
90
6
70
1
43
0.0
10
-479.51073403893298
20
720.03145945230528
10
-481.82013511569147
20
716.03145945230517
10
-486.43893726920857
20
716.03145945230517
10
-488.61252266987123
20
719.79621980084278
42
-0.037147168841160233
10
-484.6125858476953
20
724.03145945230517
10
-481.82013511569147
20
724.0314594523054
0
LWPOLYLINE
5
209
100
AcDbEntity
8
0
100
AcDbPolyline
90
4
70
1
43
0.0
10
-455.83937300215831
20
731.03145945230517
10
-460.45817515567541
20
731.03145945230517
10
-462.21814049803083
20
734.07980884482515
42
-0.05196605333478975
10
-454.07940765980277
20
734.07980884482538
0
LWPOLYLINE
5
210
100
AcDbEntity
8
0
100
AcDbPolyline
90
5
70
1
43
0.0
10
-322.5
20
571.00004681458938
10
-322.50000000000006
20
579.00004681459768
10
-322.33163812178026
20
579.00004657208092
10
-320.02224280682287
20
575.000043245509
10
-322.33164964537764
20
571.00004657208922
0
LWPOLYLINE
5
211
100
AcDbEntity
8
0
100
AcDbPolyline
90
5
70
1
43
0.0
10
-322.50000000000006
20
581.00004681458938
10
-322.50000000000006
20
589.00004681459768
10
-322.33163812178026
20
589.00004657208092
10
-320.02224280682287
20
585.000043245509
10
-322.33164964537764
20
581.00004657208922
0
LWPOLYLINE
5
212
100
AcDbEntity
8
0
100
AcDbPolyline
90
6
70
1
43
0.0
10
-309.6299293187223
20
591.00002827591072
10
-311.93932463367969
20
595.00003160248264
10
-309.62991779512492
20
599.00002827590242
10
-305.01111564161272
20
599.00002162275041
10
-302.70172032665533
20
595.0000182961785
10
-305.0111271652101
20
591.00002162275871
0
LWPOLYLINE
5
213
100
AcDbEntity
8
0
100
AcDbPolyline
90
6
70
1
43
0.0
10
-318.2901905588061
20
606.00004075057598
10
-320.59958587376343
20
610.00004407714778
10
-318.29017903520867
20
614.00004075056768
10
-313.67137688169646
20
614.00003409741555
10
-311.36198156673908
20
610.00003077084375
10
-313.67138840529384
20
606.00003409742396
0
LWPOLYLINE
5
214
100
AcDbEntity
8
0
100
AcDbPolyline
90
6
70
1
43
0.0
10
-294.61880407412218
20
621
10
-294.04145908657154
20
620.00000582151324
10
-296.3508659251263
20
616.00000914809345
10
-300.96966807863856
20
616.00001580124547
10
-303.27906339359595
20
620.00001912781738
10
-302.70172224729237
20
621
0
LWPOLYLINE
5
215
100
AcDbEntity
8
0
100
AcDbPolyline
90
6
70
1
43
0.0
10
-300.96966807863856
20
596.00001580124547
10
-303.27906339359595
20
600.00001912781738
10
-300.96965655504113
20
604.00001580123717
10
-296.35085440152898
20
604.00000914808504
10
-294.04145908657154
20
600.00000582151324
10
-296.3508659251263
20
596.00000914809345
0
LWPOLYLINE
5
216
100
AcDbEntity
8
0
100
AcDbPolyline
90
6
70
1
43
0.0
10
-292.30940683855476
20
581.00000332658021
10
-294.61880215351221
20
585.00000665315201
10
-292.30939531495738
20
589.00000332657191
10
-287.69059316144524
20
588.99999667341979
10
-285.38119784648779
20
584.99999334684799
10
-287.69060468504256
20
580.99999667342809
0
LWPOLYLINE
5
217
100
AcDbEntity
8
0
100
AcDbPolyline
90
6
70
1
43
0.0
10
-294.61880215351221
20
575.00000665315201
10
-292.30939531495738
20
579.00000332657191
10
-287.69059316144524
20
578.99999667341979
10
-285.38119784648779
20
574.99999334684799
10
-287.69060468504256
20
570.99999667342809
10
-292.30940683855476
20
571.00000332658021
0
LWPOLYLINE
5
218
100
AcDbEntity
8
0
100
AcDbPolyline
90
6
70
1
43
0.0
10
-274.98888435838728
20
560.99997837724959
10
-277.29827967334467
20
564.9999817038215
10
-274.98887283478985
20
568.99997837724129
10
-270.3700706812777
20
568.99997172408928
10
-268.06067536632025
20
564.99996839751736
10
-270.37008220487502
20
560.99997172409758
0
LWPOLYLINE
5
219
100
AcDbEntity
8
0
100
AcDbPolyline
90
6
70
1
43
0.0
10
-283.64914559847102
20
585.99999085191496
10
-285.95854091342846
20
589.99999417848676
10
-283.64913407487364
20
593.99999085190655
10
-279.03033192136144
20
593.99998419875453
10
-276.72093660640405
20
589.99998087218262
10
-279.03034344495882
20
585.99998419876283
0
LWPOLYLINE
5
220
100
AcDbEntity
8
0
100
AcDbPolyline
90
6
70
1
43
0.0
10
-274.98888435838728
20
610.99997837724959
10
-277.29827967334467
20
614.9999817038215
10
-274.98887283478985
20
618.99997837724129
10
-270.3700706812777
20
618.99997172408928
10
-268.06067536632025
20
614.99996839751736
10
-270.37008220487502
20
610.99997172409758
0
LWPOLYLINE
5
221
100
AcDbEntity
8
0
100
AcDbPolyline
90
5
70
1
43
0.0
10
-257.5
20
618.99995318541062
10
-257.5
20
610.99995318540232
10
-257.66836187821974
20
610.99995342791908
10
-259.97775719317713
20
614.999956754491
10
-257.66835035462236
20
618.99995342791078
0
LWPOLYLINE
5
222
100
AcDbEntity
8
0
100
AcDbPolyline
90
6
70
1
43
0.0
10
-266.32862311830354
20
585.99996590258445
10
-268.63801843326092
20
589.99996922915625
10
-266.3286115947061
20
593.99996590257604
10
-261.7098094411939
20
593.99995924942402
10
-259.40041412623651
20
589.99995592285222
10
-261.70982096479128
20
585.99995924943232
0
LWPOLYLINE
5
223
100
AcDbEntity
8
0
100
AcDbPolyline
90
5
70
1
43
0.0
10
-257.5
20
578.99995318541062
10
-257.5
20
570.99995318540232
10
-257.66836187821974
20
570.99995342791908
10
-259.97775719317713
20
574.999956754491
10
-257.66835035462236
20
578.99995342791078
0
LWPOLYLINE
5
224
100
AcDbEntity
8
0
100
AcDbPolyline
90
5
70
1
43
0.0
10
-322.5
20
551.00004681458938
10
-322.5
20
559.00004681459768
10
-322.33163812178026
20
559.00004657208092
10
-320.02224280682287
20
555.000043245509
10
-322.33164964537764
20
551.00004657208922
0
LWPOLYLINE
5
225
100
AcDbEntity
8
0
100
AcDbPolyline
90
6
70
1
43
0.0
10
-300.96966807863856
20
546.00001580124547
10
-303.27906339359595
20
550.00001912781738
10
-300.96965655504113
20
554.00001580123717
10
-296.35085440152898
20
554.00000914808504
10
-294.04145908657154
20
550.00000582151324
10
-296.3508659251263
20
546.00000914809345
0
LWPOLYLINE
5
226
100
AcDbEntity
8
0
100
AcDbPolyline
90
6
70
1
43
0.0
10
-283.64914559847102
20
535.99999085191496
10
-285.95854091342846
20
539.99999417848676
10
-283.64913407487364
20
543.99999085190655
10
-279.03033192136144
20
543.99998419875453
10
-276.72093660640405
20
539.99998087218262
10
-279.03034344495882
20
535.99998419876283
0
LWPOLYLINE
5
227
100
AcDbEntity
8
0
100
AcDbPolyline
90
5
70
1
43
0.0
10
-257.5
20
538.99995318541062
10
-257.5
20
530.99995318540232
10
-257.66836187821974
20
530.99995342791908
10
-259.97775719317713
20
534.999956754491
10
-257.66835035462236
20
538.99995342791078
0
LWPOLYLINE
5
228
100
AcDbEntity
8
0
100
AcDbPolyline
90
6
70
1
43
0.0
10
-277.29827775270758
20
529
10
-285.38119592587782
20
529
10
-285.95854091342846
20
529.99999417848676
10
-283.64913407487364
20
533.99999085190655
10
-279.03033192136144
20
533.99998419875453
10
-276.72093660640405
20
529.99998087218262
0
LWPOLYLINE
5
229
100
AcDbEntity
8
0
100
AcDbPolyline
90
6
70
1
43
0.0
10
-309.6299293187223
20
531.00002827591072
10
-311.93932463367969
20
535.00003160248264
10
-309.62991779512492
20
539.00002827590242
10
-305.01111564161272
20
539.00002162275041
10
-302.70172032665533
20
535.0000182961785
10
-305.0111271652101
20
531.00002162275871
0
LWPOLYLINE
5
230
100
AcDbEntity
8
0
100
AcDbPolyline
90
5
70
1
43
0.0
10
-322.5
20
531.00004681458938
10
-322.5
20
539.00004681459768
10
-322.33163812178026
20
539.00004657208092
10
-320.02224280682287
20
535.000043245509
10
-322.33164964537764
20
531.00004657208922
0
LWPOLYLINE
5
231
100
AcDbEntity
8
0
100
AcDbPolyline
90
6
70
1
43
0.0
10
-318.2901905588061
20
536.00004075057598
10
-320.59958587376343
20
540.00004407714778
10
-318.29017903520867
20
544.00004075056768
10
-313.67137688169646
20
544.00003409741555
10
-311.36198156673908
20
540.00003077084375
10
-313.67138840529384
20
536.00003409742396
0
LWPOLYLINE
5
232
100
AcDbEntity
8
0
100
AcDbPolyline
90
6
70
1
43
0.0
10
-309.6299293187223
20
541.00002827591072
10
-311.93932463367969
20
545.00003160248264
10
-309.62991779512492
20
549.00002827590242
10
-305.01111564161272
20
549.00002162275041
10
-302.70172032665533
20
545.0000182961785
10
-305.0111271652101
20
541.00002162275871
0
LWPOLYLINE
5
233
100
AcDbEntity
8
0
100
AcDbPolyline
90
6
70
1
43
0.0
10
-292.30940683855476
20
531.00000332658021
10
-294.61880215351221
20
535.00000665315201
10
-292.30939531495738
20
539.00000332657191
10
-287.69059316144524
20
538.99999667341979
10
-285.38119784648779
20
534.99999334684799
10
-287.69060468504256
20
530.99999667342809
0
LWPOLYLINE
5
234
100
AcDbEntity
8
0
100
AcDbPolyline
90
6
70
1
43
0.0
10
-266.32862311830354
20
535.99996590258445
10
-268.63801843326092
20
539.99996922915625
10
-266.3286115947061
20
543.99996590257604
10
-261.7098094411939
20
543.99995924942402
10
-259.40041412623651
20
539.99995592285222
10
-261.70982096479128
20
535.99995924943232
0
LWPOLYLINE
5
235
100
AcDbEntity
8
0
100
AcDbPolyline
90
6
70
1
43
0.0
10
-274.98888435838728
20
540.99997837724959
10
-277.29827967334467
20
544.9999817038215
10
-274.98887283478985
20
548.99997837724129
10
-270.3700706812777
20
548.99997172408928
10
-268.06067536632025
20
544.99996839751736
10
-270.37008220487502
20
540.99997172409758
0
LWPOLYLINE
5
236
100
AcDbEntity
8
0
100
AcDbPolyline
90
6
70
1
43
0.0
10
-274.98888435838728
20
550.99997837724959
10
-277.29827967334467
20
554.9999817038215
10
-274.98887283478985
20
558.99997837724129
10
-270.3700706812777
20
558.99997172408928
10
-268.06067536632025
20
554.99996839751736
10
-270.37008220487502
20
550.99997172409758
0
LWPOLYLINE
5
237
100
AcDbEntity
8
0
100
AcDbPolyline
90
6
70
1
43
0.0
10
-318.2901905588061
20
556.00004075057598
10
-320.59958587376343
20
560.00004407714778
10
-318.29017903520867
20
564.00004075056768
10
-313.67137688169646
20
564.00003409741555
10
-311.36198156673908
20
560.00003077084375
10
-313.67138840529384
20
556.00003409742396
0
LWPOLYLINE
5
238
100
AcDbEntity
8
0
100
AcDbPolyline
90
5
70
1
43
0.0
10
-257.5
20
568.99995318541062
10
-257.5
20
560.99995318540232
10
-257.66836187821974
20
560.99995342791908
10
-259.97775719317713
20
564.999956754491
10
-257.66835035462236
20
568.99995342791078
0
LWPOLYLINE
5
239
100
AcDbEntity
8
0
100
AcDbPolyline
90
5
70
1
43
0.0
10
-257.5
20
588.99995318541062
10
-257.5
20
580.99995318540232
10
-257.66836187821974
20
580.99995342791908
10
-259.97775719317713
20
584.999956754491
10
-257.66835035462236
20
588.99995342791078
0
LWPOLYLINE
5
240
100
AcDbEntity
8
0
100
AcDbPolyline
90
5
70
1
43
0.0
10
-257.5
20
608.99995318541062
10
-257.5
20
600.99995318540232
10
-257.66836187821974
20
600.99995342791908
10
-259.97775719317713
20
604.999956754491
10
-257.66835035462236
20
608.99995342791078
0
LWPOLYLINE
5
241
100
AcDbEntity
8
0
100
AcDbPolyline
90
6
70
1
43
0.0
10
-274.98888435838728
20
600.99997837724959
10
-277.29827967334467
20
604.9999817038215
10
-274.98887283478985
20
608.99997837724129
10
-270.3700706812777
20
608.99997172408928
10
-268.06067536632025
20
604.99996839751736
10
-270.37008220487502
20
600.99997172409758
0
LWPOLYLINE
5
242
100
AcDbEntity
8
0
100
AcDbPolyline
90
6
70
1
43
0.0
10
-283.64914559847102
20
595.99999085191496
10
-285.95854091342846
20
599.99999417848676
10
-283.64913407487364
20
603.99999085190655
10
-279.03033192136144
20
603.99998419875453
10
-276.72093660640405
20
599.99998087218262
10
-279.03034344495882
20
595.99998419876283
0
LWPOLYLINE
5
243
100
AcDbEntity
8
0
100
AcDbPolyline
90
6
70
1
43
0.0
10
-274.98888435838728
20
570.99997837724959
10
-277.29827967334467
20
574.9999817038215
10
-274.98887283478985
20
578.99997837724129
10
-270.3700706812777
20
578.99997172408928
10
-268.06067536632025
20
574.99996839751736
10
-270.37008220487502
20
570.99997172409758
0
LWPOLYLINE
5
244
100
AcDbEntity
8
0
100
AcDbPolyline
90
6
70
1
43
0.0
10
-283.64914559847102
20
575.99999085191496
10
-285.95854091342846
20
579.99999417848676
10
-283.64913407487364
20
583.99999085190655
10
-279.03033192136144
20
583.99998419875453
10
-276.72093660640405
20
579.99998087218262
10
-279.03034344495882
20
575.99998419876283
0
LWPOLYLINE
5
245
100
AcDbEntity
8
0
100
AcDbPolyline
90
6
70
1
43
0.0
10
-300.96966807863856
20
566.00001580124547
10
-303.27906339359595
20
570.00001912781738
10
-300.96965655504113
20
574.00001580123717
10
-296.35085440152898
20
574.00000914808504
10
-294.04145908657154
20
570.00000582151324
10
-296.3508659251263
20
566.00000914809345
0
LWPOLYLINE
5
246
100
AcDbEntity
8
0
100
AcDbPolyline
90
6
70
1
43
0.0
10
-300.96966807863856
20
586.00001580124547
10
-303.27906339359595
20
590.00001912781738
10
-300.96965655504113
20
594.00001580123717
10
-296.35085440152898
20
594.00000914808504
10
-294.04145908657154
20
590.00000582151324
10
-296.3508659251263
20
586.00000914809345
0
LWPOLYLINE
5
247
100
AcDbEntity
8
0
100
AcDbPolyline
90
6
70
1
43
0.0
10
-300.96966807863856
20
606.00001580124547
10
-303.27906339359595
20
610.00001912781738
10
-300.96965655504113
20
614.00001580123717
10
-296.35085440152898
20
614.00000914808504
10
-294.04145908657154
20
610.00000582151324
10
-296.3508659251263
20
606.00000914809345
0
LWPOLYLINE
5
248
100
AcDbEntity
8
0
100
AcDbPolyline
90
6
70
1
43
0.0
10
-311.9393121498349
20
621
10
-311.36198156673908
20
620.00003077084375
10
-313.67138840529384
20
616.00003409742396
10
-318.2901905588061
20
616.00004075057598
10
-320.59958587376343
20
620.00004407714778
10
-320.02225913201045
20
621
0
LWPOLYLINE
5
249
100
AcDbEntity
8
0
100
AcDbPolyline
90
6
70
1
43
0.0
10
-318.2901905588061
20
596.00004075057598
10
-320.59958587376343
20
600.00004407714778
10
-318.29017903520867
20
604.00004075056768
10
-313.67137688169646
20
604.00003409741555
10
-311.36198156673908
20
600.00003077084375
10
-313.67138840529384
20
596.00003409742396
0
LWPOLYLINE
5
250
100
AcDbEntity
8
0
100
AcDbPolyline
90
5
70
1
43
0.0
10
-322.50000000000006
20
591.00004681458938
10
-322.50000000000006
20
599.00004681459768
10
-322.33163812178026
20
599.00004657208092
10
-320.02224280682287
20
595.000043245509
10
-322.33164964537764
20
591.00004657208922
0
LWPOLYLINE
5
251
100
AcDbEntity
8
0
100
AcDbPolyline
90
6
70
1
43
0.0
10
-318.2901905588061
20
566.00004075057598
10
-320.59958587376343
20
570.00004407714778
10
-318.29017903520867
20
574.00004075056768
10
-313.67137688169646
20
574.00003409741555
10
-311.36198156673908
20
570.00003077084375
10
-313.67138840529384
20
566.00003409742396
0
LWPOLYLINE
5
252
100
AcDbEntity
8
0
100
AcDbPolyline
90
6
70
1
43
0.0
10
-309.6299293187223
20
561.00002827591072
10
-311.93932463367969
20
565.00003160248264
10
-309.62991779512492
20
569.00002827590242
10
-305.01111564161272
20
569.00002162275041
10
-302.70172032665533
20
565.0000182961785
10
-305.0111271652101
20
561.00002162275871
0
LWPOLYLINE
5
253
100
AcDbEntity
8
0
100
AcDbPolyline
90
6
70
1
43
0.0
10
-318.2901905588061
20
576.00004075057598
10
-320.59958587376343
20
580.00004407714778
10
-318.29017903520867
20
584.00004075056768
10
-313.67137688169646
20
584.00003409741555
10
-311.36198156673908
20
580.00003077084375
10
-313.67138840529384
20
576.00003409742396
0
LWPOLYLINE
5
254
100
AcDbEntity
8
0
100
AcDbPolyline
90
6
70
1
43
0.0
10
-309.6299293187223
20
581.00002827591072
10
-311.93932463367969
20
585.00003160248264
10
-309.62991779512492
20
589.00002827590242
10
-305.01111564161272
20
589.00002162275041
10
-302.70172032665533
20
585.0000182961785
10
-305.0111271652101
20
581.00002162275871
0
LWPOLYLINE
5
255
100
AcDbEntity
8
0
100
AcDbPolyline
90
5
70
1
43
0.0
10
-322.50000000000006
20
611.00004681458938
10
-322.50000000000006
20
619.00004681459768
10
-322.33163812178026
20
619.00004657208092
10
-320.02224280682287
20
615.000043245509
10
-322.33164964537764
20
611.00004657208922
0
LWPOLYLINE
5
256
100
AcDbEntity
8
0
100
AcDbPolyline
90
6
70
1
43
0.0
10
-309.6299293187223
20
611.00002827591072
10
-311.93932463367969
20
615.00003160248264
10
-309.62991779512492
20
619.00002827590242
10
-305.01111564161272
20
619.00002162275041
10
-302.70172032665533
20
615.0000182961785
10
-305.0111271652101
20
611.00002162275871
0
LWPOLYLINE
5
257
100
AcDbEntity
8
0
100
AcDbPolyline
90
6
70
1
43
0.0
10
-292.30940683855476
20
601.00000332658021
10
-294.61880215351221
20
605.00000665315201
10
-292.30939531495738
20
609.00000332657191
10
-287.69059316144524
20
608.99999667341979
10
-285.38119784648779
20
604.99999334684799
10
-287.69060468504256
20
600.99999667342809
0
LWPOLYLINE
5
258
100
AcDbEntity
8
0
100
AcDbPolyline
90
6
70
1
43
0.0
10
-300.96966807863856
20
576.00001580124547
10
-303.27906339359595
20
580.00001912781738
10
-300.96965655504113
20
584.00001580123717
10
-296.35085440152898
20
584.00000914808504
10
-294.04145908657154
20
580.00000582151324
10
-296.3508659251263
20
576.00000914809345
0
LWPOLYLINE
5
259
100
AcDbEntity
8
0
100
AcDbPolyline
90
6
70
1
43
0.0
10
-292.30940683855476
20
561.00000332658021
10
-294.61880215351221
20
565.00000665315201
10
-292.30939531495738
20
569.00000332657191
10
-287.69059316144524
20
568.99999667341979
10
-285.38119784648779
20
564.99999334684799
10
-287.69060468504256
20
560.99999667342809
0
LWPOLYLINE
5
260
100
AcDbEntity
8
0
100
AcDbPolyline
90
6
70
1
43
0.0
10
-283.64914559847102
20
555.99999085191496
10
-285.95854091342846
20
559.99999417848676
10
-283.64913407487364
20
563.99999085190655
10
-279.03033192136144
20
563.99998419875453
10
-276.72093660640405
20
559.99998087218262
10
-279.03034344495882
20
555.99998419876283
0
LWPOLYLINE
5
261
100
AcDbEntity
8
0
100
AcDbPolyline
90
6
70
1
43
0.0
10
-274.98888435838728
20
590.99997837724959
10
-277.29827967334467
20
594.9999817038215
10
-274.98887283478985
20
598.99997837724129
10
-270.3700706812777
20
598.99997172408928
10
-268.06067536632025
20
594.99996839751736
10
-270.37008220487502
20
590.99997172409758
0
LWPOLYLINE
5
262
100
AcDbEntity
8
0
100
AcDbPolyline
90
6
70
1
43
0.0
10
-277.29829599840946
20
621
10
-276.72093660640405
20
619.99998087218262
10
-279.03034344495882
20
615.99998419876283
10
-283.64914559847102
20
615.99999085191496
10
-285.95854091342846
20
619.99999417848676
10
-285.38118536257423
20
621
0
LWPOLYLINE
5
263
100
AcDbEntity
8
0
100
AcDbPolyline
90
6
70
1
43
0.0
10
-259.97778792269673
20
621
10
-259.40041412623651
20
619.99995592285222
10
-261.70982096479128
20
615.99995924943232
10
-266.32862311830354
20
615.99996590258445
10
-268.63801843326092
20
619.99996922915625
10
-268.06064847785609
20
621
0
LWPOLYLINE
5
264
100
AcDbEntity
8
0
100
AcDbPolyline
90
5
70
1
43
0.0
10
-257.5
20
598.99995318541062
10
-257.5
20
590.99995318540232
10
-257.66836187821974
20
590.99995342791908
10
-259.97775719317713
20
594.999956754491
10
-257.66835035462236
20
598.99995342791078
0
LWPOLYLINE
5
265
100
AcDbEntity
8
0
100
AcDbPolyline
90
6
70
1
43
0.0
10
-266.32862311830354
20
565.99996590258445
10
-268.63801843326092
20
569.99996922915625
10
-266.3286115947061
20
573.99996590257604
10
-261.7098094411939
20
573.99995924942402
10
-259.40041412623651
20
569.99995592285222
10
-261.70982096479128
20
565.99995924943232
0
LWPOLYLINE
5
266
100
AcDbEntity
8
0
100
AcDbPolyline
90
5
70
1
43
0.0
10
-257.5
20
558.99995318541062
10
-257.5
20
550.99995318540232
10
-257.66836187821974
20
550.99995342791908
10
-259.97775719317713
20
554.999956754491
10
-257.66835035462236
20
558.99995342791078
0
LWPOLYLINE
5
267
100
AcDbEntity
8
0
100
AcDbPolyline
90
6
70
1
43
0.0
10
-292.30940683855476
20
551.00000332658021
10
-294.61880215351221
20
555.00000665315201
10
-292.30939531495738
20
559.00000332657191
10
-287.69059316144524
20
558.99999667341979
10
-285.38119784648779
20
554.99999334684799
10
-287.69060468504256
20
550.99999667342809
0
LWPOLYLINE
5
268
100
AcDbEntity
8
0
100
AcDbPolyline
90
6
70
1
43
0.0
10
-292.30940683855476
20
541.00000332658021
10
-294.61880215351221
20
545.00000665315201
10
-292.30939531495738
20
549.00000332657191
10
-287.69059316144524
20
548.99999667341979
10
-285.38119784648779
20
544.99999334684799
10
-287.69060468504256
20
540.99999667342809
0
LWPOLYLINE
5
269
100
AcDbEntity
8
0
100
AcDbPolyline
90
5
70
1
43
0.0
10
-257.5
20
548.99995318541062
10
-257.5
20
540.99995318540232
10
-257.66836187821974
20
540.99995342791908
10
-259.97775719317713
20
544.999956754491
10
-257.66835035462236
20
548.99995342791078
0
LWPOLYLINE
5
270
100
AcDbEntity
8
0
100
AcDbPolyline
90
6
70
1
43
0.0
10
-274.98888435838728
20
530.99997837724959
10
-277.29827967334467
20
534.9999817038215
10
-274.98887283478985
20
538.99997837724129
10
-270.3700706812777
20
538.99997172408928
10
-268.06067536632025
20
534.99996839751736
10
-270.37008220487502
20
530.99997172409758
0
LWPOLYLINE
5
271
100
AcDbEntity
8
0
100
AcDbPolyline
90
6
70
1
43
0.0
10
-294.61881463742571
20
529
10
-302.70170400159054
20
529
10
-303.27906339359595
20
530.00001912781738
10
-300.96965655504113
20
534.00001580123717
10
-296.35085440152898
20
534.00000914808504
10
-294.04145908657154
20
530.00000582151324
0
LWPOLYLINE
5
272
100
AcDbEntity
8
0
100
AcDbPolyline
90
5
70
1
43
0.0
10
-322.5
20
541.00004681458938
10
-322.5
20
549.00004681459768
10
-322.33163812178026
20
549.00004657208092
10
-320.02224280682287
20
545.000043245509
10
-322.33164964537764
20
541.00004657208922
0
LWPOLYLINE
5
273
100
AcDbEntity
8
0
100
AcDbPolyline
90
6
70
1
43
0.0
10
-311.93935152214385
20
529
10
-320.02221207730327
20
529
10
-320.59958587376343
20
530.00004407714778
10
-318.29017903520867
20
534.00004075056768
10
-313.67137688169646
20
534.00003409741555
10
-311.36198156673908
20
530.00003077084375
0
LWPOLYLINE
5
274
100
AcDbEntity
8
0
100
AcDbPolyline
90
6
70
1
43
0.0
10
-318.2901905588061
20
546.00004075057598
10
-320.59958587376343
20
550.00004407714778
10
-318.29017903520867
20
554.00004075056768
10
-313.67137688169646
20
554.00003409741555
10
-311.36198156673908
20
550.00003077084375
10
-313.67138840529384
20
546.00003409742396
0
LWPOLYLINE
5
275
100
AcDbEntity
8
0
100
AcDbPolyline
90
6
70
1
43
0.0
10
-300.96966807863856
20
536.00001580124547
10
-303.27906339359595
20
540.00001912781738
10
-300.96965655504113
20
544.00001580123717
10
-296.35085440152898
20
544.00000914808504
10
-294.04145908657154
20
540.00000582151324
10
-296.3508659251263
20
536.00000914809345
0
LWPOLYLINE
5
276
100
AcDbEntity
8
0
100
AcDbPolyline
90
6
70
1
43
0.0
10
-259.97774086798944
20
529
10
-268.0606878501651
20
529
10
-268.63801843326092
20
529.99996922915625
10
-266.3286115947061
20
533.99996590257604
10
-261.7098094411939
20
533.99995924942402
10
-259.40041412623651
20
529.99995592285222
0
LWPOLYLINE
5
277
100
AcDbEntity
8
0
100
AcDbPolyline
90
6
70
1
43
0.0
10
-266.32862311830354
20
545.99996590258445
10
-268.63801843326092
20
549.99996922915625
10
-266.3286115947061
20
553.99996590257604
10
-261.7098094411939
20
553.99995924942402
10
-259.40041412623651
20
549.99995592285222
10
-261.70982096479128
20
545.99995924943232
0
LWPOLYLINE
5
278
100
AcDbEntity
8
0
100
AcDbPolyline
90
6
70
1
43
0.0
10
-283.64914559847102
20
545.99999085191496
10
-285.95854091342846
20
549.99999417848676
10
-283.64913407487364
20
553.99999085190655
10
-279.03033192136144
20
553.99998419875453
10
-276.72093660640405
20
549.99998087218262
10
-279.03034344495882
20
545.99998419876283
0
LWPOLYLINE
5
279
100
AcDbEntity
8
0
100
AcDbPolyline
90
6
70
1
43
0.0
10
-309.6299293187223
20
551.00002827591072
10
-311.93932463367969
20
555.00003160248264
10
-309.62991779512492
20
559.00002827590242
10
-305.01111564161272
20
559.00002162275041
10
-302.70172032665533
20
555.0000182961785
10
-305.0111271652101
20
551.00002162275871
0
LWPOLYLINE
5
280
100
AcDbEntity
8
0
100
AcDbPolyline
90
6
70
1
43
0.0
10
-266.32862311830354
20
555.99996590258445
10
-268.63801843326092
20
559.99996922915625
10
-266.3286115947061
20
563.99996590257604
10
-261.7098094411939
20
563.99995924942402
10
-259.40041412623651
20
559.99995592285222
10
-261.70982096479128
20
555.99995924943232
0
LWPOLYLINE
5
281
100
AcDbEntity
8
0
100
AcDbPolyline
90
6
70
1
43
0.0
10
-266.32862311830354
20
575.99996590258445
10
-268.63801843326092
20
579.99996922915625
10
-266.3286115947061
20
583.99996590257604
10
-261.7098094411939
20
583.99995924942402
10
-259.40041412623651
20
579.99995592285222
10
-261.70982096479128
20
575.99995924943232
0
LWPOLYLINE
5
282
100
AcDbEntity
8
0
100
AcDbPolyline
90
6
70
1
43
0.0
10
-266.32862311830354
20
595.99996590258445
10
-268.63801843326092
20
599.99996922915625
10
-266.3286115947061
20
603.99996590257604
10
-261.7098094411939
20
603.99995924942402
10
-259.40041412623651
20
599.99995592285222
10
-261.70982096479128
20
595.99995924943232
0
LWPOLYLINE
5
283
100
AcDbEntity
8
0
100
AcDbPolyline
90
6
70
1
43
0.0
10
-266.32862311830354
20
605.99996590258445
10
-268.63801843326092
20
609.99996922915625
10
-266.3286115947061
20
613.99996590257604
10
-261.7098094411939
20
613.99995924942402
10
-259.40041412623651
20
609.99995592285222
10
-261.70982096479128
20
605.99995924943232
0
LWPOLYLINE
5
284
100
AcDbEntity
8
0
100
AcDbPolyline
90
6
70
1
43
0.0
10
-283.64914559847102
20
605.99999085191496
10
-285.95854091342846
20
609.99999417848676
10
-283.64913407487364
20
613.99999085190655
10
-279.03033192136144
20
613.99998419875453
10
-276.72093660640405
20
609.99998087218262
10
-279.03034344495882
20
605.99998419876283
0
LWPOLYLINE
5
285
100
AcDbEntity
8
0
100
AcDbPolyline
90
6
70
1
43
0.0
10
-274.98888435838728
20
580.99997837724959
10
-277.29827967334467
20
584.9999817038215
10
-274.98887283478985
20
588.99997837724129
10
-270.3700706812777
20
588.99997172408928
10
-268.06067536632025
20
584.99996839751736
10
-270.37008220487502
20
580.99997172409758
0
LWPOLYLINE
5
286
100
AcDbEntity
8
0
100
AcDbPolyline
90
6
70
1
43
0.0
10
-283.64914559847102
20
565.99999085191496
10
-285.95854091342846
20
569.99999417848676
10
-283.64913407487364
20
573.99999085190655
10
-279.03033192136144
20
573.99998419875453
10
-276.72093660640405
20
569.99998087218262
10
-279.03034344495882
20
565.99998419876283
0
LWPOLYLINE
5
287
100
AcDbEntity
8
0
100
AcDbPolyline
90
6
70
1
43
0.0
10
-300.96966807863856
20
556.00001580124547
10
-303.27906339359595
20
560.00001912781738
10
-300.96965655504113
20
564.00001580123717
10
-296.35085440152898
20
564.00000914808504
10
-294.04145908657154
20
560.00000582151324
10
-296.3508659251263
20
556.00000914809345
0
LWPOLYLINE
5
288
100
AcDbEntity
8
0
100
AcDbPolyline
90
6
70
1
43
0.0
10
-292.30940683855476
20
591.00000332658021
10
-294.61880215351221
20
595.00000665315201
10
-292.30939531495738
20
599.00000332657191
10
-287.69059316144524
20
598.99999667341979
10
-285.38119784648779
20
594.99999334684799
10
-287.69060468504256
20
590.99999667342809
0
LWPOLYLINE
5
289
100
AcDbEntity
8
0
100
AcDbPolyline
90
6
70
1
43
0.0
10
-292.30940683855476
20
611.00000332658021
10
-294.61880215351221
20
615.00000665315201
10
-292.30939531495738
20
619.00000332657191
10
-287.69059316144524
20
618.99999667341979
10
-285.38119784648779
20
614.99999334684799
10
-287.69060468504256
20
610.99999667342809
0
LWPOLYLINE
5
290
100
AcDbEntity
8
0
100
AcDbPolyline
90
6
70
1
43
0.0
10
-309.6299293187223
20
601.00002827591072
10
-311.93932463367969
20
605.00003160248264
10
-309.62991779512492
20
609.00002827590242
10
-305.01111564161272
20
609.00002162275041
10
-302.70172032665533
20
605.0000182961785
10
-305.0111271652101
20
601.00002162275871
0
LWPOLYLINE
5
291
100
AcDbEntity
8
0
100
AcDbPolyline
90
5
70
1
43
0.0
10
-322.50000000000006
20
601.00004681458938
10
-322.50000000000006
20
609.00004681459768
10
-322.33163812178026
20
609.00004657208092
10
-320.02224280682287
20
605.000043245509
10
-322.33164964537764
20
601.00004657208922
0
LWPOLYLINE
5
292
100
AcDbEntity
8
0
100
AcDbPolyline
90
6
70
1
43
0.0
10
-318.2901905588061
20
586.00004075057598
10
-320.59958587376343
20
590.00004407714778
10
-318.29017903520867
20
594.00004075056768
10
-313.67137688169646
20
594.00003409741555
10
-311.36198156673908
20
590.00003077084375
10
-313.67138840529384
20
586.00003409742396
0
LWPOLYLINE
5
293
100
AcDbEntity
8
0
100
AcDbPolyline
90
6
70
1
43
0.0
10
-309.6299293187223
20
571.00002827591072
10
-311.93932463367969
20
575.00003160248264
10
-309.62991779512492
20
579.00002827590242
10
-305.01111564161272
20
579.00002162275041
10
-302.70172032665533
20
575.0000182961785
10
-305.0111271652101
20
571.00002162275871
0
LWPOLYLINE
5
294
100
AcDbEntity
8
0
100
AcDbPolyline
90
5
70
1
43
0.0
10
-322.5
20
561.00004681458938
10
-322.5
20
569.00004681459768
10
-322.33163812178026
20
569.00004657208092
10
-320.02224280682287
20
565.000043245509
10
-322.33164964537764
20
561.00004657208922
0
LWPOLYLINE
5
295
100
AcDbEntity
8
0
100
AcDbPolyline
90
6
70
1
43
0.0
10
-494.64792027002045
20
409.38146289658994
10
-496.95732134677894
20
413.38146289658999
10
-494.64792027002034
20
417.38146289658994
10
-490.02911811650341
20
417.38146289658982
10
-487.71971703974492
20
413.38146289658994
10
-490.02911811650347
20
409.38146289658994
0
LWPOLYLINE
5
296
100
AcDbEntity
8
0
100
AcDbPolyline
90
6
70
1
43
0.0
10
-485.98944605823544
20
384.38146294938605
10
-488.29884713499382
20
388.3814629493861
10
-485.98944605823533
20
392.38146294938599
10
-481.37064390471829
20
392.38146294938599
10
-479.06124282795992
20
388.38146294938605
10
-481.37064390471846
20
384.38146294938605
0
LWPOLYLINE
5
297
100
AcDbEntity
8
0
100
AcDbPolyline
90
6
70
1
43
0.0
10
-468.66953125789956
20
384.38146296698443
10
-470.978932334658
20
388.38146296698449
10
-468.66953125789939
20
392.38146296698437
10
-464.05072910438241
20
392.38146296698432
10
-461.74132802762404
20
388.38146296698437
10
-464.05072910438258
20
384.38146296698443
0
LWPOLYLINE
5
298
100
AcDbEntity
8
0
100
AcDbPolyline
90
6
70
1
43
0.0
10
-494.64970009607998
20
379.38146294938633
10
-496.95910117283836
20
383.38146294938639
10
-494.64970009607981
20
387.38146294938633
10
-490.03089794256283
20
387.38146294938616
10
-487.7214968658044
20
383.38146294938633
10
-490.030897942563
20
379.38146294938633
0
LWPOLYLINE
5
299
100
AcDbEntity
8
0
100
AcDbPolyline
90
7
70
1
43
0.0
10
-503.30817430786504
20
404.38146289659016
10
-504.8484844934714
20
407.04935839747634
10
-504.8484844934714
20
409.71356739570388
10
-503.30817430786487
20
412.38146289659016
10
-498.68937215434789
20
412.38146289659005
10
-496.37997107758952
20
408.38146289659016
10
-498.68937215434806
20
404.38146289659016
0
LWPOLYLINE
5
300
100
AcDbEntity
8
0
100
AcDbPolyline
90
6
70
1
43
0.0
10
-477.32800546968463
20
409.38146291418832
10
-479.63740654644306
20
413.38146291418838
10
-477.32800546968451
20
417.38146291418832
10
-472.70920331616753
20
417.38146291418821
10
-470.3998022394091
20
413.38146291418832
10
-472.70920331616765
20
409.38146291418832
0
LWPOLYLINE
5
301
100
AcDbEntity
8
0
100
AcDbPolyline
90
6
70
1
43
0.0
10
-468.66775143184014
20
414.38146291418809
10
-470.97715250859858
20
418.38146291418815
10
-468.66775143183997
20
422.38146291418809
10
-464.04894927832299
20
422.38146291418798
10
-461.73954820156462
20
418.38146291418809
10
-464.04894927832316
20
414.38146291418809
0
LWPOLYLINE
5
302
100
AcDbEntity
8
0
100
AcDbPolyline
90
6
70
1
43
0.0
10
-477.32681891897835
20
429.38146287899076
10
-479.63621999573672
20
433.38146287899076
10
-477.32681891897818
20
437.3814628789907
10
-472.7080167654612
20
437.38146287899065
10
-470.39861568870276
20
433.3814628789907
10
-472.70801676546137
20
429.38146287899076
0
LWPOLYLINE
5
303
100
AcDbEntity
8
0
100
AcDbPolyline
90
6
70
1
43
0.0
10
-477.32622564362521
20
439.38146286139192
10
-479.63562672038364
20
443.38146286139198
10
-477.32622564362509
20
447.38146286139192
10
-472.70742349010811
20
447.38146286139181
10
-470.39802241334968
20
443.38146286139192
10
-472.70742349010823
20
439.38146286139192
0
LWPOLYLINE
5
304
100
AcDbEntity
8
0
100
AcDbPolyline
90
6
70
1
43
0.0
10
-485.98647968146969
20
434.38146286139215
10
-488.29588075822812
20
438.38146286139221
10
-485.98647968146958
20
442.38146286139215
10
-481.36767752795259
20
442.38146286139204
10
-479.05827645119416
20
438.38146286139215
10
-481.36767752795271
20
434.38146286139215
0
LWPOLYLINE
5
305
100
AcDbEntity
8
0
100
AcDbPolyline
90
7
70
1
43
0.0
10
-503.30698775715871
20
424.38146286139261
10
-504.84848449347169
20
427.05141352838831
10
-504.84848449347169
20
429.71151219439673
10
-503.30698775715859
20
432.38146286139255
10
-498.68818560364161
20
432.38146286139249
10
-496.37878452688318
20
428.38146286139255
10
-498.68818560364173
20
424.38146286139261
0
LWPOLYLINE
5
306
100
AcDbEntity
8
0
100
AcDbPolyline
90
6
70
1
43
0.0
10
-485.98529313076341
20
454.38146282619459
10
-488.29469420752184
20
458.38146282619459
10
-488.00601897132219
20
458.88146300217932
10
-479.34576513668759
20
458.88146300217949
10
-479.05708990048788
20
458.38146282619454
10
-481.36649097724643
20
454.38146282619459
0
LWPOLYLINE
5
307
100
AcDbEntity
8
0
100
AcDbPolyline
90
6
70
1
43
0.0
10
-451.34605680544485
20
444.38146287899008
10
-453.65545788220322
20
448.38146287899013
10
-451.34605680544468
20
452.38146287899008
10
-446.72725465192769
20
452.38146287898996
10
-444.41785357516926
20
448.38146287899008
10
-446.72725465192786
20
444.38146287899008
0
LWPOLYLINE
5
308
100
AcDbEntity
8
0
100
AcDbPolyline
90
6
70
1
43
0.0
10
-434.02614200510897
20
444.38146289658846
10
-436.3355430818674
20
448.38146289658852
10
-434.0261420051088
20
452.38146289658846
10
-429.40733985159181
20
452.38146289658835
10
-427.09793877483344
20
448.38146289658846
10
-429.40733985159198
20
444.38146289658846
0
LWPOLYLINE
5
309
100
AcDbEntity
8
0
100
AcDbPolyline
90
6
70
1
43
0.0
10
-451.34724335615113
20
424.38146291418769
10
-453.6566444329095
20
428.38146291418775
10
-451.34724335615095
20
432.38146291418764
10
-446.72844120263397
20
432.38146291418758
10
-444.41904012587554
20
428.38146291418764
10
-446.72844120263414
20
424.38146291418769
0
LWPOLYLINE
5
310
100
AcDbEntity
8
0
100
AcDbPolyline
90
6
70
1
43
0.0
10
-442.68758259365973
20
419.38146293178625
10
-444.99698367041816
20
423.3814629317863
10
-442.68758259365961
20
427.38146293178625
10
-438.06878044014263
20
427.38146293178613
10
-435.7593793633842
20
423.38146293178625
10
-438.06878044014275
20
419.38146293178625
0
LWPOLYLINE
5
311
100
AcDbEntity
8
0
100
AcDbPolyline
90
6
70
1
43
0.0
10
-434.02851510652158
20
404.38146296698358
10
-436.3379161832799
20
408.38146296698363
10
-434.02851510652141
20
412.38146296698352
10
-429.40971295300437
20
412.38146296698346
10
-427.100311876246
20
408.38146296698358
10
-429.4097129530046
20
404.38146296698358
0
LWPOLYLINE
5
312
100
AcDbEntity
8
0
100
AcDbPolyline
90
4
70
1
43
0.0
10
-446.73140757939967
20
382.38146300218148
10
-445.85057451515695
20
380.85581538192639
42
0.041096550347858606
10
-452.69595419401537
20
380.05056522155422
10
-451.35020973291665
20
382.38146300218153
0
LWPOLYLINE
5
313
100
AcDbEntity
8
0
100
AcDbPolyline
90
6
70
1
43
0.0
10
-442.68936241971915
20
389.38146298458258
10
-444.99876349647758
20
393.38146298458264
10
-442.68936241971903
20
397.38146298458253
10
-438.07056026620205
20
397.38146298458247
10
-435.76115918944362
20
393.38146298458253
10
-438.07056026620216
20
389.38146298458258
0
LWPOLYLINE
5
314
100
AcDbEntity
8
0
100
AcDbPolyline
90
4
70
1
43
0.0
10
-417.57639860287918
20
380.8814750459469
10
-416.71038013224495
20
382.3814630373783
10
-412.09157797872797
20
382.38146303737824
10
-411.22555950809391
20
380.8814750459469
0
LWPOLYLINE
5
315
100
AcDbEntity
8
0
100
AcDbPolyline
90
6
70
1
43
0.0
10
-425.36885434403018
20
399.38146298458213
10
-427.67825542078856
20
403.38146298458219
10
-425.36885434403007
20
407.38146298458213
10
-420.75005219051297
20
407.38146298458207
10
-418.44065111375465
20
403.38146298458213
10
-420.7500521905132
20
399.38146298458213
0
LWPOLYLINE
5
316
100
AcDbEntity
8
0
100
AcDbPolyline
90
6
70
1
43
0.0
10
-425.3676677933239
20
419.38146294938463
10
-427.67706887008228
20
423.38146294938468
10
-425.36766779332373
20
427.38146294938463
10
-420.74886563980675
20
427.38146294938446
10
-418.43946456304832
20
423.38146294938463
10
-420.74886563980692
20
419.38146294938463
0
LWPOLYLINE
5
317
100
AcDbEntity
8
0
100
AcDbPolyline
90
6
70
1
43
0.0
10
-425.36648124261762
20
439.38146291418707
10
-427.675882319376
20
443.38146291418707
10
-425.36648124261745
20
447.38146291418701
10
-420.74767908910047
20
447.38146291418695
10
-418.43827801234204
20
443.38146291418701
10
-420.74767908910064
20
439.38146291418707
0
LWPOLYLINE
5
318
100
AcDbEntity
8
0
100
AcDbPolyline
90
6
70
1
43
0.0
10
-408.04656644228169
20
439.38146293178539
10
-410.35596751904006
20
443.38146293178545
10
-408.04656644228152
20
447.38146293178539
10
-403.42776428876454
20
447.38146293178534
10
-401.1183632120061
20
443.38146293178539
10
-403.42776428876471
20
439.38146293178539
0
LWPOLYLINE
5
319
100
AcDbEntity
8
0
100
AcDbPolyline
90
6
70
1
43
0.0
10
-408.04953281904744
20
389.38146301977929
10
-410.35893389580588
20
393.38146301977935
10
-408.04953281904727
20
397.38146301977929
10
-403.43073066553029
20
397.38146301977918
10
-401.12132958877191
20
393.38146301977929
10
-403.43073066553046
20
389.38146301977929
0
LWPOLYLINE
5
320
100
AcDbEntity
8
0
100
AcDbPolyline
90
6
70
1
43
0.0
10
-399.38809223049657
20
414.3814629845815
10
-401.697493307255
20
418.38146298458156
10
-399.38809223049645
20
422.3814629845815
10
-394.76929007697947
20
422.38146298458139
10
-392.45988900022104
20
418.3814629845815
10
-394.76929007697959
20
414.3814629845815
0
LWPOLYLINE
5
321
100
AcDbEntity
8
0
100
AcDbPolyline
90
6
70
1
43
0.0
10
-390.72665164194581
20
439.38146294938377
10
-393.03605271870424
20
443.38146294938383
10
-390.72665164194569
20
447.38146294938372
10
-386.10784948842871
20
447.3814629493836
10
-383.79844841167028
20
443.38146294938377
10
-386.10784948842883
20
439.38146294938377
0
LWPOLYLINE
5
322
100
AcDbEntity
8
0
100
AcDbPolyline
90
6
70
1
43
0.0
10
-373.40733011696307
20
429.38146298458088
10
-375.7167311937215
20
433.38146298458093
10
-373.40733011696295
20
437.38146298458082
10
-368.78852796344597
20
437.38146298458076
10
-366.47912688668754
20
433.38146298458082
10
-368.78852796344609
20
429.38146298458088
0
LWPOLYLINE
5
323
100
AcDbEntity
8
0
100
AcDbPolyline
90
6
70
1
43
0.0
10
-399.38631240443721
20
444.38146293178522
10
-401.69571348119564
20
448.38146293178522
10
-399.38631240443704
20
452.38146293178517
10
-394.76751025092005
20
452.38146293178511
10
-392.45810917416168
20
448.38146293178517
10
-394.76751025092022
20
444.38146293178522
0
LWPOLYLINE
5
324
100
AcDbEntity
8
0
100
AcDbPolyline
90
6
70
1
43
0.0
10
-382.06580432874819
20
454.38146293178477
10
-384.37520540550656
20
458.38146293178482
10
-384.08653023026858
20
458.88146300218079
10
-375.4262762737107
20
458.88146300218091
10
-375.1376010984726
20
458.38146293178477
10
-377.44700217523121
20
454.38146293178477
0
LWPOLYLINE
5
325
100
AcDbEntity
8
0
100
AcDbPolyline
90
6
70
1
43
0.0
10
-356.08622876592096
20
449.38146296698164
10
-358.39562984267934
20
453.3814629669817
10
-356.08622876592079
20
457.38146296698164
10
-351.46742661240381
20
457.38146296698153
10
-349.15802553564538
20
453.38146296698164
10
-351.46742661240398
20
449.38146296698164
0
LWPOLYLINE
5
326
100
AcDbEntity
8
0
100
AcDbPolyline
90
6
70
1
43
0.0
10
-356.08682204127405
20
439.38146298458042
10
-358.39622311803248
20
443.38146298458048
10
-356.08682204127388
20
447.38146298458042
10
-351.4680198877569
20
447.38146298458037
10
-349.15861881099852
20
443.38146298458042
10
-351.46801988775707
20
439.38146298458042
0
LWPOLYLINE
5
327
100
AcDbEntity
8
0
100
AcDbPolyline
90
6
70
1
43
0.0
10
-384.37757850691918
20
418.38146300217994
10
-382.06817743016063
20
422.38146300217983
10
-377.44937527664365
20
422.38146300217977
10
-375.13997419988522
20
418.38146300217988
10
-377.44937527664376
20
414.38146300217988
10
-382.06817743016074
20
414.38146300217988
0
LWPOLYLINE
5
328
100
AcDbEntity
8
0
100
AcDbPolyline
90
6
70
1
43
0.0
10
-356.08800859198033
20
419.38146301977804
10
-358.39740966873876
20
423.3814630197781
10
-356.08800859198021
20
427.38146301977798
10
-351.46920643846323
20
427.38146301977793
10
-349.1598053617048
20
423.38146301977804
10
-351.46920643846335
20
419.38146301977804
0
LWPOLYLINE
5
329
100
AcDbEntity
8
0
100
AcDbPolyline
90
6
70
1
43
0.0
10
-364.74826262982492
20
414.38146301977827
10
-367.0576637065833
20
418.38146301977827
10
-364.74826262982475
20
422.38146301977821
10
-360.12946047630777
20
422.38146301977815
10
-357.82005939954934
20
418.38146301977821
10
-360.12946047630794
20
414.38146301977827
0
LWPOLYLINE
5
330
100
AcDbEntity
8
0
100
AcDbPolyline
90
6
70
1
43
0.0
10
-356.08919514268666
20
399.38146305497554
10
-358.39859621944504
20
403.3814630549756
10
-356.08919514268649
20
407.38146305497548
10
-351.47039298916951
20
407.38146305497548
10
-349.16099191241108
20
403.38146305497554
10
-351.47039298916968
20
399.38146305497554
0
LWPOLYLINE
5
331
100
AcDbEntity
8
0
100
AcDbPolyline
90
6
70
1
43
0.0
10
-364.75004245588428
20
384.38146307257455
10
-367.05944353264272
20
388.3814630725746
10
-364.75004245588417
20
392.38146307257455
10
-360.13124030236719
20
392.38146307257443
10
-357.82183922560876
20
388.38146307257455
10
-360.1312403023673
20
384.38146307257455
0
LWPOLYLINE
5
332
100
AcDbEntity
8
0
100
AcDbPolyline
90
6
70
1
43
0.0
10
-382.06936398086702
20
394.38146303737744
10
-384.37876505762546
20
398.3814630373775
10
-382.06936398086691
20
402.38146303737744
10
-377.45056182734993
20
402.38146303737733
10
-375.1411607505915
20
398.38146303737744
10
-377.45056182735004
20
394.38146303737744
0
LWPOLYLINE
5
333
100
AcDbEntity
8
0
100
AcDbPolyline
90
6
70
1
43
0.0
10
-410.35952717115896
20
383.38146303737813
10
-408.05012609440041
20
387.38146303737807
10
-403.43132394088343
20
387.38146303737801
10
-401.121922864125
20
383.38146303737807
10
-402.56529160394871
20
380.8814750459469
10
-408.91615843133536
20
380.8814750459469
0
LWPOLYLINE
5
334
100
AcDbEntity
8
0
100
AcDbPolyline
90
6
70
1
43
0.0
10
-375.7196975704872
20
383.38146307257483
10
-373.41029649372865
20
387.38146307257472
10
-368.79149434021167
20
387.38146307257466
10
-366.48209326345324
20
383.38146307257477
10
-367.92546202359773
20
380.8814750459469
10
-374.27632881034276
20
380.8814750459469
0
LWPOLYLINE
5
335
100
AcDbEntity
8
0
100
AcDbPolyline
90
6
70
1
43
0.0
10
-338.76631396558508
20
449.38146298458003
10
-341.0757150423434
20
453.38146298458008
10
-338.76631396558491
20
457.38146298457997
10
-334.14751181206788
20
457.38146298457991
10
-331.83811073530956
20
453.38146298458003
10
-334.1475118120681
20
449.38146298458003
0
LWPOLYLINE
5
336
100
AcDbEntity
8
0
100
AcDbPolyline
90
6
70
1
43
0.0
10
-338.76750051629131
20
429.38146301977758
10
-341.0769015930498
20
433.38146301977764
10
-338.76750051629119
20
437.38146301977758
10
-334.14869836277427
20
437.38146301977747
10
-331.83929728601578
20
433.38146301977758
10
-334.14869836277433
20
429.38146301977758
0
LWPOLYLINE
5
337
100
AcDbEntity
8
0
100
AcDbPolyline
90
6
70
1
43
0.0
10
-330.1084330291531
20
414.38146305497497
10
-332.41783410591154
20
418.38146305497503
10
-330.10843302915299
20
422.38146305497492
10
-325.48963087563601
20
422.3814630549748
10
-323.18022979887758
20
418.38146305497497
10
-325.48963087563612
20
414.38146305497497
0
LWPOLYLINE
5
338
100
AcDbEntity
8
0
100
AcDbPolyline
90
6
70
1
43
0.0
10
-338.76987361770387
20
389.3814630901727
10
-341.0792746944623
20
393.38146309017276
10
-338.76987361770375
20
397.3814630901727
10
-334.15107146418677
20
397.38146309017259
10
-331.84167038742834
20
393.3814630901727
10
-334.15107146418688
20
389.3814630901727
0
LWPOLYLINE
5
339
100
AcDbEntity
8
0
100
AcDbPolyline
90
6
70
1
43
0.0
10
-330.10961957985944
20
394.38146309017247
10
-332.41902065661782
20
398.38146309017253
10
-330.10961957985927
20
402.38146309017247
10
-325.49081742634229
20
402.38146309017236
10
-323.18141634958386
20
398.38146309017247
10
-325.49081742634246
20
394.38146309017247
0
LWPOLYLINE
5
340
100
AcDbEntity
8
0
100
AcDbPolyline
90
6
70
1
43
0.0
10
-312.78614512740467
20
454.38146300217818
10
-315.0955462041631
20
458.38146300217824
10
-314.80687106956623
20
458.88146300218176
10
-306.14661703172607
20
458.88146300218187
10
-305.85794189712914
20
458.38146300217818
10
-308.16734297388768
20
454.38146300217818
0
LWPOLYLINE
5
341
100
AcDbEntity
8
0
100
AcDbPolyline
90
6
70
1
43
0.0
10
-304.12648436491332
20
449.38146301977673
10
-306.43588544167176
20
453.38146301977679
10
-304.12648436491315
20
457.38146301977673
10
-299.50768221139617
20
457.38146301977667
10
-297.1982811346378
20
453.38146301977673
10
-299.50768221139634
20
449.38146301977673
0
LWPOLYLINE
5
342
100
AcDbEntity
8
0
100
AcDbPolyline
90
6
70
1
43
0.0
10
-304.12707764026646
20
439.38146303737551
10
-306.4364787170249
20
443.38146303737562
10
-304.12707764026629
20
447.38146303737551
10
-299.50827548674931
20
447.38146303737545
10
-297.19887440999094
20
443.38146303737551
10
-299.50827548674948
20
439.38146303737551
0
LWPOLYLINE
5
343
100
AcDbEntity
8
0
100
AcDbPolyline
90
6
70
1
43
0.0
10
-321.44877226666176
20
409.38146307257347
10
-323.75817334342014
20
413.38146307257352
10
-321.44877226666159
20
417.38146307257347
10
-316.82997011314461
20
417.38146307257341
10
-314.52056903638618
20
413.38146307257347
10
-316.82997011314478
20
409.38146307257347
0
LWPOLYLINE
5
344
100
AcDbEntity
8
0
100
AcDbPolyline
90
6
70
1
43
0.0
10
-304.1276709156196
20
429.38146305497423
10
-306.43707199237804
20
433.38146305497435
10
-304.12767091561943
20
437.38146305497423
10
-299.50886876210245
20
437.38146305497423
10
-297.19946768534408
20
433.38146305497423
10
-299.50886876210262
20
429.38146305497423
0
LWPOLYLINE
5
345
100
AcDbEntity
8
0
100
AcDbPolyline
90
6
70
1
43
0.0
10
-286.80716283993058
20
439.38146305497384
10
-289.11656391668896
20
443.38146305497389
10
-286.80716283993041
20
447.38146305497378
10
-282.18836068641343
20
447.38146305497378
10
-279.878959609655
20
443.38146305497384
10
-282.1883606864136
20
439.38146305497384
0
LWPOLYLINE
5
346
100
AcDbEntity
8
0
100
AcDbPolyline
90
6
70
1
43
0.0
10
-260.82640072639708
20
454.38146305497327
10
-263.13580180315546
20
458.38146305497332
10
-262.84712669903945
20
458.8814630021825
10
-254.66906821333222
20
458.88146300218261
10
-254.66906821333222
20
457.04627580669728
10
-256.2075985728801
20
454.38146305497327
0
LWPOLYLINE
5
347
100
AcDbEntity
8
0
100
AcDbPolyline
90
6
70
1
43
0.0
10
-295.46860342848134
20
414.38146309017162
10
-297.77800450523978
20
418.38146309017168
10
-295.46860342848117
20
422.38146309017162
10
-290.84980127496419
20
422.38146309017156
10
-288.54040019820582
20
418.38146309017162
10
-290.84980127496436
20
414.38146309017162
0
LWPOLYLINE
5
348
100
AcDbEntity
8
0
100
AcDbPolyline
90
6
70
1
43
0.0
10
-312.7897047795235
20
394.38146310777086
10
-315.09910585628194
20
398.38146310777091
10
-312.78970477952339
20
402.38146310777086
10
-308.17090262600641
20
402.38146310777074
10
-305.86150154924798
20
398.38146310777086
10
-308.17090262600652
20
394.38146310777086
0
LWPOLYLINE
5
349
100
AcDbEntity
8
0
100
AcDbPolyline
90
7
70
1
43
0.0
10
-304.15049980716162
20
379.41586602772696
10
-306.44003836914374
20
383.3814631429683
10
-304.13063729238513
20
387.38146314296819
10
-299.51183513886815
20
387.38146314296813
10
-297.20243406210977
20
383.38146314296819
10
-299.51183513886832
20
379.38146314296824
10
-304.02448297114859
20
379.38146314296824
42
0.00077755098390689997
0
LWPOLYLINE
5
350
100
AcDbEntity
8
0
100
AcDbPolyline
90
6
70
1
43
0.0
10
-295.46919670383454
20
404.3814631077704
10
-297.77859778059292
20
408.38146310777051
10
-295.46919670383437
20
412.3814631077704
10
-290.85039455031739
20
412.38146310777034
10
-288.54099347355896
20
408.3814631077704
10
-290.85039455031756
20
404.3814631077704
0
LWPOLYLINE
5
351
100
AcDbEntity
8
0
100
AcDbPolyline
90
6
70
1
43
0.0
10
-278.1492819034986
20
404.38146312536878
10
-280.45868298025704
20
408.38146312536884
10
-278.14928190349849
20
412.38146312536878
10
-273.53047974998151
20
412.38146312536867
10
-271.22107867322308
20
408.38146312536878
10
-273.53047974998162
20
404.38146312536878
0
LWPOLYLINE
5
352
100
AcDbEntity
8
0
100
AcDbPolyline
90
6
70
1
43
0.0
10
-278.1498751788518
20
394.38146314296762
10
-280.45927625561023
20
398.38146314296762
10
-278.14987517885163
20
402.38146314296756
10
-273.53107302533465
20
402.3814631429675
10
-271.22167194857627
20
398.38146314296756
10
-273.53107302533482
20
394.38146314296762
0
LWPOLYLINE
5
353
100
AcDbEntity
8
0
100
AcDbPolyline
90
6
70
1
43
0.0
10
-269.48902786565412
20
409.38146312536855
10
-271.79842894241256
20
413.38146312536867
10
-269.48902786565395
20
417.38146312536855
10
-264.87022571213697
20
417.3814631253685
10
-262.56082463537859
20
413.38146312536855
10
-264.87022571213714
20
409.38146312536855
0
LWPOLYLINE
5
354
100
AcDbEntity
8
0
100
AcDbPolyline
90
6
70
1
43
0.0
10
-269.49080769171354
20
379.38146317816489
10
-271.80020876847198
20
383.38146317816495
10
-269.49080769171343
20
387.38146317816484
10
-264.87200553819645
20
387.38146317816484
10
-262.56260446143801
20
383.38146317816489
10
-264.87200553819656
20
379.38146317816489
0
LWPOLYLINE
5
355
100
AcDbEntity
8
0
100
AcDbPolyline
90
7
70
1
43
0.0
10
-260.82877382780958
20
414.38146312536838
10
-263.13817490456802
20
418.38146312536844
10
-260.82877382780947
20
422.38146312536833
10
-256.20997167429249
20
422.38146312536827
10
-254.66906821333268
20
419.71254004142713
10
-254.66906821333271
20
417.05038620930958
10
-256.2099716742926
20
414.38146312536838
0
LWPOLYLINE
5
356
100
AcDbEntity
8
0
100
AcDbPolyline
90
6
70
1
43
0.0
10
-262.85187275962068
20
377.88146300218068
10
-263.14054800598063
20
378.38146319576356
10
-260.83114692922203
20
382.38146319576344
10
-256.21234477570505
20
382.38146319576339
10
-254.66906821333316
20
379.70842977960501
10
-254.66906821333322
20
377.88146300218068
0
LWPOLYLINE
5
357
100
AcDbEntity
8
0
100
AcDbPolyline
90
7
70
1
43
0.0
10
-260.82936710316278
20
404.38146314296716
10
-263.13876817992116
20
408.38146314296722
10
-260.82936710316261
20
412.38146314296716
10
-256.21056494964563
20
412.38146314296705
10
-254.66906821333282
20
409.71151247597163
10
-254.66906821333285
20
407.0514138099627
10
-256.2105649496458
20
404.38146314296716
0
LWPOLYLINE
5
358
100
AcDbEntity
8
0
100
AcDbPolyline
90
7
70
1
43
0.0
10
-260.82699400175017
20
444.38146307257199
10
-263.1363950785086
20
448.38146307257205
10
-260.82699400174999
20
452.38146307257193
10
-256.20819184823301
20
452.38146307257188
10
-254.66906821333231
20
449.71562273779369
10
-254.66906821333237
20
447.04730340735023
10
-256.20819184823318
20
444.38146307257199
0
LWPOLYLINE
5
359
100
AcDbEntity
8
0
100
AcDbPolyline
90
6
70
1
43
0.0
10
-269.48962114100726
20
399.38146314296739
10
-271.7990222177657
20
403.38146314296745
10
-269.48962114100715
20
407.38146314296733
10
-264.87081898749017
20
407.38146314296728
10
-262.56141791073173
20
403.38146314296739
10
-264.87081898749028
20
399.38146314296739
0
LWPOLYLINE
5
360
100
AcDbEntity
8
0
100
AcDbPolyline
90
6
70
1
43
0.0
10
-269.4872480395947
20
439.38146307257222
10
-271.79664911635314
20
443.38146307257227
10
-269.48724803959459
20
447.38146307257216
10
-264.86844588607761
20
447.3814630725721
10
-262.55904480931918
20
443.38146307257216
10
-264.86844588607772
20
439.38146307257222
0
LWPOLYLINE
5
361
100
AcDbEntity
8
0
100
AcDbPolyline
90
6
70
1
43
0.0
10
-286.80953594134314
20
399.38146312536901
10
-289.11893701810158
20
403.38146312536907
10
-286.80953594134303
20
407.38146312536901
10
-282.19073378782605
20
407.3814631253689
10
-279.88133271106761
20
403.38146312536901
10
-282.19073378782616
20
399.38146312536901
0
LWPOLYLINE
5
362
100
AcDbEntity
8
0
100
AcDbPolyline
90
6
70
1
43
0.0
10
-295.46978997918762
20
394.38146312536924
10
-297.77919105594606
20
398.38146312536929
10
-295.46978997918751
20
402.38146312536918
10
-290.85098782567053
20
402.38146312536912
10
-288.5415867489121
20
398.38146312536924
10
-290.85098782567064
20
394.38146312536924
0
LWPOLYLINE
5
363
100
AcDbEntity
8
0
100
AcDbPolyline
90
6
70
1
43
0.0
10
-297.78037760665234
20
378.3814631605668
10
-295.47097652989379
20
382.38146316056668
10
-290.85217437637681
20
382.38146316056668
10
-288.54277329961837
20
378.38146316056674
10
-288.83144852565744
20
377.88146300218074
10
-297.49170238061333
20
377.88146300218074
0
LWPOLYLINE
5
364
100
AcDbEntity
8
0
100
AcDbPolyline
90
4
70
1
43
0.0
10
-308.17208917671269
20
382.38146314296836
10
-306.82509101401428
20
380.04839388747268
42
0.04110641007459858
10
-313.67191288156914
20
380.85548905348526
10
-312.79089133022967
20
382.38146314296841
0
LWPOLYLINE
5
365
100
AcDbEntity
8
0
100
AcDbPolyline
90
6
70
1
43
0.0
10
-304.12885746632588
20
409.38146309017185
10
-306.43825854308432
20
413.38146309017191
10
-304.12885746632577
20
417.38146309017179
10
-299.51005531280879
20
417.38146309017174
10
-297.20065423605035
20
413.38146309017185
10
-299.5100553128089
20
409.38146309017185
0
LWPOLYLINE
5
366
100
AcDbEntity
8
0
100
AcDbPolyline
90
6
70
1
43
0.0
10
-269.48665476424151
20
449.38146305497344
10
-271.79605584099994
20
453.38146305497344
10
-269.48665476424139
20
457.38146305497338
10
-264.86785261072441
20
457.38146305497338
10
-262.55845153396598
20
453.38146305497338
10
-264.86785261072453
20
449.38146305497344
0
LWPOLYLINE
5
367
100
AcDbEntity
8
0
100
AcDbPolyline
90
6
70
1
43
0.0
10
-286.80656956457744
20
449.38146303737511
10
-289.11597064133582
20
453.38146303737517
10
-286.80656956457727
20
457.38146303737506
10
-282.18776741106029
20
457.381463037375
10
-279.87836633430186
20
453.38146303737511
10
-282.18776741106046
20
449.38146303737511
0
LWPOLYLINE
5
368
100
AcDbEntity
8
0
100
AcDbPolyline
90
6
70
1
43
0.0
10
-295.46741687777507
20
434.38146305497412
10
-297.7768179545335
20
438.38146305497418
10
-295.46741687777495
20
442.38146305497412
10
-290.84861472425797
20
442.38146305497395
10
-288.53921364749954
20
438.38146305497412
10
-290.84861472425808
20
434.38146305497412
0
LWPOLYLINE
5
369
100
AcDbEntity
8
0
100
AcDbPolyline
90
6
70
1
43
0.0
10
-312.78851822881722
20
414.3814630725733
10
-315.09791930557566
20
418.3814630725733
10
-312.78851822881711
20
422.38146307257324
10
-308.16971607530013
20
422.38146307257318
10
-305.8603149985417
20
418.38146307257324
10
-308.16971607530024
20
414.3814630725733
0
LWPOLYLINE
5
370
100
AcDbEntity
8
0
100
AcDbPolyline
90
6
70
1
43
0.0
10
-312.78733167811095
20
434.38146303737574
10
-315.09673275486938
20
438.3814630373758
10
-312.78733167811083
20
442.38146303737574
10
-308.16852952459385
20
442.38146303737562
10
-305.85912844783542
20
438.38146303737574
10
-308.16852952459396
20
434.38146303737574
0
LWPOLYLINE
5
371
100
AcDbEntity
8
0
100
AcDbPolyline
90
6
70
1
43
0.0
10
-278.14631552673291
20
454.38146303737489
10
-280.45571660349134
20
458.38146303737494
10
-280.16704148921502
20
458.88146300218227
10
-271.50678741073375
20
458.88146300218239
10
-271.21811229645738
20
458.38146303737489
10
-273.52751337321592
20
454.38146303737489
0
LWPOLYLINE
5
372
100
AcDbEntity
8
0
100
AcDbPolyline
90
6
70
1
43
0.0
10
-321.44639916524915
20
449.38146300217841
10
-323.75580024200758
20
453.38146300217841
10
-321.44639916524903
20
457.38146300217835
10
-316.827597011732
20
457.38146300217829
10
-314.51819593497362
20
453.38146300217835
10
-316.82759701173217
20
449.38146300217841
0
LWPOLYLINE
5
373
100
AcDbEntity
8
0
100
AcDbPolyline
90
6
70
1
43
0.0
10
-321.4493655420149
20
399.38146309017225
10
-323.75876661877328
20
403.38146309017236
10
-321.44936554201479
20
407.38146309017225
10
-316.83056338849775
20
407.38146309017219
10
-314.52116231173937
20
403.38146309017225
10
-316.83056338849792
20
399.38146309017225
0
LWPOLYLINE
5
374
100
AcDbEntity
8
0
100
AcDbPolyline
90
4
70
1
43
0.0
10
-330.97683160547314
20
380.88146300218119
10
-330.11080613056555
20
382.38146312537003
10
-325.49200397704857
20
382.38146312536998
10
-324.62597850214109
20
380.88146300218119
0
LWPOLYLINE
5
375
100
AcDbEntity
8
0
100
AcDbPolyline
90
6
70
1
43
0.0
10
-338.76868706699759
20
409.38146305497514
10
-341.07808814375602
20
413.38146305497514
10
-338.76868706699747
20
417.38146305497509
10
-334.14988491348049
20
417.38146305497509
10
-331.84048383672206
20
413.38146305497509
10
-334.14988491348061
20
409.38146305497514
0
LWPOLYLINE
5
376
100
AcDbEntity
8
0
100
AcDbPolyline
90
6
70
1
43
0.0
10
-330.10724647844683
20
434.38146301977736
10
-332.41664755520526
20
438.38146301977747
10
-330.10724647844665
20
442.38146301977736
10
-325.48844432492967
20
442.3814630197773
10
-323.1790432481713
20
438.38146301977736
10
-325.48844432492984
20
434.38146301977736
0
LWPOLYLINE
5
377
100
AcDbEntity
8
0
100
AcDbPolyline
90
6
70
1
43
0.0
10
-330.10605992774055
20
454.3814629845798
10
-332.41546100449898
20
458.38146298457985
10
-332.1267858597418
20
458.88146300218153
10
-323.46653184222225
20
458.8814630021817
10
-323.17785669746502
20
458.3814629845798
10
-325.48725777422356
20
454.3814629845798
0
LWPOLYLINE
5
378
100
AcDbEntity
8
0
100
AcDbPolyline
90
4
70
1
43
0.0
10
-365.61665423235274
20
380.8814750459469
10
-364.75063573123737
20
382.38146309017333
10
-360.13183357772039
20
382.38146309017327
10
-359.26581507660501
20
380.8814750459469
0
LWPOLYLINE
5
379
100
AcDbEntity
8
0
100
AcDbPolyline
90
4
70
1
43
0.0
10
-400.25648381270366
20
380.8814750459469
10
-399.39046533190901
20
382.38146305497662
10
-394.77166317839203
20
382.38146305497651
10
-393.90564469759761
20
380.8814750459469
0
LWPOLYLINE
5
380
100
AcDbEntity
8
0
100
AcDbPolyline
90
6
70
1
43
0.0
10
-382.06995725622016
20
384.38146305497628
10
-384.37935833297854
20
388.38146305497628
10
-382.06995725621999
20
392.38146305497622
10
-377.45115510270301
20
392.38146305497605
10
-375.14175402594458
20
388.38146305497622
10
-377.45115510270318
20
384.38146305497628
0
LWPOLYLINE
5
381
100
AcDbEntity
8
0
100
AcDbPolyline
90
6
70
1
43
0.0
10
-364.7494491805312
20
394.38146305497582
10
-367.05885025728958
20
398.38146305497588
10
-364.74944918053103
20
402.38146305497582
10
-360.13064702701405
20
402.38146305497565
10
-357.82124595025562
20
398.38146305497582
10
-360.13064702701422
20
394.38146305497582
0
LWPOLYLINE
5
382
100
AcDbEntity
8
0
100
AcDbPolyline
90
6
70
1
43
0.0
10
-347.42953438019526
20
394.38146307257409
10
-349.7389354569537
20
398.38146307257421
10
-347.42953438019515
20
402.38146307257409
10
-342.81073222667817
20
402.38146307257404
10
-340.50133114991974
20
398.38146307257409
10
-342.81073222667828
20
394.38146307257409
0
LWPOLYLINE
5
383
100
AcDbEntity
8
0
100
AcDbPolyline
90
6
70
1
43
0.0
10
-373.40851666766935
20
409.38146301977844
10
-375.71791774442778
20
413.38146301977849
10
-373.40851666766923
20
417.38146301977844
10
-368.78971451415225
20
417.38146301977838
10
-366.48031343739382
20
413.38146301977844
10
-368.78971451415237
20
409.38146301977844
0
LWPOLYLINE
5
384
100
AcDbEntity
8
0
100
AcDbPolyline
90
6
70
1
43
0.0
10
-347.42775455413584
20
424.38146301977781
10
-349.73715563089428
20
428.38146301977787
10
-347.42775455413573
20
432.38146301977781
10
-342.80895240061875
20
432.3814630197777
10
-340.49955132386032
20
428.38146301977781
10
-342.80895240061886
20
424.38146301977781
0
LWPOLYLINE
5
385
100
AcDbEntity
8
0
100
AcDbPolyline
90
6
70
1
43
0.0
10
-373.40792339231626
20
419.38146300217966
10
-375.7173244690747
20
423.38146300217971
10
-373.40792339231609
20
427.38146300217966
10
-368.78912123879911
20
427.38146300217954
10
-366.47972016204073
20
423.38146300217966
10
-368.78912123879928
20
419.38146300217966
0
LWPOLYLINE
5
386
100
AcDbEntity
8
0
100
AcDbPolyline
90
6
70
1
43
0.0
10
-364.74707607911859
20
434.38146298458065
10
-367.05647715587702
20
438.38146298458071
10
-364.74707607911847
20
442.38146298458059
10
-360.12827392560149
20
442.38146298458054
10
-357.81887284884306
20
438.38146298458065
10
-360.1282739256016
20
434.38146298458065
0
LWPOLYLINE
5
387
100
AcDbEntity
8
0
100
AcDbPolyline
90
6
70
1
43
0.0
10
-347.42597472807637
20
454.38146296698142
10
-349.7353758048348
20
458.38146296698147
10
-349.44670064991737
20
458.88146300218125
10
-340.78644665271838
20
458.88146300218136
10
-340.49777149780084
20
458.38146296698142
10
-342.80717257455939
20
454.38146296698142
0
LWPOLYLINE
5
388
100
AcDbEntity
8
0
100
AcDbPolyline
90
6
70
1
43
0.0
10
-373.40614356625679
20
449.38146294938338
10
-375.71554464301522
20
453.38146294938338
10
-373.40614356625667
20
457.38146294938332
10
-368.78734141273969
20
457.38146294938315
10
-366.47794033598126
20
453.38146294938332
10
-368.78734141273981
20
449.38146294938338
0
LWPOLYLINE
5
389
100
AcDbEntity
8
0
100
AcDbPolyline
90
6
70
1
43
0.0
10
-408.04597316692855
20
449.38146291418661
10
-410.35537424368698
20
453.38146291418667
10
-408.04597316692843
20
457.38146291418661
10
-403.42717101341145
20
457.3814629141865
10
-401.11776993665302
20
453.38146291418661
10
-403.42717101341157
20
449.38146291418661
0
LWPOLYLINE
5
390
100
AcDbEntity
8
0
100
AcDbPolyline
90
6
70
1
43
0.0
10
-382.06758415480761
20
424.38146298458105
10
-384.37698523156604
20
428.38146298458116
10
-382.06758415480749
20
432.38146298458105
10
-377.44878200129051
20
432.38146298458099
10
-375.13938092453208
20
428.38146298458105
10
-377.44878200129062
20
424.38146298458105
0
LWPOLYLINE
5
391
100
AcDbEntity
8
0
100
AcDbPolyline
90
6
70
1
43
0.0
10
-382.06639760410133
20
444.38146294938349
10
-384.37579868085976
20
448.38146294938355
10
-382.06639760410121
20
452.38146294938349
10
-377.44759545058423
20
452.38146294938349
10
-375.1381943738258
20
448.38146294938349
10
-377.44759545058434
20
444.38146294938349
0
LWPOLYLINE
5
392
100
AcDbEntity
8
0
100
AcDbPolyline
90
6
70
1
43
0.0
10
-390.72843146800523
20
409.38146300218011
10
-393.03783254476366
20
413.38146300218011
10
-390.72843146800506
20
417.38146300218006
10
-386.10962931448807
20
417.38146300218
10
-383.8002282377297
20
413.38146300218006
10
-386.10962931448825
20
409.38146300218011
0
LWPOLYLINE
5
393
100
AcDbEntity
8
0
100
AcDbPolyline
90
6
70
1
43
0.0
10
-408.04893954369425
20
399.38146300218051
10
-410.35834062045268
20
403.38146300218057
10
-408.04893954369413
20
407.38146300218045
10
-403.43013739017715
20
407.3814630021804
10
-401.12073631341872
20
403.38146300218051
10
-403.43013739017726
20
399.38146300218051
0
LWPOLYLINE
5
394
100
AcDbEntity
8
0
100
AcDbPolyline
90
6
70
1
43
0.0
10
-408.04715971763483
20
429.38146294938417
10
-410.35656079439326
20
433.38146294938429
10
-408.04715971763471
20
437.38146294938417
10
-403.42835756411773
20
437.38146294938406
10
-401.1189564873593
20
433.38146294938417
10
-403.42835756411785
20
429.38146294938417
0
LWPOLYLINE
5
395
100
AcDbEntity
8
0
100
AcDbPolyline
90
6
70
1
43
0.0
10
-425.36588796726443
20
449.38146289658823
10
-427.67528904402286
20
453.38146289658829
10
-425.36588796726426
20
457.38146289658823
10
-420.74708581374728
20
457.38146289658812
10
-418.4376847369889
20
453.38146289658823
10
-420.74708581374745
20
449.38146289658823
0
LWPOLYLINE
5
396
100
AcDbEntity
8
0
100
AcDbPolyline
90
6
70
1
43
0.0
10
-425.36707451797071
20
429.38146293178585
10
-427.67647559472914
20
433.3814629317859
10
-425.36707451797054
20
437.38146293178579
10
-420.74827236445356
20
437.38146293178573
10
-418.43887128769518
20
433.38146293178579
10
-420.74827236445373
20
429.38146293178585
0
LWPOLYLINE
5
397
100
AcDbEntity
8
0
100
AcDbPolyline
90
6
70
1
43
0.0
10
-416.7080070308325
20
414.38146296698312
10
-419.01740810759094
20
418.38146296698318
10
-416.70800703083239
20
422.38146296698312
10
-412.08920487731541
20
422.38146296698301
10
-409.77980380055698
20
418.38146296698312
10
-412.08920487731552
20
414.38146296698312
0
LWPOLYLINE
5
398
100
AcDbEntity
8
0
100
AcDbPolyline
90
6
70
1
43
0.0
10
-427.6794419714949
20
383.3814630197798
10
-425.37004089473623
20
387.38146301977969
10
-420.75123874121937
20
387.38146301977963
10
-418.44183766446088
20
383.38146301977974
10
-419.88520639412411
20
380.8814750459469
10
-426.23607324183172
20
380.8814750459469
0
LWPOLYLINE
5
399
100
AcDbEntity
8
0
100
AcDbPolyline
90
6
70
1
43
0.0
10
-434.02970165722775
20
384.38146300218114
10
-436.33910273398624
20
388.38146300218119
10
-434.02970165722763
20
392.38146300218114
10
-429.41089950371071
20
392.38146300218102
10
-427.10149842695222
20
388.38146300218114
10
-429.41089950371077
20
384.38146300218114
0
LWPOLYLINE
5
400
100
AcDbEntity
8
0
100
AcDbPolyline
90
7
70
1
43
0.0
10
-455.50730892078809
20
379.38146298458298
10
-460.00987049540817
20
379.38146298458298
10
-462.3192715721666
20
383.38146298458304
10
-460.00987049540805
20
387.38146298458298
10
-455.39106834189107
20
387.38146298458287
10
-453.08166726513264
20
383.38146298458298
10
-455.36933357575543
20
379.41910870382071
42
0.00085130339038321553
0
LWPOLYLINE
5
401
100
AcDbEntity
8
0
100
AcDbPolyline
90
6
70
1
43
0.0
10
-442.68876914436601
20
399.3814629669838
10
-444.99817022112444
20
403.3814629669838
10
-442.68876914436589
20
407.38146296698375
10
-438.06996699084891
20
407.38146296698369
10
-435.76056591409048
20
403.38146296698375
10
-438.06996699084903
20
399.3814629669838
0
LWPOLYLINE
5
402
100
AcDbEntity
8
0
100
AcDbPolyline
90
6
70
1
43
0.0
10
-451.34783663150421
20
414.38146293178647
10
-453.65723770826264
20
418.38146293178653
10
-451.34783663150409
20
422.38146293178647
10
-446.72903447798711
20
422.38146293178636
10
-444.41963340122868
20
418.38146293178647
10
-446.72903447798723
20
414.38146293178647
0
LWPOLYLINE
5
403
100
AcDbEntity
8
0
100
AcDbPolyline
90
6
70
1
43
0.0
10
-442.68698931830659
20
429.38146291418747
10
-444.99639039506508
20
433.38146291418752
10
-442.68698931830642
20
437.38146291418741
10
-438.06818716478949
20
437.38146291418735
10
-435.758786088031
20
433.38146291418747
10
-438.06818716478961
20
429.38146291418747
0
LWPOLYLINE
5
404
100
AcDbEntity
8
0
100
AcDbPolyline
90
6
70
1
43
0.0
10
-434.02673528046205
20
434.38146291418724
10
-436.33613635722048
20
438.3814629141873
10
-434.02673528046193
20
442.38146291418724
10
-429.40793312694495
20
442.38146291418718
10
-427.09853205018652
20
438.38146291418724
10
-429.40793312694507
20
434.38146291418724
0
LWPOLYLINE
5
405
100
AcDbEntity
8
0
100
AcDbPolyline
90
6
70
1
43
0.0
10
-451.34546353009171
20
454.3814628613913
10
-453.65486460685008
20
458.38146286139136
10
-453.36618939097104
20
458.88146300217983
10
-444.70593551569527
20
458.88146300218
10
-444.41726029981618
20
458.3814628613913
10
-446.72666137657473
20
454.3814628613913
0
LWPOLYLINE
5
406
100
AcDbEntity
8
0
100
AcDbPolyline
90
6
70
1
43
0.0
10
-477.32563236827207
20
449.38146284379314
10
-479.63503344503044
20
453.3814628437932
10
-477.3256323682719
20
457.38146284379309
10
-472.70683021475492
20
457.38146284379309
10
-470.39742913799648
20
453.38146284379314
10
-472.70683021475509
20
449.38146284379314
0
LWPOLYLINE
5
407
100
AcDbEntity
8
0
100
AcDbPolyline
90
7
70
1
43
0.0
10
-503.30580120645243
20
444.38146282619499
10
-504.84848449347197
20
447.05346865930028
10
-504.84848449347197
20
449.70945699308965
10
-503.30580120645232
20
452.38146282619493
10
-498.68699905293533
20
452.38146282619493
10
-496.3775979761769
20
448.38146282619499
10
-498.68699905293545
20
444.38146282619499
0
LWPOLYLINE
5
408
100
AcDbEntity
8
0
100
AcDbPolyline
90
6
70
1
43
0.0
10
-485.98707295682289
20
424.38146287899093
10
-488.29647403358132
20
428.38146287899099
10
-485.98707295682277
20
432.38146287899093
10
-481.36827080330579
20
432.38146287899087
10
-479.05886972654736
20
428.38146287899093
10
-481.3682708033059
20
424.38146287899093
0
LWPOLYLINE
5
409
100
AcDbEntity
8
0
100
AcDbPolyline
90
6
70
1
43
0.0
10
-485.98588640611661
20
444.38146284379343
10
-488.29528748287498
20
448.38146284379349
10
-485.98588640611644
20
452.38146284379343
10
-481.36708425259945
20
452.38146284379326
10
-479.05768317584102
20
448.38146284379343
10
-481.36708425259962
20
444.38146284379343
0
LWPOLYLINE
5
410
100
AcDbEntity
8
0
100
AcDbPolyline
90
6
70
1
43
0.0
10
-468.66656488113387
20
434.38146287899053
10
-470.9759659578923
20
438.38146287899059
10
-468.6665648811337
20
442.38146287899048
10
-464.04776272761671
20
442.38146287899042
10
-461.73836165085834
20
438.38146287899053
10
-464.04776272761688
20
434.38146287899053
0
LWPOLYLINE
5
411
100
AcDbEntity
8
0
100
AcDbPolyline
90
6
70
1
43
0.0
10
-460.00749739399561
20
419.38146291418786
10
-462.31689847075404
20
423.38146291418798
10
-460.00749739399544
20
427.38146291418786
10
-455.38869524047846
20
427.38146291418781
10
-453.07929416372008
20
423.38146291418786
10
-455.38869524047863
20
419.38146291418786
0
LWPOLYLINE
5
412
100
AcDbEntity
8
0
100
AcDbPolyline
90
6
70
1
43
0.0
10
-468.66834470719323
20
404.38146293178693
10
-470.97774578395166
20
408.38146293178693
10
-468.66834470719311
20
412.38146293178687
10
-464.04954255367613
20
412.38146293178681
10
-461.7401414769177
20
408.38146293178687
10
-464.04954255367625
20
404.38146293178693
0
LWPOLYLINE
5
413
100
AcDbEntity
8
0
100
AcDbPolyline
90
7
70
1
43
0.0
10
-503.30758103251185
20
414.38146287899139
10
-504.84848449347157
20
417.0503859629323
10
-504.84848449347157
20
419.71253979505025
10
-503.30758103251173
20
422.38146287899133
10
-498.68877887899481
20
422.38146287899127
10
-496.37937780223632
20
418.38146287899133
10
-498.68877887899487
20
414.38146287899139
0
LWPOLYLINE
5
414
100
AcDbEntity
8
0
100
AcDbPolyline
90
6
70
1
43
0.0
10
-504.84848449347101
20
379.71665019766448
10
-503.30995413392429
20
382.38146294938645
10
-498.69115198040731
20
382.38146294938645
10
-496.38175090364888
20
378.38146294938645
10
-496.63947562507201
20
377.93507063751508
10
-504.84848449347101
20
377.93507063751508
0
LWPOLYLINE
5
415
100
AcDbEntity
8
0
100
AcDbPolyline
90
6
70
1
43
0.0
10
-470.97952561001108
20
378.38146298458327
10
-468.67012453325259
20
382.38146298458321
10
-464.05132237973555
20
382.3814629845831
10
-461.74192130297718
20
378.38146298458321
10
-461.99964604472115
20
377.93507063751508
10
-470.72180086826705
20
377.93507063751508
0
LWPOLYLINE
5
416
100
AcDbEntity
8
0
100
AcDbPolyline
90
6
70
1
43
0.0
10
-477.32919202039091
20
389.38146294938588
10
-479.63859309714934
20
393.38146294938599
10
-477.32919202039079
20
397.38146294938588
10
-472.71038986687381
20
397.38146294938576
10
-470.40098879011538
20
393.38146294938588
10
-472.71038986687392
20
389.38146294938588
0
LWPOLYLINE
5
417
100
AcDbEntity
8
0
100
AcDbPolyline
90
6
70
1
43
0.0
10
-494.64851354537365
20
399.38146291418877
10
-496.95791462213208
20
403.38146291418877
10
-494.64851354537353
20
407.38146291418872
10
-490.02971139185655
20
407.38146291418866
10
-487.72031031509812
20
403.38146291418872
10
-490.02971139185667
20
399.38146291418877
0
LWPOLYLINE
5
418
100
AcDbEntity
8
0
100
AcDbPolyline
90
6
70
1
43
0.0
10
-485.98825950752916
20
404.38146291418855
10
-488.2976605842876
20
408.3814629141886
10
-485.98825950752905
20
412.38146291418849
10
-481.36945735401207
20
412.38146291418843
10
-479.06005627725364
20
408.38146291418855
10
-481.36945735401218
20
404.38146291418855
0
LWPOLYLINE
5
419
100
AcDbEntity
8
0
100
AcDbPolyline
90
6
70
1
43
0.0
10
-494.64910682072679
20
389.38146293178755
10
-496.95850789748522
20
393.38146293178761
10
-494.64910682072662
20
397.3814629317875
10
-490.03030466720963
20
397.38146293178744
10
-487.72090359045126
20
393.3814629317875
10
-490.0303046672098
20
389.38146293178755
0
LWPOLYLINE
5
420
100
AcDbEntity
8
0
100
AcDbPolyline
90
6
70
1
43
0.0
10
-460.00927722005508
20
389.3814629669842
10
-462.31867829681346
20
393.38146296698426
10
-460.00927722005491
20
397.38146296698415
10
-455.39047506653793
20
397.38146296698409
10
-453.0810739897795
20
393.3814629669842
10
-455.3904750665381
20
389.3814629669842
0
LWPOLYLINE
5
421
100
AcDbEntity
8
0
100
AcDbPolyline
90
6
70
1
43
0.0
10
-488.29944041034702
20
378.38146296698488
10
-485.99003933358847
20
382.38146296698483
10
-481.37123718007149
20
382.38146296698471
10
-479.06183610331306
20
378.38146296698483
10
-479.31956083489661
20
377.93507063751508
10
-488.04171567876335
20
377.93507063751508
0
LWPOLYLINE
5
422
100
AcDbEntity
8
0
100
AcDbPolyline
90
7
70
1
43
0.0
10
-503.30876758321824
20
394.38146291418894
10
-504.84848449347123
20
397.04833083202055
10
-504.84848449347123
20
399.71459499635756
10
-503.30876758321807
20
402.38146291418894
10
-498.68996542970103
20
402.38146291418889
10
-496.38056435294266
20
398.38146291418894
10
-498.68996542970126
20
394.38146291418894
0
LWPOLYLINE
5
423
100
AcDbEntity
8
0
100
AcDbPolyline
90
6
70
1
43
0.0
10
-485.98766623217603
20
414.38146289658971
10
-488.2970673089344
20
418.38146289658982
10
-485.98766623217585
20
422.38146289658971
10
-481.36886407865887
20
422.38146289658965
10
-479.05946300190044
20
418.38146289658971
10
-481.36886407865904
20
414.38146289658971
0
LWPOLYLINE
5
424
100
AcDbEntity
8
0
100
AcDbPolyline
90
6
70
1
43
0.0
10
-460.0080906693488
20
409.3814629317867
10
-462.31749174610718
20
413.38146293178676
10
-460.00809066934863
20
417.38146293178664
10
-455.38928851583165
20
417.38146293178659
10
-453.07988743907322
20
413.3814629317867
10
-455.38928851583182
20
409.3814629317867
0
LWPOLYLINE
5
425
100
AcDbEntity
8
0
100
AcDbPolyline
90
6
70
1
43
0.0
10
-468.66715815648695
20
424.38146289658931
10
-470.97655923324538
20
428.38146289658937
10
-468.66715815648683
20
432.38146289658926
10
-464.04835600296985
20
432.3814628965892
10
-461.73895492621142
20
428.38146289658931
10
-464.04835600296997
20
424.38146289658931
0
LWPOLYLINE
5
426
100
AcDbEntity
8
0
100
AcDbPolyline
90
6
70
1
43
0.0
10
-468.66597160578067
20
444.3814628613917
10
-470.9753726825391
20
448.38146286139181
10
-468.66597160578056
20
452.3814628613917
10
-464.04716945226357
20
452.38146286139164
10
-461.73776837550514
20
448.3814628613917
10
-464.04716945226369
20
444.3814628613917
0
LWPOLYLINE
5
427
100
AcDbEntity
8
0
100
AcDbPolyline
90
6
70
1
43
0.0
10
-494.64614044396109
20
439.38146284379354
10
-496.95554152071952
20
443.38146284379366
10
-494.64614044396092
20
447.38146284379354
10
-490.02733829044394
20
447.38146284379354
10
-487.71793721368556
20
443.38146284379354
10
-490.02733829044411
20
439.38146284379354
0
LWPOLYLINE
5
428
100
AcDbEntity
8
0
100
AcDbPolyline
90
6
70
1
43
0.0
10
-494.64732699466737
20
419.38146287899116
10
-496.9567280714258
20
423.38146287899121
10
-494.6473269946672
20
427.3814628789911
10
-490.02852484115022
20
427.38146287899104
10
-487.71912376439184
20
423.38146287899116
10
-490.02852484115039
20
419.38146287899116
0
LWPOLYLINE
5
429
100
AcDbEntity
8
0
100
AcDbPolyline
90
6
70
1
43
0.0
10
-494.64554716860789
20
449.38146282619482
10
-496.95494824536638
20
453.38146282619493
10
-494.64554716860778
20
457.38146282619482
10
-490.02674501509085
20
457.38146282619471
10
-487.71734393833236
20
453.38146282619482
10
-490.02674501509091
20
449.38146282619482
0
LWPOLYLINE
5
430
100
AcDbEntity
8
0
100
AcDbPolyline
90
6
70
1
43
0.0
10
-460.00571756793619
20
449.38146286139153
10
-462.31511864469462
20
453.38146286139158
10
-460.00571756793602
20
457.38146286139147
10
-455.38691541441904
20
457.38146286139141
10
-453.07751433766066
20
453.38146286139147
10
-455.38691541441921
20
449.38146286139153
0
LWPOLYLINE
5
431
100
AcDbEntity
8
0
100
AcDbPolyline
90
6
70
1
43
0.0
10
-434.02554872975577
20
454.38146287898968
10
-436.3349498065142
20
458.38146287898974
10
-436.04627460079541
20
458.88146300218006
10
-427.38602070519914
20
458.88146300218017
10
-427.09734549948024
20
458.38146287898962
10
-429.40674657623879
20
454.38146287898968
0
LWPOLYLINE
5
432
100
AcDbEntity
8
0
100
AcDbPolyline
90
6
70
1
43
0.0
10
-451.34665008079793
20
434.38146289658891
10
-453.65605115755636
20
438.38146289658891
10
-451.34665008079776
20
442.38146289658886
10
-446.72784792728078
20
442.3814628965888
10
-444.4184468505224
20
438.38146289658886
10
-446.72784792728095
20
434.38146289658891
0
LWPOLYLINE
5
433
100
AcDbEntity
8
0
100
AcDbPolyline
90
6
70
1
43
0.0
10
-434.02792183116838
20
414.38146294938474
10
-436.33732290792682
20
418.38146294938485
10
-434.02792183116821
20
422.38146294938474
10
-429.40911967765123
20
422.38146294938474
10
-427.09971860089286
20
418.38146294938474
10
-429.4091196776514
20
414.38146294938474
0
LWPOLYLINE
5
434
100
AcDbEntity
8
0
100
AcDbPolyline
90
6
70
1
43
0.0
10
-442.68817586901292
20
409.38146294938508
10
-444.99757694577124
20
413.38146294938508
10
-442.68817586901275
20
417.38146294938502
10
-438.06937371549571
20
417.38146294938485
10
-435.75997263873739
20
413.38146294938502
10
-438.06937371549594
20
409.38146294938508
0
LWPOLYLINE
5
435
100
AcDbEntity
8
0
100
AcDbPolyline
90
4
70
1
43
0.0
10
-434.89631339305453
20
380.8814750459469
10
-434.03029493258083
20
382.38146301977991
10
-429.41149277906385
20
382.38146301977986
10
-428.54547431859021
20
380.8814750459469
0
LWPOLYLINE
5
436
100
AcDbEntity
8
0
100
AcDbPolyline
90
6
70
1
43
0.0
10
-444.99935677183078
20
383.38146300218142
10
-442.68995569507217
20
387.38146300218136
10
-438.07115354155519
20
387.38146300218125
10
-435.76175246479681
20
383.38146300218136
10
-437.20512118429963
20
380.8814750459469
10
-443.55598805232796
20
380.8814750459469
0
LWPOLYLINE
5
437
100
AcDbEntity
8
0
100
AcDbPolyline
90
6
70
1
43
0.0
10
-425.36944761938332
20
389.38146300218091
10
-427.6788486961417
20
393.38146300218102
10
-425.36944761938315
20
397.38146300218091
10
-420.75064546586617
20
397.38146300218085
10
-418.44124438910774
20
393.38146300218091
10
-420.75064546586634
20
389.38146300218091
0
LWPOLYLINE
5
438
100
AcDbEntity
8
0
100
AcDbPolyline
90
6
70
1
43
0.0
10
-416.70919358153878
20
394.38146300218074
10
-419.01859465829722
20
398.38146300218079
10
-416.70919358153867
20
402.38146300218068
10
-412.09039142802169
20
402.38146300218062
10
-409.78099035126326
20
398.38146300218068
10
-412.0903914280218
20
394.38146300218074
0
LWPOLYLINE
5
439
100
AcDbEntity
8
0
100
AcDbPolyline
90
6
70
1
43
0.0
10
-416.70860030618564
20
404.38146298458196
10
-419.01800138294402
20
408.38146298458196
10
-416.70860030618547
20
412.3814629845819
10
-412.08979815266849
20
412.38146298458184
10
-409.78039707591006
20
408.3814629845819
10
-412.08979815266866
20
404.38146298458196
0
LWPOLYLINE
5
440
100
AcDbEntity
8
0
100
AcDbPolyline
90
6
70
1
43
0.0
10
-416.70682048012623
20
434.38146293178562
10
-419.01622155688466
20
438.38146293178568
10
-416.70682048012611
20
442.38146293178556
10
-412.08801832660913
20
442.38146293178551
10
-409.7786172498507
20
438.38146293178562
10
-412.08801832660924
20
434.38146293178562
0
LWPOLYLINE
5
441
100
AcDbEntity
8
0
100
AcDbPolyline
90
6
70
1
43
0.0
10
-416.70622720477303
20
444.38146291418684
10
-419.01562828153146
20
448.3814629141869
10
-416.70622720477292
20
452.38146291418678
10
-412.08742505125593
20
452.38146291418673
10
-409.7780239744975
20
448.38146291418684
10
-412.08742505125605
20
444.38146291418684
0
LWPOLYLINE
5
442
100
AcDbEntity
8
0
100
AcDbPolyline
90
6
70
1
43
0.0
10
-408.04834626834116
20
409.38146298458173
10
-410.3577473450996
20
413.38146298458179
10
-408.04834626834099
20
417.38146298458167
10
-403.42954411482401
20
417.38146298458162
10
-401.12014303806563
20
413.38146298458173
10
-403.42954411482418
20
409.38146298458173
0
LWPOLYLINE
5
443
100
AcDbEntity
8
0
100
AcDbPolyline
90
6
70
1
43
0.0
10
-399.38868550584976
20
404.38146300218028
10
-401.6980865826082
20
408.38146300218034
10
-399.38868550584965
20
412.38146300218028
10
-394.76988335233267
20
412.38146300218023
10
-392.46048227557424
20
408.38146300218028
10
-394.76988335233278
20
404.38146300218028
0
LWPOLYLINE
5
444
100
AcDbEntity
8
0
100
AcDbPolyline
90
6
70
1
43
0.0
10
-399.38749895514349
20
424.38146296698272
10
-401.69690003190192
20
428.38146296698278
10
-399.38749895514331
20
432.38146296698267
10
-394.76869680162633
20
432.38146296698261
10
-392.45929572486796
20
428.38146296698267
10
-394.7686968016265
20
424.38146296698272
0
LWPOLYLINE
5
445
100
AcDbEntity
8
0
100
AcDbPolyline
90
6
70
1
43
0.0
10
-382.06699087945447
20
434.38146296698227
10
-384.37639195621284
20
438.38146296698233
10
-382.06699087945429
20
442.38146296698227
10
-377.44818872593731
20
442.38146296698221
10
-375.13878764917888
20
438.38146296698227
10
-377.44818872593748
20
434.38146296698227
0
LWPOLYLINE
5
446
100
AcDbEntity
8
0
100
AcDbPolyline
90
6
70
1
43
0.0
10
-399.38690567979029
20
434.38146294938394
10
-401.69630675654872
20
438.38146294938394
10
-399.38690567979017
20
442.38146294938389
10
-394.76810352627319
20
442.38146294938389
10
-392.45870244951476
20
438.38146294938389
10
-394.76810352627331
20
434.38146294938394
0
LWPOLYLINE
5
447
100
AcDbEntity
8
0
100
AcDbPolyline
90
6
70
1
43
0.0
10
-390.72605836659272
20
449.38146293178499
10
-393.0354594433511
20
453.38146293178505
10
-390.72605836659255
20
457.38146293178494
10
-386.10725621307557
20
457.38146293178488
10
-383.79785513631714
20
453.38146293178499
10
-386.10725621307574
20
449.38146293178499
0
LWPOLYLINE
5
448
100
AcDbEntity
8
0
100
AcDbPolyline
90
6
70
1
43
0.0
10
-364.74588952841231
20
454.38146294938304
10
-367.05529060517074
20
458.38146294938315
10
-366.76661544009301
20
458.88146300218102
10
-358.10636146321457
20
458.88146300218119
10
-357.81768629813678
20
458.38146294938304
10
-360.12708737489532
20
454.38146294938304
0
LWPOLYLINE
5
449
100
AcDbEntity
8
0
100
AcDbPolyline
90
6
70
1
43
0.0
10
-347.42656800342957
20
444.38146298458025
10
-349.735969080188
20
448.38146298458025
10
-347.42656800342945
20
452.3814629845802
10
-342.80776584991247
20
452.38146298458014
10
-340.49836477315404
20
448.3814629845802
10
-342.80776584991258
20
444.38146298458025
0
LWPOLYLINE
5
450
100
AcDbEntity
8
0
100
AcDbPolyline
90
6
70
1
43
0.0
10
-382.06877070551388
20
404.38146301977866
10
-384.37817178227226
20
408.38146301977872
10
-382.06877070551371
20
412.38146301977861
10
-377.44996855199673
20
412.38146301977855
10
-375.1405674752383
20
408.38146301977866
10
-377.4499685519969
20
404.38146301977866
0
LWPOLYLINE
5
451
100
AcDbEntity
8
0
100
AcDbPolyline
90
6
70
1
43
0.0
10
-356.08741531662724
20
429.3814630021792
10
-358.39681639338562
20
433.38146300217932
10
-356.08741531662707
20
437.3814630021792
10
-351.46861316311009
20
437.38146300217915
10
-349.15921208635166
20
433.3814630021792
10
-351.46861316311026
20
429.3814630021792
0
LWPOLYLINE
5
452
100
AcDbEntity
8
0
100
AcDbPolyline
90
6
70
1
43
0.0
10
-356.08860186733352
20
409.38146303737682
10
-358.39800294409196
20
413.38146303737688
10
-356.08860186733341
20
417.38146303737676
10
-351.46979971381643
20
417.3814630373767
10
-349.16039863705799
20
413.38146303737682
10
-351.46979971381654
20
409.38146303737682
0
LWPOLYLINE
5
453
100
AcDbEntity
8
0
100
AcDbPolyline
90
6
70
1
43
0.0
10
-347.42894110484212
20
404.38146305497537
10
-349.73834218160056
20
408.38146305497548
10
-347.42894110484201
20
412.38146305497537
10
-342.81013895132503
20
412.38146305497526
10
-340.5007378745666
20
408.38146305497537
10
-342.81013895132514
20
404.38146305497537
0
LWPOLYLINE
5
454
100
AcDbEntity
8
0
100
AcDbPolyline
90
6
70
1
43
0.0
10
-356.0897884180398
20
389.38146307257432
10
-358.39918949479824
20
393.38146307257438
10
-356.08978841803969
20
397.38146307257432
10
-351.47098626452271
20
397.38146307257421
10
-349.16158518776427
20
393.38146307257432
10
-351.47098626452282
20
389.38146307257432
0
LWPOLYLINE
5
455
100
AcDbEntity
8
0
100
AcDbPolyline
90
6
70
1
43
0.0
10
-373.40910994302254
20
399.38146303737722
10
-375.71851101978098
20
403.38146303737733
10
-373.40910994302243
20
407.38146303737722
10
-368.79030778950545
20
407.38146303737716
10
-366.48090671274701
20
403.38146303737722
10
-368.79030778950556
20
399.38146303737722
0
LWPOLYLINE
5
456
100
AcDbEntity
8
0
100
AcDbPolyline
90
6
70
1
43
0.0
10
-399.3898720565561
20
384.3814630373779
10
-401.69927313331448
20
388.38146303737796
10
-399.38987205655593
20
392.38146303737784
10
-394.77106990303895
20
392.38146303737778
10
-392.46166882628052
20
388.3814630373779
10
-394.77106990303912
20
384.3814630373779
0
LWPOLYLINE
5
457
100
AcDbEntity
8
0
100
AcDbPolyline
90
4
70
1
43
0.0
10
-382.9365690225282
20
380.8814750459469
10
-382.07055053157319
20
382.38146307257495
10
-377.45174837805621
20
382.38146307257489
10
-376.58572988710137
20
380.8814750459469
0
LWPOLYLINE
5
458
100
AcDbEntity
8
0
100
AcDbPolyline
90
4
70
1
43
0.0
10
-348.2967463956486
20
380.88146300218119
10
-347.43072093090143
20
382.38146310777165
10
-342.81191877738445
20
382.38146310777159
10
-341.94589331263734
20
380.88146300218119
0
LWPOLYLINE
5
459
100
AcDbEntity
8
0
100
AcDbPolyline
90
6
70
1
43
0.0
10
-338.76690724093817
20
439.3814630021788
10
-341.0763083176966
20
443.38146300217886
10
-338.76690724093805
20
447.38146300217875
10
-334.14810508742107
20
447.38146300217869
10
-331.83870401066264
20
443.3814630021788
10
-334.14810508742119
20
439.3814630021788
0
LWPOLYLINE
5
460
100
AcDbEntity
8
0
100
AcDbPolyline
90
6
70
1
43
0.0
10
-338.7680937916445
20
419.38146303737642
10
-341.07749486840294
20
423.38146303737642
10
-338.76809379164433
20
427.38146303737636
10
-334.14929163812735
20
427.38146303737631
10
-331.83989056136897
20
423.38146303737636
10
-334.14929163812752
20
419.38146303737642
0
LWPOLYLINE
5
461
100
AcDbEntity
8
0
100
AcDbPolyline
90
6
70
1
43
0.0
10
-338.76928034235078
20
399.38146307257392
10
-341.07868141910922
20
403.38146307257398
10
-338.76928034235061
20
407.38146307257387
10
-334.15047818883363
20
407.38146307257381
10
-331.84107711207525
20
403.38146307257387
10
-334.1504781888338
20
399.38146307257392
0
LWPOLYLINE
5
462
100
AcDbEntity
8
0
100
AcDbPolyline
90
6
70
1
43
0.0
10
-330.11021285521252
20
384.38146310777131
10
-332.41961393197096
20
388.38146310777131
10
-330.11021285521235
20
392.38146310777125
10
-325.49141070169537
20
392.3814631077712
10
-323.182009624937
20
388.38146310777125
10
-325.49141070169554
20
384.38146310777131
0
LWPOLYLINE
5
463
100
AcDbEntity
8
0
100
AcDbPolyline
90
6
70
1
43
0.0
10
-323.75995316947956
20
383.38146312536992
10
-321.45055209272101
20
387.38146312536981
10
-316.83174993920403
20
387.38146312536975
10
-314.52234886244565
20
383.38146312536986
10
-315.96572460654278
20
380.88146300218119
10
-322.3165774253826
20
380.88146300218119
0
LWPOLYLINE
5
464
100
AcDbEntity
8
0
100
AcDbPolyline
90
6
70
1
43
0.0
10
-312.78673840275781
20
444.38146301977696
10
-315.09613947951618
20
448.38146301977702
10
-312.78673840275763
20
452.3814630197769
10
-308.16793624924065
20
452.38146301977685
10
-305.85853517248222
20
448.38146301977696
10
-308.16793624924082
20
444.38146301977696
0
LWPOLYLINE
5
465
100
AcDbEntity
8
0
100
AcDbPolyline
90
6
70
1
43
0.0
10
-295.46682360242193
20
444.38146303737534
10
-297.77622467918036
20
448.3814630373754
10
-295.46682360242181
20
452.38146303737528
10
-290.84802144890483
20
452.38146303737523
10
-288.5386203721464
20
448.38146303737528
10
-290.84802144890494
20
444.38146303737534
0
LWPOLYLINE
5
466
100
AcDbEntity
8
0
100
AcDbPolyline
90
6
70
1
43
0.0
10
-321.44817899130857
20
419.38146305497469
10
-323.75758006806706
20
423.38146305497474
10
-321.4481789913084
20
427.38146305497469
10
-316.82937683779141
20
427.38146305497469
10
-314.51997576103304
20
423.38146305497469
10
-316.82937683779164
20
419.38146305497469
0
LWPOLYLINE
5
467
100
AcDbEntity
8
0
100
AcDbPolyline
90
6
70
1
43
0.0
10
-304.12826419097269
20
419.38146307257307
10
-306.43766526773112
20
423.38146307257313
10
-304.12826419097257
20
427.38146307257301
10
-299.50946203745559
20
427.38146307257296
10
-297.20006096069716
20
423.38146307257307
10
-299.50946203745571
20
419.38146307257307
0
LWPOLYLINE
5
468
100
AcDbEntity
8
0
100
AcDbPolyline
90
6
70
1
43
0.0
10
-286.80775611528372
20
429.38146307257261
10
-289.11715719204216
20
433.38146307257267
10
-286.80775611528355
20
437.38146307257261
10
-282.18895396176657
20
437.3814630725725
10
-279.8795528850082
20
433.38146307257261
10
-282.18895396176674
20
429.38146307257261
0
LWPOLYLINE
5
469
100
AcDbEntity
8
0
100
AcDbPolyline
90
6
70
1
43
0.0
10
-278.14750207743919
20
434.38146307257239
10
-280.45690315419762
20
438.3814630725725
10
-278.14750207743907
20
442.38146307257239
10
-273.52869992392209
20
442.38146307257233
10
-271.21929884716366
20
438.38146307257239
10
-273.5286999239222
20
434.38146307257239
0
LWPOLYLINE
5
470
100
AcDbEntity
8
0
100
AcDbPolyline
90
6
70
1
43
0.0
10
-286.80834939063686
20
419.38146309017145
10
-289.1177504673953
20
423.38146309017145
10
-286.80834939063675
20
427.38146309017139
10
-282.18954723711977
20
427.38146309017134
10
-279.88014616036133
20
423.38146309017139
10
-282.18954723711988
20
419.38146309017145
0
LWPOLYLINE
5
471
100
AcDbEntity
8
0
100
AcDbPolyline
90
6
70
1
43
0.0
10
-304.12945074167902
20
399.38146310777063
10
-306.43885181843746
20
403.38146310777068
10
-304.12945074167885
20
407.38146310777063
10
-299.51064858816187
20
407.38146310777051
10
-297.20124751140349
20
403.38146310777063
10
-299.51064858816204
20
399.38146310777063
0
LWPOLYLINE
5
472
100
AcDbEntity
8
0
100
AcDbPolyline
90
6
70
1
43
0.0
10
-304.13004401703216
20
389.38146312536946
10
-306.4394450937906
20
393.38146312536946
10
-304.13004401703199
20
397.38146312536941
10
-299.51124186351501
20
397.38146312536935
10
-297.20184078675663
20
393.38146312536941
10
-299.51124186351518
20
389.38146312536946
0
LWPOLYLINE
5
473
100
AcDbEntity
8
0
100
AcDbPolyline
90
6
70
1
43
0.0
10
-295.47038325454082
20
384.38146314296802
10
-297.77978433129925
20
388.38146314296807
10
-295.47038325454071
20
392.38146314296796
10
-290.85158110102373
20
392.3814631429679
10
-288.54218002426529
20
388.38146314296802
10
-290.85158110102384
20
384.38146314296802
0
LWPOLYLINE
5
474
100
AcDbEntity
8
0
100
AcDbPolyline
90
6
70
1
43
0.0
10
-278.14868862814546
20
414.38146310777
10
-280.4580897049039
20
418.38146310777006
10
-278.14868862814535
20
422.38146310776995
10
-273.52988647462837
20
422.38146310776989
10
-271.22048539786994
20
418.38146310777
10
-273.52988647462848
20
414.38146310777
0
LWPOLYLINE
5
475
100
AcDbEntity
8
0
100
AcDbPolyline
90
6
70
1
43
0.0
10
-278.15046845420488
20
384.38146316056634
10
-280.45986953096332
20
388.38146316056634
10
-278.15046845420477
20
392.38146316056628
10
-273.53166630068779
20
392.38146316056628
10
-271.22226522392936
20
388.38146316056628
10
-273.5316663006879
20
384.38146316056634
0
LWPOLYLINE
5
476
100
AcDbEntity
8
0
100
AcDbPolyline
90
6
70
1
43
0.0
10
-269.48843459030098
20
419.38146310776978
10
-271.79783566705942
20
423.38146310776983
10
-269.48843459030081
20
427.38146310776978
10
-264.86963243678383
20
427.38146310776972
10
-262.56023136002545
20
423.38146310776978
10
-264.869632436784
20
419.38146310776978
0
LWPOLYLINE
5
477
100
AcDbEntity
8
0
100
AcDbPolyline
90
6
70
1
43
0.0
10
-280.46046280631651
20
378.38146317816523
10
-278.15106172955791
20
382.38146317816518
10
-273.53225957604093
20
382.38146317816501
10
-271.22285849928255
20
378.38146317816518
10
-271.51153373548203
20
377.88146300218068
10
-280.17178757011698
20
377.88146300218074
0
LWPOLYLINE
5
478
100
AcDbEntity
8
0
100
AcDbPolyline
90
7
70
1
43
0.0
10
-260.82818055245644
20
424.3814631077696
10
-263.13758162921488
20
428.3814631077696
10
-260.82818055245633
20
432.38146310776955
10
-256.20937839893935
20
432.38146310776949
10
-254.66906821333257
20
429.71356760688263
10
-254.66906821333259
20
427.04935860865646
10
-256.20937839893946
20
424.3814631077696
0
LWPOLYLINE
5
479
100
AcDbEntity
8
0
100
AcDbPolyline
90
7
70
1
43
0.0
10
-260.83055365386906
20
384.38146317816472
10
-263.13995473062744
20
388.38146317816484
10
-260.83055365386889
20
392.38146317816472
10
-256.21175150035191
20
392.38146317816461
10
-254.66906821333308
20
389.70945734506051
10
-254.66906821333311
20
387.05346901126887
10
-256.21175150035208
20
384.38146317816472
0
LWPOLYLINE
5
480
100
AcDbEntity
8
0
100
AcDbPolyline
90
7
70
1
43
0.0
10
-260.82996037851592
20
394.38146316056589
10
-263.1393614552743
20
398.38146316056594
10
-260.82996037851575
20
402.38146316056589
10
-256.21115822499877
20
402.38146316056589
10
-254.66906821333293
20
399.71048491051613
10
-254.66906821333296
20
397.0524414106157
10
-256.21115822499894
20
394.38146316056589
0
LWPOLYLINE
5
481
100
AcDbEntity
8
0
100
AcDbPolyline
90
7
70
1
43
0.0
10
-260.82758727710331
20
434.38146309017077
10
-263.13698835386174
20
438.38146309017083
10
-260.82758727710319
20
442.38146309017077
10
-256.20878512358621
20
442.38146309017066
10
-254.66906821333242
20
439.71459517233819
10
-254.66906821333248
20
437.04833100800334
10
-256.20878512358632
20
434.38146309017077
0
LWPOLYLINE
5
482
100
AcDbEntity
8
0
100
AcDbPolyline
90
6
70
1
43
0.0
10
-269.4902144163604
20
389.38146316056617
10
-271.79961549311884
20
393.38146316056623
10
-269.49021441636029
20
397.38146316056611
10
-264.87141226284331
20
397.381463160566
10
-262.56201118608487
20
393.38146316056617
10
-264.87141226284342
20
389.38146316056617
0
LWPOLYLINE
5
483
100
AcDbEntity
8
0
100
AcDbPolyline
90
6
70
1
43
0.0
10
-269.48784131494784
20
429.381463090171
10
-271.79724239170628
20
433.38146309017105
10
-269.48784131494767
20
437.381463090171
10
-264.86903916143069
20
437.38146309017088
10
-262.55963808467232
20
433.381463090171
10
-264.86903916143086
20
429.381463090171
0
LWPOLYLINE
5
484
100
AcDbEntity
8
0
100
AcDbPolyline
90
6
70
1
43
0.0
10
-286.81012921669628
20
389.38146314296779
10
-289.11953029345466
20
393.38146314296785
10
-286.81012921669611
20
397.38146314296779
10
-282.19132706317913
20
397.38146314296773
10
-279.8819259864207
20
393.38146314296779
10
-282.1913270631793
20
389.38146314296779
0
LWPOLYLINE
5
485
100
AcDbEntity
8
0
100
AcDbPolyline
90
6
70
1
43
0.0
10
-286.80894266599
20
409.38146310777023
10
-289.11834374274838
20
413.38146310777029
10
-286.80894266598983
20
417.38146310777017
10
-282.19014051247285
20
417.38146310777012
10
-279.88073943571442
20
413.38146310777017
10
-282.19014051247302
20
409.38146310777023
0
LWPOLYLINE
5
486
100
AcDbEntity
8
0
100
AcDbPolyline
90
6
70
1
43
0.0
10
-286.81072249204942
20
379.38146316056657
10
-289.12012356880786
20
383.38146316056668
10
-286.81072249204931
20
387.38146316056657
10
-282.19192033853233
20
387.38146316056645
10
-279.88251926177389
20
383.38146316056657
10
-282.19192033853244
20
379.38146316056657
0
LWPOLYLINE
5
487
100
AcDbEntity
8
0
100
AcDbPolyline
90
6
70
1
43
0.0
10
-312.79029805487664
20
384.38146312536963
10
-315.09969913163508
20
388.38146312536969
10
-312.79029805487653
20
392.38146312536963
10
-308.17149590135955
20
392.38146312536958
10
-305.86209482460112
20
388.38146312536963
10
-308.17149590135966
20
384.38146312536963
0
LWPOLYLINE
5
488
100
AcDbEntity
8
0
100
AcDbPolyline
90
6
70
1
43
0.0
10
-312.78911150417036
20
404.38146309017208
10
-315.0985125809288
20
408.38146309017213
10
-312.78911150417025
20
412.38146309017202
10
-308.17030935065327
20
412.38146309017196
10
-305.86090827389484
20
408.38146309017202
10
-308.17030935065338
20
404.38146309017208
0
LWPOLYLINE
5
489
100
AcDbEntity
8
0
100
AcDbPolyline
90
6
70
1
43
0.0
10
-278.14809535279232
20
424.38146309017122
10
-280.4574964295507
20
428.38146309017128
10
-278.14809535279215
20
432.38146309017117
10
-273.52929319927517
20
432.38146309017111
10
-271.21989212251674
20
428.38146309017122
10
-273.52929319927534
20
424.38146309017122
0
LWPOLYLINE
5
490
100
AcDbEntity
8
0
100
AcDbPolyline
90
6
70
1
43
0.0
10
-278.14690880208605
20
444.38146305497366
10
-280.45630987884448
20
448.38146305497378
10
-278.14690880208593
20
452.38146305497366
10
-273.52810664856895
20
452.38146305497355
10
-271.21870557181052
20
448.38146305497366
10
-273.52810664856906
20
444.38146305497366
0
LWPOLYLINE
5
491
100
AcDbEntity
8
0
100
AcDbPolyline
90
6
70
1
43
0.0
10
-295.46801015312826
20
424.38146307257284
10
-297.77741122988664
20
428.3814630725729
10
-295.46801015312809
20
432.38146307257284
10
-290.84920799961111
20
432.38146307257273
10
-288.53980692285268
20
428.38146307257284
10
-290.84920799961128
20
424.38146307257284
0
LWPOLYLINE
5
492
100
AcDbEntity
8
0
100
AcDbPolyline
90
6
70
1
43
0.0
10
-312.78792495346408
20
424.38146305497457
10
-315.09732603022252
20
428.38146305497457
10
-312.78792495346397
20
432.38146305497452
10
-308.16912279994699
20
432.38146305497435
10
-305.85972172318856
20
428.38146305497452
10
-308.1691227999471
20
424.38146305497457
0
LWPOLYLINE
5
493
100
AcDbEntity
8
0
100
AcDbPolyline
90
6
70
1
43
0.0
10
-321.44758571595548
20
429.38146303737597
10
-323.75698679271386
20
433.38146303737602
10
-321.44758571595531
20
437.38146303737597
10
-316.82878356243828
20
437.38146303737585
10
-314.5193824856799
20
433.38146303737597
10
-316.8287835624385
20
429.38146303737597
0
LWPOLYLINE
5
494
100
AcDbEntity
8
0
100
AcDbPolyline
90
6
70
1
43
0.0
10
-295.46623032706879
20
454.38146301977656
10
-297.77563140382722
20
458.38146301977656
10
-297.4869562793906
20
458.88146300218204
10
-288.82670222122994
20
458.8814630021821
10
-288.53802709679326
20
458.3814630197765
10
-290.8474281735518
20
454.38146301977656
0
LWPOLYLINE
5
495
100
AcDbEntity
8
0
100
AcDbPolyline
90
6
70
1
43
0.0
10
-321.44699244060234
20
439.38146301977719
10
-323.75639351736078
20
443.38146301977724
10
-321.44699244060223
20
447.38146301977713
10
-316.82819028708514
20
447.38146301977707
10
-314.51878921032676
20
443.38146301977713
10
-316.82819028708531
20
439.38146301977719
0
LWPOLYLINE
5
496
100
AcDbEntity
8
0
100
AcDbPolyline
90
6
70
1
43
0.0
10
-321.44995881736804
20
389.38146310777108
10
-323.75935989412648
20
393.38146310777114
10
-321.44995881736793
20
397.38146310777103
10
-316.83115666385089
20
397.38146310777097
10
-314.52175558709251
20
393.38146310777108
10
-316.83115666385106
20
389.38146310777108
0
LWPOLYLINE
5
497
100
AcDbEntity
8
0
100
AcDbPolyline
90
6
70
1
43
0.0
10
-341.0798679698155
20
383.38146310777154
10
-338.77046689305695
20
387.38146310777148
10
-334.15166473953997
20
387.38146310777142
10
-331.84226366278153
20
383.38146310777148
10
-333.28563939671824
20
380.88146300218119
10
-339.63649223587885
20
380.88146300218119
0
LWPOLYLINE
5
498
100
AcDbEntity
8
0
100
AcDbPolyline
90
6
70
1
43
0.0
10
-330.10902630450624
20
404.38146307257369
10
-332.41842738126468
20
408.38146307257375
10
-330.10902630450607
20
412.38146307257364
10
-325.49022415098909
20
412.38146307257358
10
-323.18082307423072
20
408.38146307257369
10
-325.49022415098926
20
404.38146307257369
0
LWPOLYLINE
5
499
100
AcDbEntity
8
0
100
AcDbPolyline
90
6
70
1
43
0.0
10
-330.10783975379991
20
424.38146303737619
10
-332.4172408305584
20
428.38146303737625
10
-330.10783975379979
20
432.38146303737614
10
-325.48903760028287
20
432.38146303737608
10
-323.17963652352438
20
428.38146303737619
10
-325.48903760028293
20
424.38146303737619
0
LWPOLYLINE
5
500
100
AcDbEntity
8
0
100
AcDbPolyline
90
6
70
1
43
0.0
10
-330.10665320309374
20
444.38146300217858
10
-332.41605427985206
20
448.38146300217863
10
-330.10665320309357
20
452.38146300217858
10
-325.48785104957653
20
452.38146300217852
10
-323.17844997281816
20
448.38146300217858
10
-325.48785104957676
20
444.38146300217858
0
LWPOLYLINE
5
501
100
AcDbEntity
8
0
100
AcDbPolyline
90
6
70
1
43
0.0
10
-358.39978277015132
20
383.38146309017316
10
-356.09038169339277
20
387.3814630901731
10
-351.47157953987579
20
387.38146309017304
10
-349.16217846311736
20
383.3814630901731
10
-350.60555418689364
20
380.88146300218119
10
-356.9564070463752
20
380.88146300218119
0
LWPOLYLINE
5
502
100
AcDbEntity
8
0
100
AcDbPolyline
90
6
70
1
43
0.0
10
-393.03961237082314
20
383.38146305497645
10
-390.73021129406459
20
387.38146305497639
10
-386.11140914054761
20
387.38146305497639
10
-383.80200806378917
20
383.38146305497639
10
-385.24537681377325
20
380.8814750459469
10
-391.59624362083912
20
380.8814750459469
0
LWPOLYLINE
5
503
100
AcDbEntity
8
0
100
AcDbPolyline
90
6
70
1
43
0.0
10
-390.72961801871151
20
389.38146303737767
10
-393.03901909546994
20
393.38146303737773
10
-390.72961801871139
20
397.38146303737767
10
-386.11081586519441
20
397.38146303737756
10
-383.80141478843598
20
393.38146303737767
10
-386.11081586519452
20
389.38146303737767
0
LWPOLYLINE
5
504
100
AcDbEntity
8
0
100
AcDbPolyline
90
6
70
1
43
0.0
10
-373.40970321837568
20
389.38146305497594
10
-375.71910429513412
20
393.38146305497605
10
-373.40970321837551
20
397.38146305497594
10
-368.79090106485853
20
397.38146305497594
10
-366.48149998810015
20
393.38146305497594
10
-368.7909010648587
20
389.38146305497594
0
LWPOLYLINE
5
505
100
AcDbEntity
8
0
100
AcDbPolyline
90
6
70
1
43
0.0
10
-347.43012765554846
20
384.38146309017293
10
-349.73952873230689
20
388.38146309017299
10
-347.43012765554829
20
392.38146309017287
10
-342.81132550203131
20
392.38146309017282
10
-340.50192442527293
20
388.38146309017293
10
-342.81132550203148
20
384.38146309017293
0
LWPOLYLINE
5
506
100
AcDbEntity
8
0
100
AcDbPolyline
90
6
70
1
43
0.0
10
-364.748855905178
20
404.38146303737705
10
-367.05825698193644
20
408.3814630373771
10
-364.74885590517783
20
412.38146303737699
10
-360.13005375166085
20
412.38146303737693
10
-357.82065267490248
20
408.38146303737699
10
-360.13005375166102
20
404.38146303737705
0
LWPOLYLINE
5
507
100
AcDbEntity
8
0
100
AcDbPolyline
90
6
70
1
43
0.0
10
-347.42834782948898
20
414.38146303737659
10
-349.73774890624736
20
418.38146303737665
10
-347.42834782948881
20
422.38146303737659
10
-342.80954567597183
20
422.38146303737653
10
-340.5001445992134
20
418.38146303737659
10
-342.809545675972
20
414.38146303737659
0
LWPOLYLINE
5
508
100
AcDbEntity
8
0
100
AcDbPolyline
90
6
70
1
43
0.0
10
-364.74766935447173
20
424.38146300217943
10
-367.05707043123016
20
428.38146300217949
10
-364.74766935447155
20
432.38146300217943
10
-360.12886720095457
20
432.38146300217932
10
-357.8194661241962
20
428.38146300217943
10
-360.12886720095474
20
424.38146300217943
0
LWPOLYLINE
5
509
100
AcDbEntity
8
0
100
AcDbPolyline
90
6
70
1
43
0.0
10
-390.72902474335842
20
399.38146301977889
10
-393.0384258201168
20
403.38146301977895
10
-390.72902474335825
20
407.38146301977883
10
-386.11022258984127
20
407.38146301977878
10
-383.80082151308284
20
403.38146301977883
10
-386.11022258984144
20
399.38146301977889
0
LWPOLYLINE
5
510
100
AcDbEntity
8
0
100
AcDbPolyline
90
6
70
1
43
0.0
10
-347.42716127878271
20
434.38146300217903
10
-349.73656235554108
20
438.38146300217909
10
-347.42716127878253
20
442.38146300217898
10
-342.80835912526555
20
442.38146300217892
10
-340.49895804850712
20
438.38146300217898
10
-342.80835912526572
20
434.38146300217903
0
LWPOLYLINE
5
511
100
AcDbEntity
8
0
100
AcDbPolyline
90
6
70
1
43
0.0
10
-364.74648280376539
20
444.38146296698187
10
-367.05588388052382
20
448.38146296698193
10
-364.74648280376528
20
452.38146296698181
10
-360.12768065024829
20
452.38146296698176
10
-357.81827957348986
20
448.38146296698187
10
-360.12768065024841
20
444.38146296698187
0
LWPOLYLINE
5
512
100
AcDbEntity
8
0
100
AcDbPolyline
90
6
70
1
43
0.0
10
-399.38571912908401
20
454.38146291418639
10
-401.69512020584244
20
458.38146291418644
10
-401.40644502044427
20
458.88146300218057
10
-392.74619108420677
20
458.88146300218068
10
-392.45751589880848
20
458.38146291418639
10
-394.76691697556703
20
454.38146291418639
0
LWPOLYLINE
5
513
100
AcDbEntity
8
0
100
AcDbPolyline
90
6
70
1
43
0.0
10
-390.72724491729895
20
429.3814629669825
10
-393.03664599405738
20
433.38146296698255
10
-390.72724491729878
20
437.38146296698244
10
-386.1084427637818
20
437.38146296698238
10
-383.79904168702342
20
433.3814629669825
10
-386.10844276378197
20
429.3814629669825
0
LWPOLYLINE
5
514
100
AcDbEntity
8
0
100
AcDbPolyline
90
6
70
1
43
0.0
10
-373.40673684160998
20
439.3814629669821
10
-375.71613791836842
20
443.3814629669821
10
-373.40673684160981
20
447.38146296698204
10
-368.78793468809283
20
447.38146296698199
10
-366.47853361133446
20
443.38146296698204
10
-368.787934688093
20
439.3814629669821
0
LWPOLYLINE
5
515
100
AcDbEntity
8
0
100
AcDbPolyline
90
6
70
1
43
0.0
10
-390.72783819265214
20
419.38146298458128
10
-393.03723926941052
20
423.38146298458133
10
-390.72783819265197
20
427.38146298458128
10
-386.10903603913499
20
427.38146298458116
10
-383.79963496237656
20
423.38146298458128
10
-386.10903603913516
20
419.38146298458128
0
LWPOLYLINE
5
516
100
AcDbEntity
8
0
100
AcDbPolyline
90
6
70
1
43
0.0
10
-399.3892787812029
20
394.38146301977906
10
-401.69867985796134
20
398.38146301977918
10
-399.38927878120273
20
402.38146301977906
10
-394.77047662768575
20
402.38146301977901
10
-392.46107555092738
20
398.38146301977906
10
-394.77047662768592
20
394.38146301977906
0
LWPOLYLINE
5
517
100
AcDbEntity
8
0
100
AcDbPolyline
90
6
70
1
43
0.0
10
-408.04775299298797
20
419.38146296698289
10
-410.3571540697464
20
423.38146296698301
10
-408.04775299298785
20
427.38146296698289
10
-403.42895083947087
20
427.38146296698284
10
-401.11954976271244
20
423.38146296698289
10
-403.42895083947099
20
419.38146296698289
0
LWPOLYLINE
5
518
100
AcDbEntity
8
0
100
AcDbPolyline
90
6
70
1
43
0.0
10
-416.70563392941995
20
454.381462896588
10
-419.01503500617832
20
458.38146289658812
10
-418.72635981061984
20
458.88146300218034
10
-410.06610589470301
20
458.88146300218045
10
-409.77743069914436
20
458.381462896588
10
-412.08683177590297
20
454.381462896588
0
LWPOLYLINE
5
519
100
AcDbEntity
8
0
100
AcDbPolyline
90
6
70
1
43
0.0
10
-416.70741375547937
20
424.38146294938434
10
-419.01681483223774
20
428.3814629493844
10
-416.70741375547919
20
432.38146294938429
10
-412.08861160196221
20
432.38146294938429
10
-409.77921052520378
20
428.38146294938434
10
-412.08861160196238
20
424.38146294938434
0
LWPOLYLINE
5
520
100
AcDbEntity
8
0
100
AcDbPolyline
90
6
70
1
43
0.0
10
-425.36826106867699
20
409.38146296698335
10
-427.67766214543542
20
413.38146296698341
10
-425.36826106867687
20
417.38146296698335
10
-420.74945891515989
20
417.38146296698324
10
-418.44005783840146
20
413.38146296698335
10
-420.74945891516001
20
409.38146296698335
0
LWPOLYLINE
5
521
100
AcDbEntity
8
0
100
AcDbPolyline
90
6
70
1
43
0.0
10
-416.70978685689192
20
384.38146301977952
10
-419.01918793365036
20
388.38146301977957
10
-416.70978685689181
20
392.38146301977952
10
-412.09098470337483
20
392.3814630197794
10
-409.7815836266164
20
388.38146301977952
10
-412.09098470337494
20
384.38146301977952
0
LWPOLYLINE
5
522
100
AcDbEntity
8
0
100
AcDbPolyline
90
6
70
1
43
0.0
10
-434.02910838187466
20
394.38146298458236
10
-436.3385094586331
20
398.38146298458241
10
-434.02910838187449
20
402.3814629845823
10
-429.41030622835751
20
402.38146298458224
10
-427.10090515159914
20
398.38146298458236
10
-429.41030622835768
20
394.38146298458236
0
LWPOLYLINE
5
523
100
AcDbEntity
8
0
100
AcDbPolyline
90
6
70
1
43
0.0
10
-451.34961645756368
20
384.38146298458275
10
-453.65901753432212
20
388.38146298458287
10
-451.34961645756357
20
392.38146298458275
10
-446.73081430404659
20
392.3814629845827
10
-444.42141322728816
20
388.38146298458275
10
-446.7308143040467
20
384.38146298458275
0
LWPOLYLINE
5
524
100
AcDbEntity
8
0
100
AcDbPolyline
90
6
70
1
43
0.0
10
-451.34902318221054
20
394.38146296698397
10
-453.65842425896892
20
398.38146296698403
10
-451.34902318221037
20
402.38146296698397
10
-446.73022102869339
20
402.38146296698392
10
-444.42081995193496
20
398.38146296698397
10
-446.73022102869356
20
394.38146296698397
0
LWPOLYLINE
5
525
100
AcDbEntity
8
0
100
AcDbPolyline
90
6
70
1
43
0.0
10
-451.3484299068574
20
404.3814629493852
10
-453.65783098361584
20
408.38146294938525
10
-451.34842990685729
20
412.3814629493852
10
-446.72962775334031
20
412.3814629493852
10
-444.42022667658188
20
408.3814629493852
10
-446.72962775334042
20
404.3814629493852
0
LWPOLYLINE
5
526
100
AcDbEntity
8
0
100
AcDbPolyline
90
6
70
1
43
0.0
10
-434.02732855581525
20
424.38146293178602
10
-436.33672963257368
20
428.38146293178613
10
-434.02732855581513
20
432.38146293178602
10
-429.40852640229815
20
432.38146293178596
10
-427.09912532553972
20
428.38146293178602
10
-429.40852640229826
20
424.38146293178602
0
LWPOLYLINE
5
527
100
AcDbEntity
8
0
100
AcDbPolyline
90
6
70
1
43
0.0
10
-442.68639604295345
20
439.38146289658869
10
-444.99579711971188
20
443.38146289658874
10
-442.68639604295333
20
447.38146289658863
10
-438.06759388943635
20
447.38146289658857
10
-435.75819281267792
20
443.38146289658869
10
-438.06759388943647
20
439.38146289658869
0
LWPOLYLINE
5
528
100
AcDbEntity
8
0
100
AcDbPolyline
90
6
70
1
43
0.0
10
-442.68580276760031
20
449.38146287898985
10
-444.99520384435874
20
453.38146287898996
10
-442.68580276760019
20
457.38146287898985
10
-438.06700061408321
20
457.38146287898979
10
-435.75759953732478
20
453.38146287898985
10
-438.06700061408333
20
449.38146287898985
0
LWPOLYLINE
5
529
100
AcDbEntity
8
0
100
AcDbPolyline
90
6
70
1
43
0.0
10
-468.66537833042753
20
454.38146284379297
10
-470.97477940718596
20
458.38146284379309
10
-470.68610418114667
20
458.8814630021796
10
-462.02585032619146
20
458.88146300217966
10
-461.737175100152
20
458.38146284379297
10
-464.04657617691055
20
454.38146284379297
0
LWPOLYLINE
5
530
100
AcDbEntity
8
0
100
AcDbPolyline
90
6
70
1
43
0.0
10
-503.30520793109929
20
454.38146280859627
10
-504.84848449347214
20
457.05449622475624
10
-504.84848449347214
20
458.88146300217909
10
-496.66567994718378
20
458.8814630021792
10
-496.3770047008237
20
458.38146280859627
10
-498.68640577758231
20
454.38146280859627
0
LWPOLYLINE
5
531
100
AcDbEntity
8
0
100
AcDbPolyline
90
6
70
1
43
0.0
10
-494.64673371931428
20
429.38146286139238
10
-496.9561347960726
20
433.38146286139244
10
-494.64673371931411
20
437.38146286139232
10
-490.02793156579708
20
437.38146286139227
10
-487.7185304890387
20
433.38146286139238
10
-490.0279315657973
20
429.38146286139238
0
LWPOLYLINE
5
532
100
AcDbEntity
8
0
100
AcDbPolyline
90
7
70
1
43
0.0
10
-503.30639448180563
20
434.38146284379388
10
-504.8484844934718
20
437.05244109384438
10
-504.8484844934718
20
439.71048459374333
10
-503.30639448180546
20
442.38146284379383
10
-498.68759232828842
20
442.38146284379366
10
-496.3781912515301
20
438.38146284379383
10
-498.68759232828864
20
434.38146284379388
0
LWPOLYLINE
5
533
100
AcDbEntity
8
0
100
AcDbPolyline
90
6
70
1
43
0.0
10
-460.00631084328927
20
439.38146287899031
10
-462.3157119200477
20
443.38146287899036
10
-460.00631084328916
20
447.38146287899031
10
-455.38750868977218
20
447.38146287899019
10
-453.07810761301374
20
443.38146287899031
10
-455.38750868977229
20
439.38146287899031
0
LWPOLYLINE
5
534
100
AcDbEntity
8
0
100
AcDbPolyline
90
6
70
1
43
0.0
10
-460.00690411864247
20
429.38146289658908
10
-462.3163051954009
20
433.38146289658914
10
-460.00690411864235
20
437.38146289658908
10
-455.38810196512537
20
437.38146289658903
10
-453.07870088836694
20
433.38146289658908
10
-455.38810196512549
20
429.38146289658908
0
LWPOLYLINE
5
535
100
AcDbEntity
8
0
100
AcDbPolyline
90
6
70
1
43
0.0
10
-460.00868394470189
20
399.38146294938548
10
-462.31808502146032
20
403.38146294938554
10
-460.00868394470172
20
407.38146294938542
10
-455.38988179118473
20
407.38146294938531
10
-453.08048071442636
20
403.38146294938548
10
-455.38988179118491
20
399.38146294938548
0
LWPOLYLINE
5
536
100
AcDbEntity
8
0
100
AcDbPolyline
90
6
70
1
43
0.0
10
-477.32741219433149
20
419.38146289658954
10
-479.63681327108992
20
423.3814628965896
10
-477.32741219433137
20
427.38146289658948
10
-472.70861004081439
20
427.38146289658943
10
-470.39920896405596
20
423.38146289658948
10
-472.70861004081451
20
419.38146289658954
0
LWPOLYLINE
5
537
100
AcDbEntity
8
0
100
AcDbPolyline
90
7
70
1
43
0.0
10
-503.30936085857132
20
384.38146293178772
10
-504.84848449347112
20
387.04730326656437
10
-504.84848449347118
20
389.71562259701096
10
-503.30936085857115
20
392.38146293178772
10
-498.69055870505417
20
392.38146293178767
10
-496.3811576282958
20
388.38146293178772
10
-498.69055870505434
20
384.38146293178772
0
LWPOLYLINE
5
538
100
AcDbEntity
8
0
100
AcDbPolyline
90
6
70
1
43
0.0
10
-477.3297852957441
20
379.3814629669846
10
-479.63918637250242
20
383.38146296698471
10
-477.32978529574393
20
387.3814629669846
10
-472.71098314222689
20
387.38146296698454
10
-470.40158206546857
20
383.3814629669846
10
-472.71098314222712
20
379.3814629669846
0
LWPOLYLINE
5
539
100
AcDbEntity
8
0
100
AcDbPolyline
90
6
70
1
43
0.0
10
-468.66893798254637
20
394.38146294938565
10
-470.97833905930486
20
398.38146294938565
10
-468.66893798254625
20
402.38146294938559
10
-464.05013582902933
20
402.38146294938559
10
-461.74073475227084
20
398.38146294938559
10
-464.05013582902939
20
394.38146294938565
0
LWPOLYLINE
5
540
100
AcDbEntity
8
0
100
AcDbPolyline
90
6
70
1
43
0.0
10
-485.9888527828823
20
394.38146293178733
10
-488.29825385964068
20
398.38146293178738
10
-485.98885278288213
20
402.38146293178727
10
-481.37005062936515
20
402.38146293178721
10
-479.06064955260672
20
398.38146293178733
10
-481.37005062936532
20
394.38146293178733
0
LWPOLYLINE
5
541
100
AcDbEntity
8
0
100
AcDbPolyline
90
6
70
1
43
0.0
10
-477.32859874503777
20
399.3814629317871
10
-479.63799982179626
20
403.38146293178715
10
-477.3285987450376
20
407.3814629317871
10
-472.70979659152067
20
407.38146293178704
10
-470.40039551476218
20
403.3814629317871
10
-472.70979659152079
20
399.3814629317871
0
CIRCLE
5
542
100
AcDbEntity
8
0
100
AcDbCircle
10
-225.04848449347861
20
754.38143619174127
30
0
40
1.7000000000000171
210
9.7200582835426993e-47
220
6.1629758220391547e-33
230
1
0
LWPOLYLINE
5
543
100
AcDbEntity
8
0
100
AcDbPolyline
90
2
70
1
43
0.0
10
-222.56881553984894
20
614.57821771203419
42
1.0587027607716482
10
-226.94873716695415
20
611.43471589263459
42
0.94455217937765446
0
CIRCLE
5
544
100
AcDbEntity
8
0
100
AcDbCircle
10
-224.84848449347734
20
353.1314594523817
30
0
40
2.6999999999999602
210
-7.8886090522101181e-31
220
2.6253108314248133e-61
230
1
0
CIRCLE
5
545
100
AcDbEntity
8
0
100
AcDbCircle
10
-534.64848449346869
20
754.43505852697763
30
0
40
1.7000000000000171
210
-3.092515726252361e-46
220
6.1629758220391547e-33
230
1
0
CIRCLE
5
546
100
AcDbEntity
8
0
100
AcDbCircle
10
-534.84848449346987
20
353.18508178761817
30
-3.5527136788005009e-14
40
2.6999999999999602
210
-7.8886090522101181e-31
220
2.6253345703441777e-61
230
1
0
CIRCLE
5
547
100
AcDbEntity
8
0
100
AcDbCircle
10
-534.84848449347135
20
613.18508178761942
30
0
40
2.6999999999999602
210
-7.8886090522101181e-31
220
2.6253345703441777e-61
230
1
0
ARC
5
548
100
AcDbEntity
8
0
100
AcDbCircle
10
-311.27579684302412
20
339.88146300218068
30
0
40
2.0000000000000071
210
-8.418751212987018e-31
220
-1.5372028103343871e-31
230
1
100
AcDbArc
50
194.47751218592509
51
270
0
LINE
5
549
100
AcDbEntity
8
0
100
AcDbLine
10
-311.27579684302412
20
337.88146300218074
30
-3.074405620668797e-31
11
-216.66906821333367
21
337.88146300218068
31
-3.844215329556852e-48
0
ARC
5
550
100
AcDbEntity
8
0
100
AcDbCircle
10
-216.66906821333367
20
339.88146300218068
30
0
40
2.0000000000000284
210
2.1185229388231862e-31
220
-1.922107664778399e-48
230
1
100
AcDbArc
50
270
51
360
0
LINE
5
551
100
AcDbEntity
8
0
100
AcDbLine
10
-214.66906821333367
20
339.88146300218062
30
-4.2370458776463671e-31
11
-214.66906821333384
21
342.79388301906414
31
-3.5527136788005009e-14
0
ARC
5
552
100
AcDbEntity
8
0
100
AcDbCircle
10
-211.66906821333367
20
342.79388301906408
30
0
40
2.9999999999999876
210
5.7261602769800831e-31
220
3.1062324207446429e-31
230
1
100
AcDbArc
50
141.89032546454141
51
180
0
ARC
5
553
100
AcDbEntity
8
0
100
AcDbCircle
10
-224.84848449347734
20
353.1314594523817
30
0
40
13.75
210
3.9242630164995382e-32
220
1.4153759635445973e-31
230
1
100
AcDbArc
50
-38.10967453545814
51
38.109674535456527
0
ARC
5
554
100
AcDbEntity
8
0
100
AcDbCircle
10
-211.66906821333339
20
363.46903588569893
30
0
40
3.0000000000000071
210
2.6295363507539121e-31
220
-6.1629758220453826e-33
230
1
100
AcDbArc
50
180
51
218.10967453545672
0
LINE
5
555
100
AcDbEntity
8
0
100
AcDbLine
10
-214.66906821333339
20
363.46903588569899
30
7.8886090522617594e-31
11
-214.66906821333023
21
602.79388301906818
31
-3.5527136788005009e-14
0
ARC
5
556
100
AcDbEntity
8
0
100
AcDbCircle
10
-211.66906821333004
20
602.79388301906818
30
0
40
3.000000000000016
210
4.9145425355204473e-31
220
-1.1609164048879302e-30
230
1
100
AcDbArc
50
141.8903254645553
51
180
0
ARC
5
557
100
AcDbEntity
8
0
100
AcDbCircle
10
-224.84848449347592
20
613.13145945238296
30
-1.2042408677791397e-44
40
13.749999999999996
210
-5.2454599662738663e-32
220
3.2311961041835846e-31
230
1
100
AcDbArc
50
-38.109674535446182
51
38.109674535444405
0
ARC
5
558
100
AcDbEntity
8
0
100
AcDbCircle
10
-211.66906821332975
20
623.46903588569739
30
0
40
3.0000000000000071
210
-5.2590727014561924e-31
220
-6.162975822026699e-33
230
1
100
AcDbArc
50
180
51
218.10967453544433
0
LINE
5
559
100
AcDbEntity
8
0
100
AcDbLine
10
-214.66906821332975
20
623.46903588569751
30
-1.5777218104368611e-30
11
-214.66906821332805
21
793.88147415228775
31
0
0
ARC
5
560
100
AcDbEntity
8
0
100
AcDbCircle
10
-216.66906821332736
20
793.88147415228775
30
3.5527136788005009e-14
40
1.9999999999993179
210
1.7763568394008563e-14
220
6.1629758220388981e-33
230
1
100
AcDbArc
50
0
51
90.000000000001634
0
LINE
5
561
100
AcDbEntity
8
0
100
AcDbLine
10
-216.66906821332742
20
795.88147415228775
30
3.5527136788005009e-14
11
-311.08527186239388
21
795.88147415228661
31
3.5527136788005009e-14
0
ARC
5
562
100
AcDbEntity
8
0
100
AcDbCircle
10
-311.08527186239388
20
793.88147415228775
30
0
40
1.9999999999988916
210
7.7037197775388428e-33
220
-1.776356839401235e-14
230
1
100
AcDbArc
50
90
51
164.72798444388113
0
ARC
5
563
100
AcDbEntity
8
0
100
AcDbCircle
10
-314.94401660022845
20
794.93508178714774
30
0
40
2.0000000000000284
210
-7.927127651097812e-31
220
-6.1629758220390825e-32
230
1
100
AcDbArc
50
270
51
344.72798444387206
0
LINE
5
564
100
AcDbEntity
8
0
100
AcDbLine
10
-314.94401660022845
20
792.93508178714774
30
-1.232595164407834e-31
11
-444.55929749808047
21
792.93508621239857
31
1.3949635934210059e-47
0
ARC
5
565
100
AcDbEntity
8
0
100
AcDbCircle
10
-444.55929749808047
20
794.93508178714774
30
0
40
2.0000000000000182
210
6.821285789092988e-31
220
-6.5748732590184275e-32
230
1
100
AcDbArc
50
194.47751217891323
51
270
0
ARC
5
566
100
AcDbEntity
8
0
100
AcDbCircle
10
-448.43228084441034
20
793.93508178762204
30
3.5527136788005009e-14
40
1.9999999999999829
210
1.7199501140341154e-14
220
4.4408920963938769e-15
230
1
100
AcDbArc
50
14.477512178913257
51
90
0
LINE
5
567
100
AcDbEntity
8
0
100
AcDbLine
10
-448.43228084441034
20
795.93508178762204
30
3.5527136788005009e-14
11
-542.8484844934768
21
795.93508178762079
31
3.5527136788004952e-14
0
ARC
5
568
100
AcDbEntity
8
0
100
AcDbCircle
10
-542.8484844934768
20
793.93508178762204
30
3.5527136788005009e-14
40
1.9999999999987494
210
-9.9686133921456108e-31
220
2.7610131682752677e-29
230
1
100
AcDbArc
50
90
51
180
0
LINE
5
569
100
AcDbEntity
8
0
100
AcDbLine
10
-544.84848449347692
20
793.93508178762204
30
3.5527136788005003e-14
11
-544.84848449347624
21
623.74739687475449
31
3.944304526105059e-30
0
ARC
5
570
100
AcDbEntity
8
0
100
AcDbCircle
10
-547.84848449347442
20
623.74739687475449
30
0
40
3.0000000000000284
210
3.4469264421893978e-31
220
-6.2151043479076235e-31
230
1
100
AcDbArc
50
-39.09336797782003
51
0
0
ARC
5
571
100
AcDbEntity
8
0
100
AcDbCircle
10
-534.84848449347135
20
613.18508178761942
30
0
40
13.749999999999989
210
-3.7981983987484804e-31
220
-2.3931403701674651e-31
230
1
100
AcDbArc
50
140.9066320221801
51
219.09336797782123
0
ARC
5
572
100
AcDbEntity
8
0
100
AcDbCircle
10
-547.84848449347419
20
602.62276670048414
30
-3.5527136788005009e-14
40
2.9999999999999716
210
1.459685900338365e-46
220
-6.1629758220391547e-33
230
1
100
AcDbArc
50
0
51
39.093367977820002
0
LINE
5
573
100
AcDbEntity
8
0
100
AcDbLine
10
-544.84848449347419
20
602.62276670048414
30
-3.5527136788005009e-14
11
-544.84848449347624
21
363.74739687475591
31
-7.8886090522101181e-30
0
ARC
5
574
100
AcDbEntity
8
0
100
AcDbCircle
10
-547.84848449347078
20
363.74739687475585
30
-3.5527136788005009e-14
40
2.9999999999999667
210
-9.3270866875397799e-32
220
-1.1479692277470822e-31
230
1
100
AcDbArc
50
-39.093367977831377
51
0
0
ARC
5
575
100
AcDbEntity
8
0
100
AcDbCircle
10
-534.84848449346987
20
353.18508178761817
30
-3.5527136788005009e-14
40
13.75
210
1.7099658927156513e-31
220
2.1046102508696369e-31
230
1
100
AcDbArc
50
140.90663202216845
51
219.09336797783325
0
ARC
5
576
100
AcDbEntity
8
0
100
AcDbCircle
10
-547.84848449347055
20
342.6227667004801
30
-3.5527136788005009e-14
40
2.9999999999999716
210
1.459685900338365e-46
220
-6.1629758220391547e-33
230
1
100
AcDbArc
50
0
51
39.093367977832223
0
LINE
5
577
100
AcDbEntity
8
0
100
AcDbLine
10
-544.84848449347055
20
342.62276670048016
30
-3.5527136788005009e-14
11
-544.84848449347044
21
339.93507063751503
31
-1.3835880720477902e-29
0
ARC
5
578
100
AcDbEntity
8
0
100
AcDbCircle
10
-542.84848449347044
20
339.93507063751508
30
0
40
2.0000000000000284
210
-6.9179403602388531e-30
220
-2.6259565817240571e-43
230
1
100
AcDbArc
50
180
51
269.99999999999676
0
LINE
5
579
100
AcDbEntity
8
0
100
AcDbLine
10
-542.84848449347055
20
337.93507063751508
30
5.0846675844727379e-44
11
-448.24175586378027
21
337.93507063751508
31
-1.2621774483536189e-28
0
ARC
5
580
100
AcDbEntity
8
0
100
AcDbCircle
10
-448.24175586378027
20
339.93507063751508
30
0
40
2.0000000000000284
210
1.7583363055779229e-32
220
-6.3108872417680048e-29
230
1
100
AcDbArc
50
270
51
344.7279844368386
0
ARC
5
581
100
AcDbEntity
8
0
100
AcDbCircle
10
-444.38301112607525
20
338.88146300218119
30
0
40
2.0000000000000284
210
-7.8500904533224241e-31
220
9.8607613152624932e-32
230
1
100
AcDbArc
50
90
51
164.72798443684016
0
LINE
5
582
100
AcDbEntity
8
0
100
AcDbLine
10
-444.38301112607525
20
340.88146300218119
30
-1.9721522630525267e-31
11
-444.36877251757272
21
340.88146300218125
31
2.6304618465513332e-49
0
LINE
5
583
100
AcDbEntity
8
0
100
AcDbLine
10
-444.36877251757272
20
340.8814750459469
30
0
11
-358.64878018923372
21
340.8814750459469
31
5.0933773157349921e-47
0
LINE
5
584
100
AcDbEntity
8
0
100
AcDbLine
10
-358.64878018923378
20
340.88146300218119
30
0
11
-315.1487801892315
21
340.88146300218119
31
3.7290413235133222e-47
0
ARC
5
585
100
AcDbEntity
8
0
100
AcDbCircle
10
-315.14878018923156
20
338.88146300218119
30
-3.5527136788005009e-14
40
1.9999999999999023
210
-1.7199501139798535e-14
220
-4.4408920984982825e-15
230
1
100
AcDbArc
50
14.477512185920377
51
89.99999999999838
0
ENDSEC
0
SECTION
2
OBJECTS
0
DICTIONARY
5
C
100
AcDbDictionary
3
ACAD_GROUP
350
D
3
ACAD_MLINESTYLE
350
17
0
DICTIONARY
5
D
100
AcDbDictionary
0
DICTIONARY
5
1A
330
C
100
AcDbDictionary
0
DICTIONARY
5
17
100
AcDbDictionary
0
ENDSEC
0
EOF
