0
SECTION
2
HEADER
9
$INSUNITS
70
4
9
$ACADVER
1
AC1014
9
$HANDSEED
5
FFFF
0
ENDSEC
0
SECTION
2
TABLES
0
TABLE
2
VPORT
5
8
100
AcDbSymbolTable
0
ENDTAB
0
TABLE
2
LTYPE
5
5
100
AcDbSymbolTable
0
LTYPE
5
14
100
AcDbSymbolTableRecord
100
AcDbLinetypeTableRecord
2
BYBLOCK
70
0
0
LTYPE
5
15
100
AcDbSymbolTableRecord
100
AcDbLinetypeTableRecord
2
BYLAYER
70
0
0
ENDTAB
0
TABLE
2
LAYER
5
2
100
AcDbSymbolTable
70
2
0
LAYER
5
50
100
AcDbSymbolTableRecord
100
AcDbLayerTableRecord
2
0
70
0
6
CONTINUOUS
0
ENDTAB
0
TABLE
2
STYLE
5
3
100
AcDbSymbolTable
70
1
0
STYLE
5
11
100
AcDbSymbolTableRecord
100
AcDbTextStyleTableRecord
2
STANDARD
70
0
0
ENDTAB
0
TABLE
2
VIEW
5
6
100
AcDbSymbolTable
70
0
0
ENDTAB
0
TABLE
2
UCS
5
7
100
AcDbSymbolTable
70
0
0
ENDTAB
0
TABLE
2
APPID
5
9
100
AcDbSymbolTable
70
2
0
APPID
5
12
100
AcDbSymbolTableRecord
100
AcDbRegAppTableRecord
2
ACAD
70
0
0
ENDTAB
0
TABLE
2
DIMSTYLE
5
A
100
AcDbSymbolTable
70
1
0
ENDTAB
0
TABLE
2
BLOCK_RECORD
5
1
100
AcDbSymbolTable
70
1
0
BLOCK_RECORD
5
1F
100
AcDbSymbolTableRecord
100
AcDbBlockTableRecord
2
*MODEL_SPACE
0
BLOCK_RECORD
5
1B
100
AcDbSymbolTableRecord
100
AcDbBlockTableRecord
2
*PAPER_SPACE
0
ENDTAB
0
ENDSEC
0
SECTION
2
BLOCKS
0
BLOCK
5
20
100
AcDbEntity
100
AcDbBlockBegin
2
*MODEL_SPACE
0
ENDBLK
5
21
100
AcDbEntity
100
AcDbBlockEnd
0
BLOCK
5
1C
100
AcDbEntity
100
AcDbBlockBegin
2
*PAPER_SPACE
0
ENDBLK
5
1D
100
AcDbEntity
100
AcDbBlockEnd
0
ENDSEC
0
SECTION
2
ENTITIES
0
LWPOLYLINE
5
100
100
AcDbEntity
8
0
100
AcDbPolyline
90
46
70
1
43
0.0
10
133.55001490006305
20
148.46442467692265
10
66.550014900063132
20
148.46442153303582
42
0.41421356237310153
10
64.550014993910466
20
146.46442143918853
10
64.550017246247293
20
98.464421181108165
42
-0.41421357611672355
10
62.5500172462473
20
96.464421087260803
10
51.550017246247315
20
96.464421087260803
42
-0.41421354862946663
10
49.550017246247307
20
98.464420993413441
10
49.55001499391058
20
146.46442073533328
42
0.41421356237309631
10
47.550014900063218
20
148.4644206414859
10
4.5500037499568968
20
148.46441862376702
42
0.41421356237309276
10
2.5500038438042623
20
146.4644185299195
10
2.550008283099205
20
51.857689900229445
42
0.34199871311968522
10
4.0500083739667456
20
49.921198297511076
42
-0.34199871311968394
10
5.5500084648343107
20
47.984706694792806
10
5.5500104121666203
20
6.4847066947907628
42
0.4142135623730937
10
7.5500105060139582
20
4.4847067886381096
10
29.55001050601404
20
4.4847078209588842
42
0.41421356237309404
10
31.550010412166685
20
6.4847079148061235
10
31.550010036777326
20
14.48470791480422
42
-0.41421356237309437
10
33.550009942929982
20
16.484708008651555
10
39.550009942930032
20
16.484708290193584
42
-0.4142135623730947
10
41.550010036777387
20
14.484708384040928
10
41.550010600799894
20
2.4647086186640221
42
0.41421356924499103
10
43.550010741571498
20
0.46470871251138135
10
327.55002184427832
20
0.46472370128380985
10
377.55002184427974
20
0.46473104826156963
42
0.4142135623730942
10
379.55002175043239
20
2.4647311421090814
42
-0.41421356237324297
10
381.55002165658505
20
4.4647312359575695
10
455.55002165658368
20
4.4647347083091118
42
0.41421356237307327
10
457.55002156273633
20
6.4647348021563902
10
457.55001960552579
20
48.175252884799932
42
-0.34199871315382585
10
459.05001951489567
20
50.111744628350365
42
0.34199871315385499
10
460.55001942426554
20
52.048236371900813
10
460.55001499391085
20
146.46444002096723
42
0.41421356237309503
10
458.55001490006345
20
148.46443992711988
10
235.55001490006288
20
148.46442946313852
42
0.41421356237308982
10
233.55001499391025
20
146.464429369291
10
233.55001701162814
20
103.46442936985619
42
-0.41421356237309503
10
231.5500171054754
20
101.46442927600886
10
225.55001710547629
20
101.46442899446683
42
-0.41421356237313928
10
223.55001701162894
20
103.46442890061974
10
223.55001691778148
20
105.4644289006182
42
0.41421356237308982
10
221.55001682393433
20
107.46442880677085
10
137.55001682393353
20
107.46442486518232
42
-0.41421356237313406
10
135.55001673008621
20
109.46442477133525
10
135.55001499391042
20
146.46442477077011
42
0.41421356237309764
0
CIRCLE
5
101
100
AcDbEntity
8
0
100
AcDbCircle
10
419.103599761792
20
138.08502179600663
30
0
40
1.7000000000000168
210
-1.2325951644078294e-32
220
-5.7837888970794471e-40
230
1
0
CIRCLE
5
102
100
AcDbEntity
8
0
100
AcDbCircle
10
277.5500153692991
20
138.46443143393566
30
0
40
2.6999999999999607
210
1.2325951644078299e-32
220
5.7837889022111528e-40
230
1
0
CIRCLE
5
103
100
AcDbEntity
8
0
100
AcDbCircle
10
13.550004219194198
20
138.46441904608125
30
0
40
2.7000000000000091
210
0
220
-0
230
1
0
LWPOLYLINE
5
104
100
AcDbEntity
8
0
100
AcDbPolyline
90
6
70
1
43
0.0
10
412.56250000000017
20
134.88949999999994
10
347.01145465087905
20
134.88949999999997
10
314.0359093017579
20
74.977249999999955
10
346.89715930175794
20
14.817340698242107
10
412.54346046447773
20
14.855431396484271
10
445.55711104583747
20
74.862931396484299
0
LWPOLYLINE
5
105
100
AcDbEntity
8
0
100
AcDbPolyline
90
4
70
1
43
0.0
10
416.10580116271984
20
74.005704650878812
10
379.81554534912118
20
99.037397674560466
10
379.81554534912118
20
117.78260232543941
10
416.06769302368178
20
92.636602325439398
0
LWPOLYLINE
5
106
100
AcDbEntity
8
0
100
AcDbPolyline
90
4
70
1
43
0.0
10
416.10580116271984
20
40.26815930175772
10
343.44910232543953
20
90.76970465087885
10
343.44910232543953
20
109.24820465087888
10
416.08675000000011
20
58.956204650878831
0
LWPOLYLINE
5
107
100
AcDbEntity
8
0
100
AcDbPolyline
90
4
70
1
43
0.0
10
380.0822500000001
20
50.364659301757762
10
380.0822500000001
20
31.505159301757754
10
343.44910232543953
20
57.013113952636672
10
343.44910232543953
20
75.701159301757755
0
LWPOLYLINE
5
108
100
AcDbEntity
8
0
100
AcDbPolyline
90
6
70
1
43
0.0
10
318.59773963152196
20
74.969944762164161
10
349.26932023246002
20
18.818717797456898
10
410.1779497475797
20
18.854059502718464
10
440.99219444666687
20
74.863793543597438
10
410.19672443892438
20
130.88949999999997
10
349.37571624979182
20
130.88949999999997
0
ENDSEC
0
SECTION
2
OBJECTS
0
DICTIONARY
5
C
100
AcDbDictionary
3
ACAD_GROUP
350
D
3
ACAD_MLINESTYLE
350
17
0
DICTIONARY
5
D
100
AcDbDictionary
0
DICTIONARY
5
1A
330
C
100
AcDbDictionary
0
DICTIONARY
5
17
100
AcDbDictionary
0
ENDSEC
0
EOF
